<?xml version="1.0" encoding="utf-8"?>
<!-- Generator: Adobe Illustrator 20.0.0, SVG Export Plug-In . SVG Version: 6.00 Build 0)  -->
<svg version="1.1" id="Layer_1" xmlns="http://www.w3.org/2000/svg" xmlns:xlink="http://www.w3.org/1999/xlink" x="0px" y="0px"
	 viewBox="0 0 116.9 34.9" style="enable-background:new 0 0 116.9 34.9;" xml:space="preserve">
<style type="text/css">
	.st0{clip-path:url(#SVGID_2_);fill:#FFFFFF;}
	.st1{clip-path:url(#SVGID_2_);fill:#A5A3A3;}
	.st2{fill:#FFFFFF;}
	.st3{clip-path:url(#SVGID_4_);}
</style>
<title>Asset 7</title>
<g>
	<g>
		<defs>
			<rect id="SVGID_1_" x="0.4" y="0.3" width="116.1" height="34.4"/>
		</defs>
		<clipPath id="SVGID_2_">
			<use xlink:href="#SVGID_1_"  style="overflow:visible;"/>
		</clipPath>
		<path class="st0" d="M115.7,30.6c0,1.8-1.5,3.3-3.3,3.3H4.5c-1.8,0-3.3-1.5-3.3-3.3V4.3C1.2,2.5,2.6,1,4.5,1h108
			c1.8,0,3.3,1.5,3.3,3.3L115.7,30.6"/>
		<path class="st1" d="M112.4,34.7H4.5c-2.2,0-4.1-1.8-4.1-4.1V4.3c0-2.2,1.8-4.1,4.1-4.1h108c2.2,0,4.1,1.8,4.1,4.1v26.3
			C116.5,32.8,114.7,34.7,112.4,34.7"/>
	</g>
	<path class="st2" d="M26.3,17.3c0-2.8,2.3-4.1,2.4-4.2c-1.3-1.9-3.3-2.2-4-2.2c-1.7-0.2-3.3,1-4.2,1c-0.9,0-2.2-1-3.6-1
		c-1.8,0-3.6,1.1-4.5,2.8c-2,3.4-0.5,8.3,1.4,11.1c0.9,1.3,2,2.8,3.5,2.8c1.4-0.1,1.9-0.9,3.6-0.9c1.7,0,2.2,0.9,3.6,0.9
		c1.5,0,2.4-1.3,3.3-2.7c1.1-1.5,1.5-3,1.5-3.1C29.2,21.7,26.3,20.6,26.3,17.3"/>
	<path class="st2" d="M23.6,9.1c0.8-0.9,1.3-2.2,1.1-3.5c-1.1,0-2.4,0.8-3.2,1.7c-0.7,0.8-1.3,2.1-1.2,3.4
		C21.5,10.8,22.8,10,23.6,9.1"/>
	<g>
		<defs>
			<path id="SVGID_3_" d="M116.5,4.3v26.3c0,0.3,0,0.6-0.1,0.9c0.1-0.3,0.1-0.6,0.1-0.9L116.5,4.3c0-2.2-1.8-4.1-4.1-4.1
				C114.7,0.3,116.5,2.1,116.5,4.3"/>
		</defs>
		<clipPath id="SVGID_4_">
			<use xlink:href="#SVGID_3_"  style="overflow:visible;"/>
		</clipPath>
		<g class="st3">
			<defs>
				<rect id="SVGID_5_" x="111.9" y="-0.3" width="5.4" height="32.3"/>
			</defs>
			<clipPath id="SVGID_6_">
				<use xlink:href="#SVGID_5_"  style="overflow:visible;"/>
			</clipPath>
			<g style="clip-path:url(#SVGID_6_);">
				
					<image style="overflow:visible;" width="13" height="78" xlink:href="219194D5E2E9A08.jpg"  transform="matrix(0.4146 0 0 0.4146 111.8987 -0.25)">
				</image>
			</g>
		</g>
	</g>
	<path class="st2" d="M46.6,27.4h-2L43.5,24h-3.7l-1,3.4h-1.9l3.7-11.5h2.3L46.6,27.4z M43.2,22.6l-1-3c-0.1-0.3-0.3-1-0.6-2.2h0
		c-0.1,0.5-0.3,1.2-0.5,2.2l-1,3H43.2z"/>
	<path class="st2" d="M56,23.1c0,1.4-0.4,2.5-1.1,3.3c-0.7,0.7-1.5,1.1-2.5,1.1c-1.1,0-1.9-0.4-2.4-1.2v4.3h-1.8v-8.9
		c0-0.9,0-1.8-0.1-2.7h1.6l0.1,1.3h0c0.6-1,1.5-1.5,2.8-1.5c1,0,1.8,0.4,2.4,1.2C55.7,20.9,56,21.9,56,23.1 M54.2,23.2
		c0-0.8-0.2-1.5-0.5-2c-0.4-0.5-0.9-0.8-1.6-0.8c-0.5,0-0.9,0.2-1.2,0.5c-0.4,0.3-0.6,0.7-0.7,1.2C50,22.3,50,22.4,50,22.6V24
		c0,0.6,0.2,1.1,0.6,1.5c0.4,0.4,0.8,0.6,1.4,0.6c0.7,0,1.2-0.3,1.6-0.8C54,24.8,54.2,24.1,54.2,23.2"/>
	<path class="st2" d="M65.5,23.1c0,1.4-0.4,2.5-1.1,3.3c-0.7,0.7-1.5,1.1-2.5,1.1c-1.1,0-1.9-0.4-2.4-1.2v4.3h-1.8v-8.9
		c0-0.9,0-1.8-0.1-2.7h1.6l0.1,1.3h0c0.6-1,1.5-1.5,2.8-1.5c1,0,1.8,0.4,2.4,1.2C65.2,20.9,65.5,21.9,65.5,23.1 M63.7,23.2
		c0-0.8-0.2-1.5-0.5-2c-0.4-0.5-0.9-0.8-1.6-0.8c-0.5,0-0.9,0.2-1.2,0.5c-0.4,0.3-0.6,0.7-0.7,1.2c-0.1,0.2-0.1,0.4-0.1,0.6V24
		c0,0.6,0.2,1.1,0.6,1.5c0.4,0.4,0.8,0.6,1.4,0.6c0.7,0,1.2-0.3,1.6-0.8C63.5,24.8,63.7,24.1,63.7,23.2"/>
	<path class="st2" d="M76.1,24.1c0,1-0.3,1.8-1,2.4c-0.7,0.7-1.8,1-3.1,1c-1.2,0-2.2-0.2-3-0.7l0.4-1.5c0.8,0.5,1.7,0.7,2.7,0.7
		c0.7,0,1.2-0.2,1.6-0.5c0.4-0.3,0.6-0.7,0.6-1.2c0-0.5-0.2-0.9-0.5-1.2c-0.3-0.3-0.8-0.6-1.6-0.9c-2-0.7-3-1.8-3-3.3
		c0-0.9,0.4-1.7,1.1-2.3c0.7-0.6,1.6-0.9,2.8-0.9c1,0,1.9,0.2,2.6,0.5l-0.5,1.5c-0.6-0.4-1.4-0.5-2.2-0.5c-0.6,0-1.2,0.2-1.5,0.5
		c-0.3,0.3-0.5,0.6-0.5,1c0,0.5,0.2,0.8,0.5,1.1c0.3,0.3,0.9,0.6,1.7,0.9c1,0.4,1.7,0.9,2.2,1.4C75.9,22.7,76.1,23.4,76.1,24.1"/>
	<path class="st2" d="M82.2,20.5h-2v4c0,1,0.4,1.5,1.1,1.5c0.3,0,0.6,0,0.8-0.1l0.1,1.4c-0.4,0.1-0.8,0.2-1.4,0.2
		c-0.7,0-1.3-0.2-1.7-0.7c-0.4-0.4-0.6-1.2-0.6-2.2v-4.2h-1.2v-1.4h1.2v-1.5l1.8-0.5v2.1h2V20.5z"/>
	<path class="st2" d="M91.3,23.2c0,1.3-0.4,2.3-1.1,3.1c-0.8,0.8-1.8,1.3-3,1.3c-1.2,0-2.2-0.4-2.9-1.2c-0.7-0.8-1.1-1.8-1.1-3
		c0-1.3,0.4-2.3,1.1-3.1c0.7-0.8,1.7-1.2,3-1.2c1.2,0,2.2,0.4,2.9,1.2C91,20.9,91.3,21.9,91.3,23.2 M89.4,23.2
		c0-0.8-0.2-1.4-0.5-1.9c-0.4-0.7-0.9-1-1.6-1c-0.7,0-1.3,0.3-1.7,1c-0.3,0.5-0.5,1.2-0.5,2c0,0.8,0.2,1.4,0.5,1.9
		c0.4,0.7,1,1,1.7,1c0.7,0,1.3-0.3,1.7-1C89.3,24.6,89.4,24,89.4,23.2"/>
	<path class="st2" d="M97.3,20.7c-0.2,0-0.4,0-0.6,0c-0.6,0-1.1,0.2-1.5,0.7c-0.3,0.4-0.5,1-0.5,1.6v4.3h-1.8v-5.7
		c0-1,0-1.8-0.1-2.6h1.6l0.1,1.6h0.1c0.2-0.5,0.5-1,0.9-1.3c0.4-0.3,0.9-0.4,1.3-0.4c0.2,0,0.3,0,0.5,0L97.3,20.7z"/>
	<path class="st2" d="M105.5,22.8c0,0.3,0,0.6-0.1,0.8h-5.5c0,0.8,0.3,1.4,0.8,1.9c0.5,0.4,1.1,0.6,1.8,0.6c0.8,0,1.6-0.1,2.2-0.4
		L105,27c-0.8,0.3-1.7,0.5-2.8,0.5c-1.3,0-2.3-0.4-3-1.1c-0.7-0.8-1.1-1.8-1.1-3c0-1.2,0.3-2.3,1-3.1c0.7-0.9,1.7-1.3,2.9-1.3
		c1.2,0,2.1,0.4,2.7,1.3C105.3,20.9,105.5,21.8,105.5,22.8 M103.8,22.4c0-0.5-0.1-1-0.4-1.4c-0.3-0.5-0.8-0.8-1.5-0.8
		c-0.6,0-1.1,0.2-1.5,0.7c-0.3,0.4-0.5,0.9-0.5,1.4L103.8,22.4z"/>
	<path class="st2" d="M42.6,8.9c0,1-0.3,1.8-0.9,2.3c-0.6,0.5-1.4,0.7-2.4,0.7c-0.5,0-1,0-1.3-0.1V6.3c0.5-0.1,1-0.1,1.6-0.1
		c1,0,1.7,0.2,2.2,0.6C42.3,7.3,42.6,8,42.6,8.9 M41.6,8.9c0-0.7-0.2-1.2-0.5-1.5c-0.3-0.4-0.9-0.5-1.5-0.5c-0.3,0-0.5,0-0.7,0.1
		v4.2c0.1,0,0.3,0,0.6,0c0.7,0,1.2-0.2,1.6-0.6C41.5,10.2,41.6,9.6,41.6,8.9"/>
	<path class="st2" d="M47.4,9.7c0,0.6-0.2,1.1-0.5,1.5c-0.4,0.4-0.9,0.6-1.5,0.6c-0.6,0-1.1-0.2-1.4-0.6c-0.4-0.4-0.5-0.9-0.5-1.5
		c0-0.6,0.2-1.1,0.5-1.5c0.4-0.4,0.9-0.6,1.5-0.6c0.6,0,1.1,0.2,1.4,0.6C47.2,8.6,47.4,9.1,47.4,9.7 M46.4,9.8c0-0.4-0.1-0.7-0.2-1
		c-0.2-0.3-0.5-0.5-0.8-0.5c-0.4,0-0.6,0.2-0.8,0.5c-0.2,0.3-0.2,0.6-0.2,1c0,0.4,0.1,0.7,0.2,1c0.2,0.3,0.5,0.5,0.8,0.5
		c0.3,0,0.6-0.2,0.8-0.5C46.4,10.5,46.4,10.1,46.4,9.8"/>
	<path class="st2" d="M53.9,7.8l-1.3,4.1h-0.8L51.3,10c-0.1-0.4-0.2-0.9-0.3-1.3h0c-0.1,0.4-0.2,0.9-0.3,1.3L50,11.8h-0.8L48,7.8
		h0.9l0.5,1.9c0.1,0.5,0.2,0.9,0.3,1.3h0c0.1-0.3,0.2-0.8,0.3-1.3l0.6-1.9h0.7l0.6,1.9c0.1,0.5,0.2,0.9,0.3,1.3h0
		c0.1-0.4,0.2-0.9,0.3-1.3L53,7.8L53.9,7.8L53.9,7.8z"/>
	<path class="st2" d="M58.3,11.8h-0.9V9.5c0-0.7-0.3-1.1-0.8-1.1c-0.3,0-0.5,0.1-0.7,0.3c-0.2,0.2-0.2,0.4-0.2,0.7v2.4h-0.9V8.9
		c0-0.4,0-0.7,0-1.2h0.8l0,0.6h0c0.1-0.2,0.3-0.4,0.5-0.5c0.2-0.2,0.5-0.2,0.8-0.2c0.4,0,0.7,0.1,0.9,0.4c0.3,0.3,0.5,0.7,0.5,1.3
		V11.8z"/>
	<rect x="59.6" y="5.9" class="st2" width="0.9" height="5.9"/>
	<path class="st2" d="M65.6,9.7c0,0.6-0.2,1.1-0.5,1.5c-0.4,0.4-0.9,0.6-1.5,0.6c-0.6,0-1.1-0.2-1.4-0.6c-0.4-0.4-0.5-0.9-0.5-1.5
		c0-0.6,0.2-1.1,0.5-1.5c0.4-0.4,0.9-0.6,1.5-0.6c0.6,0,1.1,0.2,1.4,0.6C65.4,8.6,65.6,9.1,65.6,9.7 M64.6,9.8c0-0.4-0.1-0.7-0.2-1
		c-0.2-0.3-0.5-0.5-0.8-0.5c-0.4,0-0.6,0.2-0.8,0.5c-0.2,0.3-0.2,0.6-0.2,1c0,0.4,0.1,0.7,0.2,1c0.2,0.3,0.5,0.5,0.8,0.5
		c0.3,0,0.6-0.2,0.8-0.5C64.6,10.5,64.6,10.1,64.6,9.8"/>
	<path class="st2" d="M69.7,11.8h-0.8l-0.1-0.5h0c-0.3,0.4-0.7,0.6-1.2,0.6c-0.4,0-0.7-0.1-0.9-0.4c-0.2-0.2-0.3-0.5-0.3-0.8
		c0-0.5,0.2-0.9,0.6-1.1c0.4-0.3,1-0.4,1.7-0.4V9.1c0-0.5-0.3-0.8-0.8-0.8c-0.4,0-0.8,0.1-1.1,0.3L66.6,8C67,7.8,67.5,7.7,68,7.7
		c1.1,0,1.6,0.6,1.6,1.7v1.5C69.6,11.2,69.7,11.6,69.7,11.8 M68.8,10.4V9.8c-1,0-1.5,0.3-1.5,0.8c0,0.2,0.1,0.4,0.2,0.5
		c0.1,0.1,0.3,0.2,0.4,0.2c0.2,0,0.4-0.1,0.6-0.2c0.2-0.1,0.3-0.3,0.3-0.5L68.8,10.4z"/>
	<path class="st2" d="M74.6,11.8h-0.8l0-0.7h0c-0.3,0.5-0.7,0.7-1.3,0.7c-0.5,0-0.9-0.2-1.2-0.6c-0.3-0.4-0.5-0.9-0.5-1.5
		c0-0.7,0.2-1.2,0.5-1.6c0.3-0.4,0.8-0.6,1.3-0.6c0.6,0,0.9,0.2,1.2,0.6V5.9h0.9v4.8C74.5,11.1,74.5,11.5,74.6,11.8 M73.6,10.1V9.4
		c0-0.1,0-0.2,0-0.3c-0.1-0.2-0.2-0.4-0.3-0.5c-0.2-0.1-0.4-0.2-0.6-0.2c-0.3,0-0.6,0.1-0.8,0.4c-0.2,0.3-0.3,0.6-0.3,1
		c0,0.4,0.1,0.7,0.3,1c0.2,0.3,0.5,0.4,0.8,0.4c0.3,0,0.5-0.1,0.7-0.3C73.5,10.6,73.6,10.4,73.6,10.1"/>
	<path class="st2" d="M81.7,9.7c0,0.6-0.2,1.1-0.5,1.5c-0.4,0.4-0.9,0.6-1.5,0.6c-0.6,0-1.1-0.2-1.4-0.6c-0.4-0.4-0.5-0.9-0.5-1.5
		c0-0.6,0.2-1.1,0.5-1.5c0.4-0.4,0.9-0.6,1.5-0.6c0.6,0,1.1,0.2,1.4,0.6C81.6,8.6,81.7,9.1,81.7,9.7 M80.8,9.8c0-0.4-0.1-0.7-0.2-1
		c-0.2-0.3-0.5-0.5-0.8-0.5c-0.4,0-0.6,0.2-0.8,0.5c-0.2,0.3-0.2,0.6-0.2,1c0,0.4,0.1,0.7,0.2,1c0.2,0.3,0.5,0.5,0.8,0.5
		c0.3,0,0.6-0.2,0.8-0.5C80.7,10.5,80.8,10.1,80.8,9.8"/>
	<path class="st2" d="M86.3,11.8h-0.9V9.5c0-0.7-0.3-1.1-0.8-1.1c-0.3,0-0.5,0.1-0.7,0.3c-0.2,0.2-0.2,0.4-0.2,0.7v2.4h-0.9V8.9
		c0-0.4,0-0.7,0-1.2h0.8l0,0.6h0c0.1-0.2,0.3-0.4,0.5-0.5c0.2-0.2,0.5-0.2,0.8-0.2c0.4,0,0.7,0.1,0.9,0.4c0.3,0.3,0.5,0.7,0.5,1.3
		V11.8z"/>
	<path class="st2" d="M91.9,8.4h-1v2c0,0.5,0.2,0.8,0.5,0.8c0.2,0,0.3,0,0.4,0l0,0.7c-0.2,0.1-0.4,0.1-0.7,0.1
		c-0.4,0-0.6-0.1-0.8-0.3C90.1,11.4,90,11,90,10.5v-2h-0.6V7.8H90V7l0.9-0.3v1h1L91.9,8.4z"/>
	<path class="st2" d="M96.4,11.8h-0.9V9.5c0-0.7-0.3-1.1-0.8-1.1c-0.4,0-0.7,0.2-0.9,0.6c0,0.1,0,0.2,0,0.3v2.4h-0.9V5.9h0.9v2.4h0
		c0.3-0.4,0.7-0.7,1.2-0.7c0.4,0,0.7,0.1,0.9,0.4c0.3,0.3,0.5,0.8,0.5,1.4V11.8z"/>
	<path class="st2" d="M101.1,9.6c0,0.2,0,0.3,0,0.4h-2.7c0,0.4,0.1,0.7,0.4,0.9c0.2,0.2,0.5,0.3,0.9,0.3c0.4,0,0.8-0.1,1.1-0.2
		l0.1,0.6c-0.4,0.2-0.8,0.2-1.4,0.2c-0.6,0-1.1-0.2-1.5-0.6c-0.4-0.4-0.5-0.9-0.5-1.5c0-0.6,0.2-1.1,0.5-1.5
		c0.3-0.4,0.8-0.7,1.4-0.7c0.6,0,1,0.2,1.3,0.7C100.9,8.7,101.1,9.1,101.1,9.6 M100.2,9.4c0-0.3-0.1-0.5-0.2-0.7
		c-0.2-0.2-0.4-0.4-0.7-0.4c-0.3,0-0.5,0.1-0.7,0.4c-0.1,0.2-0.2,0.4-0.3,0.7H100.2z"/>
</g>
</svg>
