<svg width="16" height="16" viewBox="0 0 16 16" fill="none" xmlns="http://www.w3.org/2000/svg">
<g clip-path="url(#clip0_520_3058)">
<path d="M10.4067 8.20905C10.6938 8.45054 11.0614 8.58362 11.4419 8.58377C11.5353 8.58377 11.6248 8.54789 11.6909 8.48403C11.7569 8.42016 11.794 8.33354 11.794 8.24322C11.794 8.1529 11.7569 8.06627 11.6909 8.00241C11.6248 7.93854 11.5353 7.90266 11.4419 7.90266C11.2641 7.90161 11.0908 7.84876 10.9446 7.75102C10.7984 7.65327 10.686 7.51517 10.6222 7.35472C11.0912 7.26266 11.5131 7.0168 11.8164 6.6587C12.1197 6.30059 12.2859 5.85218 12.2869 5.38925C12.288 5.34388 12.2796 5.29876 12.2623 5.25656C12.2451 5.21435 12.2193 5.17591 12.1865 5.14347C12.1536 5.11104 12.1145 5.08527 12.0712 5.06767C12.028 5.05008 11.9815 5.04102 11.9346 5.04102C11.8877 5.04102 11.8412 5.05008 11.7979 5.06767C11.7547 5.08527 11.7155 5.11104 11.6827 5.14347C11.6499 5.17591 11.6241 5.21435 11.6068 5.25656C11.5896 5.29876 11.5812 5.34388 11.5822 5.38925C11.5821 5.65224 11.501 5.90924 11.3493 6.12751C11.1977 6.34578 10.9822 6.51543 10.7305 6.61484C10.4787 6.71425 10.2021 6.73892 9.93579 6.6857C9.6695 6.63249 9.42562 6.50381 9.23522 6.31605C9.20285 6.28409 9.1643 6.2586 9.12175 6.24105C9.0792 6.22351 9.03349 6.21423 8.98724 6.21377C8.94099 6.2133 8.89509 6.22166 8.85217 6.23834C8.80926 6.25503 8.77016 6.27974 8.73711 6.31104C8.70407 6.34234 8.67772 6.37964 8.65958 6.42079C8.64143 6.46194 8.63185 6.50614 8.63137 6.55088C8.63089 6.59561 8.63952 6.64 8.65678 6.68151C8.67403 6.72302 8.69957 6.76083 8.73194 6.79279C9.04375 7.10351 9.45248 7.30653 9.89525 7.37061C9.96704 7.69642 10.1466 7.99074 10.4067 8.20905Z" fill="#616161"/>
<path d="M11.9347 10.7564C11.888 10.7564 11.8406 10.7581 11.7929 10.7613C11.7398 9.7007 10.8312 8.85352 9.72179 8.85352C9.62965 8.85544 9.54196 8.89219 9.47751 8.95589C9.41305 9.01959 9.37695 9.10518 9.37695 9.19431C9.37695 9.28344 9.41305 9.36903 9.47751 9.43273C9.54196 9.49643 9.62965 9.53318 9.72179 9.53511C10.0848 9.53557 10.4327 9.67527 10.6894 9.92355C10.946 10.1718 11.0903 10.5084 11.0906 10.8595C11.0906 10.8835 11.0906 10.9072 11.0887 10.9318C10.7235 11.09 10.4134 11.3469 10.1956 11.6716C9.9778 11.9963 9.86165 12.3749 9.86112 12.7619C9.86311 12.851 9.90111 12.9358 9.96697 12.9982C10.0328 13.0605 10.1213 13.0954 10.2135 13.0954C10.3056 13.0954 10.3941 13.0605 10.46 12.9982C10.5259 12.9358 10.5639 12.851 10.5658 12.7619C10.5662 12.4108 10.7105 12.0743 10.9671 11.826C11.2238 11.5777 11.5717 11.4381 11.9347 11.4376C11.9816 11.4386 12.0282 11.4305 12.0718 11.4139C12.1155 11.3972 12.1552 11.3722 12.1887 11.3405C12.2222 11.3088 12.2489 11.2709 12.267 11.2291C12.2852 11.1873 12.2946 11.1424 12.2946 11.097C12.2946 11.0516 12.2852 11.0067 12.267 10.9649C12.2489 10.9231 12.2222 10.8852 12.1887 10.8535C12.1552 10.8218 12.1155 10.7968 12.0718 10.7802C12.0282 10.7635 11.9816 10.7554 11.9347 10.7564Z" fill="#616161"/>
<path d="M14.5011 7.29084C14.5027 6.77912 14.3002 6.28651 13.9359 5.91543C14.0079 5.66028 14.027 5.39388 13.992 5.13157C13.9571 4.86926 13.8688 4.61624 13.7323 4.38708C13.5958 4.15792 13.4137 3.95715 13.1966 3.79635C12.9795 3.63555 12.7316 3.5179 12.4673 3.45017C12.5778 3.09273 12.5496 2.70856 12.3881 2.36979C12.2265 2.03102 11.9426 1.76094 11.5897 1.61024C10.7056 0.932784 9.73303 0.529615 8.98493 0.529615C8.79993 0.530008 8.61701 0.567428 8.44768 0.63952C8.27836 0.711613 8.12629 0.816818 8.00105 0.948516C7.87602 0.816752 7.72411 0.711474 7.55491 0.639321C7.38572 0.567168 7.2029 0.529706 7.01798 0.529297C6.26906 0.529297 5.29618 0.933261 4.41269 1.60992C4.05967 1.76045 3.77565 2.03051 3.61402 2.36933C3.45238 2.70814 3.42427 3.09239 3.53495 3.44985C3.09301 3.56366 2.70228 3.81538 2.42339 4.16594C2.14451 4.5165 1.99307 4.9463 1.99258 5.38862C1.99249 5.56676 2.01742 5.74409 2.06668 5.91575C1.75065 6.23889 1.55499 6.65468 1.51063 7.0974C1.46626 7.54012 1.57572 7.98452 1.8217 8.36035C1.67492 8.58502 1.5758 8.83568 1.53012 9.09775C1.48444 9.35982 1.49311 9.62806 1.55561 9.88685C1.61812 10.1457 1.73322 10.3898 1.89422 10.6052C2.05521 10.8206 2.25889 11.0028 2.49339 11.1414C2.48781 11.2049 2.48485 11.2696 2.48485 11.3335C2.4854 11.8016 2.63707 12.2578 2.91868 12.6384C3.20029 13.0191 3.59778 13.3052 4.05565 13.4568C4.26189 13.7831 4.55099 14.0529 4.89548 14.2406C5.23996 14.4284 5.62836 14.5277 6.02376 14.5293C6.41916 14.5309 6.80841 14.4347 7.1545 14.2497C7.50058 14.0648 7.792 13.7973 8.00105 13.4727C8.18664 13.7597 8.43658 14.0027 8.73239 14.1837C8.99204 14.3425 9.28177 14.4497 9.58471 14.4992C9.88765 14.5486 10.1977 14.5392 10.4969 14.4715C10.796 14.4039 11.0783 14.2793 11.3271 14.1051C11.576 13.9309 11.7865 13.7105 11.9464 13.4568C12.4042 13.3054 12.8016 13.0196 13.0833 12.6393C13.365 12.2589 13.5168 11.8029 13.5176 11.3351C13.5176 11.2728 13.5146 11.208 13.5089 11.1431C13.7434 11.0046 13.9471 10.8223 14.108 10.6069C14.269 10.3916 14.3841 10.1474 14.4466 9.88854C14.509 9.62973 14.5176 9.36148 14.4719 9.09942C14.4261 8.83736 14.3269 8.58672 14.1801 8.36209C14.3907 8.04203 14.5022 7.67027 14.5011 7.29084ZM12.7805 11.0206C12.8019 11.1239 12.8129 11.2291 12.8133 11.3345C12.8128 11.6777 12.6955 12.0112 12.4794 12.2835C12.2634 12.5558 11.9606 12.7518 11.618 12.8411C11.5711 12.8533 11.5274 12.8747 11.4895 12.9041C11.4517 12.9335 11.4206 12.9702 11.3981 13.0118C11.2737 13.2416 11.092 13.4379 10.8695 13.5827C10.647 13.7276 10.3906 13.8166 10.1236 13.8416C9.85665 13.8666 9.58742 13.8269 9.34028 13.726C9.09315 13.6251 8.8759 13.4663 8.70818 13.2638C8.54045 13.0613 8.42753 12.8216 8.37962 12.5664C8.33172 12.3111 8.35034 12.0483 8.43379 11.8017C8.51725 11.5552 8.66291 11.3326 8.85763 11.1542C9.05234 10.9757 9.28996 10.847 9.54901 10.7797C9.63926 10.7563 9.7162 10.6992 9.76291 10.6209C9.80963 10.5427 9.82228 10.4497 9.7981 10.3624C9.77391 10.2751 9.71487 10.2007 9.63395 10.1555C9.55303 10.1103 9.45687 10.0981 9.36662 10.1215C8.98488 10.2193 8.63577 10.4109 8.35316 10.6777V5.62636C8.35342 5.46443 8.42008 5.3092 8.53852 5.19474C8.65696 5.08028 8.8175 5.01593 8.98493 5.01581C9.03184 5.01679 9.07849 5.0087 9.12212 4.99201C9.16576 4.97532 9.20551 4.95038 9.23905 4.91863C9.27259 4.88689 9.29923 4.84899 9.31742 4.80716C9.33561 4.76532 9.34498 4.7204 9.34498 4.67501C9.34498 4.62963 9.33561 4.5847 9.31742 4.54287C9.29923 4.50103 9.27259 4.46313 9.23905 4.43139C9.20551 4.39965 9.16576 4.3747 9.12212 4.35801C9.07849 4.34133 9.03184 4.33324 8.98493 4.33422C8.76434 4.33364 8.54712 4.38659 8.35316 4.48821V1.82112C8.35347 1.65923 8.42015 1.50407 8.53859 1.38967C8.65703 1.27526 8.81754 1.21097 8.98493 1.21089C9.36186 1.21089 9.82948 1.35105 10.3213 1.60929C9.97608 1.75564 9.69551 2.01529 9.52912 2.34237C9.50292 2.39427 9.4908 2.45176 9.4939 2.50944C9.497 2.56712 9.51523 2.62309 9.54687 2.67207C9.5785 2.72106 9.62251 2.76146 9.67474 2.78946C9.72696 2.81746 9.7857 2.83215 9.84542 2.83214C9.91148 2.83189 9.97616 2.81382 10.0322 2.77996C10.0882 2.74611 10.1333 2.69781 10.1625 2.64049C10.2577 2.45048 10.4227 2.30162 10.6252 2.223C10.8278 2.14439 11.0534 2.14168 11.258 2.21539C11.2731 2.22247 11.2888 2.22847 11.3048 2.23335C11.414 2.27969 11.5123 2.34709 11.5937 2.43141C11.6751 2.51574 11.7379 2.61523 11.7782 2.7238C11.8184 2.83238 11.8354 2.94775 11.8281 3.06289C11.8207 3.17802 11.7891 3.2905 11.7353 3.39344C11.2228 3.44251 10.7475 3.67389 10.4014 4.04271C10.0553 4.41153 9.86314 4.89151 9.86218 5.38958C9.86417 5.47869 9.90217 5.5635 9.96803 5.62584C10.0339 5.68818 10.1224 5.72309 10.2145 5.72309C10.3067 5.72309 10.3952 5.68818 10.4611 5.62584C10.5269 5.5635 10.5649 5.47869 10.5669 5.38958C10.5649 5.21448 10.5989 5.04075 10.6668 4.87843C10.7347 4.71611 10.8352 4.56843 10.9625 4.44394C11.0898 4.31945 11.2414 4.22062 11.4085 4.15317C11.5756 4.08572 11.7548 4.05098 11.9358 4.05098C12.1169 4.05098 12.2961 4.08572 12.4632 4.15317C12.6303 4.22062 12.7819 4.31945 12.9092 4.44394C13.0365 4.56843 13.137 4.71611 13.2049 4.87843C13.2728 5.04075 13.3068 5.21448 13.3048 5.38958C13.3049 5.55974 13.2708 5.7283 13.2044 5.88587C13.1759 5.95269 13.1703 6.02657 13.1884 6.09669C13.2065 6.16681 13.2474 6.22948 13.305 6.27553C13.521 6.44982 13.6762 6.68424 13.7496 6.94689C13.823 7.20954 13.8109 7.48769 13.7151 7.74347C13.6192 7.99926 13.4442 8.22028 13.2139 8.37647C12.9835 8.53265 12.709 8.61641 12.4277 8.61636C12.3343 8.61636 12.2448 8.65224 12.1787 8.71611C12.1127 8.77997 12.0756 8.8666 12.0756 8.95692C12.0756 9.04724 12.1127 9.13386 12.1787 9.19773C12.2448 9.26159 12.3343 9.29747 12.4277 9.29747C12.8792 9.29734 13.3183 9.15454 13.6781 8.89081C13.7574 9.06102 13.7979 9.24571 13.7971 9.43239C13.7967 9.68858 13.7197 9.93918 13.5751 10.1539C13.4306 10.3686 13.2248 10.5381 12.9827 10.6421C12.9093 10.6732 12.8492 10.7278 12.8124 10.7967C12.7756 10.8656 12.7643 10.9446 12.7805 11.0206ZM3.0205 10.6414C2.77842 10.5375 2.57268 10.3679 2.42816 10.1532C2.28364 9.93852 2.20654 9.68793 2.20618 9.43176C2.20538 9.24507 2.246 9.06038 2.3253 8.89017C2.68506 9.15394 3.1241 9.29674 3.57554 9.29684C3.66892 9.29684 3.75848 9.26096 3.82452 9.19709C3.89055 9.13322 3.92765 9.0466 3.92765 8.95628C3.92765 8.86596 3.89055 8.77934 3.82452 8.71547C3.75848 8.6516 3.66892 8.61572 3.57554 8.61572C3.29428 8.61584 3.0198 8.53219 2.78942 8.37614C2.55905 8.22009 2.38394 7.99921 2.2879 7.74353C2.19187 7.48785 2.17956 7.20978 2.25267 6.9471C2.32577 6.68442 2.48073 6.44988 2.69648 6.27537C2.75432 6.22958 2.79542 6.16701 2.8137 6.09691C2.83198 6.02681 2.82649 5.95288 2.79802 5.88603C2.72216 5.70497 2.68866 5.50991 2.69993 5.31485C2.7112 5.11979 2.76696 4.92956 2.86321 4.7578C2.95946 4.58604 3.09382 4.437 3.25664 4.32139C3.41947 4.20577 3.60673 4.12644 3.805 4.08908C4.00327 4.05171 4.20763 4.05725 4.40342 4.10528C4.59922 4.15332 4.7816 4.24266 4.93748 4.36691C5.09336 4.49115 5.21889 4.64722 5.30505 4.82392C5.39121 5.00062 5.43588 5.19357 5.43585 5.38894C5.43784 5.47805 5.47583 5.56286 5.5417 5.6252C5.60756 5.68754 5.69605 5.72245 5.78821 5.72245C5.88036 5.72245 5.96886 5.68754 6.03472 5.6252C6.10058 5.56286 6.13858 5.47805 6.14057 5.38894C6.14057 4.35599 5.3228 3.49133 4.26744 3.3928C4.21385 3.28978 4.1825 3.17729 4.17529 3.06219C4.16807 2.94708 4.18515 2.83175 4.22549 2.72323C4.26582 2.6147 4.32856 2.51525 4.4099 2.43093C4.49123 2.3466 4.58945 2.27916 4.69859 2.23271C4.71468 2.22777 4.73039 2.22172 4.74558 2.2146C4.84334 2.17912 4.94695 2.16109 5.05136 2.16136C5.21633 2.16081 5.37807 2.20549 5.51784 2.29024C5.65761 2.37499 5.76967 2.49633 5.84103 2.64017C5.87035 2.69729 5.91553 2.74538 5.97151 2.77906C6.02749 2.81274 6.09206 2.83068 6.15799 2.83087C6.21737 2.83054 6.2757 2.81567 6.32755 2.78766C6.37939 2.75966 6.42307 2.71942 6.45451 2.67069C6.48595 2.62196 6.50413 2.56633 6.50735 2.50898C6.51058 2.45163 6.49875 2.39442 6.47297 2.34268C6.30644 2.01536 6.02555 1.75556 5.68001 1.60929C6.17294 1.35121 6.64073 1.21089 7.01733 1.21089C7.18461 1.21105 7.34499 1.2754 7.46328 1.38981C7.58157 1.50421 7.6481 1.65933 7.64827 1.82112V3.53741C7.45436 3.43633 7.23761 3.38321 7.01733 3.38279C6.97041 3.38181 6.92377 3.3899 6.88013 3.40658C6.8365 3.42327 6.79674 3.44822 6.76321 3.47996C6.72967 3.5117 6.70302 3.5496 6.68483 3.59144C6.66664 3.63327 6.65727 3.6782 6.65727 3.72358C6.65727 3.76897 6.66664 3.81389 6.68483 3.85573C6.70302 3.89756 6.72967 3.93546 6.76321 3.96721C6.79674 3.99895 6.8365 4.02389 6.88013 4.04058C6.92377 4.05727 6.97041 4.06536 7.01733 4.06438C7.18464 4.06463 7.34502 4.12905 7.4633 4.2435C7.58158 4.35796 7.6481 4.51311 7.64827 4.67493V12.0402C7.64833 12.0632 7.65086 12.0862 7.65583 12.1087C7.65074 12.1723 7.64827 12.2311 7.64827 12.286C7.64791 12.6349 7.52676 12.9736 7.30417 13.2481C7.08158 13.5227 6.77036 13.7172 6.42014 13.8007C6.06992 13.8842 5.70087 13.8519 5.37185 13.7089C5.04282 13.5659 4.77277 13.3205 4.60477 13.0118C4.5821 12.9701 4.55081 12.9334 4.51285 12.904C4.47489 12.8745 4.43106 12.8529 4.3841 12.8405C3.98696 12.7377 3.64543 12.492 3.4294 12.1537C3.21337 11.8154 3.13915 11.4101 3.22194 11.0206C3.23811 10.9446 3.22689 10.8655 3.19015 10.7965C3.15342 10.7276 3.09337 10.6728 3.02001 10.6414H3.0205Z" fill="#616161"/>
<path d="M5.10138 8.16817C5.36155 7.94997 5.54116 7.65576 5.61304 7.33005C6.05592 7.26543 6.4647 7.06224 6.77685 6.75159C6.84184 6.68683 6.8777 6.59982 6.87659 6.50958C6.87548 6.41933 6.8375 6.33317 6.77093 6.26992C6.73793 6.2386 6.69886 6.21389 6.65598 6.19718C6.61309 6.18047 6.56722 6.17209 6.52098 6.17254C6.47475 6.17298 6.42906 6.18223 6.38652 6.19976C6.34398 6.21728 6.30543 6.24275 6.27308 6.27469C6.08282 6.46292 5.83887 6.59203 5.57238 6.64553C5.3059 6.69904 5.02897 6.67451 4.77697 6.57507C4.52497 6.47563 4.30933 6.30581 4.15759 6.08728C4.00586 5.86875 3.92491 5.61144 3.92509 5.34821C3.92509 5.25793 3.88801 5.17135 3.82201 5.10751C3.75601 5.04368 3.66649 5.00781 3.57314 5.00781C3.4798 5.00781 3.39028 5.04368 3.32428 5.10751C3.25827 5.17135 3.22119 5.25793 3.22119 5.34821C3.22224 5.81104 3.3884 6.25934 3.69162 6.6174C3.99484 6.97546 4.41653 7.22134 4.88548 7.31352C4.82185 7.4742 4.70953 7.61256 4.56323 7.71047C4.41694 7.80838 4.24348 7.86128 4.06558 7.86226C4.01869 7.86128 3.97206 7.86936 3.92845 7.88604C3.88483 7.90272 3.8451 7.92765 3.81158 7.95938C3.77805 7.99111 3.75142 8.02899 3.73324 8.07081C3.71506 8.11262 3.70569 8.15753 3.70569 8.20289C3.70569 8.24825 3.71506 8.29316 3.73324 8.33498C3.75142 8.37679 3.77805 8.41467 3.81158 8.4464C3.8451 8.47813 3.88483 8.50306 3.92845 8.51974C3.97206 8.53642 4.01869 8.54451 4.06558 8.54353C4.44633 8.5432 4.81416 8.40991 5.10138 8.16817Z" fill="#616161"/>
<path d="M6.60752 8.57583C6.07531 8.57632 5.56361 8.77446 5.17809 9.12934C4.79258 9.48422 4.56269 9.96873 4.53591 10.4828C4.48842 10.4796 4.44143 10.4781 4.39411 10.4781C4.30072 10.4781 4.21116 10.5139 4.14512 10.5778C4.07909 10.6417 4.04199 10.7283 4.04199 10.8186C4.04199 10.9089 4.07909 10.9956 4.14512 11.0594C4.21116 11.1233 4.30072 11.1592 4.39411 11.1592C4.75709 11.1596 5.10506 11.2993 5.36168 11.5476C5.61831 11.7959 5.76262 12.1325 5.76297 12.4836C5.76496 12.5726 5.80294 12.6574 5.86877 12.7197C5.93461 12.782 6.02305 12.8169 6.11517 12.8169C6.20728 12.8169 6.29573 12.782 6.36156 12.7197C6.42739 12.6574 6.46538 12.5726 6.46736 12.4836C6.46696 12.0966 6.35092 11.718 6.13322 11.3933C5.91552 11.0686 5.60544 10.8117 5.2403 10.6535C5.23915 10.63 5.23849 10.6058 5.23849 10.5804C5.23889 10.2293 5.38324 9.89271 5.63988 9.64443C5.89653 9.39615 6.24452 9.25645 6.60752 9.25599C6.70086 9.25599 6.79038 9.22013 6.85639 9.15629C6.92239 9.09245 6.95947 9.00587 6.95947 8.91559C6.95947 8.82531 6.92239 8.73873 6.85639 8.6749C6.79038 8.61106 6.70086 8.5752 6.60752 8.5752V8.57583Z" fill="#616161"/>
</g>
<defs>
<clipPath id="clip0_520_3058">
<rect width="16" height="15.0586" fill="white" transform="translate(0 0.470703)"/>
</clipPath>
</defs>
</svg>
