<svg width="16" height="16" viewBox="0 0 16 16" fill="none" xmlns="http://www.w3.org/2000/svg">
<path fill-rule="evenodd" clip-rule="evenodd" d="M8.28304 3.7386C7.07196 3.7386 6.12275 4.65741 6.12275 5.79801C6.12275 6.9386 7.07196 7.8891 8.28304 7.8891C9.46137 7.8891 10.4106 6.9386 10.4106 5.79801C10.4106 4.65741 9.46137 3.7386 8.28304 3.7386ZM8.28304 3.20003C9.75596 3.20003 10.967 4.3723 10.967 5.79805C10.967 6.78023 10.4106 7.63567 9.5923 8.07924C11.5562 8.7129 12.8 10.7406 12.8 12.8H12.2436C12.2436 10.6139 10.6724 8.42775 8.28304 8.42775C5.86089 8.42775 4.28978 10.6139 4.28978 12.8H3.73334C3.73334 10.7406 4.97714 8.7129 6.94104 8.07924C6.12275 7.63567 5.56631 6.78023 5.56631 5.79805C5.56631 4.3723 6.77738 3.20003 8.28304 3.20003Z" fill="#616161"/>
<path fill-rule="evenodd" clip-rule="evenodd" d="M8.01595 0.542894C3.86425 0.542894 0.542894 3.86425 0.542894 8.01595C0.542894 12.1357 3.86425 15.4571 8.01595 15.4571C12.1357 15.4571 15.4571 12.1357 15.4571 8.01595C15.4571 3.86425 12.1357 0.542894 8.01595 0.542894ZM8.01597 0C12.4232 0 16 3.57685 16 8.01597C16 12.4232 12.4232 16 8.01597 16C3.57685 16 0 12.4232 0 8.01597C0 3.57685 3.57685 0 8.01597 0Z" fill="#616161"/>
</svg>
