<svg width="27" height="27" viewBox="0 0 27 27" fill="none" xmlns="http://www.w3.org/2000/svg">
<circle cx="13.7498" cy="13.271" r="12.625" stroke="#616161" stroke-width="0.75"/>
<path d="M19.3335 11.4674C20.0407 11.4674 20.7189 11.7483 21.2189 12.2484C21.719 12.7484 21.9999 13.4267 21.9999 14.1338C21.9999 14.841 21.719 15.5192 21.2189 16.0193C20.7189 16.5194 20.0407 16.8003 19.3335 16.8003V11.4674Z" stroke="#616161" stroke-linecap="round" stroke-linejoin="round"/>
<path d="M8.66644 11.4674C7.95926 11.4674 7.28103 11.7483 6.78098 12.2484C6.28092 12.7484 6 13.4267 6 14.1338C6 14.841 6.28092 15.5192 6.78098 16.0193C7.28103 16.5194 7.95926 16.8003 8.66644 16.8003V11.4674Z" stroke="#616161" stroke-linecap="round" stroke-linejoin="round"/>
<path d="M8.66615 11.4666C8.64874 10.7551 8.77384 10.0473 9.0341 9.38483C9.29436 8.7224 9.68451 8.11871 10.1816 7.60933C10.6787 7.09994 11.2726 6.69515 11.9285 6.41877C12.5844 6.14238 13.2889 6 14.0006 6C14.7123 6 15.4169 6.14238 16.0728 6.41877C16.7286 6.69515 17.3226 7.09994 17.8197 7.60933C18.3167 8.11871 18.7069 8.7224 18.9671 9.38483C19.2274 10.0473 19.3525 10.7551 19.3351 11.4666" stroke="#616161" stroke-linecap="round" stroke-linejoin="round"/>
<path d="M15.302 20.8323C16.3717 20.8323 17.3975 20.4073 18.1539 19.651C18.9103 18.8946 19.3352 17.8687 19.3352 16.7991" stroke="#616161" stroke-linecap="round" stroke-linejoin="round"/>
<path d="M15.3018 20.8325C15.3024 21.0903 15.2266 21.3425 15.0838 21.5572C14.941 21.7719 14.7377 21.9394 14.4997 22.0385C14.2617 22.1376 13.9996 22.1639 13.7467 22.1139C13.4938 22.064 13.2613 21.9402 13.0788 21.7581C12.8962 21.576 12.7718 21.3439 12.7213 21.0911C12.6708 20.8382 12.6964 20.5761 12.7949 20.3379C12.8934 20.0996 13.0604 19.8959 13.2747 19.7526C13.4891 19.6093 13.7411 19.5328 13.9989 19.5328C14.3439 19.5328 14.6748 19.6697 14.9191 19.9133C15.1633 20.157 15.301 20.4875 15.3018 20.8325Z" stroke="#616161" stroke-linecap="round" stroke-linejoin="round"/>
</svg>
