<svg width="30" height="24" viewBox="0 0 30 24" fill="none" xmlns="http://www.w3.org/2000/svg">
<path d="M1 1H4.93951C5.24255 1 5.54559 1.21256 5.64661 1.53141L8.57599 15.0291C8.677 15.3479 8.87903 15.5605 9.28308 15.5605H24.4351C24.7381 15.5605 24.9401 15.3479 25.0411 15.1354L28.9806 5.03868C29.0817 4.71984 28.7786 4.18843 28.2736 4.18843L6.05066 3.55074" stroke="#616161" stroke-miterlimit="10" stroke-linecap="round"/>
<path d="M9.58612 22.9999C10.7577 22.9999 11.7074 22.0007 11.7074 20.768C11.7074 19.5354 10.7577 18.5361 9.58612 18.5361C8.41457 18.5361 7.46484 19.5354 7.46484 20.768C7.46484 22.0007 8.41457 22.9999 9.58612 22.9999Z" stroke="#616161" stroke-miterlimit="10"/>
<path d="M23.4249 22.9999C24.5964 22.9999 25.5462 22.0007 25.5462 20.768C25.5462 19.5354 24.5964 18.5361 23.4249 18.5361C22.2533 18.5361 21.3036 19.5354 21.3036 20.768C21.3036 22.0007 22.2533 22.9999 23.4249 22.9999Z" stroke="#616161" stroke-miterlimit="10"/>
<path d="M7.96991 12.7971L9.18207 18.5363H23.829" stroke="#616161" stroke-miterlimit="10"/>
</svg>
