<svg width="24" height="24" viewBox="0 0 24 24" fill="none" xmlns="http://www.w3.org/2000/svg">
<path d="M19.143 10.857C18.9853 10.857 18.8573 10.729 18.8573 10.5713V7.71431C18.8573 7.24164 18.473 6.85731 18.0003 6.85731H7.71433C7.24167 6.85731 6.85733 7.24164 6.85733 7.71431V7.91398C6.85733 8.07164 6.72933 8.19964 6.57167 8.19964C6.414 8.19964 6.286 8.07164 6.286 7.91398V7.71431C6.286 6.92664 6.927 6.28564 7.71467 6.28564H18C18.7877 6.28564 19.4287 6.92664 19.4287 7.71431V10.5713C19.4287 10.7293 19.3007 10.857 19.143 10.857Z" fill="#616161"/>
<path d="M18 17.7143H7.71433C7.09033 17.7143 6.54333 17.3143 6.353 16.7186C6.305 16.5683 6.388 16.4076 6.53833 16.3596C6.689 16.3116 6.84933 16.3946 6.89733 16.545C7.01 16.8973 7.346 17.143 7.71433 17.143H18C18.4727 17.143 18.857 16.7586 18.857 16.286V13.429C18.857 13.2713 18.985 13.1433 19.1427 13.1433C19.3003 13.1433 19.4283 13.2713 19.4283 13.429V16.286C19.4287 17.0733 18.7877 17.7143 18 17.7143Z" fill="#616161"/>
<path d="M19.143 13.7143H16.5717C15.6263 13.7143 14.8573 12.9453 14.8573 12C14.8573 11.0546 15.6263 10.2856 16.5717 10.2856H19.143C19.6157 10.2856 20 10.67 20 11.1426V12.857C20 13.3296 19.6157 13.7143 19.143 13.7143ZM16.5713 10.857C15.9413 10.857 15.4283 11.3696 15.4283 12C15.4283 12.6303 15.941 13.143 16.5713 13.143L19.1427 13.1433C19.3003 13.1433 19.4283 13.015 19.4283 12.8573V11.143C19.4283 10.9853 19.3003 10.8573 19.1427 10.8573H16.5713V10.857Z" fill="#616161"/>
<path d="M7.71433 16C5.66633 16 4 14.3336 4 12.2856C4 10.2376 5.66633 8.57131 7.71433 8.57131C9.76233 8.57131 11.4287 10.2376 11.4287 12.2856C11.4287 14.3336 9.76233 16 7.71433 16ZM7.71433 9.14298C5.98133 9.14298 4.57133 10.553 4.57133 12.286C4.57133 14.019 5.98133 15.429 7.71433 15.429C9.44733 15.429 10.8573 14.019 10.8573 12.286C10.8573 10.553 9.44733 9.14298 7.71433 9.14298Z" fill="#616161"/>
<path d="M7.71433 14.2856C7.55667 14.2856 7.42867 14.1576 7.42867 14V10.5713C7.42867 10.4136 7.55667 10.2856 7.71433 10.2856C7.872 10.2856 8 10.4136 8 10.5713V14C8 14.1576 7.872 14.2856 7.71433 14.2856Z" fill="#616161"/>
<path d="M9.42867 12.5713H6C5.84233 12.5713 5.71433 12.4433 5.71433 12.2856C5.71433 12.128 5.84233 12 6 12H9.42867C9.58633 12 9.71433 12.128 9.71433 12.2856C9.71433 12.4433 9.58633 12.5713 9.42867 12.5713Z" fill="#616161"/>
<rect x="0.375" y="0.375" width="23.25" height="23.25" rx="11.625" stroke="#616161" stroke-width="0.75"/>
</svg>
