<svg width="24" height="24" viewBox="0 0 24 24" fill="none" xmlns="http://www.w3.org/2000/svg">
<path d="M5.69629 9.09667V15.6774M6.85717 16.7899L6.08345 16.8616C5.98085 16.8616 5.88245 16.8208 5.8099 16.7483C5.73735 16.6757 5.69659 16.5772 5.69659 16.4745V7.27014C5.69659 7.16748 5.73735 7.06902 5.8099 6.99642C5.88245 6.92383 5.98085 6.88304 6.08345 6.88304L6.85717 6.95473C6.95977 6.95473 7.05817 6.99551 7.13072 7.06811C7.20327 7.1407 7.24403 7.23916 7.24403 7.34183V16.4028C7.24403 16.5055 7.20327 16.604 7.13072 16.6766C7.05817 16.7492 6.95977 16.7899 6.85717 16.7899ZM12.2898 8.2265C12.3464 7.9885 12.6257 7.84298 12.759 7.84298L13.7376 7.87954L13.7562 7.00785C13.7562 6.90518 13.7155 6.80672 13.6429 6.73413C13.5704 6.66153 13.472 6.62075 13.3694 6.62075L7.63097 5.60999C7.52837 5.60999 7.42997 5.65077 7.35742 5.72337C7.28487 5.79596 7.24411 5.89442 7.24411 5.99709V17.1972C7.24411 17.2999 7.28487 17.3983 7.35742 17.4709C7.42997 17.5435 7.52837 17.5843 7.63097 17.5843L9.22282 17.3843L12.2898 8.2265ZM14.4654 17.484L9.40183 18.3901C9.35102 18.39 9.30074 18.3799 9.25384 18.3603C9.20694 18.3408 9.16434 18.3122 9.12849 18.2762C9.09263 18.2402 9.06421 18.1975 9.04486 18.1505C9.0255 18.1035 9.01559 18.0531 9.01569 18.0023L12.2897 8.22511C12.3463 7.98712 12.6257 7.84159 12.7589 7.84159L17.8504 8.03156C18.0653 8.03156 18.4235 8.35486 18.2638 8.74411L15.2391 17.008C15.0908 17.3177 14.949 17.3628 14.4654 17.484Z" stroke="#616161" stroke-width="0.75"/>
<rect x="0.375" y="0.375" width="23.25" height="23.25" rx="11.625" stroke="#616161" stroke-width="0.75"/>
</svg>
