<?xml version="1.0" encoding="UTF-8"?>
<!DOCTYPE svg PUBLIC "-//W3C//DTD SVG 1.1//EN" "http://www.w3.org/Graphics/SVG/1.1/DTD/svg11.dtd">
<!-- Creator: CorelDRAW -->
<svg xmlns="http://www.w3.org/2000/svg" xml:space="preserve" width="8.8839mm" height="10.3807mm" version="1.1" style="shape-rendering:geometricPrecision; text-rendering:geometricPrecision; image-rendering:optimizeQuality; fill-rule:evenodd; clip-rule:evenodd"
viewBox="0 0 22.99 26.86"
 xmlns:xlink="http://www.w3.org/1999/xlink"
 xmlns:xodm="http://www.corel.com/coreldraw/odm/2003">
 <defs>
  <style type="text/css">
   <![CDATA[
    .fil0 {fill:#444C7E}
   ]]>
  </style>
 </defs>
 <g id="Camada_x0020_1">
  <metadata id="CorelCorpID_0Corel-Layer"/>
  <path class="fil0" d="M19.14 10.54c-1.16,0 -2.1,-1.12 -2.1,-2.5 0,-1.38 0.94,-2.5 2.1,-2.5 1.16,0 2.1,1.12 2.1,2.5 0,1.38 -0.94,2.5 -2.1,2.5zm-3.55 3.62c1.94,-0.16 2.43,-0.19 4.2,-0.03 1.98,0.18 2.36,0.09 2.36,1.12 0,0.83 0,0.99 0,1.16 0,0.18 0.04,0.35 -0.4,0.43 -2.7,0.49 -2.98,0.54 -3.97,0.73 -1.07,0.21 -1.44,0.25 -1.44,1.63 0,1.3 0,1.29 0,2.23 0,0.94 0.43,0.99 1.06,0.91 0.63,-0.08 1.15,-0.24 1.48,-0.31 0.39,-0.09 0.33,-0.04 0.33,-0.62 0,-0.53 0.02,-0.5 -0.4,-0.4 -0.52,0.11 -0.47,0.1 -1,0.23 -0.31,0.07 -0.36,0.07 -0.36,-0.28 0,-0.35 0,-1.45 0,-1.84 0,-0.39 0.12,-0.34 0.52,-0.42 0.4,-0.08 3.27,-0.67 3.76,-0.76 0.49,-0.09 0.46,-0.07 0.46,0.2 0,0.27 0,2.54 0,3.91 0,1.37 -1.15,1.6 -1.69,1.73 -0.54,0.13 -4.76,1.14 -5.84,1.32 -1.07,0.19 -1.55,0.3 -2.51,-0.05 -0.7,-0.26 -1.11,-0.43 -1.29,-0.51 -0.05,-0.02 -0.07,-0.09 -0.03,-0.13 0.24,-0.32 1.11,-1.45 1.39,-1.86 0.33,-0.48 0.31,-0.42 0.31,-1.2 0,-0.78 0,-1.16 0,-1.62 0,-0.46 -0.18,-0.61 -0.84,-1.26 -0.65,-0.65 -2.5,-2.5 -2.76,-2.79 -0.11,-0.12 0.18,-0.94 1.28,-1.04 3.05,-0.29 5.39,-0.49 5.39,-0.49zm-8.88 9.39c-0.09,0.92 -0.13,1 -0.88,0.96 -0.7,-0.04 -2.93,-0.62 -3.51,-1 -0.58,-0.39 -0.51,-0.62 -0.55,-1.22 -0.04,-0.59 -0.16,-3.11 0,-4.58 0.07,-0.62 0.4,-0.57 0.77,-0.55 1.03,0.05 2.74,0.44 3.31,0.61 0.52,0.16 0.77,0.2 0.86,1.12 0.09,0.92 0.1,3.65 0,4.67zm4.8 -2.8c0,-1 0.01,-0.84 -0.26,-1.11 -0.27,-0.27 -0.97,-0.89 -2.48,-2.46 -1.18,-1.24 -1.51,-1.22 -3.89,-1.69 0,0 -1.87,-0.3 -2.85,-0.41 -0.98,-0.11 -1.68,0.45 -1.86,1.21 -0.18,0.77 -0.2,3.15 -0.15,5.4 0.05,2.25 0.17,3.02 1.69,3.71 1.52,0.69 2.38,0.84 3.9,1.29 1.52,0.44 2.2,-0.05 2.45,-0.39 0.25,-0.34 2.67,-3.45 3.1,-4.02 0.43,-0.58 0.33,-0.51 0.33,-1.52zm-1.82 -10.16c-1.73,0 -3.14,-1.67 -3.14,-3.73 0,-2.06 1.41,-3.73 3.14,-3.73 1.74,0 3.14,1.67 3.14,3.73 0,2.06 -1.41,3.73 -3.14,3.73zm8.67 -7.42c-1.48,0 -2.79,0.73 -3.64,1.87 -0.73,-2.91 -3.18,-5.05 -6.1,-5.05 -3.49,0 -6.32,3.06 -6.32,6.84 0,3.78 2.83,6.84 6.32,6.84 2.39,0 9.74,-0.71 9.74,-0.71 2.9,-0.27 4.63,-2.19 4.63,-4.9 0,-2.7 -2.07,-4.9 -4.63,-4.9z"/>
 </g>
</svg>
