<svg id="Camada_1" data-name="Camada 1" xmlns="http://www.w3.org/2000/svg" viewBox="0 0 191.97 56.86">
  <defs>
    <style>.cls-1{fill:#a9a9a9;}.cls-2{fill:#d5d5d5;}.cls-3{fill:#fefefe;}.cls-4{fill:#fdfdfd;}.cls-5{fill:#fcfcfc;}.cls-6{fill:#aaa;}</style>
  </defs>
  <path class="cls-1" d="M192,6.46V50.64a6.69,6.69,0,0,1-2.52,4.81,6.41,6.41,0,0,1-4,1.4H7.37A7.29,7.29,0,0,1,.93,53.67c-.66-.94-.55-2.05-.9-3.05V6.23A6.87,6.87,0,0,1,2.26,1.66C3.76.33,5.53.15,7.4.14H184.6a6.78,6.78,0,0,1,6.5,3.08C191.78,4.24,191.65,5.4,192,6.46Z" transform="translate(-0.03 0)" />
  <path class="cls-2" d="M185.05.22H7c-.06,0-.08-.1,0-.14A.09.09,0,0,1,7,0H185a.09.09,0,0,1,.09.12S185.07.22,185.05.22Z" transform="translate(-0.03 0)" />
  <path class="cls-3" d="M15.84,32.24v-13a1,1,0,0,1,.48-.91c.43-.22.64.21.87.44,4.3,4.27,8.58,8.55,12.91,12.79.62.62.51,1,0,1.52-4.25,4.25-8.48,8.54-12.72,12.81-.24.24-.44.67-.84.57s-.48-.61-.56-1a6.68,6.68,0,0,1-.07-1.18v-12Z" transform="translate(-0.03 0)" />
  <path class="cls-3" d="M64.93,31.09c1.08,0,2.16.07,3.23,0s1.38.42,1.43,1.38a8.73,8.73,0,0,1-7.9,9.32,9.93,9.93,0,0,1-11.16-8.51,10.08,10.08,0,0,1-.08-1.65,9.28,9.28,0,0,1,5.77-8.42A9.61,9.61,0,0,1,66.4,24.32c.62.44.58.77.1,1.33-.75.87-1.3,1.25-2.5.43a6.8,6.8,0,0,0-8.32.73,7.28,7.28,0,0,0-1.62,8.34A7,7,0,0,0,61.37,39c2.7-.37,4.52-1.82,5.14-4,.23-.81.13-1.17-.82-1.13-1.44.06-2.88,0-4.32,0-1.13,0-1.08-.63-1.07-1.39s-.14-1.48,1-1.43S63.73,31.1,64.93,31.09Z" transform="translate(-0.03 0)" />
  <path class="cls-3" d="M107.87,40.6c-2.6,1.6-4.71,1.58-6.86,0a6.35,6.35,0,0,1,3.13-11.39,4.79,4.79,0,0,1,3.08.8c.33.23.46.43.86-.11s1.42-.31,2.13-.21.41.77.41,1.19c0,3.5.07,7,0,10.5-.06,2.34-.86,4.41-3.19,5.46a6.16,6.16,0,0,1-6.46-.6,5.57,5.57,0,0,1-.87-.81c-1.31-1.49-1.16-1.92.75-2.5a.71.71,0,0,1,.9.28c1.43,1.7,2.76,2.12,4.36,1.42C107.45,44,108.05,42.71,107.87,40.6Z" transform="translate(-0.03 0)" />
  <path class="cls-3" d="M135.12,32.06V24c0-.78.25-1.05,1-1h6.11a5.87,5.87,0,0,1,.33,11.7,26.91,26.91,0,0,1-3.36,0c-.9,0-1.29.22-1.24,1.2.08,1.51,0,3,0,4.53,0,1.19-.75,1-1.44,1s-1.46.17-1.44-1V32Z" transform="translate(-0.03 0)" />
  <path class="cls-3" d="M163.81,40.25a5.6,5.6,0,0,1-5.28,1.37,3.75,3.75,0,0,1-3.1-3.49,4.16,4.16,0,0,1,2-4.29,6.77,6.77,0,0,1,5.1-.63c.42.08.83.36,1.28.12-.09-2.35-4-3.14-5.75-1.34-.24.24-.39.83-.92.53a5.32,5.32,0,0,1-1.72-1.25c-.2-.27.13-.51.3-.71A6.92,6.92,0,0,1,163,28.71a5.54,5.54,0,0,1,3.87,5.57V40c0,.52.33,1.39-.65,1.36S164,42,163.81,40.25Z" transform="translate(-0.03 0)" />
  <path class="cls-3" d="M174.51,37.37c1.12-2.54,2.11-4.79,3.11-7a2.66,2.66,0,0,1,3.18-1.11c.55.31.08.7,0,1q-2.49,5.68-5,11.35c-.74,1.68-1.47,3.35-2.22,5-.33.74-2.51,1.3-3.12.8-.36-.29-.05-.59.06-.85.64-1.5,1.26-3,2-4.46a2.49,2.49,0,0,0,0-2.37c-1.41-3.07-2.75-6.17-4.11-9.26-.55-1.24-.51-1.18.76-1.31a2.08,2.08,0,0,1,2.48,1.56h0C172.41,32.86,173.43,34.93,174.51,37.37Z" transform="translate(-0.03 0)" />
  <path class="cls-3" d="M97.23,35.48a6.13,6.13,0,0,1-5.94,6.32H91a6.32,6.32,0,0,1-6.48-6.14V35.4A6.39,6.39,0,0,1,91,29.18a6.2,6.2,0,0,1,6.28,6.12Z" transform="translate(-0.03 0)" />
  <path class="cls-3" d="M83.32,35.56a6.15,6.15,0,0,1-6.06,6.24H77a6.3,6.3,0,0,1-6.39-6.21v-.15A6.39,6.39,0,0,1,77,29.18a6.21,6.21,0,0,1,6.32,6.1Z" transform="translate(-0.03 0)" />
  <path class="cls-3" d="M123.17,41.8A6.33,6.33,0,0,1,122,29.26a5.89,5.89,0,0,1,6.36,4.15c.18.68-.28.73-.66.89-2.2.92-4.4,1.86-6.63,2.73-.91.35-.87.71-.27,1.32a3.56,3.56,0,0,0,4.87-.11c.66-.61,1.43-.46,2.35.49.67.7-.13,1-.45,1.3A6,6,0,0,1,123.17,41.8Z" transform="translate(-0.03 0)" />
  <path class="cls-3" d="M18.12,18.53c.59-.23.9.08,1.24.26,5,2.73,10.08,5.49,15.14,8.19.92.48.94.81.19,1.47-1,.88-1.87,1.85-2.79,2.78-.31.32-.56.52-1,.1Z" transform="translate(-0.03 0)" />
  <path class="cls-3" d="M17.93,46.15c2.14-2.07,4.18-4,6.19-6,2.21-2.18,4.41-4.38,6.57-6.61.55-.56.9-.56,1.44,0,.92,1,1.9,1.92,2.87,2.87.33.32.52.58,0,.89l-16.51,9A3.44,3.44,0,0,1,17.93,46.15Z" transform="translate(-0.03 0)" />
  <path class="cls-3" d="M149.82,32.13V24c0-1.19.64-1.13,1.45-1.11s1.46-.12,1.45,1.09c-.06,5.44-.05,10.88,0,16.31,0,1.12-.6,1.1-1.37,1.08s-1.54.17-1.51-1.06C149.86,37.61,149.82,34.87,149.82,32.13Z" transform="translate(-0.03 0)" />
  <path class="cls-3" d="M115.48,32.13c0,2.7-.06,5.4,0,8.1,0,1.23-.65,1.17-1.5,1.2s-1.4-.13-1.39-1.21q.07-8.1,0-16.19c0-1.2.66-1.11,1.45-1.1s1.48-.09,1.44,1.11C115.43,26.73,115.48,29.43,115.48,32.13Z" transform="translate(-0.03 0)" />
  <path class="cls-3" d="M36.35,28.05l.48.21c1.79,1,3.58,1.91,5.34,2.93,1.12.65,1.12,1.51,0,2.18-1.75,1-3.56,2-5.33,2.94a.75.75,0,0,1-1.05-.17h0c-1.12-1.13-2.25-2.24-3.38-3.36-.25-.25-.42-.48-.1-.8L36,28.25A1.58,1.58,0,0,1,36.35,28.05Z" transform="translate(-0.03 0)" />
  <path class="cls-4" d="M102.76,13.37V9c0-.49-.14-1.1.7-1.09s.68.62.68,1.1v6.31c0,.41.16.93-.48,1.06a1.07,1.07,0,0,1-1.21-.55c-.89-1.36-1.8-2.72-2.7-4.07a2.7,2.7,0,0,0-.9-.91v4.45c0,.49.12,1.1-.7,1.1s-.67-.63-.67-1.12V9c0-.4-.19-.94.48-1.05a1.08,1.08,0,0,1,1.21.53c1.07,1.67,2.19,3.31,3.28,5Z" transform="translate(-0.03 0)" />
  <path class="cls-3" d="M96.25,12.12a4.39,4.39,0,0,1-4.39,4.39h-.15a4.43,4.43,0,1,1-.42-8.85h.42A4.44,4.44,0,0,1,96.25,12Z" transform="translate(-0.03 0)" />
  <path class="cls-3" d="M57.66,11.72c2.24,0,2.66.7,1.58,2.74a3.84,3.84,0,0,1-3.76,2.06,4.34,4.34,0,0,1-4-2.51A4,4,0,0,1,52,9.43a4.48,4.48,0,0,1,5.89-1.16c.28.18.87.29.53.86s-.62.55-1.18.26a3,3,0,0,0-3.84.44,3.17,3.17,0,0,0,4.31,4.65,3,3,0,0,0,.3-.32,1.15,1.15,0,0,0,.34-1c-.12-.38-.61-.24-.94-.27s-.87,0-1.31,0-.53-.27-.52-.64.15-.53.49-.54Z" transform="translate(-0.03 0)" />
  <path class="cls-4" d="M61,12.06V8.84c0-.64.18-1,.88-.94h3.24c.44,0,.79.07.81.62s-.29.76-.81.75H63.68c-.83-.06-1.32.09-1.33,1.14s.6,1.1,1.37,1.07h1.2a.53.53,0,0,1,.59.46.29.29,0,0,1,0,.13c0,.4-.1.72-.57.74a9.55,9.55,0,0,1-1.31,0c-.91-.08-1.27.23-1.27,1.2s.56,1.05,1.3,1h1.67a.55.55,0,0,1,.6.47v.11c0,.4-.08.75-.56.75H61.54c-.58,0-.52-.49-.53-.89Z" transform="translate(-0.03 0)" />
  <path class="cls-5" d="M80.65,12.86V11.07c.06-1.05.11-2.05-1.46-1.81-.43.06-.64-.24-.64-.68s.18-.67.63-.67h4.2c.46,0,.62.23.62.67s-.16.73-.61.67C82,9.07,82,9.94,82,10.93v4.54c0,.52-.07,1-.76.94s-.61-.5-.61-.93C80.65,14.61,80.65,13.74,80.65,12.86Z" transform="translate(-0.03 0)" />
  <path class="cls-5" d="M69.18,12.88V11.09c0-1,.13-2.06-1.46-1.84-.39.06-.51-.27-.52-.63s.12-.7.6-.7H72a.58.58,0,0,1,.66.49.43.43,0,0,1,0,.16c0,.43-.19.75-.63.69-1.56-.23-1.5.74-1.47,1.8v4.53c0,.43,0,.81-.6.83s-.78-.27-.78-.8V12.88Z" transform="translate(-0.03 0)" />
  <path class="cls-3" d="M77.59,12.14v3.33c0,.44,0,.92-.62.94s-.64-.44-.64-.89V8.86c0-.42-.1-.93.59-.93s.66.53.66,1C77.6,10,77.59,11.07,77.59,12.14Z" transform="translate(-0.03 0)" />
  <path class="cls-1" d="M108.1,35.67c-.08,2.22-1.47,3.63-3.5,3.56a3.74,3.74,0,0,1,.32-7.46C106.81,31.83,108.17,33.5,108.1,35.67Z" transform="translate(-0.03 0)" />
  <path class="cls-1" d="M138,28.82c0-3.07,0-3.07,3.28-3.05,2.28,0,3.64,1.1,3.69,3a3,3,0,0,1-2.45,3.07,21.22,21.22,0,0,1-3.82.12c-.5,0-.72-.23-.71-.73C138,30.41,138,29.61,138,28.82Z" transform="translate(-0.03 0)" />
  <path class="cls-6" d="M160.28,39.18a1.82,1.82,0,0,1-1.88-1.62,1.7,1.7,0,0,1,1.43-1.91,6.69,6.69,0,0,1,3.52.25c.48.15.57.41.38.9A4.3,4.3,0,0,1,160.28,39.18Z" transform="translate(-0.03 0)" />
  <path class="cls-1" d="M91,31.76a3.53,3.53,0,0,1,3.48,3.56c0,.06,0,.13,0,.19a3.47,3.47,0,0,1-3.23,3.71H91a3.74,3.74,0,0,1,0-7.47Z" transform="translate(-0.03 0)" />
  <path class="cls-1" d="M77.08,39.23a3.75,3.75,0,1,1,3.36-3.44A3.74,3.74,0,0,1,77.08,39.23Z" transform="translate(-0.03 0)" />
  <path class="cls-6" d="M125.09,32.71a.43.43,0,0,1-.34.47c-1.47.62-3,1.23-4.42,1.83-.43.18-.62,0-.56-.45a3.2,3.2,0,0,1,2-2.59,2.72,2.72,0,0,1,2.93.34A2.46,2.46,0,0,1,125.09,32.71Z" transform="translate(-0.03 0)" />
  <path class="cls-1" d="M94.84,12.05a3.11,3.11,0,0,1-3,3.24h-.11a3.2,3.2,0,0,1,0-6.4A3.11,3.11,0,0,1,94.84,12Z" transform="translate(-0.03 0)" />
</svg>