<svg width="29" height="29" viewBox="0 0 29 29" fill="none" xmlns="http://www.w3.org/2000/svg">
<path d="M15.4177 1.63805L18.4672 8.59352C18.5819 8.85528 18.7648 9.08146 18.9967 9.24844C19.2287 9.41542 19.5012 9.51708 19.7858 9.54281L27.2148 10.2089C28.0554 10.3313 28.3907 11.3621 27.7812 11.9557L22.1851 16.6569C21.732 17.0375 21.5258 17.6356 21.6504 18.2134L23.2772 25.8281C23.4199 26.6641 22.5431 27.303 21.7909 26.9066L15.3067 23.1094C15.0621 22.9658 14.7837 22.8902 14.5001 22.8902C14.2166 22.8902 13.9381 22.9658 13.6936 23.1094L7.20934 26.9043C6.45942 27.2985 5.58036 26.6619 5.72309 25.8259L7.34981 18.2111C7.47215 17.6334 7.26825 17.0352 6.81512 16.6546L1.21676 11.958C0.609575 11.3666 0.944888 10.3335 1.78317 10.2112L9.21215 9.54508C9.49679 9.51935 9.76929 9.41768 10.0012 9.2507C10.2332 9.08372 10.416 8.85755 10.5307 8.59578L13.5803 1.64031C13.9586 0.879063 15.0416 0.879063 15.4177 1.63805Z" fill="#FDD835"/>
<path d="M15.1956 9.01028L14.6791 3.88544C14.6587 3.59997 14.5998 3.1106 15.0574 3.1106C15.4199 3.1106 15.617 3.86505 15.617 3.86505L17.1667 7.97942C17.7512 9.54497 17.5111 10.0819 16.9469 10.3991C16.299 10.7616 15.3429 10.4784 15.1956 9.01028Z" fill="#FFFF8D"/>
<path d="M21.5867 16.2014L26.0319 12.7328C26.2516 12.5493 26.6481 12.257 26.3309 11.9239C26.0794 11.6611 25.3997 12.0395 25.3997 12.0395L21.5097 13.5597C20.3497 13.9607 19.5794 14.5543 19.5114 15.302C19.423 16.2989 20.3179 17.0669 21.5867 16.2014Z" fill="#F4B400"/>
</svg>
