<svg id="Layer_1" data-name="Layer 1" xmlns="http://www.w3.org/2000/svg" viewBox="0 0 177.22 46.07"><defs><style>.cls-1{fill:#191919;}</style></defs><g id="Layer_2" data-name="Layer 2"><g id="Camada_1" data-name="Camada 1"><path class="cls-1" d="M14.93,9.58,23,8V21.77a89.64,89.64,0,0,1,9.55-.57,25.5,25.5,0,0,1,7.82,1.54c4.65,1.74,7,5.47,7.26,10.37.17,2.67.08,5.36,0,8a12,12,0,0,1-9,11.86,26.9,26.9,0,0,1-15,0,11.72,11.72,0,0,1-8.75-11.07c-.14-10.62,0-21.24,0-31.86A2,2,0,0,1,14.93,9.58Zm24.51,28h0c0-1.31.05-2.63,0-3.94-.15-3.3-1.79-5.27-5-5.66a26.7,26.7,0,0,0-6.19,0c-3.34.39-5,2.31-5.16,5.72-.11,2.57-.11,5.15,0,7.72.16,3.41,1.81,5.3,5.19,5.68a32.29,32.29,0,0,0,6.52-.05,4.59,4.59,0,0,0,4.31-3.9,46.67,46.67,0,0,0,.33-5.54Z" transform="translate(-14.78 -8)"/><path class="cls-1" d="M83.53,41H59.42c-.05,3.71,1.47,5.76,4.92,6.13A39.56,39.56,0,0,0,71.72,47a4.42,4.42,0,0,0,3.88-3.1l7,1.9c-.81,3.21-2.44,5.77-5.49,6.74a27.59,27.59,0,0,1-19-.32c-4.31-1.73-6.38-5.4-6.81-9.84a48.68,48.68,0,0,1,0-9.35c.6-5.89,4.09-9.56,9.9-10.82a27.24,27.24,0,0,1,13.57.32A11.38,11.38,0,0,1,83.52,33.6C83.62,36,83.53,38.41,83.53,41ZM59.35,34.42h16c.13-3.53-1.48-5.65-4.87-6.09a23.62,23.62,0,0,0-5.76-.07C61,28.72,59.58,30.39,59.35,34.42Z" transform="translate(-14.78 -8)"/><path class="cls-1" d="M109.59,43.87c2.75,0,5.29,0,7.86.05a4.58,4.58,0,0,0,4,3.12A69.69,69.69,0,0,0,130,47a5.36,5.36,0,0,0,2.92-1.51c1.42-1.3,1.13-2.91-.69-3.52a25.72,25.72,0,0,0-5.36-1c-2.83-.3-5.68-.43-8.51-.69a11,11,0,0,1-2.19-.56c-3.52-1.12-6.18-3.07-6.57-7.08-.4-4.16,1.67-7.14,5.12-8.93a22.67,22.67,0,0,1,7.08-1.95,29.51,29.51,0,0,1,12.33.79c4.64,1.35,7.6,4.8,7.72,9h-7.41a1.15,1.15,0,0,1-.79-.6,4.29,4.29,0,0,0-3.7-2.53,48.37,48.37,0,0,0-8.51,0,5.16,5.16,0,0,0-2.81,1.38c-1.58,1.39-1.3,3.12.7,3.71a39.21,39.21,0,0,0,6,.94c3.45.47,7,.63,10.34,1.43a7.52,7.52,0,0,1,6,6.06,9,9,0,0,1-5.27,9.91,24.72,24.72,0,0,1-6.81,1.79,30.65,30.65,0,0,1-12.17-.74,11.51,11.51,0,0,1-6.12-4A7.16,7.16,0,0,1,109.59,43.87Z" transform="translate(-14.78 -8)"/><path class="cls-1" d="M146.79,21.65h8.09V40.76c0,4.13,1.55,6,5.61,6.47a23.37,23.37,0,0,0,6.25-.22c2.78-.44,4.27-2.71,4.3-6.16V21.68h8.1V40.22c0,7.33-3.53,11.75-10.7,13.18a26.54,26.54,0,0,1-14.94-1.14,10.5,10.5,0,0,1-6.68-9.63C146.7,35.67,146.79,28.72,146.79,21.65Z" transform="translate(-14.78 -8)"/><path class="cls-1" d="M104.6,47.49v6.2c-10.09.72-16-4.39-16.18-13-.07-4.14,0-8.29,0-12.6H85.23l-1.64-6.52h4.77V10.27l8.16-1.64v12.9h8v6.53h-8V40.74c.08,4.28,1.67,6,5.92,6.59C103.13,47.41,103.77,47.43,104.6,47.49Z" transform="translate(-14.78 -8)"/><path class="cls-1" d="M192,53.84h-7.89V10.24L192,8.63Z" transform="translate(-14.78 -8)"/></g></g></svg>