<svg width="42" height="41" viewBox="0 0 42 41" fill="none" xmlns="http://www.w3.org/2000/svg">
<path fill-rule="evenodd" clip-rule="evenodd" d="M29.7195 12.3364L27.1146 9.75373C26.7722 9.41531 26.322 9.25501 25.8722 9.27282C25.467 9.28618 25.0667 9.44648 24.755 9.75373L21.9626 12.5279C21.638 12.8529 21.2105 13.0132 20.783 13.0132C20.3551 13.0132 19.9276 12.8529 19.6075 12.5279L16.8155 9.75373C16.5034 9.44648 16.1026 9.28618 15.7023 9.27282C15.2521 9.25501 14.8024 9.41531 14.4595 9.75373L11.8595 12.3409V12.3364C11.5117 12.6837 11.2939 13.1691 11.2939 13.7034C11.2939 14.1933 11.4761 14.6385 11.7744 14.977L19.6164 22.7651C19.9414 23.0901 20.3685 23.2504 20.7915 23.2504C21.2145 23.2504 21.6465 23.0901 21.972 22.7651L29.813 14.977C30.1118 14.6385 30.2939 14.1933 30.2939 13.7034C30.2855 13.1691 30.0668 12.6837 29.7195 12.3364Z" fill="#616161"/>
<path fill-rule="evenodd" clip-rule="evenodd" d="M20.7874 13.0127C20.3599 13.0127 19.9324 12.8524 19.6074 12.5273L18.365 11.2939L16.8154 9.75319C16.6551 9.59288 16.4681 9.47265 16.2722 9.3925C16.0896 9.3168 15.8937 9.27673 15.6978 9.27228V9.26782H25.8726V9.27228C25.4674 9.28563 25.0666 9.44594 24.7549 9.75319L21.963 12.5273C21.6379 12.8524 21.2149 13.0127 20.7874 13.0127Z" fill="#9E9E9E"/>
<path fill-rule="evenodd" clip-rule="evenodd" d="M20.7874 13.0127C20.3599 13.0127 19.9324 12.8524 19.6074 12.5273L18.365 11.2939L19.6074 12.5273C19.9324 12.8479 20.3599 13.0127 20.7874 13.0127C21.2149 13.0127 21.6379 12.8524 21.9674 12.5273L24.7594 9.75319C25.0666 9.44594 25.4718 9.28563 25.877 9.27228C25.4718 9.29009 25.0711 9.44594 24.7594 9.75319L21.9674 12.5273C21.6424 12.8524 21.2149 13.0127 20.7874 13.0127ZM16.2722 9.3925C16.0896 9.3168 15.8937 9.27673 15.6978 9.26782C15.8937 9.27673 16.0896 9.3168 16.2722 9.3925Z" fill="#B5A5F0"/>
<path d="M4.82537 29.548C4.72937 29.548 4.65137 29.526 4.59137 29.482C4.53537 29.438 4.50137 29.38 4.48937 29.308C4.47737 29.232 4.49137 29.148 4.53137 29.056L6.11538 25.546C6.16737 25.43 6.22937 25.348 6.30137 25.3C6.37737 25.248 6.46337 25.222 6.55938 25.222C6.65138 25.222 6.73338 25.248 6.80538 25.3C6.88138 25.348 6.94538 25.43 6.99737 25.546L8.58738 29.056C8.63138 29.148 8.64738 29.232 8.63538 29.308C8.62338 29.384 8.58938 29.444 8.53338 29.488C8.47738 29.528 8.40338 29.548 8.31138 29.548C8.19938 29.548 8.11138 29.522 8.04738 29.47C7.98738 29.414 7.93338 29.33 7.88538 29.218L7.49538 28.312L7.81937 28.522H5.28737L5.61137 28.312L5.22737 29.218C5.17537 29.334 5.12137 29.418 5.06537 29.47C5.00937 29.522 4.92937 29.548 4.82537 29.548ZM6.54738 26.104L5.70737 28.102L5.55137 27.91H7.55538L7.40537 28.102L6.55938 26.104H6.54738ZM9.56022 29.548C9.44022 29.548 9.34822 29.516 9.28422 29.452C9.22022 29.384 9.18822 29.288 9.18822 29.164V26.896C9.18822 26.772 9.22022 26.678 9.28422 26.614C9.34822 26.55 9.43822 26.518 9.55422 26.518C9.67022 26.518 9.76022 26.55 9.82422 26.614C9.88822 26.678 9.92022 26.772 9.92022 26.896V27.334L9.85422 27.154C9.93422 26.954 10.0582 26.796 10.2262 26.68C10.3942 26.564 10.5942 26.506 10.8262 26.506C11.0622 26.506 11.2562 26.562 11.4082 26.674C11.5602 26.786 11.6662 26.958 11.7262 27.19H11.6422C11.7222 26.978 11.8542 26.812 12.0382 26.692C12.2222 26.568 12.4342 26.506 12.6742 26.506C12.8982 26.506 13.0822 26.55 13.2262 26.638C13.3742 26.726 13.4842 26.86 13.5562 27.04C13.6282 27.216 13.6642 27.44 13.6642 27.712V29.164C13.6642 29.288 13.6302 29.384 13.5622 29.452C13.4982 29.516 13.4062 29.548 13.2862 29.548C13.1662 29.548 13.0742 29.516 13.0102 29.452C12.9462 29.384 12.9142 29.288 12.9142 29.164V27.742C12.9142 27.518 12.8762 27.354 12.8002 27.25C12.7282 27.146 12.6042 27.094 12.4282 27.094C12.2322 27.094 12.0782 27.164 11.9662 27.304C11.8542 27.44 11.7982 27.63 11.7982 27.874V29.164C11.7982 29.288 11.7662 29.384 11.7022 29.452C11.6382 29.516 11.5462 29.548 11.4262 29.548C11.3062 29.548 11.2122 29.516 11.1442 29.452C11.0802 29.384 11.0482 29.288 11.0482 29.164V27.742C11.0482 27.518 11.0102 27.354 10.9342 27.25C10.8622 27.146 10.7402 27.094 10.5682 27.094C10.3722 27.094 10.2182 27.164 10.1062 27.304C9.99422 27.44 9.93822 27.63 9.93822 27.874V29.164C9.93822 29.42 9.81222 29.548 9.56022 29.548ZM15.8839 29.56C15.5519 29.56 15.2659 29.498 15.0259 29.374C14.7859 29.25 14.5999 29.074 14.4679 28.846C14.3399 28.618 14.2759 28.348 14.2759 28.036C14.2759 27.732 14.3379 27.466 14.4619 27.238C14.5899 27.01 14.7639 26.832 14.9839 26.704C15.2079 26.572 15.4619 26.506 15.7459 26.506C15.9539 26.506 16.1399 26.54 16.3039 26.608C16.4719 26.676 16.6139 26.774 16.7299 26.902C16.8499 27.03 16.9399 27.186 16.9999 27.37C17.0639 27.55 17.0959 27.754 17.0959 27.982C17.0959 28.054 17.0699 28.11 17.0179 28.15C16.9699 28.186 16.8999 28.204 16.8079 28.204H14.8819V27.772H16.5679L16.4719 27.862C16.4719 27.678 16.4439 27.524 16.3879 27.4C16.3359 27.276 16.2579 27.182 16.1539 27.118C16.0539 27.05 15.9279 27.016 15.7759 27.016C15.6079 27.016 15.4639 27.056 15.3439 27.136C15.2279 27.212 15.1379 27.322 15.0739 27.466C15.0139 27.606 14.9839 27.774 14.9839 27.97V28.012C14.9839 28.34 15.0599 28.586 15.2119 28.75C15.3679 28.91 15.5959 28.99 15.8959 28.99C15.9999 28.99 16.1159 28.978 16.2439 28.954C16.3759 28.926 16.4999 28.88 16.6159 28.816C16.6999 28.768 16.7739 28.748 16.8379 28.756C16.9019 28.76 16.9519 28.782 16.9879 28.822C17.0279 28.862 17.0519 28.912 17.0599 28.972C17.0679 29.028 17.0559 29.086 17.0239 29.146C16.9959 29.206 16.9459 29.258 16.8739 29.302C16.7339 29.39 16.5719 29.456 16.3879 29.5C16.2079 29.54 16.0399 29.56 15.8839 29.56ZM19.7988 29.5C19.6668 29.5 19.5648 29.466 19.4928 29.398C19.4248 29.326 19.3908 29.224 19.3908 29.092V25.678C19.3908 25.546 19.4248 25.446 19.4928 25.378C19.5648 25.306 19.6668 25.27 19.7988 25.27H20.9628C21.6708 25.27 22.2168 25.452 22.6008 25.816C22.9888 26.18 23.1828 26.702 23.1828 27.382C23.1828 27.722 23.1328 28.024 23.0328 28.288C22.9368 28.548 22.7928 28.768 22.6008 28.948C22.4128 29.128 22.1808 29.266 21.9048 29.362C21.6328 29.454 21.3188 29.5 20.9628 29.5H19.7988ZM20.1588 28.864H20.9148C21.1628 28.864 21.3768 28.834 21.5568 28.774C21.7408 28.71 21.8928 28.618 22.0128 28.498C22.1368 28.374 22.2288 28.22 22.2888 28.036C22.3488 27.848 22.3788 27.63 22.3788 27.382C22.3788 26.886 22.2568 26.516 22.0128 26.272C21.7688 26.028 21.4028 25.906 20.9148 25.906H20.1588V28.864ZM24.2611 29.542C24.1411 29.542 24.0491 29.506 23.9851 29.434C23.9211 29.362 23.8891 29.262 23.8891 29.134V26.932C23.8891 26.8 23.9211 26.7 23.9851 26.632C24.0491 26.56 24.1411 26.524 24.2611 26.524C24.3811 26.524 24.4731 26.56 24.5371 26.632C24.6051 26.7 24.6391 26.8 24.6391 26.932V29.134C24.6391 29.262 24.6071 29.362 24.5431 29.434C24.4791 29.506 24.3851 29.542 24.2611 29.542ZM24.2611 25.966C24.1211 25.966 24.0111 25.932 23.9311 25.864C23.8551 25.792 23.8171 25.694 23.8171 25.57C23.8171 25.442 23.8551 25.344 23.9311 25.276C24.0111 25.208 24.1211 25.174 24.2611 25.174C24.4051 25.174 24.5151 25.208 24.5911 25.276C24.6671 25.344 24.7051 25.442 24.7051 25.57C24.7051 25.694 24.6671 25.792 24.5911 25.864C24.5151 25.932 24.4051 25.966 24.2611 25.966ZM26.7864 30.64C26.5704 30.64 26.3604 30.62 26.1564 30.58C25.9564 30.54 25.7744 30.478 25.6104 30.394C25.5344 30.354 25.4824 30.306 25.4544 30.25C25.4304 30.194 25.4224 30.136 25.4304 30.076C25.4424 30.02 25.4664 29.97 25.5024 29.926C25.5424 29.882 25.5904 29.852 25.6464 29.836C25.7024 29.82 25.7604 29.828 25.8204 29.86C25.9964 29.948 26.1624 30.004 26.3184 30.028C26.4784 30.056 26.6144 30.07 26.7264 30.07C26.9944 30.07 27.1944 30.004 27.3264 29.872C27.4624 29.744 27.5304 29.552 27.5304 29.296V28.756H27.5844C27.5244 28.96 27.3984 29.124 27.2064 29.248C27.0184 29.368 26.8044 29.428 26.5644 29.428C26.3004 29.428 26.0704 29.368 25.8744 29.248C25.6784 29.124 25.5264 28.952 25.4184 28.732C25.3104 28.512 25.2564 28.256 25.2564 27.964C25.2564 27.744 25.2864 27.546 25.3464 27.37C25.4104 27.19 25.4984 27.036 25.6104 26.908C25.7264 26.78 25.8644 26.682 26.0244 26.614C26.1884 26.542 26.3684 26.506 26.5644 26.506C26.8124 26.506 27.0284 26.568 27.2124 26.692C27.4004 26.812 27.5224 26.972 27.5784 27.172L27.5184 27.322V26.896C27.5184 26.772 27.5504 26.678 27.6144 26.614C27.6824 26.55 27.7744 26.518 27.8904 26.518C28.0104 26.518 28.1024 26.55 28.1664 26.614C28.2304 26.678 28.2624 26.772 28.2624 26.896V29.206C28.2624 29.682 28.1364 30.04 27.8844 30.28C27.6324 30.52 27.2664 30.64 26.7864 30.64ZM26.7684 28.858C26.9244 28.858 27.0584 28.822 27.1704 28.75C27.2824 28.678 27.3684 28.576 27.4284 28.444C27.4924 28.308 27.5244 28.148 27.5244 27.964C27.5244 27.688 27.4564 27.472 27.3204 27.316C27.1844 27.156 27.0004 27.076 26.7684 27.076C26.6124 27.076 26.4784 27.112 26.3664 27.184C26.2544 27.256 26.1664 27.358 26.1024 27.49C26.0424 27.622 26.0124 27.78 26.0124 27.964C26.0124 28.24 26.0804 28.458 26.2164 28.618C26.3524 28.778 26.5364 28.858 26.7684 28.858ZM29.4115 29.542C29.2915 29.542 29.1995 29.506 29.1355 29.434C29.0715 29.362 29.0395 29.262 29.0395 29.134V26.932C29.0395 26.8 29.0715 26.7 29.1355 26.632C29.1995 26.56 29.2915 26.524 29.4115 26.524C29.5315 26.524 29.6235 26.56 29.6875 26.632C29.7555 26.7 29.7895 26.8 29.7895 26.932V29.134C29.7895 29.262 29.7575 29.362 29.6935 29.434C29.6295 29.506 29.5355 29.542 29.4115 29.542ZM29.4115 25.966C29.2715 25.966 29.1615 25.932 29.0815 25.864C29.0055 25.792 28.9675 25.694 28.9675 25.57C28.9675 25.442 29.0055 25.344 29.0815 25.276C29.1615 25.208 29.2715 25.174 29.4115 25.174C29.5555 25.174 29.6655 25.208 29.7415 25.276C29.8175 25.344 29.8555 25.442 29.8555 25.57C29.8555 25.694 29.8175 25.792 29.7415 25.864C29.6655 25.932 29.5555 25.966 29.4115 25.966ZM31.9128 29.56C31.6528 29.56 31.4348 29.516 31.2588 29.428C31.0868 29.34 30.9588 29.212 30.8748 29.044C30.7908 28.872 30.7488 28.66 30.7488 28.408V27.13H30.4368C30.3408 27.13 30.2668 27.106 30.2148 27.058C30.1628 27.006 30.1368 26.936 30.1368 26.848C30.1368 26.756 30.1628 26.686 30.2148 26.638C30.2668 26.59 30.3408 26.566 30.4368 26.566H30.7488V26.02C30.7488 25.896 30.7808 25.802 30.8448 25.738C30.9128 25.674 31.0068 25.642 31.1268 25.642C31.2468 25.642 31.3388 25.674 31.4028 25.738C31.4668 25.802 31.4988 25.896 31.4988 26.02V26.566H32.1348C32.2308 26.566 32.3048 26.59 32.3568 26.638C32.4088 26.686 32.4348 26.756 32.4348 26.848C32.4348 26.936 32.4088 27.006 32.3568 27.058C32.3048 27.106 32.2308 27.13 32.1348 27.13H31.4988V28.366C31.4988 28.558 31.5408 28.702 31.6248 28.798C31.7088 28.894 31.8448 28.942 32.0328 28.942C32.1008 28.942 32.1608 28.936 32.2128 28.924C32.2648 28.912 32.3108 28.904 32.3508 28.9C32.3988 28.896 32.4388 28.912 32.4708 28.948C32.5028 28.98 32.5188 29.048 32.5188 29.152C32.5188 29.232 32.5048 29.304 32.4768 29.368C32.4528 29.428 32.4068 29.47 32.3388 29.494C32.2868 29.51 32.2188 29.524 32.1348 29.536C32.0508 29.552 31.9768 29.56 31.9128 29.56ZM33.8375 29.56C33.6255 29.56 33.4355 29.52 33.2675 29.44C33.1035 29.356 32.9735 29.244 32.8775 29.104C32.7855 28.964 32.7395 28.806 32.7395 28.63C32.7395 28.414 32.7955 28.244 32.9075 28.12C33.0195 27.992 33.2015 27.9 33.4535 27.844C33.7055 27.788 34.0435 27.76 34.4675 27.76H34.7675V28.192H34.4735C34.2255 28.192 34.0275 28.204 33.8795 28.228C33.7315 28.252 33.6255 28.294 33.5615 28.354C33.5015 28.41 33.4715 28.49 33.4715 28.594C33.4715 28.726 33.5175 28.834 33.6095 28.918C33.7015 29.002 33.8295 29.044 33.9935 29.044C34.1255 29.044 34.2415 29.014 34.3415 28.954C34.4455 28.89 34.5275 28.804 34.5875 28.696C34.6475 28.588 34.6775 28.464 34.6775 28.324V27.634C34.6775 27.434 34.6335 27.29 34.5455 27.202C34.4575 27.114 34.3095 27.07 34.1015 27.07C33.9855 27.07 33.8595 27.084 33.7235 27.112C33.5915 27.14 33.4515 27.188 33.3035 27.256C33.2275 27.292 33.1595 27.302 33.0995 27.286C33.0435 27.27 32.9995 27.238 32.9675 27.19C32.9355 27.138 32.9195 27.082 32.9195 27.022C32.9195 26.962 32.9355 26.904 32.9675 26.848C32.9995 26.788 33.0535 26.744 33.1295 26.716C33.3135 26.64 33.4895 26.586 33.6575 26.554C33.8295 26.522 33.9855 26.506 34.1255 26.506C34.4135 26.506 34.6495 26.55 34.8335 26.638C35.0215 26.726 35.1615 26.86 35.2535 27.04C35.3455 27.216 35.3915 27.444 35.3915 27.724V29.164C35.3915 29.288 35.3615 29.384 35.3015 29.452C35.2415 29.516 35.1555 29.548 35.0435 29.548C34.9315 29.548 34.8435 29.516 34.7795 29.452C34.7195 29.384 34.6895 29.288 34.6895 29.164V28.876H34.7375C34.7095 29.016 34.6535 29.138 34.5695 29.242C34.4895 29.342 34.3875 29.42 34.2635 29.476C34.1395 29.532 33.9975 29.56 33.8375 29.56ZM37.1548 29.56C36.8228 29.56 36.5728 29.466 36.4048 29.278C36.2368 29.086 36.1528 28.806 36.1528 28.438V25.6C36.1528 25.476 36.1848 25.382 36.2488 25.318C36.3128 25.254 36.4048 25.222 36.5248 25.222C36.6448 25.222 36.7368 25.254 36.8008 25.318C36.8688 25.382 36.9028 25.476 36.9028 25.6V28.402C36.9028 28.586 36.9408 28.722 37.0168 28.81C37.0968 28.898 37.2088 28.942 37.3528 28.942C37.3848 28.942 37.4148 28.942 37.4428 28.942C37.4708 28.938 37.4988 28.934 37.5268 28.93C37.5828 28.922 37.6208 28.938 37.6408 28.978C37.6608 29.014 37.6708 29.09 37.6708 29.206C37.6708 29.306 37.6508 29.384 37.6108 29.44C37.5708 29.496 37.5048 29.53 37.4128 29.542C37.3728 29.546 37.3308 29.55 37.2868 29.554C37.2428 29.558 37.1988 29.56 37.1548 29.56Z" fill="#616161"/>
</svg>
