<svg width="55" height="41" viewBox="0 0 55 41" fill="none" xmlns="http://www.w3.org/2000/svg">
<path d="M36.2152 10.647H20.4054C20.1033 10.6481 19.8139 10.7684 19.6004 10.9817C19.3868 11.1951 19.2663 11.484 19.2651 11.7857V19.0881H37.3534V11.7857C37.3528 11.4842 37.2328 11.1952 37.0195 10.9819C36.8063 10.7685 36.5171 10.6481 36.2152 10.647ZM27.1315 13.6722H21.1071V12.7984H27.1315V13.6722Z" fill="#616161"/>
<path d="M19.2651 20.2939V21.3279C19.2663 21.6929 19.3868 22.0426 19.6004 22.3007C19.8139 22.5588 20.1033 22.7043 20.4054 22.7057H36.2152C36.5171 22.7043 36.8063 22.5587 37.0195 22.3005C37.2328 22.0424 37.3528 21.6927 37.3534 21.3279V20.2939H19.2651Z" fill="#616161"/>
<path d="M5.43009 29.56C4.99009 29.56 4.61209 29.472 4.29609 29.296C3.98409 29.116 3.74409 28.864 3.57609 28.54C3.40809 28.212 3.32409 27.826 3.32409 27.382C3.32409 27.05 3.37209 26.752 3.46809 26.488C3.56409 26.22 3.70209 25.992 3.88209 25.804C4.06209 25.612 4.28209 25.466 4.54209 25.366C4.80609 25.262 5.10209 25.21 5.43009 25.21C5.65009 25.21 5.86609 25.238 6.07809 25.294C6.29009 25.35 6.47609 25.43 6.63609 25.534C6.72009 25.586 6.77609 25.65 6.80409 25.726C6.83209 25.798 6.83809 25.87 6.82209 25.942C6.80609 26.01 6.77209 26.068 6.72009 26.116C6.67209 26.164 6.61009 26.192 6.53409 26.2C6.46209 26.204 6.38209 26.178 6.29409 26.122C6.17009 26.042 6.03609 25.984 5.89209 25.948C5.74809 25.912 5.60209 25.894 5.45409 25.894C5.17009 25.894 4.93009 25.952 4.73409 26.068C4.53809 26.184 4.39009 26.352 4.29009 26.572C4.19009 26.792 4.14009 27.062 4.14009 27.382C4.14009 27.698 4.19009 27.968 4.29009 28.192C4.39009 28.416 4.53809 28.586 4.73409 28.702C4.93009 28.818 5.17009 28.876 5.45409 28.876C5.60609 28.876 5.75609 28.858 5.90409 28.822C6.05209 28.782 6.19209 28.722 6.32409 28.642C6.41209 28.59 6.49009 28.568 6.55809 28.576C6.63009 28.58 6.69009 28.604 6.73809 28.648C6.78609 28.692 6.81809 28.748 6.83409 28.816C6.85009 28.88 6.84609 28.948 6.82209 29.02C6.79809 29.088 6.75009 29.148 6.67809 29.2C6.51809 29.316 6.32609 29.406 6.10209 29.47C5.88209 29.53 5.65809 29.56 5.43009 29.56ZM8.32874 29.56C8.11674 29.56 7.92674 29.52 7.75874 29.44C7.59474 29.356 7.46474 29.244 7.36874 29.104C7.27674 28.964 7.23074 28.806 7.23074 28.63C7.23074 28.414 7.28674 28.244 7.39874 28.12C7.51074 27.992 7.69274 27.9 7.94474 27.844C8.19674 27.788 8.53474 27.76 8.95874 27.76H9.25874V28.192H8.96474C8.71674 28.192 8.51874 28.204 8.37074 28.228C8.22274 28.252 8.11674 28.294 8.05274 28.354C7.99274 28.41 7.96274 28.49 7.96274 28.594C7.96274 28.726 8.00874 28.834 8.10074 28.918C8.19274 29.002 8.32074 29.044 8.48474 29.044C8.61674 29.044 8.73274 29.014 8.83274 28.954C8.93674 28.89 9.01874 28.804 9.07874 28.696C9.13874 28.588 9.16874 28.464 9.16874 28.324V27.634C9.16874 27.434 9.12474 27.29 9.03674 27.202C8.94874 27.114 8.80074 27.07 8.59274 27.07C8.47674 27.07 8.35074 27.084 8.21474 27.112C8.08274 27.14 7.94274 27.188 7.79474 27.256C7.71874 27.292 7.65074 27.302 7.59074 27.286C7.53474 27.27 7.49074 27.238 7.45874 27.19C7.42674 27.138 7.41074 27.082 7.41074 27.022C7.41074 26.962 7.42674 26.904 7.45874 26.848C7.49074 26.788 7.54474 26.744 7.62074 26.716C7.80474 26.64 7.98074 26.586 8.14874 26.554C8.32074 26.522 8.47674 26.506 8.61674 26.506C8.90474 26.506 9.14074 26.55 9.32474 26.638C9.51274 26.726 9.65274 26.86 9.74474 27.04C9.83674 27.216 9.88274 27.444 9.88274 27.724V29.164C9.88274 29.288 9.85274 29.384 9.79274 29.452C9.73274 29.516 9.64674 29.548 9.53474 29.548C9.42274 29.548 9.33474 29.516 9.27074 29.452C9.21074 29.384 9.18074 29.288 9.18074 29.164V28.876H9.22874C9.20074 29.016 9.14474 29.138 9.06074 29.242C8.98074 29.342 8.87874 29.42 8.75474 29.476C8.63074 29.532 8.48874 29.56 8.32874 29.56ZM11.028 29.548C10.904 29.548 10.808 29.516 10.74 29.452C10.676 29.384 10.644 29.288 10.644 29.164V26.896C10.644 26.772 10.676 26.678 10.74 26.614C10.804 26.55 10.894 26.518 11.01 26.518C11.126 26.518 11.216 26.55 11.28 26.614C11.344 26.678 11.376 26.772 11.376 26.896V27.274H11.316C11.372 27.034 11.482 26.852 11.646 26.728C11.81 26.604 12.028 26.53 12.3 26.506C12.384 26.498 12.45 26.52 12.498 26.572C12.55 26.62 12.58 26.696 12.588 26.8C12.596 26.9 12.572 26.982 12.516 27.046C12.464 27.106 12.384 27.142 12.276 27.154L12.144 27.166C11.9 27.19 11.716 27.266 11.592 27.394C11.468 27.518 11.406 27.694 11.406 27.922V29.164C11.406 29.288 11.374 29.384 11.31 29.452C11.246 29.516 11.152 29.548 11.028 29.548ZM14.5075 29.56C14.2475 29.56 14.0295 29.516 13.8535 29.428C13.6815 29.34 13.5535 29.212 13.4695 29.044C13.3855 28.872 13.3435 28.66 13.3435 28.408V27.13H13.0315C12.9355 27.13 12.8615 27.106 12.8095 27.058C12.7575 27.006 12.7315 26.936 12.7315 26.848C12.7315 26.756 12.7575 26.686 12.8095 26.638C12.8615 26.59 12.9355 26.566 13.0315 26.566H13.3435V26.02C13.3435 25.896 13.3755 25.802 13.4395 25.738C13.5075 25.674 13.6015 25.642 13.7215 25.642C13.8415 25.642 13.9335 25.674 13.9975 25.738C14.0615 25.802 14.0935 25.896 14.0935 26.02V26.566H14.7295C14.8255 26.566 14.8995 26.59 14.9515 26.638C15.0035 26.686 15.0295 26.756 15.0295 26.848C15.0295 26.936 15.0035 27.006 14.9515 27.058C14.8995 27.106 14.8255 27.13 14.7295 27.13H14.0935V28.366C14.0935 28.558 14.1355 28.702 14.2195 28.798C14.3035 28.894 14.4395 28.942 14.6275 28.942C14.6955 28.942 14.7555 28.936 14.8075 28.924C14.8595 28.912 14.9055 28.904 14.9455 28.9C14.9935 28.896 15.0335 28.912 15.0655 28.948C15.0975 28.98 15.1135 29.048 15.1135 29.152C15.1135 29.232 15.0995 29.304 15.0715 29.368C15.0475 29.428 15.0015 29.47 14.9335 29.494C14.8815 29.51 14.8135 29.524 14.7295 29.536C14.6455 29.552 14.5715 29.56 14.5075 29.56ZM16.4323 29.56C16.2203 29.56 16.0303 29.52 15.8623 29.44C15.6983 29.356 15.5683 29.244 15.4723 29.104C15.3803 28.964 15.3343 28.806 15.3343 28.63C15.3343 28.414 15.3903 28.244 15.5023 28.12C15.6143 27.992 15.7963 27.9 16.0483 27.844C16.3003 27.788 16.6383 27.76 17.0623 27.76H17.3623V28.192H17.0683C16.8203 28.192 16.6223 28.204 16.4743 28.228C16.3263 28.252 16.2203 28.294 16.1563 28.354C16.0963 28.41 16.0663 28.49 16.0663 28.594C16.0663 28.726 16.1123 28.834 16.2043 28.918C16.2963 29.002 16.4243 29.044 16.5883 29.044C16.7203 29.044 16.8363 29.014 16.9363 28.954C17.0403 28.89 17.1223 28.804 17.1823 28.696C17.2423 28.588 17.2723 28.464 17.2723 28.324V27.634C17.2723 27.434 17.2283 27.29 17.1403 27.202C17.0523 27.114 16.9043 27.07 16.6963 27.07C16.5803 27.07 16.4543 27.084 16.3183 27.112C16.1863 27.14 16.0463 27.188 15.8983 27.256C15.8223 27.292 15.7543 27.302 15.6943 27.286C15.6383 27.27 15.5943 27.238 15.5623 27.19C15.5303 27.138 15.5143 27.082 15.5143 27.022C15.5143 26.962 15.5303 26.904 15.5623 26.848C15.5943 26.788 15.6483 26.744 15.7243 26.716C15.9083 26.64 16.0843 26.586 16.2523 26.554C16.4243 26.522 16.5803 26.506 16.7203 26.506C17.0083 26.506 17.2443 26.55 17.4283 26.638C17.6163 26.726 17.7563 26.86 17.8483 27.04C17.9403 27.216 17.9863 27.444 17.9863 27.724V29.164C17.9863 29.288 17.9563 29.384 17.8963 29.452C17.8363 29.516 17.7503 29.548 17.6383 29.548C17.5263 29.548 17.4383 29.516 17.3743 29.452C17.3143 29.384 17.2843 29.288 17.2843 29.164V28.876H17.3323C17.3043 29.016 17.2483 29.138 17.1643 29.242C17.0843 29.342 16.9823 29.42 16.8583 29.476C16.7343 29.532 16.5923 29.56 16.4323 29.56ZM15.7723 26.014C15.7123 26.01 15.6663 25.99 15.6343 25.954C15.6023 25.918 15.5943 25.862 15.6103 25.786C15.6263 25.702 15.6503 25.62 15.6823 25.54C15.7183 25.456 15.7643 25.38 15.8203 25.312C15.8763 25.244 15.9443 25.19 16.0243 25.15C16.1043 25.106 16.1983 25.084 16.3063 25.084C16.4063 25.084 16.4943 25.104 16.5703 25.144C16.6463 25.184 16.7163 25.23 16.7803 25.282C16.8443 25.334 16.9083 25.38 16.9723 25.42C17.0363 25.46 17.1063 25.48 17.1823 25.48C17.2663 25.48 17.3383 25.452 17.3983 25.396C17.4623 25.336 17.5023 25.262 17.5183 25.174C17.5263 25.13 17.5463 25.096 17.5783 25.072C17.6143 25.048 17.6643 25.038 17.7283 25.042C17.7883 25.046 17.8343 25.066 17.8663 25.102C17.8983 25.138 17.9063 25.194 17.8903 25.27C17.8703 25.378 17.8323 25.486 17.7763 25.594C17.7203 25.702 17.6443 25.792 17.5483 25.864C17.4563 25.936 17.3383 25.972 17.1943 25.972C17.0943 25.972 17.0063 25.952 16.9303 25.912C16.8543 25.872 16.7823 25.826 16.7143 25.774C16.6503 25.722 16.5863 25.676 16.5223 25.636C16.4583 25.596 16.3903 25.576 16.3183 25.576C16.2343 25.576 16.1623 25.604 16.1023 25.66C16.0423 25.716 16.0023 25.79 15.9823 25.882C15.9743 25.926 15.9523 25.96 15.9163 25.984C15.8843 26.008 15.8363 26.018 15.7723 26.014ZM20.0855 29.56C19.7815 29.56 19.5175 29.498 19.2935 29.374C19.0695 29.25 18.8955 29.074 18.7715 28.846C18.6475 28.614 18.5855 28.342 18.5855 28.03C18.5855 27.794 18.6195 27.584 18.6875 27.4C18.7595 27.212 18.8615 27.052 18.9935 26.92C19.1255 26.784 19.2835 26.682 19.4675 26.614C19.6515 26.542 19.8575 26.506 20.0855 26.506C20.3895 26.506 20.6535 26.568 20.8775 26.692C21.1015 26.816 21.2755 26.992 21.3995 27.22C21.5235 27.448 21.5855 27.718 21.5855 28.03C21.5855 28.266 21.5495 28.478 21.4775 28.666C21.4095 28.854 21.3095 29.016 21.1775 29.152C21.0455 29.284 20.8875 29.386 20.7035 29.458C20.5195 29.526 20.3135 29.56 20.0855 29.56ZM20.0855 28.99C20.2335 28.99 20.3635 28.954 20.4755 28.882C20.5875 28.81 20.6735 28.704 20.7335 28.564C20.7975 28.42 20.8295 28.242 20.8295 28.03C20.8295 27.71 20.7615 27.472 20.6255 27.316C20.4895 27.156 20.3095 27.076 20.0855 27.076C19.9375 27.076 19.8075 27.112 19.6955 27.184C19.5835 27.252 19.4955 27.358 19.4315 27.502C19.3715 27.642 19.3415 27.818 19.3415 28.03C19.3415 28.346 19.4095 28.586 19.5455 28.75C19.6815 28.91 19.8615 28.99 20.0855 28.99ZM24.9614 29.56C24.7054 29.56 24.4794 29.498 24.2834 29.374C24.0914 29.25 23.9414 29.074 23.8334 28.846C23.7254 28.614 23.6714 28.342 23.6714 28.03C23.6714 27.714 23.7254 27.444 23.8334 27.22C23.9414 26.992 24.0914 26.816 24.2834 26.692C24.4794 26.568 24.7054 26.506 24.9614 26.506C25.2054 26.506 25.4174 26.566 25.5974 26.686C25.7814 26.806 25.9054 26.964 25.9694 27.16H25.9034V25.6C25.9034 25.476 25.9354 25.382 25.9994 25.318C26.0634 25.254 26.1554 25.222 26.2754 25.222C26.3954 25.222 26.4874 25.254 26.5514 25.318C26.6194 25.382 26.6534 25.476 26.6534 25.6V29.164C26.6534 29.288 26.6214 29.384 26.5574 29.452C26.4934 29.516 26.4014 29.548 26.2814 29.548C26.1614 29.548 26.0694 29.516 26.0054 29.452C25.9414 29.384 25.9094 29.288 25.9094 29.164V28.696L25.9754 28.876C25.9154 29.084 25.7934 29.25 25.6094 29.374C25.4254 29.498 25.2094 29.56 24.9614 29.56ZM25.1714 28.99C25.3194 28.99 25.4494 28.954 25.5614 28.882C25.6734 28.81 25.7594 28.704 25.8194 28.564C25.8834 28.42 25.9154 28.242 25.9154 28.03C25.9154 27.71 25.8474 27.472 25.7114 27.316C25.5754 27.156 25.3954 27.076 25.1714 27.076C25.0234 27.076 24.8934 27.112 24.7814 27.184C24.6694 27.252 24.5814 27.358 24.5174 27.502C24.4574 27.642 24.4274 27.818 24.4274 28.03C24.4274 28.346 24.4954 28.586 24.6314 28.75C24.7674 28.91 24.9474 28.99 25.1714 28.99ZM28.8771 29.56C28.5451 29.56 28.2591 29.498 28.0191 29.374C27.7791 29.25 27.5931 29.074 27.4611 28.846C27.3331 28.618 27.2691 28.348 27.2691 28.036C27.2691 27.732 27.3311 27.466 27.4551 27.238C27.5831 27.01 27.7571 26.832 27.9771 26.704C28.2011 26.572 28.4551 26.506 28.7391 26.506C28.9471 26.506 29.1331 26.54 29.2971 26.608C29.4651 26.676 29.6071 26.774 29.7231 26.902C29.8431 27.03 29.9331 27.186 29.9931 27.37C30.0571 27.55 30.0891 27.754 30.0891 27.982C30.0891 28.054 30.0631 28.11 30.0111 28.15C29.9631 28.186 29.8931 28.204 29.8011 28.204H27.8751V27.772H29.5611L29.4651 27.862C29.4651 27.678 29.4371 27.524 29.3811 27.4C29.3291 27.276 29.2511 27.182 29.1471 27.118C29.0471 27.05 28.9211 27.016 28.7691 27.016C28.6011 27.016 28.4571 27.056 28.3371 27.136C28.2211 27.212 28.1311 27.322 28.0671 27.466C28.0071 27.606 27.9771 27.774 27.9771 27.97V28.012C27.9771 28.34 28.0531 28.586 28.2051 28.75C28.3611 28.91 28.5891 28.99 28.8891 28.99C28.9931 28.99 29.1091 28.978 29.2371 28.954C29.3691 28.926 29.4931 28.88 29.6091 28.816C29.6931 28.768 29.7671 28.748 29.8311 28.756C29.8951 28.76 29.9451 28.782 29.9811 28.822C30.0211 28.862 30.0451 28.912 30.0531 28.972C30.0611 29.028 30.0491 29.086 30.0171 29.146C29.9891 29.206 29.9391 29.258 29.8671 29.302C29.7271 29.39 29.5651 29.456 29.3811 29.5C29.2011 29.54 29.0331 29.56 28.8771 29.56ZM34.352 29.56C33.912 29.56 33.534 29.472 33.218 29.296C32.906 29.116 32.666 28.864 32.498 28.54C32.33 28.212 32.246 27.826 32.246 27.382C32.246 27.05 32.294 26.752 32.39 26.488C32.486 26.22 32.624 25.992 32.804 25.804C32.984 25.612 33.204 25.466 33.464 25.366C33.728 25.262 34.024 25.21 34.352 25.21C34.572 25.21 34.788 25.238 35 25.294C35.212 25.35 35.398 25.43 35.558 25.534C35.642 25.586 35.698 25.65 35.726 25.726C35.754 25.798 35.76 25.87 35.744 25.942C35.728 26.01 35.694 26.068 35.642 26.116C35.594 26.164 35.532 26.192 35.456 26.2C35.384 26.204 35.304 26.178 35.216 26.122C35.092 26.042 34.958 25.984 34.814 25.948C34.67 25.912 34.524 25.894 34.376 25.894C34.092 25.894 33.852 25.952 33.656 26.068C33.46 26.184 33.312 26.352 33.212 26.572C33.112 26.792 33.062 27.062 33.062 27.382C33.062 27.698 33.112 27.968 33.212 28.192C33.312 28.416 33.46 28.586 33.656 28.702C33.852 28.818 34.092 28.876 34.376 28.876C34.528 28.876 34.678 28.858 34.826 28.822C34.974 28.782 35.114 28.722 35.246 28.642C35.334 28.59 35.412 28.568 35.48 28.576C35.552 28.58 35.612 28.604 35.66 28.648C35.708 28.692 35.74 28.748 35.756 28.816C35.772 28.88 35.768 28.948 35.744 29.02C35.72 29.088 35.672 29.148 35.6 29.2C35.44 29.316 35.248 29.406 35.024 29.47C34.804 29.53 34.58 29.56 34.352 29.56ZM36.7741 29.548C36.6501 29.548 36.5541 29.516 36.4861 29.452C36.4221 29.384 36.3901 29.288 36.3901 29.164V26.896C36.3901 26.772 36.4221 26.678 36.4861 26.614C36.5501 26.55 36.6401 26.518 36.7561 26.518C36.8721 26.518 36.9621 26.55 37.0261 26.614C37.0901 26.678 37.1221 26.772 37.1221 26.896V27.274H37.0621C37.1181 27.034 37.2281 26.852 37.3921 26.728C37.5561 26.604 37.7741 26.53 38.0461 26.506C38.1301 26.498 38.1961 26.52 38.2441 26.572C38.2961 26.62 38.3261 26.696 38.3341 26.8C38.3421 26.9 38.3181 26.982 38.2621 27.046C38.2101 27.106 38.1301 27.142 38.0221 27.154L37.8901 27.166C37.6461 27.19 37.4621 27.266 37.3381 27.394C37.2141 27.518 37.1521 27.694 37.1521 27.922V29.164C37.1521 29.288 37.1201 29.384 37.0561 29.452C36.9921 29.516 36.8981 29.548 36.7741 29.548ZM40.1388 29.56C39.8068 29.56 39.5208 29.498 39.2808 29.374C39.0408 29.25 38.8548 29.074 38.7228 28.846C38.5948 28.618 38.5308 28.348 38.5308 28.036C38.5308 27.732 38.5928 27.466 38.7168 27.238C38.8448 27.01 39.0188 26.832 39.2388 26.704C39.4628 26.572 39.7168 26.506 40.0008 26.506C40.2088 26.506 40.3948 26.54 40.5588 26.608C40.7268 26.676 40.8688 26.774 40.9848 26.902C41.1048 27.03 41.1948 27.186 41.2548 27.37C41.3188 27.55 41.3508 27.754 41.3508 27.982C41.3508 28.054 41.3248 28.11 41.2728 28.15C41.2248 28.186 41.1548 28.204 41.0628 28.204H39.1368V27.772H40.8228L40.7268 27.862C40.7268 27.678 40.6988 27.524 40.6428 27.4C40.5908 27.276 40.5128 27.182 40.4088 27.118C40.3088 27.05 40.1828 27.016 40.0308 27.016C39.8628 27.016 39.7188 27.056 39.5988 27.136C39.4828 27.212 39.3928 27.322 39.3288 27.466C39.2688 27.606 39.2388 27.774 39.2388 27.97V28.012C39.2388 28.34 39.3148 28.586 39.4668 28.75C39.6228 28.91 39.8508 28.99 40.1508 28.99C40.2548 28.99 40.3708 28.978 40.4988 28.954C40.6308 28.926 40.7548 28.88 40.8708 28.816C40.9548 28.768 41.0288 28.748 41.0928 28.756C41.1568 28.76 41.2068 28.782 41.2428 28.822C41.2828 28.862 41.3068 28.912 41.3148 28.972C41.3228 29.028 41.3108 29.086 41.2788 29.146C41.2508 29.206 41.2008 29.258 41.1288 29.302C40.9888 29.39 40.8268 29.456 40.6428 29.5C40.4628 29.54 40.2948 29.56 40.1388 29.56ZM40.2888 26.14C40.2488 26.196 40.2008 26.228 40.1448 26.236C40.0888 26.244 40.0348 26.234 39.9828 26.206C39.9308 26.178 39.8928 26.138 39.8688 26.086C39.8488 26.034 39.8548 25.976 39.8868 25.912L40.3428 25.018C40.3788 24.942 40.4268 24.894 40.4868 24.874C40.5468 24.85 40.6088 24.846 40.6728 24.862C40.7368 24.878 40.7908 24.908 40.8348 24.952C40.8828 24.996 40.9108 25.05 40.9188 25.114C40.9308 25.174 40.9148 25.236 40.8708 25.3L40.2888 26.14ZM43.0728 29.56C42.8168 29.56 42.5908 29.498 42.3948 29.374C42.2028 29.25 42.0528 29.074 41.9448 28.846C41.8368 28.614 41.7828 28.342 41.7828 28.03C41.7828 27.714 41.8368 27.444 41.9448 27.22C42.0528 26.992 42.2028 26.816 42.3948 26.692C42.5908 26.568 42.8168 26.506 43.0728 26.506C43.3168 26.506 43.5288 26.566 43.7088 26.686C43.8928 26.806 44.0168 26.964 44.0808 27.16H44.0148V25.6C44.0148 25.476 44.0468 25.382 44.1108 25.318C44.1748 25.254 44.2668 25.222 44.3868 25.222C44.5068 25.222 44.5988 25.254 44.6628 25.318C44.7308 25.382 44.7648 25.476 44.7648 25.6V29.164C44.7648 29.288 44.7328 29.384 44.6688 29.452C44.6048 29.516 44.5128 29.548 44.3928 29.548C44.2728 29.548 44.1808 29.516 44.1168 29.452C44.0528 29.384 44.0208 29.288 44.0208 29.164V28.696L44.0868 28.876C44.0268 29.084 43.9048 29.25 43.7208 29.374C43.5368 29.498 43.3208 29.56 43.0728 29.56ZM43.2828 28.99C43.4308 28.99 43.5608 28.954 43.6728 28.882C43.7848 28.81 43.8708 28.704 43.9308 28.564C43.9948 28.42 44.0268 28.242 44.0268 28.03C44.0268 27.71 43.9588 27.472 43.8228 27.316C43.6868 27.156 43.5068 27.076 43.2828 27.076C43.1348 27.076 43.0048 27.112 42.8928 27.184C42.7808 27.252 42.6928 27.358 42.6288 27.502C42.5688 27.642 42.5388 27.818 42.5388 28.03C42.5388 28.346 42.6068 28.586 42.7428 28.75C42.8788 28.91 43.0588 28.99 43.2828 28.99ZM45.9144 29.542C45.7944 29.542 45.7024 29.506 45.6384 29.434C45.5744 29.362 45.5424 29.262 45.5424 29.134V26.932C45.5424 26.8 45.5744 26.7 45.6384 26.632C45.7024 26.56 45.7944 26.524 45.9144 26.524C46.0344 26.524 46.1264 26.56 46.1904 26.632C46.2584 26.7 46.2924 26.8 46.2924 26.932V29.134C46.2924 29.262 46.2604 29.362 46.1964 29.434C46.1324 29.506 46.0384 29.542 45.9144 29.542ZM45.9144 25.966C45.7744 25.966 45.6644 25.932 45.5844 25.864C45.5084 25.792 45.4704 25.694 45.4704 25.57C45.4704 25.442 45.5084 25.344 45.5844 25.276C45.6644 25.208 45.7744 25.174 45.9144 25.174C46.0584 25.174 46.1684 25.208 46.2444 25.276C46.3204 25.344 46.3584 25.442 46.3584 25.57C46.3584 25.694 46.3204 25.792 46.2444 25.864C46.1684 25.932 46.0584 25.966 45.9144 25.966ZM48.4157 29.56C48.1557 29.56 47.9377 29.516 47.7617 29.428C47.5897 29.34 47.4617 29.212 47.3777 29.044C47.2937 28.872 47.2517 28.66 47.2517 28.408V27.13H46.9397C46.8437 27.13 46.7697 27.106 46.7177 27.058C46.6657 27.006 46.6397 26.936 46.6397 26.848C46.6397 26.756 46.6657 26.686 46.7177 26.638C46.7697 26.59 46.8437 26.566 46.9397 26.566H47.2517V26.02C47.2517 25.896 47.2837 25.802 47.3477 25.738C47.4157 25.674 47.5097 25.642 47.6297 25.642C47.7497 25.642 47.8417 25.674 47.9057 25.738C47.9697 25.802 48.0017 25.896 48.0017 26.02V26.566H48.6377C48.7337 26.566 48.8077 26.59 48.8597 26.638C48.9117 26.686 48.9377 26.756 48.9377 26.848C48.9377 26.936 48.9117 27.006 48.8597 27.058C48.8077 27.106 48.7337 27.13 48.6377 27.13H48.0017V28.366C48.0017 28.558 48.0437 28.702 48.1277 28.798C48.2117 28.894 48.3477 28.942 48.5357 28.942C48.6037 28.942 48.6637 28.936 48.7157 28.924C48.7677 28.912 48.8137 28.904 48.8537 28.9C48.9017 28.896 48.9417 28.912 48.9737 28.948C49.0057 28.98 49.0217 29.048 49.0217 29.152C49.0217 29.232 49.0077 29.304 48.9797 29.368C48.9557 29.428 48.9097 29.47 48.8417 29.494C48.7897 29.51 48.7217 29.524 48.6377 29.536C48.5537 29.552 48.4797 29.56 48.4157 29.56ZM50.6832 29.56C50.3792 29.56 50.1152 29.498 49.8912 29.374C49.6672 29.25 49.4932 29.074 49.3692 28.846C49.2452 28.614 49.1832 28.342 49.1832 28.03C49.1832 27.794 49.2172 27.584 49.2852 27.4C49.3572 27.212 49.4592 27.052 49.5912 26.92C49.7232 26.784 49.8812 26.682 50.0652 26.614C50.2492 26.542 50.4552 26.506 50.6832 26.506C50.9872 26.506 51.2512 26.568 51.4752 26.692C51.6992 26.816 51.8732 26.992 51.9972 27.22C52.1212 27.448 52.1832 27.718 52.1832 28.03C52.1832 28.266 52.1472 28.478 52.0752 28.666C52.0072 28.854 51.9072 29.016 51.7752 29.152C51.6432 29.284 51.4852 29.386 51.3012 29.458C51.1172 29.526 50.9112 29.56 50.6832 29.56ZM50.6832 28.99C50.8312 28.99 50.9612 28.954 51.0732 28.882C51.1852 28.81 51.2712 28.704 51.3312 28.564C51.3952 28.42 51.4272 28.242 51.4272 28.03C51.4272 27.71 51.3592 27.472 51.2232 27.316C51.0872 27.156 50.9072 27.076 50.6832 27.076C50.5352 27.076 50.4052 27.112 50.2932 27.184C50.1812 27.252 50.0932 27.358 50.0292 27.502C49.9692 27.642 49.9392 27.818 49.9392 28.03C49.9392 28.346 50.0072 28.586 50.1432 28.75C50.2792 28.91 50.4592 28.99 50.6832 28.99Z" fill="#616161"/>
</svg>
