<svg width="46" height="16" viewBox="0 0 46 16" fill="none" xmlns="http://www.w3.org/2000/svg">
<path d="M10.0041 12.6122H12.1067V6.27487H10.0041V12.6122ZM12.8344 1.96243H11.4174V3.42668H12.8344V1.96243ZM4.88687 2.67472H2.85461V4.51258H4.74197C5.93957 4.51258 6.62887 5.11245 6.62887 6.23755C6.62887 7.36266 5.93957 7.99984 4.74197 7.99984H2.85461V4.55178H0.751953V12.6122H2.85461V9.83723H4.85076C7.28207 9.83723 8.6977 8.48729 8.6977 6.16245C8.6977 3.98734 7.31863 2.67472 4.88687 2.67472ZM14.2501 0.501968H10.0041V4.88714H14.2501V0.501968ZM13.5603 4.13896H10.73V1.21236H13.5603V4.13896ZM25.8992 2.67472H23.9758V4.51258H25.79C26.9876 4.51258 27.6774 5.11245 27.6774 6.23755C27.6774 7.36266 26.9876 7.99984 25.79 7.99984H23.9758V4.55178H21.8731V12.6122H23.9758V9.83723H25.8992C28.3306 9.83723 29.7457 8.48729 29.7457 6.16245C29.7457 3.98734 28.3306 2.67472 25.8992 2.67472ZM43.5725 5.00003L41.7578 9.7234L39.9431 5.00003H37.766L40.669 12.6122L39.5441 15.4996H41.7578L45.7497 5.00003H43.5725ZM34.1371 4.96224C32.8668 4.96224 31.8868 5.26218 30.798 5.82473L31.4516 7.32487C32.2136 6.87474 32.9756 6.6499 33.6649 6.6499C34.681 6.6499 35.1893 7.10004 35.1893 7.92521V8.07542H33.1557C31.341 8.07542 30.3614 8.9379 30.3614 10.3629C30.3614 11.7502 31.3049 12.7246 32.9015 12.7246C33.9177 12.7246 34.6435 12.3501 35.2241 11.7124V12.5371H37.2929V7.58749C37.2239 5.97493 36.0967 4.96224 34.1371 4.96224ZM35.3712 10.0635C35.1537 10.7007 34.5366 11.2259 33.6654 11.2259C32.9399 11.2259 32.5043 10.8509 32.5043 10.251C32.5043 9.65113 32.9034 9.38851 33.7019 9.38851H35.3712V10.0635ZM17.4795 10.9623C16.4634 10.9623 15.7379 10.1372 15.7379 8.89964C15.7379 7.69991 16.4634 6.87474 17.4795 6.87474C18.2054 6.87474 18.7498 7.17467 19.1493 7.69991L20.5663 6.6499C19.9131 5.63721 18.7882 5.03735 17.3725 5.03735C15.1588 5.00003 13.6348 6.5748 13.6348 8.89964C13.6348 11.2245 15.1588 12.7624 17.3725 12.7624C18.8969 12.7624 20.0237 12.1248 20.639 11.0748L19.1872 10.0625C18.8224 10.6624 18.2419 10.9623 17.4795 10.9623Z" fill="#929292"/>
</svg>
