<svg width="59" height="41" viewBox="0 0 59 41" fill="none" xmlns="http://www.w3.org/2000/svg">
<path d="M24.6035 28.8685V17.8024C24.6035 16.8248 24.9832 15.8872 25.659 15.1959C26.3348 14.5046 27.2514 14.1162 28.2072 14.1162L31.4009 14.1208C32.3542 14.1227 33.2677 14.5115 33.941 15.2018C34.6144 15.892 34.9925 16.8273 34.9923 17.8024V20.1574C34.9923 21.1351 34.6127 22.0727 33.9369 22.7641C33.2611 23.4555 32.3445 23.844 31.3887 23.8442H26.8745" stroke="#616161" stroke-linecap="round" stroke-linejoin="round"/>
<path d="M35.8848 14.116H37.2703C37.6626 14.116 38.0388 14.2754 38.3162 14.5591C38.5936 14.8429 38.7494 15.2277 38.7494 15.629V23.8946" stroke="#616161" stroke-linecap="round" stroke-linejoin="round"/>
<path d="M37.6103 12.8355L36.9821 12.1923C36.9451 12.1545 36.9157 12.1095 36.8956 12.06C36.8756 12.0105 36.8652 11.9574 36.8652 11.9038C36.8652 11.8502 36.8756 11.7971 36.8956 11.7476C36.9157 11.6981 36.9451 11.6532 36.9821 11.6153L37.6103 10.9727C37.6853 10.8961 37.7869 10.853 37.8929 10.853C37.9989 10.853 38.1006 10.8961 38.1756 10.9727L38.8032 11.6153C38.8402 11.6532 38.8696 11.6981 38.8897 11.7476C38.9097 11.7971 38.9201 11.8502 38.9201 11.9038C38.9201 11.9574 38.9097 12.0105 38.8897 12.06C38.8696 12.1095 38.8402 12.1545 38.8032 12.1923L38.1728 12.8355C38.1357 12.8734 38.0917 12.9035 38.0432 12.924C37.9948 12.9445 37.9429 12.9551 37.8904 12.9551C37.838 12.9551 37.7861 12.9445 37.7376 12.924C37.6892 12.9035 37.6452 12.8734 37.6081 12.8355" fill="#616161"/>
<path d="M41.4092 14.1086H42.783C43.4897 14.1083 44.1676 14.3952 44.6675 14.9062L47.8814 18.1936C47.9803 18.2949 48.0978 18.3753 48.2271 18.4302C48.3565 18.485 48.4951 18.5133 48.6351 18.5133C48.7751 18.5133 48.9138 18.485 49.0431 18.4302C49.1724 18.3753 49.2899 18.2949 49.3889 18.1936L52.591 14.9187C52.8384 14.6657 53.1321 14.465 53.4554 14.3282C53.7786 14.1913 54.1251 14.121 54.4749 14.1212H55.5921" stroke="#616161" stroke-linecap="round" stroke-linejoin="round"/>
<path d="M41.4092 23.8221H42.783C43.4897 23.8223 44.1676 23.5355 44.6675 23.0246L47.8814 19.7371C48.0813 19.5328 48.3524 19.418 48.6351 19.418C48.9178 19.418 49.1889 19.5328 49.3889 19.7371L52.591 23.0126C53.0907 23.5235 53.7684 23.8104 54.4749 23.8101H55.5921" stroke="#616161" stroke-linecap="round" stroke-linejoin="round"/>
<path d="M16.4131 25.922C16.0742 25.9232 15.7383 25.8557 15.425 25.7235C15.1117 25.5912 14.8271 25.3967 14.5877 25.1512L11.9508 22.4522C11.8575 22.361 11.7334 22.3101 11.6044 22.3101C11.4754 22.3101 11.3513 22.361 11.258 22.4522L8.61223 25.1586C8.37296 25.4044 8.08844 25.5993 7.77511 25.732C7.46178 25.8647 7.12586 25.9325 6.78674 25.9316H6.27051L9.61185 29.3496C10.113 29.8611 10.792 30.1484 11.5 30.1484C12.2079 30.1484 12.887 29.8611 13.3881 29.3496L16.7361 25.9242L16.4131 25.922Z" fill="#616161"/>
<path d="M6.7873 16.3837C7.12642 16.3828 7.46236 16.4507 7.77569 16.5833C8.08902 16.716 8.37354 16.9109 8.61279 17.1568L11.2586 19.8637C11.3505 19.9575 11.4751 20.0102 11.605 20.0102C11.7348 20.0102 11.8594 19.9575 11.9513 19.8637L14.5877 17.167C14.8267 16.9209 15.1112 16.7257 15.4246 16.5929C15.7379 16.4601 16.074 16.3923 16.4131 16.3934H16.7306L13.3826 12.9687C13.1346 12.715 12.8403 12.5137 12.5163 12.3764C12.1923 12.2391 11.8451 12.1685 11.4944 12.1685C11.1437 12.1685 10.7965 12.2391 10.4725 12.3764C10.1486 12.5137 9.8542 12.715 9.60628 12.9687L6.27051 16.3837H6.7873Z" fill="#616161"/>
<path d="M19.4989 19.2266L17.4758 17.1571C17.4301 17.1761 17.3814 17.1862 17.3321 17.1867H16.4121C15.9334 17.1879 15.4745 17.3824 15.1352 17.7279L12.4988 20.4229C12.2614 20.6653 11.9397 20.8015 11.6042 20.8015C11.2687 20.8015 10.947 20.6653 10.7096 20.4229L8.06321 17.7176C7.72399 17.3719 7.26507 17.1772 6.78626 17.1759H5.65689C5.61034 17.1748 5.56435 17.1653 5.52101 17.1479L3.48502 19.2266C2.98495 19.7392 2.7041 20.4338 2.7041 21.158C2.7041 21.8822 2.98495 22.5768 3.48502 23.0894L5.51655 25.1675C5.5598 25.1498 5.60585 25.1403 5.65243 25.1396H6.78626C7.26506 25.1382 7.72396 24.9435 8.06321 24.5979L10.709 21.8914C11.1874 21.4027 12.021 21.4027 12.4988 21.8914L15.1352 24.5876C15.4745 24.9331 15.9334 25.1275 16.4121 25.1288H17.3321C17.3814 25.1291 17.4302 25.1392 17.4758 25.1584L19.4989 23.0888C19.747 22.8352 19.9437 22.5341 20.0779 22.2028C20.2122 21.8714 20.2812 21.5162 20.2812 21.1574C20.2812 20.7987 20.2122 20.4435 20.0779 20.1121C19.9437 19.7807 19.747 19.4796 19.4989 19.226" fill="#616161"/>
<path d="M27.3506 27.928C27.1834 27.9355 27.0174 27.9613 26.8555 28.0049V28.6794C26.9793 28.7238 27.1097 28.7462 27.2409 28.7455C27.5717 28.7455 27.7282 28.6316 27.7282 28.3336C27.7282 28.0534 27.6001 27.928 27.3506 27.928ZM26.7441 29.1813V27.8466H26.8349L26.8444 27.9035C27.0131 27.8577 27.1858 27.8292 27.3601 27.8187C27.4808 27.81 27.6006 27.8455 27.6981 27.9189C27.8095 28.0135 27.8473 28.1662 27.8473 28.3325C27.8473 28.4988 27.7917 28.6709 27.6357 28.7614C27.5167 28.8222 27.385 28.8521 27.252 28.8486C27.1176 28.8477 26.984 28.8268 26.8555 28.7865V29.179L26.7441 29.1813Z" fill="#616161"/>
<path d="M28.6771 27.9241C28.3468 27.9241 28.1993 28.03 28.1993 28.328C28.1993 28.6156 28.3446 28.7455 28.6771 28.7455C29.0095 28.7455 29.1532 28.6407 29.1532 28.3433C29.1532 28.0557 29.0079 27.9241 28.6771 27.9241ZM29.1025 28.7455C28.9911 28.8264 28.8452 28.8498 28.6771 28.8498C28.5089 28.8498 28.358 28.8247 28.2505 28.7455C28.1296 28.6584 28.0801 28.5176 28.0801 28.3359C28.0801 28.1542 28.1296 28.0129 28.2505 27.9241C28.358 27.8449 28.5055 27.8198 28.6771 27.8198C28.8486 27.8198 28.9928 27.8449 29.1025 27.9241C29.225 28.0129 29.2724 28.1576 29.2724 28.3337C29.2724 28.5097 29.2234 28.6584 29.1025 28.7455Z" fill="#616161"/>
<path d="M30.6673 28.8225L30.2986 28.013H30.2914L29.9283 28.8225H29.8263L29.4365 27.8467H29.559L29.8859 28.6658H29.8937L30.249 27.8467H30.3509L30.7151 28.6658H30.7229L31.042 27.8467H31.1629L30.7697 28.8225H30.6673Z" fill="#616161"/>
<path d="M31.8729 27.9221C31.5666 27.9221 31.463 28.0616 31.4441 28.2639H32.3017C32.2922 28.0417 32.1808 27.9221 31.8729 27.9221ZM31.869 28.85C31.6858 28.85 31.5666 28.8227 31.4719 28.7418C31.3606 28.6432 31.3232 28.5003 31.3232 28.3362C31.3232 28.1721 31.3739 28.0132 31.5009 27.9186C31.6119 27.8472 31.7419 27.8128 31.8729 27.8201C32.0064 27.8118 32.1393 27.8448 32.2544 27.9147C32.3919 28.0092 32.4186 28.1756 32.4186 28.3647H31.4413C31.4452 28.5658 31.5092 28.7435 31.8796 28.7435C32.0451 28.739 32.21 28.72 32.3724 28.6865V28.7891C32.2074 28.8238 32.0397 28.8438 31.8712 28.8489" fill="#616161"/>
<path d="M32.7383 28.8226V27.8468H32.8285L32.838 27.9037C33.0401 27.8513 33.1348 27.8188 33.3124 27.8188H33.3258V27.9271H33.2991C33.1498 27.9271 33.0591 27.9482 32.8497 28.004V28.8214L32.7383 28.8226Z" fill="#616161"/>
<path d="M33.9735 27.9221C33.6677 27.9221 33.5636 28.0616 33.5447 28.2639H34.4023C34.3928 28.0417 34.2814 27.9221 33.9735 27.9221ZM33.9696 28.85C33.7864 28.85 33.6677 28.8227 33.5731 28.7418C33.4617 28.6432 33.4238 28.5003 33.4238 28.3362C33.4238 28.1721 33.4751 28.0132 33.6015 27.9186C33.7126 27.8473 33.8425 27.8129 33.9735 27.8201C34.107 27.8118 34.2399 27.8448 34.355 27.9147C34.4931 28.0092 34.522 28.1756 34.522 28.3647H33.5408C33.5447 28.5658 33.6087 28.7435 33.979 28.7435C34.1448 28.7391 34.3099 28.72 34.4725 28.6865V28.7891C34.3074 28.8238 34.1397 28.8438 33.9713 28.8489" fill="#616161"/>
<path d="M35.7408 27.9898C35.617 27.9456 35.4867 27.9234 35.3555 27.9243C35.0247 27.9243 34.8682 28.0382 34.8682 28.3362C34.8682 28.6181 34.9968 28.7418 35.2458 28.7418C35.4129 28.7338 35.5788 28.7085 35.7408 28.666V27.9898ZM35.762 28.8227L35.752 28.7657C35.5834 28.812 35.4106 28.8407 35.2363 28.8511C35.1154 28.8605 34.9953 28.8246 34.8983 28.7503C34.7869 28.6557 34.749 28.5031 34.749 28.3373C34.749 28.163 34.8047 27.9989 34.9606 27.9101C35.0798 27.8479 35.2123 27.8174 35.346 27.8212C35.4798 27.8231 35.6126 27.8438 35.7408 27.8827V27.4355H35.8522V28.8227H35.762Z" fill="#616161"/>
<path d="M37.4863 27.9283C37.3191 27.9358 37.1531 27.9616 36.9913 28.0052V28.678C37.1148 28.7236 37.2453 28.7466 37.3766 28.7457C37.7074 28.7457 37.8639 28.6318 37.8639 28.3339C37.8639 28.0536 37.7358 27.9283 37.4863 27.9283ZM37.7715 28.7628C37.6526 28.8235 37.5211 28.8535 37.3883 28.85C37.243 28.8491 37.0988 28.8243 36.9612 28.7765L36.9556 28.8227H36.8799V27.4355H36.9913V27.901C37.1566 27.8577 37.3255 27.8306 37.4958 27.8201C37.6165 27.8114 37.7364 27.8469 37.8338 27.9203C37.9452 28.0149 37.9831 28.1675 37.9831 28.3339C37.9831 28.5002 37.9274 28.6723 37.7715 28.7628Z" fill="#616161"/>
<path d="M38.1315 29.1959V29.0899C38.1872 29.0956 38.2373 29.0996 38.273 29.0996C38.4111 29.0996 38.4957 29.0586 38.5715 28.8985L38.6076 28.821L38.1064 27.8452H38.2356L38.6628 28.6877H38.67L39.076 27.8452H39.203L38.6661 28.9412C38.5681 29.14 38.4623 29.2055 38.2674 29.2055C38.2214 29.2053 38.1754 29.2021 38.1298 29.1959" fill="#616161"/>
<path d="M40.7415 28.266H40.3718V28.6078H40.7415C40.9966 28.6078 41.0929 28.5788 41.0929 28.4369C41.0929 28.2842 40.9604 28.266 40.7393 28.266H40.7415ZM40.6725 27.7146H40.3706V28.0621H40.6747C40.9259 28.0621 41.0261 28.0313 41.0261 27.8866C41.0261 27.7317 40.8991 27.7157 40.6725 27.7157V27.7146ZM41.2472 28.7343C41.1107 28.8231 40.9465 28.8266 40.6463 28.8266H40.0811V27.4993H40.6329C40.8919 27.4993 41.0506 27.5027 41.1826 27.5841C41.2264 27.6109 41.2621 27.6497 41.2855 27.6961C41.309 27.7425 41.3192 27.7947 41.3151 27.8468C41.3151 27.9858 41.2594 28.0786 41.1107 28.1407V28.1481C41.2778 28.1868 41.3847 28.274 41.3847 28.4614C41.3889 28.5149 41.3782 28.5686 41.3539 28.6161C41.3295 28.6637 41.2926 28.7033 41.2472 28.7303" fill="#616161"/>
<path d="M42.5142 28.4132C42.4028 28.4035 42.2915 28.3978 42.1706 28.3978C41.9763 28.3978 41.9078 28.4382 41.9078 28.5294C41.9078 28.6205 41.9635 28.6604 42.1138 28.6604C42.2489 28.6558 42.3831 28.6368 42.5142 28.6034V28.4132ZM42.5699 28.8227L42.5627 28.7658C42.3938 28.8145 42.22 28.8431 42.0448 28.8512C41.9435 28.8582 41.8426 28.8331 41.7557 28.7794C41.7184 28.7474 41.6894 28.7064 41.6714 28.6601C41.6533 28.6138 41.6468 28.5636 41.6523 28.5141C41.6578 28.4645 41.6752 28.4172 41.703 28.3762C41.7308 28.3352 41.768 28.3019 41.8114 28.2793C41.9117 28.2309 42.0459 28.2269 42.1689 28.2269C42.2686 28.2269 42.4028 28.2326 42.5142 28.2406V28.2229C42.5142 28.0702 42.4162 28.0201 42.1478 28.0201C42.0442 28.0201 41.9172 28.0258 41.7964 28.0372V27.8401C41.9306 27.8287 42.0821 27.8213 42.2068 27.8213C42.3739 27.8213 42.5448 27.8344 42.6523 27.9119C42.7598 27.9893 42.7826 28.1016 42.7826 28.2462V28.8239L42.5699 28.8227Z" fill="#616161"/>
<path d="M44.0273 28.8227V28.2844C44.0273 28.1067 43.9387 28.0429 43.78 28.0429C43.6483 28.0488 43.5176 28.0695 43.3902 28.1044V28.8233H43.124V27.8469H43.3412L43.3507 27.909C43.5167 27.859 43.6879 27.8292 43.8608 27.8201C43.9782 27.8105 44.0948 27.8463 44.1877 27.9204C44.2629 27.9899 44.2913 28.0867 44.2913 28.2257V28.8227H44.0273Z" fill="#616161"/>
<path d="M45.0433 28.8498C44.9203 28.8498 44.786 28.8321 44.688 28.7472C44.5711 28.6504 44.5371 28.4983 44.5371 28.3337C44.5371 28.1793 44.5861 28.0107 44.7315 27.9161C44.8506 27.8369 44.9977 27.8198 45.1508 27.8198C45.2622 27.8198 45.368 27.8272 45.4849 27.8386V28.0477C45.3886 28.038 45.2733 28.0306 45.1809 28.0306C44.9275 28.0306 44.8083 28.1115 44.8083 28.3359C44.8083 28.5461 44.8974 28.6373 45.1051 28.6373C45.2398 28.6328 45.3738 28.616 45.5055 28.5871V28.7877C45.3531 28.824 45.1975 28.8448 45.0411 28.8498" fill="#616161"/>
<path d="M46.295 28.0243C46.0416 28.0243 45.9302 28.1058 45.9302 28.328C45.9302 28.5501 46.0416 28.6447 46.295 28.6447C46.5484 28.6447 46.6559 28.5655 46.6559 28.3433C46.6559 28.1212 46.5484 28.0243 46.295 28.0243ZM46.7522 28.7472C46.6353 28.8281 46.4821 28.8498 46.295 28.8498C46.1079 28.8498 45.9514 28.8264 45.8361 28.7472C45.7036 28.6584 45.6562 28.5114 45.6562 28.3359C45.6562 28.1605 45.7036 28.0107 45.8361 27.9218C45.9514 27.8426 46.104 27.8198 46.295 27.8198C46.486 27.8198 46.6353 27.8426 46.7522 27.9218C46.8842 28.0107 46.9299 28.1599 46.9299 28.3337C46.9299 28.5074 46.8825 28.6584 46.7522 28.7472Z" fill="#616161"/>
<path d="M48.4684 28.8499C48.308 28.8499 48.1342 28.8226 48.0039 28.7126C47.8491 28.581 47.8018 28.3782 47.8018 28.1601C47.8018 27.9647 47.8625 27.7328 48.0641 27.5978C48.2211 27.4936 48.4154 27.4719 48.612 27.4719C48.7557 27.4719 48.9033 27.4816 49.0637 27.4953V27.7328C48.9261 27.7214 48.7557 27.7117 48.6237 27.7117C48.2551 27.7117 48.0986 27.8547 48.0986 28.1601C48.0986 28.4654 48.2439 28.6101 48.5157 28.6101C48.7099 28.6032 48.903 28.5767 49.0921 28.5309V28.7667C48.8873 28.8152 48.6784 28.843 48.4684 28.8499Z" fill="#616161"/>
<path d="M49.8749 27.9938C49.6521 27.9938 49.5686 28.0753 49.5513 28.2217H50.194C50.1862 28.0633 50.0954 27.9938 49.8749 27.9938ZM49.8348 28.8483C49.6783 28.8483 49.5363 28.8289 49.4305 28.7401C49.3247 28.6512 49.2773 28.4985 49.2773 28.3322C49.2773 28.1835 49.3247 28.0172 49.4572 27.9203C49.5742 27.8354 49.7234 27.8184 49.8749 27.8184C50.0108 27.8184 50.1712 27.8337 50.2881 27.9169C50.4412 28.0269 50.4552 28.1972 50.4552 28.3977H49.5497C49.5552 28.5469 49.6326 28.6432 49.9011 28.6432C50.0715 28.6394 50.2415 28.6227 50.4095 28.5931V28.7845C50.2199 28.8213 50.0277 28.8426 49.8348 28.8483Z" fill="#616161"/>
<path d="M51.6406 28.8227V28.2844C51.6406 28.1067 51.552 28.0429 51.3933 28.0429C51.2616 28.0488 51.1309 28.0695 51.0035 28.1044V28.8233H50.7373V27.8469H50.9545L50.964 27.909C51.13 27.859 51.3012 27.8292 51.4741 27.8201C51.5915 27.8105 51.7081 27.8463 51.801 27.9204C51.8761 27.9899 51.9045 28.0867 51.9045 28.2257V28.8227H51.6406Z" fill="#616161"/>
<path d="M52.6643 28.8501C52.5356 28.8501 52.4187 28.813 52.3546 28.7105C52.3022 28.6219 52.2777 28.5188 52.2845 28.4154V28.0497H52.0918V27.8469H52.2845L52.3129 27.5513H52.5479V27.8469H52.9238V28.0497H52.5479V28.363C52.5443 28.4261 52.5532 28.4893 52.5741 28.5487C52.6025 28.6142 52.6648 28.6393 52.7484 28.6393C52.8123 28.6381 52.876 28.6316 52.9388 28.6199V28.8153C52.8482 28.8354 52.7559 28.847 52.6632 28.8501" fill="#616161"/>
<path d="M53.1846 28.8224V27.8466H53.4018L53.4112 27.9087C53.5636 27.8558 53.7227 27.8259 53.8835 27.8198C53.8948 27.8192 53.9061 27.8192 53.9174 27.8198V28.0562C53.8874 28.0562 53.8512 28.0562 53.825 28.0562C53.6987 28.0568 53.5729 28.0736 53.4508 28.1064V28.827L53.1846 28.8224Z" fill="#616161"/>
<path d="M54.8858 28.4132C54.7744 28.4035 54.663 28.3978 54.5416 28.3978C54.3473 28.3978 54.2793 28.4382 54.2793 28.5294C54.2793 28.6205 54.335 28.6604 54.4848 28.6604C54.6201 28.6558 54.7545 28.6368 54.8858 28.6034V28.4132ZM54.9415 28.8227L54.9337 28.7658C54.7648 28.8145 54.591 28.8431 54.4158 28.8512C54.3145 28.8582 54.2136 28.8331 54.1267 28.7794C54.0917 28.7519 54.0637 28.7161 54.0452 28.675C54.0268 28.6339 54.0184 28.5888 54.0209 28.5436C54.0184 28.488 54.0324 28.433 54.0611 28.3858C54.0899 28.3386 54.132 28.3014 54.1819 28.2793C54.2821 28.2309 54.4158 28.2269 54.5388 28.2269C54.6391 28.2269 54.7733 28.2326 54.8847 28.2406V28.2229C54.8847 28.0702 54.7861 28.0201 54.5182 28.0201C54.4141 28.0201 54.2877 28.0258 54.1668 28.0372V27.8401C54.3011 27.8287 54.452 27.8213 54.5767 27.8213C54.7438 27.8213 54.9147 27.8344 55.0222 27.9119C55.1297 27.9893 55.1525 28.1016 55.1525 28.2462V28.8239L54.9415 28.8227Z" fill="#616161"/>
<path d="M55.4951 27.4355H55.7619V28.8227H55.4951V27.4355Z" fill="#616161"/>
</svg>
