<svg width="59" height="41" viewBox="0 0 59 41" fill="none" xmlns="http://www.w3.org/2000/svg">
<path d="M9.99466 16.1964C9.99466 15.9059 9.7721 15.6918 9.46053 15.6918H7.51692C7.26469 15.6918 7.04214 15.8447 6.92345 16.0894L6.90861 16.12V16.1506L5.66232 20.1418L5.78102 16.3188V16.3035C5.78102 15.9824 5.52879 15.7377 5.21722 15.7377L3.40714 15.753C3.05105 15.753 2.79883 16.0129 2.79883 16.3341V16.3494L2.91752 22.6344V22.6497C2.96203 23.246 3.24393 23.6742 3.74838 23.9036C4.14897 24.0871 4.63859 24.1177 5.06885 24.1177C5.63265 24.1177 6.09259 24.0412 6.49318 23.8883C7.04214 23.6589 7.45757 23.2766 7.7098 22.7261L7.72463 22.7108V22.6955L9.95015 16.4258C9.96498 16.3799 9.99466 16.3035 9.99466 16.1964ZM9.6089 16.3035L7.38339 22.5885C6.90861 23.5978 5.89971 23.766 5.06885 23.766C4.23799 23.766 3.34779 23.6742 3.2736 22.665L3.15491 16.3647V16.3494C3.15491 16.227 3.25877 16.1353 3.40714 16.1353L5.21722 16.12C5.33591 16.12 5.42494 16.2117 5.42494 16.3035L5.26173 21.6251C5.26173 21.7474 5.2914 21.778 5.39526 21.778C5.49912 21.778 5.54363 21.7321 5.60298 21.6251L7.26469 16.2729C7.3092 16.1659 7.41306 16.0894 7.53175 16.0894H9.47537C9.57923 16.0894 9.63857 16.1353 9.63857 16.2117C9.63857 16.2423 9.62374 16.2729 9.6089 16.3035ZM13.7187 22.0533L13.5258 22.0686C13.1549 22.0991 12.6801 22.145 12.2053 22.145C11.6119 22.145 11.3596 21.8392 11.3596 21.1663C11.3596 20.9828 11.3745 20.784 11.419 20.5547L11.6415 19.2243C11.8938 17.7409 12.5466 17.5727 13.0214 17.5727C13.511 17.5727 13.9857 17.6186 14.3418 17.6492L14.4605 17.6645H14.4902C14.6979 17.6645 14.8463 17.5268 14.876 17.328L15.0392 16.3035V16.227C15.0392 15.9976 14.8611 15.9365 14.7573 15.9059C14.5495 15.8294 13.9857 15.7224 13.2587 15.7224C11.1519 15.7224 10.0243 16.7928 9.6089 19.1937L9.38635 20.5241C9.34184 20.784 9.31217 21.0593 9.31217 21.3345C9.31217 22.1909 9.57923 22.8943 10.0985 23.3837C10.5585 23.8271 11.2113 24.0718 11.9234 24.0718C12.6504 24.0718 13.2587 23.9648 13.4813 23.8883C13.6445 23.8424 13.7929 23.766 13.8522 23.5213L14.0303 22.4967V22.4814C14.0303 22.4662 14.0451 22.4509 14.0451 22.4203C14.0451 22.1909 13.9116 22.0533 13.7187 22.0533ZM19.6386 20.6617C20.7661 20.2182 21.3893 19.2243 21.3893 17.8633C21.3893 16.487 20.321 15.6918 18.4368 15.6918C17.6208 15.6918 16.7157 15.753 16.2113 15.8294C15.8403 15.8906 15.603 16.0129 15.5139 16.4564L14.2528 23.5366V23.6131C14.2528 23.7966 14.3863 23.9342 14.5792 23.9342H15.959C16.1519 23.9342 16.33 23.7813 16.3596 23.5978L16.8047 21.0593C16.8789 21.0593 16.9531 21.0593 17.0273 21.0746C17.2053 21.0899 17.413 21.0899 17.5317 21.0899L18.4516 23.6436C18.4516 23.6589 18.4664 23.6742 18.4664 23.6895C18.4961 23.7813 18.5555 23.9495 18.7632 23.9495H20.3062C20.5288 23.9495 20.6475 23.7966 20.6475 23.6283C20.6475 23.5825 20.6326 23.5366 20.6178 23.506C20.6623 23.506 19.6386 20.6617 19.6386 20.6617ZM17.7246 19.2854C17.6356 19.2854 17.3537 19.2854 17.1608 19.2701L17.4724 17.5421C17.6801 17.5268 18.0659 17.5116 18.1697 17.5116C19.1786 17.5116 19.2676 17.7868 19.2676 18.0774C19.2676 18.9796 18.867 19.2854 17.7246 19.2854ZM23.4961 20.6464H26.0332C26.2261 20.6464 26.4041 20.4935 26.4338 20.31L26.597 19.316V19.2548C26.597 19.056 26.4635 18.9184 26.2854 18.9184H23.8077L23.9412 18.1385C24.0302 17.6186 24.1934 17.5574 24.5644 17.5574H26.6563C26.8492 17.5574 27.0124 17.4045 27.0421 17.221L27.2201 16.2423V16.2117C27.2201 16.1964 27.235 16.1659 27.235 16.1353C27.235 15.8906 26.9976 15.8447 26.9234 15.8294H26.8641C26.5228 15.7836 26.0035 15.6918 24.9501 15.6918C23.5555 15.6918 22.2795 15.8753 21.9086 18.0774L21.3003 21.5792C21.2706 21.7933 21.2409 21.9615 21.2409 22.1297C21.2409 23.3378 22.0866 24.0412 23.5851 24.0412C24.6385 24.0412 25.1578 23.9648 25.5287 23.9189L25.6029 23.9036C25.8106 23.873 25.9442 23.7507 25.9738 23.5519L26.1519 22.5732V22.512C26.1519 22.3132 26.0035 22.1756 25.8255 22.1756H23.7335C23.3477 22.1756 23.3181 22.0686 23.3181 21.8851C23.3181 21.8239 23.3329 21.7321 23.3477 21.6404C23.3181 21.6251 23.4961 20.6464 23.4961 20.6464ZM33.318 19.209C33.3626 18.949 33.3922 18.689 33.3922 18.4138C33.3922 17.5727 33.1103 16.8693 32.5762 16.3952C32.0569 15.9212 31.3002 15.6765 30.3952 15.6765C29.5198 15.6765 28.5703 15.7683 28.0955 15.8294C27.8136 15.8753 27.6504 16.0282 27.6059 16.3341L26.3744 23.2919C26.3596 23.3531 26.3596 23.399 26.3596 23.4295C26.3596 23.6589 26.4931 23.7966 26.7305 23.8424C27.1756 23.9189 28.1103 23.9954 28.9709 23.9954C31.4189 23.9954 32.6356 22.9555 33.0658 20.5394L33.318 19.209ZM31.2112 19.1478L30.9738 20.5088C30.7216 21.9004 30.1281 22.1909 29.2528 22.1909C29.0599 22.1909 28.8522 22.1909 28.689 22.1756L29.505 17.5574C29.6682 17.5421 29.9204 17.5421 30.1281 17.5421C30.9442 17.5421 31.2854 17.8327 31.2854 18.5667C31.2706 18.7196 31.2557 18.9337 31.2112 19.1478ZM36.0628 15.7836H34.6534C34.4605 15.7836 34.3269 15.9212 34.2824 16.1047L32.9768 23.5213V23.5978C32.9768 23.7813 33.1103 23.9189 33.2735 23.9189H34.683C34.8759 23.9189 35.0391 23.766 35.0688 23.5825L36.3744 16.1659V16.0894C36.3744 15.9059 36.2409 15.7836 36.0628 15.7836ZM42.2943 17.2516L42.4872 16.1659V16.1047C42.4872 15.9212 42.3388 15.7836 42.1459 15.7836H37.0569C36.864 15.7836 36.7008 15.9212 36.6712 16.1047L36.4783 17.1904V17.2669C36.4783 17.4504 36.6118 17.588 36.7898 17.588H38.2735L37.2646 23.5519V23.6283C37.2646 23.8119 37.3982 23.9495 37.5762 23.9495H38.9263C39.1192 23.9495 39.2824 23.7966 39.3269 23.6131L40.3507 17.6033H41.8789C42.0717 17.588 42.2646 17.4351 42.2943 17.2516ZM48.4367 19.2548C48.4812 18.9796 48.5109 18.689 48.5109 18.3985C48.5109 17.5116 48.229 16.7928 47.6949 16.3341C47.2201 15.9059 46.5673 15.6918 45.7809 15.6918C44.772 15.6918 43.9857 15.9365 43.3625 16.4411C42.6355 17.0222 42.1608 17.955 41.9382 19.209L41.7156 20.4629C41.6711 20.7382 41.6415 21.0134 41.6415 21.2887C41.6415 22.9555 42.7097 24.0259 44.3714 24.0259C45.4397 24.0259 46.2557 23.766 46.8937 23.2308C47.5613 22.6497 48.0064 21.7627 48.2141 20.5241L48.4367 19.2548ZM46.3447 19.1937L46.1222 20.4476C45.9145 21.6251 45.4842 22.1144 44.6533 22.1144C44.0005 22.1144 43.7631 21.8698 43.7631 21.2122C43.7631 20.9981 43.7928 20.7687 43.8373 20.5088L44.0599 19.2548C44.2676 18.0468 44.6682 17.588 45.5139 17.588C46.1518 17.588 46.4189 17.8633 46.4189 18.5361C46.4189 18.7196 46.3892 18.9337 46.3447 19.1937ZM54.4753 15.9212C54.0747 15.8141 53.0064 15.6765 52.2201 15.6765C50.0984 15.6765 48.9263 16.5787 48.9263 18.215C48.9263 18.9337 49.2972 19.5454 49.9649 19.9736L51.2854 20.8299C51.7156 21.1052 51.775 21.304 51.775 21.4416C51.775 21.7474 51.6711 22.145 50.8254 22.145C50.41 22.145 49.2527 22.0533 48.8373 22.0227H48.7928C48.5999 22.0227 48.4515 22.1603 48.4219 22.3438L48.2438 23.3837V23.4448C48.2438 23.6131 48.3625 23.7354 48.5257 23.7813C49.134 23.9342 49.8017 24.0106 50.588 24.0106C52.769 24.0106 54.0598 22.9402 54.0598 21.151C54.0598 20.4476 53.6592 19.8665 52.8432 19.3313L51.5969 18.5361C51.1667 18.2456 51.1222 18.1844 51.1222 18.0621C51.1222 17.6798 51.3299 17.5421 51.9233 17.5421C52.5613 17.5421 53.5999 17.6186 54.0302 17.6492L54.1637 17.6645H54.1934C54.3862 17.6645 54.5198 17.5421 54.5643 17.3586L54.7572 16.2882V16.2117C54.7275 16.0741 54.6236 15.9671 54.4753 15.9212Z" fill="#616161"/>
</svg>
