<svg width="25" height="29" viewBox="0 0 25 29" fill="none" xmlns="http://www.w3.org/2000/svg">
<path fill-rule="evenodd" clip-rule="evenodd" d="M8.13256 8.88068C8.13256 8.88068 3.17884 13.6329 2.10217 15.7278V15.7331C1.48693 16.7143 0.977772 17.7539 0.712583 18.7934C0.712583 18.7987 0.712583 18.7987 0.712583 18.804C0.707279 18.804 0.707279 18.8093 0.707279 18.8093C0.707279 18.8146 0.707279 18.8146 0.707279 18.8199C0.707279 18.8252 0.701976 18.8252 0.701976 18.8306C0.701976 18.8306 0.701976 18.8359 0.701976 18.8412L0.696672 18.8465C0.696672 18.8518 0.696672 18.8518 0.696672 18.8571C0.691368 18.8571 0.691368 18.8571 0.691368 18.8624C0.691368 18.8677 0.691368 18.8677 0.691368 18.873C0.686064 18.873 0.686064 18.873 0.686064 18.873C0.495129 19.6473 0.442091 20.4217 0.569381 21.1748C0.569381 21.1801 0.574685 21.1854 0.574685 21.1907C0.574685 21.196 0.574685 21.2013 0.574685 21.2013C0.579989 21.2013 0.579989 21.2066 0.579989 21.2066C0.579989 21.2119 0.579989 21.2172 0.579989 21.2172C0.579989 21.2172 0.579989 21.2172 0.579989 21.2226C0.579989 21.2279 0.585293 21.2279 0.585293 21.2332C0.585293 21.2385 0.585293 21.2385 0.585293 21.2385C0.585293 21.2438 0.590597 21.2438 0.590597 21.2544C1.49754 26.049 4.60555 28.0538 9.43729 28.0538C9.77142 28.0538 10.1109 28.0432 10.4556 28.0273C10.8057 28.0485 11.1398 28.0538 11.4739 28.0538C11.9195 28.0538 12.3597 28.0379 12.7787 28.0008C12.471 27.7621 12.1846 27.4757 11.9248 27.1469L13.325 27.4492C13.325 27.4492 20.2517 20.1989 20.2888 19.1859C20.3312 18.1729 18.7348 14.2428 13.8235 10.1589L8.12195 8.89128L8.13256 8.88068Z" fill="url(#paint0_linear_4_226)"/>
<path fill-rule="evenodd" clip-rule="evenodd" d="M12.593 9.14585L10.4662 8.75868L8.33941 9.14585C8.33941 9.14585 3.01973 4.69599 3.30613 3.7307C3.42281 3.33822 3.76756 3.07303 4.13352 2.89271C4.11761 2.90331 4.11761 2.90331 4.11761 2.90331L8.20151 7.79339C7.66583 6.74324 5.2367 2.56918 5.2367 2.56918C5.2367 2.56918 5.42764 0.246124 10.4609 0.246124C15.4889 0.246124 15.6851 2.56918 15.6851 2.56918L12.9431 7.91538L17.0429 3.03591C17.3028 3.20563 17.5255 3.42839 17.6157 3.7307C17.9074 4.69599 12.5824 9.14585 12.5824 9.14585H12.593ZM17.0429 3.0306C17.0164 3.01469 16.905 2.94574 16.7406 2.87149C16.8414 2.91923 16.9421 2.97226 17.0429 3.0306Z" fill="#BB464F"/>
<path fill-rule="evenodd" clip-rule="evenodd" d="M12.9484 7.91007L15.6904 2.56387C15.6904 2.56387 16.2314 2.62752 16.7459 2.86619C16.905 2.94574 17.0217 3.01469 17.0429 3.0253C17.0482 3.0253 17.0482 3.0253 17.0482 3.03061L12.9484 7.91007Z" fill="#A73949"/>
<path fill-rule="evenodd" clip-rule="evenodd" d="M8.2015 7.7881L5.45945 2.44189C5.45945 2.44189 4.91847 2.50554 4.404 2.74421C4.24489 2.82377 4.1282 2.89272 4.10699 2.90332C4.10168 2.90332 4.10168 2.90332 4.10168 2.90863L8.2015 7.7881Z" fill="#A73949"/>
<path fill-rule="evenodd" clip-rule="evenodd" d="M7.26804 7.44335C9.39485 7.67672 11.5376 7.67672 13.6644 7.44335C14.4069 7.3638 15.1017 7.86235 15.2237 8.59958C15.351 9.3368 14.7835 10.0475 13.9614 10.1377C11.6383 10.3923 9.29408 10.3923 6.97103 10.1377C6.14895 10.0475 5.58144 9.3368 5.70873 8.59958C5.83072 7.86235 6.53082 7.3638 7.26804 7.44335Z" fill="#F7AB43"/>
<path fill-rule="evenodd" clip-rule="evenodd" d="M18.1938 28.4091C17.5096 28.1387 16.9368 27.6136 16.5231 26.9241C16.1254 26.2558 15.8761 25.4337 15.8283 24.5427C15.8071 24.1396 15.8283 23.7259 15.892 23.3069C16.2261 21.0952 17.69 19.4193 19.3554 19.1488C19.6524 19.101 19.9494 19.0957 20.2517 19.1435L21.0207 19.2601L21.1958 19.2867C21.1374 19.2761 21.0791 19.2707 21.0207 19.2654C20.4055 19.2071 19.7956 19.3556 19.2387 19.6579C18.04 20.3156 17.0906 21.7158 16.8308 23.4448C16.4807 25.7679 17.4831 27.8947 19.1326 28.547C19.3341 28.6266 19.541 28.6849 19.7584 28.7168L18.8091 28.5736C18.5916 28.5417 18.3795 28.4834 18.1832 28.4038L18.1938 28.4091Z" fill="#F6C24D"/>
<path fill-rule="evenodd" clip-rule="evenodd" d="M19.1432 28.5523C17.4937 27.9 16.486 25.7732 16.8413 23.4501C17.1861 21.1748 18.4855 20.2148 18.4855 20.2148C18.7242 19.9974 18.9788 19.8117 19.2493 19.6632C19.8061 19.3556 20.4108 19.2124 21.0313 19.2654C21.0897 19.2707 21.148 19.276 21.2063 19.2867C21.2116 19.2867 21.217 19.2867 21.217 19.2867C21.4291 19.3185 21.6359 19.3768 21.8322 19.4511H21.8375C22.6861 19.7852 23.3703 20.5171 23.7734 21.4612C23.8688 21.684 23.9537 21.9173 24.0173 22.1666C24.2401 23.0099 24.2666 23.3706 24.1658 24.2987C24.1605 24.3411 24.1552 24.3783 24.1499 24.4207C24.1499 24.426 24.1499 24.4313 24.1499 24.4366C24.1499 24.4419 24.1499 24.4472 24.1499 24.4472C24.1499 24.4525 24.1499 24.4578 24.1499 24.4631C24.1499 24.4684 24.1499 24.4737 24.1446 24.479C24.1446 24.5056 24.1393 24.5268 24.134 24.5533C24.134 24.5586 24.134 24.5639 24.134 24.5692C24.134 24.5692 24.134 24.5745 24.134 24.5798C24.134 24.5798 24.134 24.5798 24.134 24.5851C24.134 24.5904 24.134 24.5904 24.134 24.5957V24.601C24.134 24.6063 24.134 24.6063 24.134 24.6116C24.134 24.6116 24.134 24.6116 24.134 24.6169C24.134 24.6222 24.134 24.6222 24.134 24.6276C24.134 24.6329 24.134 24.6329 24.134 24.6382C24.0651 25.0678 23.9484 25.4815 23.7999 25.8633C23.5506 26.4998 23.2006 27.0567 22.7869 27.5075C22.7816 27.5234 22.7869 27.5075 22.6012 27.6984C22.3095 28.0061 21.9648 28.2341 21.6094 28.4091C21.4715 28.4781 21.3336 28.5364 21.1904 28.5842C20.7396 28.738 20.2623 28.7857 19.7849 28.7168C19.5675 28.6849 19.3553 28.6266 19.1591 28.547L19.1432 28.5523ZM23.418 23.9646C23.4286 23.9858 23.4445 24.007 23.4551 24.0229C23.4392 24.0017 23.4286 23.9858 23.418 23.9646ZM23.5824 24.1555C23.6408 24.2033 23.7044 24.2404 23.7787 24.2722C23.8052 24.2828 23.8264 24.2881 23.8529 24.2987C23.8264 24.2934 23.7999 24.2828 23.7787 24.2722C23.7097 24.2457 23.6408 24.2033 23.5824 24.1555ZM18.8568 20.305C18.9841 20.3421 19.106 20.3845 19.228 20.4323C19.106 20.3845 18.9841 20.3421 18.8568 20.3103V20.305ZM19.9122 20.777C18.9204 21.1589 18.1089 22.2409 17.9021 23.6145C17.6528 25.2693 18.3688 26.7809 19.541 27.2476C19.6842 27.306 19.8327 27.3431 19.9865 27.3696C21.0419 27.5287 22.0709 26.8551 22.6543 25.752C22.8664 25.3542 23.0149 24.898 23.0945 24.4101C23.3438 22.7553 22.6278 21.2384 21.4556 20.777C21.3124 20.7187 21.1639 20.6815 21.0101 20.6603C20.6388 20.602 20.2676 20.6497 19.9175 20.7876L19.9122 20.777Z" fill="#F6C24D"/>
<path fill-rule="evenodd" clip-rule="evenodd" d="M19.5304 27.2423C18.3582 26.7809 17.6369 25.264 17.8915 23.6092C18.0983 22.2409 18.9151 21.1589 19.9016 20.7717C20.2517 20.6338 20.6229 20.5861 20.9942 20.6444C21.148 20.6656 21.2965 20.7081 21.4397 20.7664C22.6172 21.2278 23.3332 22.7447 23.0786 24.3942C23.0043 24.8875 22.8505 25.3383 22.6384 25.7414C22.055 26.8445 21.026 27.5181 19.9706 27.359C19.8168 27.3378 19.6683 27.2954 19.5251 27.237L19.5304 27.2423ZM22.2777 24.182C22.3042 24.2722 22.3361 24.3624 22.3626 24.4525C22.3361 24.3624 22.3095 24.2722 22.2777 24.182ZM22.3626 24.4525C22.3891 24.5427 22.4156 24.6329 22.4368 24.7283C22.4103 24.6382 22.3891 24.5427 22.3626 24.4525Z" fill="#F7AB43"/>
<path fill-rule="evenodd" clip-rule="evenodd" d="M20.0714 20.183L20.2676 19.7375L20.7555 19.6844L20.3047 19.4882L20.2517 19.0002L20.0555 19.4511L19.5675 19.5041L20.0183 19.7003L20.0714 20.183Z" fill="url(#paint1_linear_4_226)"/>
<path fill-rule="evenodd" clip-rule="evenodd" d="M14.8843 28.7539C14.147 28.7539 13.4204 28.4781 12.784 27.9848C12.1687 27.5075 11.6384 26.8339 11.2671 26.0224C11.1027 25.6565 10.9648 25.264 10.8746 24.8503C10.3761 22.6705 11.1186 20.5702 12.5718 19.711C12.8264 19.5571 13.1075 19.4458 13.4045 19.3768L14.1629 19.2018L14.338 19.1594C14.2796 19.1753 14.2213 19.1859 14.1683 19.2018C13.5742 19.3768 13.0598 19.7322 12.6567 20.2201C11.7816 21.2703 11.4156 22.925 11.8028 24.6276C12.3278 26.9188 14.041 28.5311 15.8177 28.5311C16.0352 28.5311 16.2473 28.5099 16.4648 28.4569L15.5313 28.669C15.3192 28.7168 15.1017 28.7433 14.8843 28.7433V28.7539Z" fill="#F5A73E"/>
<path fill-rule="evenodd" clip-rule="evenodd" d="M15.8177 28.5417C14.0463 28.5417 12.3279 26.9294 11.8028 24.6382C11.2936 22.3947 12.1475 21.0263 12.1475 21.0263C12.2907 20.7346 12.4605 20.4694 12.6567 20.236C13.0598 19.7481 13.5742 19.3874 14.1683 19.2124C14.2266 19.1965 14.2796 19.1806 14.338 19.17C14.3433 19.17 14.3486 19.17 14.3486 19.17C14.5607 19.1222 14.7729 19.101 14.9797 19.101H14.985C15.8973 19.101 16.7989 19.5306 17.5256 20.2625C17.7006 20.4376 17.8597 20.6232 18.0135 20.83C18.528 21.5354 18.6871 21.859 18.9311 22.7553C18.9417 22.7924 18.9523 22.8349 18.9629 22.8773C18.9629 22.8826 18.9629 22.8879 18.9682 22.8932C18.9682 22.8985 18.9682 22.9038 18.9682 22.9038C18.9682 22.9091 18.9682 22.9144 18.9735 22.9197C18.9735 22.925 18.9735 22.9303 18.9735 22.9356C18.9788 22.9622 18.9894 22.9834 18.9894 23.0099C18.9894 23.0099 18.9894 23.0205 18.9947 23.0258C18.9947 23.0258 18.9947 23.0311 18.9947 23.0364C18.9947 23.0364 18.9947 23.0364 18.9947 23.0417C18.9947 23.047 18.9947 23.047 18.9947 23.0523V23.0576C18.9947 23.0629 18.9947 23.0629 18.9947 23.0682C18.9947 23.0682 18.9947 23.0682 18.9947 23.0735C18.9947 23.0735 18.9947 23.0788 18.9947 23.0841C18.9947 23.0895 18.9947 23.0895 19 23.0948C19.0902 23.5191 19.1326 23.9434 19.1379 24.3571C19.1379 25.0412 19.0159 25.6883 18.7985 26.2611C18.7985 26.277 18.7985 26.2611 18.6977 26.5051C18.5386 26.8976 18.2999 27.237 18.0347 27.5287C17.9339 27.6401 17.8226 27.7462 17.7112 27.8416C17.3452 28.1492 16.9209 28.372 16.4489 28.4781C16.2314 28.5258 16.0193 28.5523 15.8018 28.5523L15.8177 28.5417ZM18.109 22.7076C18.1302 22.7235 18.1461 22.7341 18.1673 22.75C18.1461 22.7394 18.1302 22.7235 18.109 22.7076ZM18.3317 22.8243C18.4007 22.8455 18.4802 22.8614 18.5545 22.8614C18.4802 22.8614 18.4007 22.8508 18.3317 22.8243ZM13.9667 20.6126C14.0463 20.5649 14.1205 20.5012 14.1789 20.4323C14.1152 20.5012 14.0463 20.5649 13.9667 20.6126ZM14.4016 19.7216C14.3963 19.6897 14.391 19.6579 14.3857 19.6208C14.391 19.6526 14.4016 19.6844 14.4016 19.7216ZM12.5241 20.9732C12.6567 20.9626 12.784 20.952 12.9166 20.952H13.0704L12.9113 20.9467C12.784 20.9467 12.6514 20.952 12.5241 20.9679V20.9732ZM13.6803 21.0263C12.9007 21.7476 12.54 23.0523 12.8476 24.3995C13.2189 26.0277 14.4441 27.1787 15.7064 27.1787C15.8602 27.1787 16.014 27.1627 16.1678 27.1256C17.2073 26.887 17.918 25.8845 18.0559 24.6435C18.109 24.1926 18.0824 23.7153 17.9711 23.2327C17.5945 21.6044 16.3746 20.4535 15.1123 20.4535C14.9585 20.4535 14.8047 20.4694 14.6509 20.5065C14.2849 20.5861 13.9561 20.7717 13.6803 21.0263Z" fill="#F6C24D"/>
<path fill-rule="evenodd" clip-rule="evenodd" d="M15.7011 27.1787C14.4388 27.1787 13.2136 26.0331 12.8423 24.3995C12.5347 23.047 12.8954 21.7423 13.675 21.0263C13.9508 20.7717 14.2796 20.5914 14.6456 20.5065C14.7994 20.4694 14.9532 20.4535 15.107 20.4535C16.3693 20.4535 17.5892 21.5991 17.9658 23.2274C18.0771 23.7153 18.0984 24.1927 18.0506 24.6382C17.9552 24.4738 17.8544 24.3146 17.7536 24.1555C17.8597 24.3146 17.9552 24.4738 18.0506 24.6382C17.9127 25.8793 17.202 26.887 16.1625 27.1203C16.0087 27.1575 15.8549 27.1734 15.7011 27.1734V27.1787ZM17.3081 23.5456C17.3664 23.6198 17.4248 23.6941 17.4778 23.7737C17.4195 23.6994 17.3664 23.6198 17.3081 23.5456ZM17.4778 23.7737C17.5733 23.9009 17.6581 24.0282 17.7483 24.1608C17.6634 24.0282 17.5733 23.9009 17.4778 23.7737Z" fill="#F7AB43"/>
<defs>
<linearGradient id="paint0_linear_4_226" x1="10.4079" y1="28.0379" x2="10.4079" y2="8.88068" gradientUnits="userSpaceOnUse">
<stop stop-color="#9D323C"/>
<stop offset="1" stop-color="#F16650"/>
</linearGradient>
<linearGradient id="paint1_linear_4_226" x1="20.1933" y1="19.1541" x2="20.1191" y2="20.1512" gradientUnits="userSpaceOnUse">
<stop stop-color="#F5F5C4"/>
<stop offset="1" stop-color="#FEFAFC"/>
</linearGradient>
</defs>
</svg>
