<svg width="29" height="37" viewBox="0 0 29 37" fill="none" xmlns="http://www.w3.org/2000/svg">
<path d="M4.00304 16.2337C3.69073 16.6753 3.51938 17.1991 3.57662 17.537C3.64424 17.9371 3.94406 18.3354 4.21019 18.6145C4.81072 17.5856 5.51384 16.7145 6.32314 15.9989C6.03348 15.7262 5.55714 15.3803 5.06033 15.4526C4.70778 15.504 4.31253 15.796 4.00298 16.2337H4.00304Z" fill="#FEFEFE"/>
<path d="M14.6442 14.3943L14.6071 14.3926C9.83088 14.1726 6.69012 15.7764 4.72335 19.4398C2.72348 23.1647 1.94175 26.2072 1.65382 27.6891C1.5337 28.3077 1.62871 28.947 1.92151 29.4897C2.84865 31.2079 5.85259 35.243 13.703 35.6046C21.5532 35.9661 24.8955 32.2233 25.9681 30.5972C26.307 30.0835 26.4571 29.4552 26.391 28.8283C26.2329 27.3256 25.7187 24.2237 24.0502 20.3299C22.4096 16.5004 19.4205 14.6143 14.6442 14.3943Z" fill="#F9A649"/>
<path d="M3.85187 19.2663C3.5168 18.9452 2.99884 18.3519 2.88197 17.6614C2.7914 17.1262 3.00257 16.4157 3.43284 15.807C3.8586 15.2049 4.41583 14.814 4.96159 14.7346C5.79096 14.6132 6.50531 15.1698 6.88116 15.5432C7.72037 14.9102 8.66277 14.4263 9.71171 14.0889C9.09784 13.2646 7.71485 11.6778 6.23077 11.7786C5.2915 11.8425 4.12082 12.4697 3.0995 13.456C2.14378 14.3789 1.46991 15.4857 1.38264 16.276C1.18582 18.059 1.79987 19.69 3.0771 20.8268C3.31224 20.3224 3.57001 19.8013 3.85193 19.2663H3.85187Z" fill="#F9A649"/>
<path d="M27.6524 17.4857C27.6342 16.6907 27.0591 15.5263 26.1875 14.5192C25.2558 13.443 24.1442 12.7108 23.2144 12.5609C21.745 12.3239 20.2296 13.7774 19.5466 14.5418C20.5619 14.9743 21.4588 15.543 22.2396 16.2505C22.6464 15.9131 23.4062 15.4244 24.2218 15.6216C24.7585 15.7508 25.2794 16.1914 25.6511 16.8303C26.027 17.476 26.1756 18.2031 26.0389 18.7278C25.8624 19.4047 25.2951 19.9481 24.9334 20.2371C25.1679 20.7959 25.3792 21.3386 25.5694 21.8626C26.9403 20.8478 27.6935 19.2797 27.6524 17.4857Z" fill="#F9A649"/>
<path d="M25.3577 18.5402C25.4441 18.2088 25.3188 17.6714 25.0464 17.2028C24.776 16.7384 24.4078 16.4112 24.0609 16.3277C23.5723 16.21 23.0681 16.5107 22.7557 16.7557C23.4998 17.5429 24.1244 18.475 24.6332 19.555C24.9223 19.3015 25.2558 18.9324 25.3578 18.5402H25.3577Z" fill="#FEFEFE"/>
<path d="M19.3117 32.1751C19.1768 35.2796 16.6928 36.1906 13.6835 36.0518C10.6742 35.9131 8.27923 34.7774 8.4143 31.6732C8.54938 28.5691 11.0983 26.1648 14.1075 26.3032C17.1168 26.4419 19.4469 29.0709 19.3117 32.1751Z" fill="#FEFEFE"/>
<path d="M4.2213 26.1337C4.38983 26.2607 4.61349 26.0764 4.52724 25.8807C3.63878 23.8646 3.632 20.9646 3.632 20.9646L2.44029 23.6871C2.70401 24.8146 3.58917 25.6573 4.2213 26.1337V26.1337Z" fill="#7C4530"/>
<path d="M2.19976 24.3217L1.53412 27.6723C2.13123 28.9196 3.41314 29.6423 4.23566 29.9944C4.42671 30.0765 4.59902 29.843 4.47146 29.6753C2.93879 27.6605 2.19982 24.3216 2.19982 24.3216L2.19976 24.3217Z" fill="#7C4530"/>
<path d="M23.9322 27.0415C24.603 26.625 25.5579 25.8671 25.9185 24.7683L24.9678 21.9471C24.9678 21.9471 24.7096 24.835 23.6492 26.7613C23.5463 26.9484 23.7531 27.1523 23.9322 27.0415Z" fill="#7C4530"/>
<path d="M26.103 25.4225C26.103 25.4225 25.077 28.6803 23.3753 30.5462C23.2335 30.7014 23.3852 30.9494 23.5827 30.8857C24.4323 30.6103 25.7718 30.0086 26.4751 28.821L26.103 25.4225Z" fill="#7C4530"/>
<path d="M16.1439 14.0666L16.1072 14.1735C15.7122 14.0807 14.6071 14.3926 14.6071 14.3926C14.6071 14.3926 13.5341 13.9803 13.1323 14.0366L13.1054 13.9266C13.1054 13.9266 10.8462 14.2115 8.81376 16.1015C8.69154 16.2152 8.87574 16.3709 9.07075 16.3184C9.85135 16.1083 11.2578 15.8033 13.0609 15.7249C13.0764 16.0024 13.0923 16.271 13.1085 16.529C12.8531 16.5853 11.4399 16.956 10.1448 18.4982C10.0587 18.6007 10.1856 18.7379 10.3217 18.6893C10.8836 18.4889 11.9098 18.1928 13.2217 18.1169C13.2704 18.7219 13.3208 19.2586 13.3721 19.7341C13.0331 19.8805 12.4107 20.2421 11.8243 21.0757C11.7723 21.1496 11.8474 21.247 11.929 21.2116C12.242 21.0753 12.7951 20.8777 13.5013 20.8011C13.8603 23.4366 14.2129 23.4531 14.2129 23.4531C14.2129 23.4531 14.5659 23.4691 15.1526 20.8771C15.8494 21.0183 16.383 21.266 16.6829 21.4305C16.7609 21.4734 16.844 21.3831 16.799 21.3048C16.2872 20.4205 15.6985 20.0032 15.3738 19.8263C15.4658 19.3573 15.5629 18.8275 15.6642 18.2294C16.9641 18.4256 17.9603 18.8148 18.5027 19.066C18.6341 19.1269 18.7724 19.0019 18.6956 18.892C17.5393 17.2369 16.1642 16.7378 15.9148 16.6583C15.9533 16.4028 15.9923 16.1367 16.032 15.8617C17.8208 16.1057 19.1952 16.5386 19.9546 16.8197C20.1441 16.8898 20.3411 16.7517 20.2293 16.6272C18.3689 14.5581 16.1439 14.0666 16.1439 14.0666H16.1439Z" fill="#7C4530"/>
<path d="M2.86137 17.4056C2.86089 16.9121 3.06816 16.323 3.4329 15.807C3.85866 15.2049 4.4159 14.814 4.96166 14.7346C4.96424 14.7341 4.96683 14.7338 4.96947 14.7333C4.96683 14.7338 4.96424 14.7341 4.96166 14.7346C4.41596 14.814 3.85872 15.2049 3.4329 15.807C3.06816 16.323 2.86089 16.9121 2.86137 17.4056ZM6.88117 15.5433C6.88045 15.5426 6.87972 15.5418 6.879 15.541C6.87966 15.5418 6.88045 15.5425 6.88117 15.5433C7.1608 15.3323 7.45197 15.1379 7.75467 14.96C7.45197 15.1379 7.1608 15.3323 6.88117 15.5433ZM6.87174 15.5339C6.87144 15.5335 6.87108 15.5332 6.87072 15.5329C6.87114 15.5333 6.87144 15.5336 6.87174 15.5339ZM6.86807 15.5302C6.86717 15.5293 6.86633 15.5284 6.86543 15.5276C6.86633 15.5285 6.86717 15.5294 6.86807 15.5302ZM6.86171 15.524C6.51811 15.1874 5.91084 14.718 5.19613 14.7175C5.91084 14.718 6.51811 15.1874 6.86171 15.524ZM5.19517 14.7175C5.19523 14.7175 5.19529 14.7175 5.19529 14.7175C5.19523 14.7175 5.19517 14.7175 5.19517 14.7175Z" fill="#B67E40"/>
<path d="M6.30237 15.9794C6.03847 15.7355 5.6315 15.4434 5.19679 15.4428C5.63156 15.4432 6.03847 15.7355 6.30237 15.9794Z" fill="#B67E40"/>
<path d="M2.64474 24.2826C2.63399 24.2591 2.62366 24.2355 2.61345 24.2117C2.63129 24.1607 2.64942 24.109 2.66786 24.0573C2.66018 24.1283 2.65243 24.2035 2.64474 24.2826Z" fill="#683B2D"/>
<path d="M25.663 25.3427C25.6618 25.2037 25.6592 25.0762 25.6561 24.9629C25.6798 25.0523 25.7027 25.1407 25.7248 25.2281C25.7049 25.2669 25.6843 25.305 25.663 25.3427H25.663Z" fill="#683B2D"/>
<path d="M25.6511 16.8303C25.2794 16.1914 24.7584 15.7507 24.2217 15.6215C24.219 15.6209 24.216 15.6202 24.2134 15.6195C24.216 15.6202 24.2191 15.6209 24.2217 15.6215C24.7584 15.7508 25.2794 16.1914 25.6511 16.8303ZM22.2396 16.2505C21.973 16.0089 21.693 15.7836 21.3992 15.5743C21.693 15.7836 21.9729 16.0089 22.2396 16.2505ZM24.2103 15.6188C24.0846 15.5893 23.9601 15.5761 23.8378 15.5761C23.96 15.5761 24.0842 15.5893 24.2103 15.6188Z" fill="#B67E40"/>
<path d="M22.7633 16.7497C22.7638 16.7496 22.7638 16.7496 22.7638 16.7496C22.7638 16.7496 22.7638 16.7497 22.7633 16.7497ZM22.7771 16.7389C22.7774 16.7387 22.7779 16.7385 22.7779 16.7383C22.7779 16.7384 22.7774 16.7387 22.7771 16.7389ZM24.0552 16.3263C23.9819 16.3091 23.9081 16.3013 23.8347 16.3013C23.9081 16.3013 23.9818 16.3091 24.0552 16.3263ZM23.834 16.3013C23.8344 16.3013 23.8344 16.3013 23.8347 16.3013C23.8344 16.3013 23.8344 16.3013 23.834 16.3013Z" fill="#B67E40"/>
<path d="M9.70553 14.0806C9.70487 14.0797 9.70421 14.0788 9.70355 14.078C9.70421 14.0788 9.70487 14.0797 9.70553 14.0806ZM9.68031 14.047C9.07124 13.2383 7.77462 11.7749 6.3676 11.7741C7.77474 11.7747 9.07118 13.2382 9.68031 14.047Z" fill="#FFD794"/>
<path d="M22.1862 17.3882C21.5711 16.9624 20.7647 16.5099 19.7357 16.1207C19.2253 15.6377 18.7051 15.2615 18.2245 14.9706C19.8285 15.4616 21.138 16.2605 22.1862 17.3882ZM6.90279 16.6214C8.01437 15.6431 9.34337 14.992 10.9199 14.6526C10.4256 14.8962 9.88727 15.2182 9.34962 15.6425C8.34674 15.92 7.53732 16.2726 6.90285 16.6214H6.90279Z" fill="#FDCA8C"/>
<path d="M19.7357 16.1207C18.4083 15.6188 16.7103 15.2223 14.5755 15.124C14.2496 15.109 13.9334 15.1018 13.6262 15.1018C11.922 15.1018 10.5067 15.3222 9.34955 15.6425C9.88726 15.2182 10.4255 14.8962 10.9199 14.6526C11.7905 14.4652 12.737 14.3727 13.7641 14.3727C14.0395 14.3727 14.3202 14.3794 14.6071 14.3926L14.6442 14.3943C15.9727 14.4555 17.1634 14.6457 18.2245 14.9705C18.705 15.2614 19.2253 15.6377 19.7357 16.1207Z" fill="#AE8A70"/>
<path d="M19.5565 14.5307C19.5619 14.5247 19.5673 14.5187 19.573 14.5126C19.5673 14.5187 19.5619 14.5247 19.5565 14.5307ZM23.2145 12.5609C23.1056 12.5433 22.9967 12.535 22.8883 12.535C22.9971 12.535 23.1056 12.5433 23.2145 12.5609Z" fill="#FFD794"/>
<path d="M20.3461 14.9234C20.0883 14.7862 19.8216 14.659 19.5466 14.5418C19.5493 14.5386 19.5523 14.5354 19.555 14.5322C19.5558 14.5317 19.5561 14.5312 19.5564 14.5307C19.5619 14.5247 19.5672 14.5187 19.573 14.5126C20.2155 13.7991 21.5432 12.536 22.8867 12.535C22.8871 12.535 22.8875 12.535 22.8879 12.535H22.8883C22.9967 12.535 23.1056 12.5433 23.2145 12.5609C23.8807 12.6684 24.64 13.0746 25.3598 13.6922C24.875 13.4339 24.0313 13.0555 23.247 13.0555C23.0109 13.0555 22.7802 13.0898 22.5663 13.1721C21.5399 13.5667 20.6632 14.5399 20.3462 14.9234H20.3461Z" fill="#FDCA8C"/>
<path d="M25.5694 21.8626C25.3791 21.3386 25.1679 20.7959 24.9334 20.2371C25.2952 19.9482 25.8624 19.4047 26.0389 18.7278C26.1757 18.2031 26.027 17.476 25.6511 16.8303C25.2794 16.1914 24.7585 15.7508 24.2218 15.6216C23.4062 15.4245 22.6464 15.9132 22.2396 16.2505C21.4588 15.5429 20.5619 14.9742 19.5466 14.5418C20.2296 13.7774 21.745 12.3238 23.2144 12.5609C24.1442 12.7108 25.2558 13.443 26.1875 14.5192C27.0591 15.5263 27.6341 16.6907 27.6524 17.4857C27.6936 19.2797 26.9404 20.8478 25.5694 21.8626ZM22.7557 16.7556C23.0681 16.5107 23.5723 16.2099 24.0609 16.3277C24.4077 16.4112 24.7759 16.7384 25.0464 17.2028C25.3188 17.6713 25.444 18.2088 25.3577 18.5401C25.2557 18.9323 24.9222 19.3015 24.6331 19.5549C24.1243 18.4749 23.4997 17.5428 22.7556 16.7556H22.7557ZM26.391 28.8283C26.4571 29.4552 26.307 30.0835 25.9681 30.5972C24.8955 32.2233 21.5532 35.9661 13.703 35.6046C5.85259 35.243 2.84864 31.2079 1.9215 29.4897C1.62871 28.947 1.53364 28.3077 1.65382 27.6891C1.9418 26.2072 2.72354 23.1647 4.72335 19.4398C6.69012 15.7764 9.83088 14.1726 14.6071 14.3926L14.6442 14.3943C19.4205 14.6143 22.4096 16.5004 24.0502 20.3299C25.7188 24.2237 26.2329 27.3256 26.391 28.8283ZM6.32315 15.9988C5.51379 16.7145 4.81067 17.5855 4.2102 18.6144C3.94413 18.3354 3.64425 17.9371 3.57663 17.5369C3.51939 17.199 3.69074 16.6753 4.00305 16.2336C4.31254 15.7959 4.70785 15.5039 5.0604 15.4526C5.55715 15.3802 6.03355 15.7262 6.32321 15.9988H6.32315ZM1.38259 16.2759C1.46986 15.4857 2.14372 14.3788 3.09945 13.4559C4.12077 12.4696 5.29145 11.8425 6.23072 11.7786C7.7148 11.6777 9.09779 13.2646 9.71166 14.0888C8.66272 14.4262 7.72032 14.9102 6.88111 15.5431C6.50526 15.1698 5.79091 14.6131 4.96154 14.7345C4.41584 14.8139 3.85861 15.2049 3.43278 15.807C3.00252 16.4156 2.79135 17.1262 2.88192 17.6614C2.99879 18.3519 3.51675 18.945 3.85182 19.2662C3.5699 19.8012 3.31212 20.3224 3.07699 20.8267C1.79976 19.6899 1.18571 18.0589 1.38253 16.2759H1.38259ZM28.4981 17.4651C28.4507 15.3944 25.8452 12.1042 23.3454 11.701C21.2563 11.3635 19.3002 13.4837 18.6921 14.2194C17.5022 13.8246 16.168 13.5932 14.682 13.5248L14.6453 13.523C13.1594 13.4546 11.8104 13.5625 10.5909 13.8463C10.0489 13.0576 8.28464 10.7661 6.17493 10.9102C3.65014 11.0822 0.76926 14.1195 0.542054 16.1775C0.303077 18.3412 1.09064 20.3132 2.70931 21.6433C1.57094 24.2609 1.0504 26.3544 0.824274 27.5181C0.664756 28.339 0.791842 29.189 1.18187 29.9121C1.75105 30.9668 2.84108 32.503 4.80202 33.8329C7.14591 35.4225 10.1279 36.3111 13.6653 36.4742C17.2025 36.6368 20.2495 36.0261 22.7221 34.6581C24.7906 33.5138 26.0099 32.0841 26.668 31.0855C27.1195 30.4018 27.3196 29.5663 27.2322 28.7344C27.1081 27.5546 26.7715 25.4216 25.8651 22.7097C27.593 21.5338 28.5482 19.642 28.4981 17.4651H28.4981Z" fill="#4D2F2E"/>
<path d="M13.8722 31.7125C13.3071 31.3816 12.979 31.7824 12.87 31.9565C12.8958 32.0091 12.9268 32.0611 12.9654 32.1094C13.1399 32.3275 13.4341 32.4474 13.8394 32.4662C14.245 32.4847 14.5483 32.3923 14.7408 32.1912C14.7836 32.1464 14.8188 32.098 14.8493 32.0477C14.7556 31.8642 14.4638 31.4346 13.8722 31.7124V31.7125Z" fill="#EE8282"/>
<path d="M13.9543 29.8242C14.6953 29.858 15.3265 29.1829 15.3463 28.7302C15.3662 28.2775 14.7778 27.96 14.0369 27.9257C13.296 27.892 12.6827 28.1537 12.663 28.6068C12.6433 29.0595 13.2135 29.7901 13.9543 29.8243V29.8242Z" fill="#4D2F2E"/>
<path d="M14.7408 32.1912C14.5483 32.3924 14.245 32.4847 13.8394 32.4662C13.434 32.4473 13.1399 32.3275 12.9654 32.1094C12.9269 32.061 12.8959 32.0091 12.87 31.9565C12.979 31.7824 13.3071 31.3816 13.8722 31.7125C14.4639 31.4347 14.7557 31.8642 14.8493 32.0478C14.8187 32.0981 14.7836 32.1464 14.7408 32.1912V32.1912ZM15.5373 31.002C14.9498 31.0326 14.4241 30.7029 14.145 30.4853C14.0177 30.3862 13.8428 30.378 13.7072 30.4652C13.4102 30.6562 12.8581 30.9364 12.2755 30.8519C11.5679 30.749 11.1848 29.9036 11.1848 29.9036C11.1848 29.9036 11.1195 31.298 12.0573 31.5447C12.0726 31.8285 12.1485 32.225 12.4151 32.5625C12.7215 32.9508 13.1901 33.1623 13.808 33.191C14.4257 33.2192 14.9108 33.0518 15.2496 32.6931C15.5445 32.3814 15.6544 31.9935 15.6942 31.7126C16.6499 31.553 16.7061 30.1579 16.7061 30.1579C16.7061 30.1579 16.2511 30.9647 15.5373 31.0021L15.5373 31.002Z" fill="#4D2F2E"/>
<path d="M5.98315 26.9237C6.14393 27.1771 6.44015 27.3033 6.72958 27.2487C7.11029 27.1767 7.53155 27.1465 7.97311 27.1665C8.40746 27.1866 8.81779 27.2538 9.18608 27.3575C9.46962 27.4372 9.77466 27.3383 9.95658 27.1005C10.2312 26.7417 10.4138 26.3047 10.4641 25.8265C10.6233 24.3138 9.46211 23.0071 7.98332 23.0351C6.76387 23.0581 5.73301 24.0278 5.60172 25.2753C5.53775 25.8823 5.68658 26.456 5.98309 26.9237H5.98315Z" fill="#4D2F2E"/>
<path d="M8.68992 24.627C8.32944 24.6105 8.02427 24.8976 8.00806 25.2683C7.99202 25.6393 8.27106 25.9534 8.63154 25.9699C8.99202 25.9864 9.29724 25.6994 9.31339 25.3286C9.32955 24.9577 9.05045 24.6437 8.68992 24.627Z" fill="#FEFEFE"/>
<path d="M7.75376 26.1019C7.6244 26.0961 7.51485 26.199 7.50908 26.3322C7.5032 26.4654 7.60343 26.5782 7.73274 26.5841C7.86223 26.59 7.97178 26.487 7.97761 26.3539C7.98331 26.2206 7.88319 26.1079 7.7537 26.102L7.75376 26.1019Z" fill="#FEFEFE"/>
<path d="M22.1529 27.6365C21.9707 27.8743 21.6647 27.9729 21.3813 27.8916C21.0085 27.7851 20.5913 27.716 20.1497 27.6955C19.7154 27.6759 19.301 27.7049 18.9251 27.7745C18.6359 27.8279 18.3406 27.701 18.1802 27.4476C17.9377 27.0648 17.7936 26.6129 17.7852 26.1318C17.7581 24.6105 19.0282 23.4159 20.4985 23.5797C21.7109 23.7147 22.6537 24.7753 22.6758 26.03C22.6869 26.6404 22.489 27.198 22.1529 27.6366V27.6365Z" fill="#4D2F2E"/>
<path d="M19.6241 25.1305C19.9847 25.1471 20.264 25.4612 20.2476 25.832C20.2315 26.2029 19.9263 26.4901 19.5658 26.4733C19.2055 26.4568 18.9263 26.1428 18.9423 25.7719C18.9584 25.4011 19.264 25.114 19.6241 25.1305Z" fill="#FEFEFE"/>
<path d="M20.4286 26.6859C20.5581 26.6918 20.6582 26.8045 20.6525 26.9374C20.6468 27.0706 20.5371 27.1735 20.4076 27.1677C20.2781 27.1618 20.178 27.049 20.1838 26.9158C20.1895 26.783 20.2991 26.6796 20.4286 26.6859L20.4286 26.6859Z" fill="#FEFEFE"/>
<path d="M22.8901 6.46141C23.483 6.55625 24.0407 6.13677 24.1328 5.52649C24.2248 4.91682 23.8172 4.34299 23.224 4.2487C22.6307 4.15386 22.0734 4.57278 21.9814 5.18307C21.8893 5.79329 22.2969 6.36656 22.8901 6.46141Z" fill="#FAA83A"/>
<path d="M12.7423 12.2017C12.5151 12.1654 12.2976 12.351 12.2577 12.6154C12.2178 12.8797 12.3703 13.1244 12.5976 13.1607C12.8249 13.197 13.0423 13.0115 13.0821 12.747C13.1221 12.4827 12.9696 12.2381 12.7423 12.2017Z" fill="#CF4443"/>
<path d="M9.81231 12.322C9.67153 12.2995 9.52619 12.4555 9.4949 12.6627C9.46373 12.8698 9.55622 13.0639 9.69694 13.0864C9.83778 13.1089 9.98306 12.9528 10.0144 12.7457C10.0456 12.5385 9.95309 12.3445 9.81231 12.322Z" fill="#CF4443"/>
<path d="M13.065 3.75897C13.1571 3.14875 12.7495 2.57547 12.1565 2.48069C11.5634 2.38585 11.006 2.80533 10.914 3.41506C10.8219 4.02528 11.2295 4.59911 11.8225 4.6934C12.4156 4.78824 12.9729 4.36926 13.065 3.75903V3.75897Z" fill="#FAA83A"/>
<path d="M22.4417 15.1222C22.5826 15.1446 22.7278 14.9886 22.7591 14.7815C22.7904 14.5743 22.6979 14.3803 22.557 14.3579C22.4165 14.3354 22.2709 14.4913 22.2396 14.6986C22.2083 14.9057 22.3011 15.0997 22.4417 15.1222Z" fill="#CF4443"/>
<path d="M8.68049 4.96768C8.75647 4.46459 8.42031 3.99154 7.93107 3.91332C7.44176 3.83509 6.98206 4.18117 6.90609 4.68425C6.83017 5.18789 7.16627 5.66094 7.65557 5.73861C8.14482 5.81684 8.60458 5.47125 8.68049 4.96768Z" fill="#FAA83A"/>
<path d="M19.6558 14.288C19.8831 14.3244 20.1004 14.1388 20.1402 13.8744C20.1803 13.6101 20.0279 13.3655 19.8006 13.3291C19.5733 13.2928 19.356 13.4784 19.3158 13.7427C19.2761 14.0071 19.4285 14.2517 19.6557 14.288H19.6558Z" fill="#CF4443"/>
<path d="M15.3662 12.8865C15.4403 12.3952 15.8891 12.0574 16.3669 12.1338C16.8444 12.21 17.1726 12.672 17.0985 13.1634C17.0244 13.6548 16.5755 13.9926 16.0976 13.9162C15.6201 13.8399 15.2916 13.378 15.3662 12.8865ZM12.539 13.549C12.1035 13.4793 11.8081 13.0335 11.8802 12.5551C11.9525 12.0766 12.3655 11.7439 12.8009 11.8134C13.2364 11.883 13.5319 12.3288 13.4597 12.8073C13.3875 13.2858 12.9745 13.6186 12.539 13.549ZM9.63827 13.4747C9.28698 13.4185 9.05335 13.0272 9.11743 12.6024C9.18151 12.1776 9.51959 11.8776 9.87094 11.9337C10.2223 11.9898 10.456 12.3812 10.3919 12.806C10.3278 13.2309 9.98973 13.5309 9.63833 13.4747H9.63827ZM19.8591 12.9409C20.2946 13.0104 20.5901 13.4562 20.518 13.9347C20.4458 14.4133 20.0325 14.7459 19.5971 14.6764C19.162 14.6069 18.8663 14.161 18.9385 13.6824C19.0107 13.204 19.4237 12.8712 19.8592 12.9409H19.8591ZM22.6159 13.9694C22.9673 14.0256 23.2007 14.417 23.1365 14.8417C23.0727 15.2666 22.7346 15.5666 22.3832 15.5105C22.0318 15.4543 21.798 15.063 21.8621 14.6382C21.9263 14.2133 22.2644 13.9133 22.6158 13.9694H22.6159ZM23.52 16.1686L23.8141 14.4043C23.0189 13.9632 20.3935 12.646 16.386 12.0059C12.3788 11.3657 9.48866 11.802 8.60062 11.9742L8.36098 13.7472C9.54127 13.657 12.813 13.4847 16.0839 14.0071C19.3553 14.5297 22.4218 15.7145 23.52 16.1687V16.1686Z" fill="#FAA83A"/>
<path d="M24.8215 9.98675C24.0681 10.6505 23.4215 10.9426 22.8936 10.8585C22.792 10.8418 22.6946 10.8118 22.6017 10.7673C22.3638 10.6543 22.1873 10.4491 22.0914 10.1748C21.8045 9.35565 22.2924 7.93154 22.588 7.19861C22.3133 7.12465 22.0666 6.98915 21.8603 6.8086C21.7122 7.05452 21.502 7.37866 21.2511 7.69366C20.5723 8.5477 19.9222 8.93023 19.3163 8.83322C19.267 8.82519 19.2177 8.81444 19.1693 8.79998C18.5046 8.60553 18.1448 7.84362 18.0989 6.53587C18.0844 6.12652 18.1028 5.72953 18.1269 5.42089C17.8854 5.46056 17.6341 5.46328 17.3797 5.4225C17.1253 5.38178 16.8866 5.30084 16.668 5.18783C16.6 5.48948 16.5007 5.87306 16.3663 6.25881C15.9373 7.49105 15.3697 8.10455 14.679 8.08256C14.6282 8.08095 14.5782 8.07613 14.5289 8.06859C13.9231 7.97165 13.4165 7.40424 13.021 6.3793C12.8749 6.00053 12.7701 5.62603 12.7015 5.34582C12.4517 5.45302 12.1767 5.50548 11.893 5.49047C11.9587 6.28074 12.0041 7.78999 11.4891 8.48109C11.3168 8.71255 11.0882 8.85287 10.828 8.88667C10.7265 8.90008 10.6249 8.89847 10.5231 8.88185C9.99538 8.79776 9.46523 8.31772 8.94278 7.45034C8.71371 7.0699 8.52902 6.68737 8.40692 6.41414C8.27143 6.46988 8.12789 6.50738 7.9796 6.5245C8.33407 7.88854 8.47089 9.7734 8.50818 10.3997C9.62734 10.1699 12.5661 9.73317 16.631 10.3826C20.696 11.0319 23.3677 12.3646 24.3666 12.933C24.5866 12.3477 25.2726 10.5941 26.0121 9.40532C25.8762 9.34267 25.7505 9.26173 25.6378 9.16639C25.4407 9.3887 25.1523 9.69573 24.8215 9.98663V9.98675Z" fill="#FAA83A"/>
<path d="M26.8281 6.93175C26.339 6.85359 25.8791 7.19966 25.8031 7.70275C25.7271 8.20638 26.0633 8.67944 26.5526 8.75766C27.0419 8.83533 27.5019 8.48975 27.5774 7.98617C27.6535 7.48309 27.3175 7.01004 26.8281 6.93175Z" fill="#FAA83A"/>
<path d="M17.4969 4.64625C18.3919 4.78873 19.233 4.15602 19.372 3.23562C19.5111 2.3146 18.8957 1.44938 18.0007 1.30634C17.1057 1.16323 16.2646 1.79601 16.1259 2.71697C15.9869 3.63743 16.6019 4.50321 17.4968 4.64625H17.4969Z" fill="#FAA83A"/>
<path d="M23.489 16.7918C22.6238 16.4254 19.4244 15.1373 15.996 14.5896C12.5679 14.0421 9.13941 14.2715 8.20692 14.3507C8.19251 14.3661 8.17713 14.3809 8.16032 14.3941C7.90248 14.5941 7.85617 14.9019 7.86626 15.1371C8.90818 14.9759 11.9495 14.6271 15.8952 15.2573C19.841 15.8876 22.6364 17.1687 23.5818 17.6473C23.6605 17.4265 23.7071 17.1187 23.5207 16.8476C23.5084 16.8298 23.4981 16.811 23.489 16.7918H23.489Z" fill="#FAA83A"/>
<path d="M16.721 13.1031C16.7631 12.8258 16.5778 12.5651 16.3081 12.5221C16.0384 12.479 15.7851 12.6697 15.7435 12.9469C15.7015 13.2243 15.8867 13.4848 16.1565 13.5278C16.4258 13.5709 16.6794 13.3804 16.721 13.1031V13.1031Z" fill="#CF4443"/>
<path d="M8.44175 11.0181C8.42434 11.19 8.45334 11.3164 8.48404 11.3952C9.40841 11.2103 12.3301 10.7614 16.4739 11.4236C20.6176 12.0853 23.2698 13.4245 24.0961 13.889C24.1484 13.8234 24.2134 13.7122 24.2473 13.5428C23.4508 13.0765 20.7292 11.6337 16.5431 10.965C12.357 10.2964 9.3385 10.8225 8.44175 11.0181Z" fill="#FAA83A"/>
<path d="M16.2004 13.2364C15.9471 13.196 15.7661 12.9461 15.7424 12.6396C15.7233 12.6942 15.708 12.7517 15.6992 12.8123C15.6385 13.2149 15.8364 13.5807 16.1412 13.6294C16.446 13.6781 16.7424 13.3912 16.8031 12.9887C16.8123 12.9281 16.8149 12.8686 16.8127 12.8106C16.6996 13.0952 16.4536 13.2769 16.2003 13.2364H16.2004Z" fill="#A73436"/>
<path d="M12.6065 12.9625C12.3913 12.9281 12.2361 12.7257 12.2137 12.4788C12.198 12.5226 12.1856 12.5688 12.1783 12.6175C12.1294 12.9411 12.2999 13.2369 12.5589 13.2783C12.8179 13.3197 13.0675 13.0909 13.1163 12.7673C13.1236 12.7186 13.1255 12.6708 13.1234 12.6241C13.0292 12.8524 12.8216 12.997 12.6065 12.9626L12.6065 12.9625Z" fill="#A73436"/>
<path d="M9.72535 12.8981C9.57208 12.8736 9.46901 12.6796 9.46337 12.4353C9.45021 12.4795 9.43934 12.5259 9.43196 12.5746C9.38307 12.8982 9.4931 13.1845 9.67766 13.214C9.8621 13.2434 10.0514 13.005 10.1002 12.6813C10.1075 12.6327 10.1109 12.585 10.1113 12.5387C10.034 12.7697 9.8785 12.9225 9.72529 12.898L9.72535 12.8981Z" fill="#A73436"/>
<path d="M9.9221 12.485C9.91357 12.5414 9.84793 12.5777 9.7755 12.566C9.70306 12.5545 9.65117 12.4994 9.6597 12.443C9.66817 12.3867 9.73381 12.3503 9.80631 12.3618C9.87874 12.3734 9.93057 12.4285 9.92204 12.4849L9.9221 12.485Z" fill="#F16464"/>
<path d="M12.9095 12.4381C12.8964 12.5251 12.7878 12.58 12.6671 12.5607C12.5463 12.5414 12.4591 12.4553 12.4722 12.3683C12.4853 12.2813 12.5938 12.2265 12.7146 12.2457C12.8353 12.265 12.9226 12.3512 12.9095 12.4381Z" fill="#F16464"/>
<path d="M16.5667 12.7902C16.5541 12.8743 16.4127 12.9216 16.2516 12.8958C16.0905 12.8701 15.97 12.7811 15.9827 12.697C15.9956 12.613 16.1366 12.5656 16.2977 12.5913C16.459 12.6171 16.5793 12.7062 16.5667 12.7903V12.7902Z" fill="#F16464"/>
<path d="M15.7435 12.9469C15.7852 12.6696 16.0384 12.479 16.3081 12.5221C16.5778 12.5651 16.7631 12.8257 16.721 13.1031C16.6794 13.3805 16.4258 13.571 16.1565 13.5279C15.8868 13.4849 15.7016 13.2243 15.7435 12.9469V12.9469ZM17.0985 13.1634C17.1726 12.672 16.8444 12.21 16.3669 12.1338C15.889 12.0574 15.4403 12.3952 15.3662 12.8865C15.2916 13.378 15.6201 13.8399 16.0976 13.9163C16.5755 13.9926 17.0244 13.6548 17.0985 13.1634Z" fill="#662C2C"/>
<path d="M12.5976 13.1606C12.3703 13.1243 12.2178 12.8796 12.2577 12.6154C12.2976 12.351 12.5151 12.1654 12.7423 12.2017C12.9696 12.238 13.1221 12.4826 13.0821 12.747C13.0423 13.0114 12.8248 13.1969 12.5976 13.1606ZM12.8009 11.8134C12.3655 11.7438 11.9525 12.0766 11.8802 12.5551C11.808 13.0335 12.1035 13.4794 12.539 13.549C12.9745 13.6186 13.3874 13.2858 13.4597 12.8073C13.5319 12.3288 13.2364 11.883 12.8009 11.8134Z" fill="#662C2C"/>
<path d="M9.69694 13.0864C9.55622 13.0639 9.46373 12.8698 9.4949 12.6627C9.52619 12.4555 9.67153 12.2996 9.81231 12.322C9.95309 12.3445 10.0456 12.5385 10.0144 12.7457C9.98306 12.9528 9.83778 13.1088 9.69694 13.0864ZM9.87093 11.9337C9.51958 11.8775 9.18151 12.1776 9.11742 12.6024C9.05334 13.0273 9.28697 13.4186 9.63826 13.4747C9.98967 13.5309 10.3277 13.2309 10.3918 12.806C10.4559 12.3812 10.2222 11.9898 9.87087 11.9337H9.87093Z" fill="#662C2C"/>
<path d="M26.5526 8.75772C26.0633 8.6795 25.7271 8.20638 25.8031 7.70281C25.8791 7.19972 26.339 6.85365 26.828 6.93181C27.3175 7.0101 27.6534 7.48315 27.5774 7.98623C27.5019 8.48987 27.0419 8.83539 26.5526 8.75772ZM24.3665 12.9331C23.3676 12.3646 20.696 11.032 16.6309 10.3827C12.566 9.7333 9.62726 10.17 8.50811 10.3998C8.47082 9.77352 8.334 7.88873 7.97953 6.52462C8.12781 6.50751 8.27136 6.47 8.40685 6.41427C8.52895 6.6875 8.71364 7.07003 8.9427 7.45046C9.46516 8.31785 9.99531 8.79788 10.523 8.88198C10.6248 8.8986 10.7265 8.9002 10.828 8.8868C11.0882 8.85306 11.3167 8.71268 11.489 8.48122C12.004 7.79011 11.9587 6.28081 11.893 5.49059C12.1766 5.50561 12.4516 5.45315 12.7014 5.34595C12.77 5.62616 12.8748 6.00066 13.0209 6.37942C13.4164 7.40437 13.923 7.97177 14.5289 8.06872C14.5782 8.07619 14.6281 8.08107 14.6789 8.08268C15.3696 8.10462 15.9372 7.49118 16.3662 6.25893C16.5006 5.87319 16.5999 5.48961 16.6679 5.18795C16.8865 5.30097 17.1252 5.38191 17.3796 5.42263C17.634 5.46335 17.8853 5.46069 18.1268 5.42102C18.1027 5.72959 18.0843 6.12664 18.0989 6.53599C18.1447 7.84375 18.5045 8.60566 19.1692 8.80011C19.2176 8.81457 19.267 8.82532 19.3163 8.83335C19.9221 8.93029 20.5722 8.54776 21.251 7.69379C21.502 7.37873 21.7121 7.05458 21.8603 6.80873C22.0665 6.98927 22.3132 7.12484 22.5879 7.19874C22.2923 7.93167 21.8045 9.35571 22.0913 10.1749C22.1872 10.4492 22.3637 10.6544 22.6016 10.7675C22.6945 10.8119 22.7919 10.842 22.8935 10.8586C23.4215 10.9427 24.0681 10.6507 24.8214 9.98688C25.1522 9.69598 25.4406 9.38895 25.6377 9.16664C25.7504 9.26198 25.8761 9.34292 26.0121 9.40557C25.2725 10.5944 24.5865 12.3479 24.3665 12.9332V12.9331ZM24.0961 13.889C23.2698 13.4245 20.6176 12.0853 16.4739 11.4236C12.3301 10.7615 9.40841 11.2104 8.48403 11.3952C8.45334 11.3164 8.42433 11.19 8.44175 11.0181C9.3385 10.8225 12.357 10.2964 16.5431 10.9651C20.7292 11.6337 23.4508 13.0764 24.2473 13.5428C24.2133 13.7122 24.1484 13.8234 24.0961 13.889ZM8.6006 11.9742C9.48865 11.802 12.3788 11.3657 16.386 12.0059C20.3935 12.646 23.0189 13.9632 23.8141 14.4043L23.52 16.1686C22.4218 15.7145 19.3552 14.5297 16.0839 14.0071C12.8131 13.4847 9.54132 13.657 8.36097 13.7471L8.6006 11.9741V11.9742ZM23.5819 17.6474C22.6365 17.1687 19.8411 15.8876 15.8952 15.2573C11.9495 14.6271 8.90823 14.9759 7.86632 15.1371C7.85623 14.9019 7.90253 14.5941 8.16037 14.3941C8.17718 14.3809 8.19256 14.3661 8.20697 14.3507C9.13946 14.2715 12.5679 14.0421 15.996 14.5896C19.4244 15.1373 22.6239 16.4253 23.4891 16.7918C23.4982 16.811 23.5085 16.8298 23.5208 16.8476C23.7072 17.1187 23.6606 17.4265 23.5819 17.6474H23.5819ZM6.90602 4.68432C6.982 4.18124 7.44169 3.83516 7.931 3.91338C8.42025 3.99161 8.7564 4.46472 8.68042 4.96774C8.60451 5.47138 8.14475 5.8169 7.65551 5.73868C7.1662 5.66101 6.83011 5.18789 6.90602 4.68432ZM10.9139 3.41506C11.0059 2.80539 11.5633 2.38585 12.1564 2.48069C12.7495 2.57548 13.157 3.14875 13.0649 3.75897C12.9728 4.3692 12.4154 4.78818 11.8224 4.69334C11.2293 4.59905 10.8217 4.02522 10.9139 3.415V3.41506ZM16.1258 2.71697C16.2645 1.79595 17.1056 1.16324 18.0007 1.30634C18.8957 1.44938 19.511 2.31461 19.3719 3.23562C19.233 4.15609 18.3918 4.78874 17.4968 4.64625C16.6018 4.50321 15.9869 3.63743 16.1259 2.71697H16.1258ZM23.2239 4.24871C23.8171 4.343 24.2247 4.91683 24.1327 5.52649C24.0406 6.13672 23.4829 6.55626 22.8901 6.46141C22.2968 6.36657 21.8892 5.7933 21.9813 5.18307C22.0734 4.57285 22.6307 4.15386 23.2239 4.24871ZM26.9452 6.15494C26.0399 6.0103 25.1888 6.65055 25.0483 7.58219C24.9979 7.91493 25.0456 8.24012 25.1679 8.52781C24.9925 8.7314 24.6789 9.07914 24.3176 9.39624C23.706 9.93312 23.185 10.179 22.9229 10.0542C22.8862 10.0371 22.8442 10.006 22.8102 9.90847C22.6185 9.36201 23.0543 8.03004 23.4084 7.22592C24.1537 7.07695 24.7645 6.4624 24.8875 5.64698C25.0441 4.60869 24.3504 3.63311 23.3412 3.47184C22.3316 3.31057 21.3832 4.02423 21.2265 5.06252C21.17 5.43758 21.2246 5.80399 21.3648 6.12763C21.256 6.3248 20.992 6.78018 20.6536 7.20454C20.1543 7.82923 19.6899 8.13619 19.3781 8.04413C18.854 7.89089 18.7784 6.32109 18.9194 5.1376C19.5443 4.77811 20.0088 4.13842 20.1268 3.35617C20.3304 2.00708 19.4294 0.739 18.118 0.529475C16.807 0.320568 15.5743 1.24746 15.3707 2.59648C15.2528 3.37873 15.5067 4.13304 15.9964 4.67041C15.7821 5.84211 15.2469 7.31447 14.7026 7.29729C14.3783 7.28765 14.0261 6.8505 13.7347 6.09933C13.5372 5.58927 13.4197 5.07284 13.3744 4.85102C13.6033 4.58688 13.7633 4.25476 13.8198 3.87971C13.9768 2.84141 13.2831 1.86522 12.2737 1.70401C11.2643 1.54274 10.3157 2.2564 10.159 3.29469C10.036 4.10956 10.4369 4.88593 11.1031 5.26037C11.2034 6.1369 11.2263 7.54222 10.8825 8.00347C10.8214 8.08546 10.7722 8.10202 10.732 8.1074C10.4456 8.14435 10.0214 7.74736 9.59705 7.04494C9.34643 6.62973 9.14961 6.2011 9.04264 5.95197C9.24408 5.71618 9.38516 5.42102 9.43537 5.08835C9.57591 4.1572 8.9537 3.28122 8.04812 3.13707C7.14272 2.99242 6.29167 3.63212 6.15107 4.56377C6.03179 5.3546 6.46188 6.10409 7.14812 6.40197C7.58061 7.76385 7.72866 10.14 7.75262 10.5762C7.58986 11.136 7.70373 11.5818 7.8468 11.8442L7.57196 13.8776C6.84278 14.5814 7.17725 15.664 7.19269 15.7121C7.23863 15.8559 7.35869 15.9555 7.49713 15.9776C7.54001 15.9845 7.58464 15.9839 7.62944 15.9748C7.66373 15.9679 11.1147 15.2891 15.7782 16.0341C20.4415 16.7789 23.5298 18.5023 23.5604 18.5196C23.6006 18.5422 23.643 18.5566 23.6857 18.5635C23.824 18.5857 23.968 18.5281 24.0543 18.4054C24.083 18.3643 24.7209 17.4371 24.2335 16.539L24.5708 14.5155C24.7843 14.31 25.0246 13.9209 25.0345 13.3363C25.1858 12.9286 26.0269 10.7106 26.8406 9.54744C27.5825 9.4778 28.2132 8.89755 28.3325 8.10678C28.4731 7.17569 27.8507 6.29971 26.9452 6.15501V6.15494Z" fill="#52382D"/>
<path d="M19.8007 13.3292C20.0279 13.3655 20.1804 13.6102 20.1402 13.8745C20.1005 14.1389 19.8832 14.3244 19.6559 14.2881C19.4286 14.2518 19.2762 14.0071 19.3159 13.7428C19.356 13.4784 19.5734 13.2929 19.8007 13.3292H19.8007ZM19.5971 14.6764C20.0325 14.746 20.4459 14.4133 20.518 13.9347C20.5902 13.4562 20.2946 13.0104 19.8591 12.9409C19.4236 12.8712 19.0107 13.204 18.9384 13.6824C18.8662 14.161 19.1619 14.6069 19.597 14.6764H19.5971Z" fill="#662C2C"/>
<path d="M22.557 14.3578C22.6979 14.3803 22.7904 14.5742 22.7591 14.7814C22.7278 14.9886 22.5826 15.1445 22.4417 15.1221C22.3011 15.0996 22.2083 14.9056 22.2396 14.6985C22.2709 14.4913 22.4165 14.3352 22.557 14.3578ZM22.3832 15.5104C22.7346 15.5665 23.0726 15.2665 23.1365 14.8417C23.2007 14.4169 22.9673 14.0255 22.6159 13.9694C22.2644 13.9133 21.9264 14.2133 21.8622 14.6381C21.798 15.063 22.0318 15.4543 22.3832 15.5104H22.3832Z" fill="#662C2C"/>
</svg>
