<svg width="41" height="45" viewBox="0 0 41 45" fill="none" xmlns="http://www.w3.org/2000/svg">
<path d="M7.27222 9.45457C10.5311 11.2651 12.5679 15.0873 12.7716 16.4954C15.2973 14.5642 18.7123 14.1485 20.1042 14.1821C18.8821 10.7622 19.8326 6.97355 20.5115 5.43126C18.0673 7.14119 17.5581 10.3263 17.5581 11.9692C16.6416 8.9517 13.5524 3.98956 12.5679 2.91666C12.2624 6.13535 13.0093 11.5668 13.4845 13.1762C11.4477 9.95749 8.42641 9.35399 7.27222 9.45457Z" fill="url(#paint0_linear_30_69)"/>
<path fill-rule="evenodd" clip-rule="evenodd" d="M20.393 41.0093C27.4236 41.0093 33.1231 35.3098 33.1231 28.2791C33.1231 21.2485 27.4236 15.549 20.393 15.549C13.3623 15.549 7.66287 21.2485 7.66287 28.2791C7.66287 35.3098 13.3623 41.0093 20.393 41.0093ZM20.393 39.6205C26.6566 39.6205 31.7343 34.5428 31.7343 28.2791C31.7343 22.0155 26.6566 16.9378 20.393 16.9378C14.1293 16.9378 9.05161 22.0155 9.05161 28.2791C9.05161 34.5428 14.1293 39.6205 20.393 39.6205Z" fill="#E98510"/>
<defs>
<linearGradient id="paint0_linear_30_69" x1="13.8919" y1="2.91666" x2="13.8919" y2="16.4954" gradientUnits="userSpaceOnUse">
<stop stop-color="#F09020"/>
<stop offset="1" stop-color="#E78109"/>
</linearGradient>
</defs>
</svg>
