<svg width="23" height="35" viewBox="0 0 23 35" fill="none" xmlns="http://www.w3.org/2000/svg">
<g clip-path="url(#clip0_3_157)">
<path fill-rule="evenodd" clip-rule="evenodd" d="M3.73357 15.5824L3.72522 15.574L2.11261 14.3458L11.922 5.84826L14.8464 3.30819L18.3055 0.316925L15.3226 3.44188L12.1141 6.80078L3.73357 15.5824Z" fill="#7AC79C"/>
<path fill-rule="evenodd" clip-rule="evenodd" d="M9.24819 18.9747L10.702 19.5346L9.1145 23.5536L4.71951 34.6831L7.70242 18.3481L9.24819 18.9664V18.9747Z" fill="#99D1A4"/>
<path fill-rule="evenodd" clip-rule="evenodd" d="M5.97285 17.3204L5.95613 17.312L3.70015 15.5991L3.70851 15.6075L12.0891 6.82587L15.2976 3.46696L18.2805 0.34201L15.8156 3.74269L12.8661 7.81182L5.97285 17.3204ZM14.1445 3.32492L18.2721 0.34201L14.813 3.34163C10.5684 7.01805 6.32378 10.6945 2.07919 14.3709L0.5 13.176C5.04539 9.89233 9.59913 6.60863 14.1445 3.32492Z" fill="#44AB7E"/>
<path fill-rule="evenodd" clip-rule="evenodd" d="M22.4917 21.849H22.4582L21.2885 21.7571H21.3052L15.6652 21.1472L16.5008 14.4711C16.601 14.4795 16.7013 14.4962 16.8099 14.5129C16.7097 14.4962 16.6094 14.4879 16.5091 14.4711L18.2805 0.34201L21.7564 18.0556L22.5 21.849H22.4917ZM21.7564 18.0473L22.4833 21.7321L21.7564 18.0389V18.0473Z" fill="#43AB7E"/>
<path fill-rule="evenodd" clip-rule="evenodd" d="M4.71952 34.6831L0.5 13.176L5.77231 17.5877L5.86422 17.6211L4.71952 34.6831Z" fill="#50B27B"/>
<path fill-rule="evenodd" clip-rule="evenodd" d="M4.71951 34.6831L11.2535 26.6869L15.5315 21.448L21.2884 21.7571L22.4666 21.849V21.8574V21.849H22.4916L22.4582 21.8741L13.9523 28.0154L4.71951 34.6831Z" fill="#50B27B"/>
<path fill-rule="evenodd" clip-rule="evenodd" d="M9.37352 18.6656L5.97284 17.3204C11.6044 9.54976 13.8354 6.46658 18.2721 0.34201L16.5008 14.4711L15.6652 21.1472L9.37352 18.6656ZM11.0196 16.3344C10.9444 16.4013 10.8775 16.4681 10.8107 16.5433C10.8775 16.4765 10.9527 16.4013 11.0196 16.3344Z" fill="url(#paint0_linear_3_157)"/>
<path fill-rule="evenodd" clip-rule="evenodd" d="M4.71951 34.6831L5.85586 17.6212L7.69407 18.3481L4.71951 34.6831ZM11.2451 26.6952L4.71951 34.6831L9.10614 23.5536L10.6937 19.5346L15.5315 21.448L11.2451 26.6869V26.6952ZM11.1532 26.62L11.1282 26.6033C10.8942 26.4111 10.6853 26.2022 10.4848 25.985C10.677 26.2022 10.8942 26.4111 11.1198 26.6033L11.1449 26.62H11.1532ZM10.1506 25.5756C10.0921 25.5004 10.0336 25.4168 9.98347 25.3416C10.042 25.4168 10.0921 25.5004 10.1506 25.5756Z" fill="url(#paint1_linear_3_157)"/>
<path fill-rule="evenodd" clip-rule="evenodd" d="M13.6683 6.61695L14.0526 5.83154L13.568 5.12132L14.3451 5.48061L15.0636 4.97928L14.6876 5.77305L15.1639 6.48327L14.3868 6.11563L13.6683 6.61695Z" fill="url(#paint2_linear_3_157)"/>
</g>
<defs>
<linearGradient id="paint0_linear_3_157" x1="11.5794" y1="5.74801" x2="14.2615" y2="22.835" gradientUnits="userSpaceOnUse">
<stop stop-color="#61BE77"/>
<stop offset="1" stop-color="#87C885"/>
</linearGradient>
<linearGradient id="paint1_linear_3_157" x1="10.7271" y1="19.4677" x2="5.10386" y2="36.9474" gradientUnits="userSpaceOnUse">
<stop stop-color="#87C885"/>
<stop offset="1" stop-color="#61BE77"/>
</linearGradient>
<linearGradient id="paint2_linear_3_157" x1="14.9216" y1="5.2383" x2="13.6599" y2="6.50833" gradientUnits="userSpaceOnUse">
<stop stop-color="#FEFEFE"/>
<stop offset="1" stop-color="#FEFAFC"/>
</linearGradient>
<clipPath id="clip0_3_157">
<rect width="22" height="34.3689" fill="white" transform="translate(0.5 0.315521)"/>
</clipPath>
</defs>
</svg>
