<svg width="21" height="29" viewBox="0 0 21 29" fill="none" xmlns="http://www.w3.org/2000/svg">
<path fill-rule="evenodd" clip-rule="evenodd" d="M7.34972 0.734909H14.7267C17.5844 0.734909 18.4002 2.34101 17.2683 4.98937C17.1529 5.25848 17.0333 5.52759 16.9223 5.80524L15.6109 9.12423L15.3332 9.82904C15.3332 9.82904 15.0513 10.5595 15.7732 11.055C16.3157 11.4309 18.0158 12.6141 18.8231 13.1737C20.1558 14.1006 20.7197 15.5615 19.5963 16.8258C18.2507 18.3422 12.8045 24.4548 10.9506 26.5308C10.3953 27.1544 9.78024 27.7482 9.0498 27.9233C8.22112 28.1198 7.60602 27.7525 7.03363 27.2826C6.03409 26.4667 5.17978 25.4245 5.92303 24.0362C6.58512 22.7975 8.56284 19.1154 9.19503 17.9279C9.82722 16.7532 9.62219 16.3773 8.28092 15.7921C6.42707 14.9848 2.48443 13.2847 2.48443 13.2847C2.48443 13.2847 1.02356 12.3322 1.57459 10.7474C2.12562 9.1584 4.52196 2.34528 4.52196 2.34528C4.52196 2.34528 5.10289 0.679379 7.33691 0.734909H7.34972Z" fill="#3D6EB4"/>
<path fill-rule="evenodd" clip-rule="evenodd" d="M6.88413 1.25606H14.2611C17.1188 1.25606 17.9346 2.86216 16.8027 5.51052C16.6873 5.77963 16.5677 6.04874 16.4567 6.32639L15.1453 9.64538L14.8676 10.3502C14.8676 10.3502 14.5857 11.0806 15.3076 11.5761C15.8501 11.952 17.5502 13.1352 18.3575 13.6948C19.6902 14.6217 20.2541 16.0826 19.1307 17.347C17.7851 18.8634 12.3389 24.976 10.485 27.0519C9.92974 27.6756 9.31464 28.2693 8.5842 28.4445C7.75552 28.641 7.14042 28.2736 6.56803 27.8037C5.56849 26.9879 4.71418 25.9456 5.45743 24.5574C6.11952 23.3186 8.09724 19.6365 8.72943 18.449C9.36162 17.2744 9.15659 16.8985 7.81532 16.3133C5.96147 15.5059 2.01883 13.8059 2.01883 13.8059C2.01883 13.8059 0.557962 12.8533 1.10899 11.2686C1.66002 9.67955 4.05636 2.86643 4.05636 2.86643C4.05636 2.86643 4.63729 1.20053 6.87131 1.25606H6.88413Z" fill="#3D6EB4"/>
<path fill-rule="evenodd" clip-rule="evenodd" d="M6.67909 0.499985H14.0561C16.9137 0.499985 17.7296 2.10609 16.5976 4.75445C16.4823 5.02355 16.3627 5.29266 16.2516 5.57031L14.9403 8.88931L14.6626 9.59411C14.6626 9.59411 14.3807 10.3245 15.1026 10.82C15.6451 11.1959 17.3451 12.3792 18.1525 12.9387C19.4852 13.8657 20.049 15.3265 18.9256 16.5909C17.5801 18.1073 12.1339 24.2199 10.28 26.2959C9.72471 26.9195 9.1096 27.5133 8.37917 27.6884C7.55049 27.8849 6.93539 27.5175 6.363 27.0477C5.36346 26.2318 4.50915 25.1895 5.2524 23.8013C5.91448 22.5625 7.89221 18.8805 8.5244 17.693C9.15659 16.5183 8.95156 16.1424 7.61029 15.5572C5.75644 14.7499 1.8138 13.0498 1.8138 13.0498C1.8138 13.0498 0.35293 12.0972 0.90396 10.5125C1.45499 8.92348 3.85133 2.11036 3.85133 2.11036C3.85133 2.11036 4.43226 0.444455 6.66628 0.499985H6.67909Z" fill="url(#paint0_linear_6_496)"/>
<path fill-rule="evenodd" clip-rule="evenodd" d="M6.11098 5.45926L5.61548 3.60541L3.76163 3.10991L5.61548 2.61441L6.11098 0.760559L6.60648 2.61441L8.46033 3.10991L6.60648 3.60541L6.11098 5.45926Z" fill="url(#paint1_linear_6_496)"/>
<defs>
<linearGradient id="paint0_linear_6_496" x1="5" y1="8.5" x2="14" y2="25.5" gradientUnits="userSpaceOnUse">
<stop stop-color="#48A9D5"/>
<stop offset="1" stop-color="#3D6EB4"/>
</linearGradient>
<linearGradient id="paint1_linear_6_496" x1="6.2434" y1="1.38848" x2="5.94439" y2="5.29694" gradientUnits="userSpaceOnUse">
<stop stop-color="#FEFEFE"/>
<stop offset="1" stop-color="#FEFAFC"/>
</linearGradient>
</defs>
</svg>
