<svg width="25" height="35" viewBox="0 0 25 35" fill="none" xmlns="http://www.w3.org/2000/svg">
<g clip-path="url(#clip0_3_33)">
<path fill-rule="evenodd" clip-rule="evenodd" d="M19.2197 10.4631L19.1499 10.4515C17.4212 9.56674 16.1756 8.58308 16.3444 8.2455C16.3852 8.16401 16.5016 8.12909 16.6704 8.12909C17.1011 8.12909 17.8927 8.36191 18.8297 8.76352V8.76934L18.8006 8.80426L18.7948 8.81008L18.7657 8.86247C18.7017 8.96141 18.6493 9.06036 18.6144 9.17095L18.5736 9.34556L18.562 9.44451C18.6319 9.59002 18.9985 9.8403 19.4467 10.0906C19.8949 10.3409 20.1801 10.3874 20.3372 10.3874C20.3663 10.3874 20.3838 10.3874 20.4071 10.3816L20.5293 10.3001C20.6166 10.1721 20.6981 10.044 20.7854 9.90433C20.8087 9.86359 20.832 9.82284 20.8553 9.7821C21.2161 9.99163 21.5363 10.2012 21.8098 10.3991C22.4908 10.888 22.875 11.3012 22.7702 11.4991C22.7295 11.5806 22.6189 11.6155 22.4443 11.6155C21.8622 11.6155 20.6108 11.1906 19.243 10.4922C19.2139 10.4747 19.1848 10.4631 19.1557 10.4456L19.2255 10.4573L19.2197 10.4631Z" fill="#3E4670"/>
<path d="M20.0055 3.32137L19.9706 3.26899V3.1875L19.9764 3.19914V3.20496L19.988 3.25735L20.0055 3.32137Z" fill="#987B5F"/>
<path d="M20.0986 4.03149L20.1044 4.11298L20.0986 4.0606V4.03149Z" fill="#987B5F"/>
<path fill-rule="evenodd" clip-rule="evenodd" d="M12.1246 34.9963C11.5076 34.9963 10.8906 34.9498 10.2737 34.8508C9.7091 34.7635 9.15033 34.6296 8.59157 34.4608C8.2016 34.3386 7.81163 34.1931 7.42166 34.0301C7.18302 33.9254 6.94438 33.8148 6.70574 33.6925C6.65336 33.6693 6.60097 33.6401 6.55441 33.6169C6.32159 33.4946 6.08877 33.3608 5.8676 33.2269C5.6697 33.1047 5.47762 32.9824 5.29137 32.8486C5.12258 32.7322 4.9596 32.6099 4.79663 32.4877C4.65112 32.3713 4.50561 32.2549 4.3601 32.1327C4.22623 32.0221 4.09818 31.9057 3.97595 31.7892C3.85954 31.6787 3.74313 31.5681 3.62672 31.4517C3.52195 31.3411 3.41718 31.2363 3.31242 31.1199C3.21347 31.0151 3.12034 30.9045 3.02721 30.7939C2.93409 30.6892 2.84678 30.5786 2.75947 30.4738C2.67799 30.3691 2.5965 30.2643 2.51501 30.1595C2.43935 30.0547 2.36368 29.95 2.28802 29.8452C2.21817 29.7404 2.14832 29.6415 2.07848 29.5367C2.01445 29.4378 1.95043 29.333 1.8864 29.2282C1.8282 29.1293 1.76417 29.0245 1.70597 28.9256C1.64777 28.8266 1.59538 28.7277 1.543 28.6287C1.51972 28.5822 1.49061 28.5356 1.46733 28.4832C1.49643 28.5531 1.52554 28.6229 1.56046 28.6928C1.6303 28.8441 1.70015 28.9954 1.77582 29.1468C1.8573 29.3039 1.93879 29.4669 2.02609 29.6182C2.11922 29.787 2.21817 29.95 2.31712 30.113C2.42771 30.2934 2.54412 30.468 2.66634 30.6426C2.80022 30.8347 2.93991 31.0209 3.08542 31.2072C3.25421 31.4167 3.423 31.6205 3.60344 31.8183C3.82462 32.0628 4.05743 32.3014 4.30189 32.5284C4.63948 32.8486 5.00617 33.1512 5.3845 33.4306C5.70462 33.6634 6.03639 33.8846 6.3798 34.0883C0.978413 30.8929 -1.07621 24.0131 1.7991 18.3382C3.91774 14.1707 8.13175 11.7669 12.5029 11.7669C13.1548 11.7669 13.8125 11.8193 14.4644 11.9298L14.4062 12.0463C14.2316 12.3897 15.5237 13.3966 17.299 14.2988C18.6668 14.9914 19.9182 15.4221 20.5002 15.4221C20.6748 15.4221 20.7854 15.3872 20.8262 15.3057L20.8844 15.1893C24.3417 18.571 25.5 23.821 23.5443 28.4367C23.6142 28.2679 23.684 28.0991 23.748 27.9303C23.8994 27.5229 24.0274 27.1096 24.1322 26.6963C24.3126 25.9688 24.429 25.2354 24.4698 24.502C24.4931 24.0888 24.4989 23.6755 24.4814 23.2681C24.4523 22.6337 24.3766 22.0051 24.2486 21.3881C24.1846 21.0738 24.1089 20.7653 24.0216 20.4626C23.9517 20.224 23.8761 19.9912 23.7946 19.7642C23.7248 19.5663 23.6491 19.3742 23.5676 19.1763C23.4978 19.0017 23.4221 18.8329 23.3406 18.6641C23.2824 18.5361 23.2184 18.408 23.1543 18.2858C23.1893 18.3731 23.23 18.4604 23.2649 18.5535C23.3115 18.6641 23.3522 18.7805 23.393 18.8911C23.4337 19.0075 23.4745 19.1239 23.5152 19.2462C23.556 19.3742 23.5967 19.4964 23.6316 19.6245C23.6724 19.7584 23.7073 19.8922 23.7422 20.0261C23.7771 20.1716 23.8121 20.3113 23.847 20.4626C23.8819 20.6198 23.911 20.7769 23.9401 20.9341C23.9692 21.1087 23.9983 21.2833 24.0216 21.4579C24.0449 21.6558 24.0682 21.8537 24.0856 22.0516C24.1031 22.2844 24.1147 22.5173 24.1205 22.7501C24.1264 23.0411 24.1205 23.3321 24.1089 23.6231C24.0856 24.0422 24.0449 24.4671 23.975 24.8862C23.783 26.091 23.4046 27.2842 22.8226 28.4308C22.6247 28.8266 22.4035 29.205 22.1649 29.5658C21.804 30.1246 21.3966 30.6426 20.9542 31.1199C20.5468 31.5622 20.1103 31.9697 19.6504 32.3422C19.1382 32.7496 18.5969 33.1163 18.0323 33.4364C17.2873 33.8555 16.5074 34.1931 15.6925 34.4492C14.738 34.746 13.7485 34.9265 12.7416 34.9789C12.532 34.9905 12.3225 34.9963 12.1071 34.9963H12.1246ZM7.06661 34.4667C7.05497 34.4608 7.04915 34.455 7.03751 34.455C7.04333 34.4608 7.05497 34.4667 7.06661 34.4667ZM6.96184 34.4143C6.95602 34.4084 6.9502 34.4084 6.94438 34.4084C6.9502 34.4084 6.95602 34.4143 6.96184 34.4143ZM6.83379 34.3502C6.83379 34.3502 6.82797 34.3502 6.82797 34.3444C6.82797 34.3444 6.83379 34.3444 6.83379 34.3502ZM6.79887 34.3328C6.79887 34.3328 6.79305 34.3328 6.79305 34.327C6.79305 34.327 6.79887 34.327 6.79887 34.3328ZM6.76395 34.3153C6.76395 34.3153 6.75813 34.3153 6.75813 34.3095C6.75813 34.3095 6.76395 34.3095 6.76395 34.3153ZM6.67664 34.2688C6.67664 34.2688 6.67664 34.2688 6.67082 34.2688H6.67664ZM6.64754 34.2513C6.64754 34.2513 6.64172 34.2513 6.64172 34.2455C6.64172 34.2455 6.64754 34.2455 6.64754 34.2513ZM6.61261 34.2338C6.61261 34.2338 6.60679 34.2338 6.60679 34.228C6.60679 34.228 6.61261 34.228 6.61261 34.2338ZM6.59515 34.2222L6.58933 34.2164C6.58933 34.2164 6.59515 34.2164 6.59515 34.2222ZM6.53695 34.1873C6.53113 34.1814 6.53113 34.1815 6.52531 34.1815C6.53113 34.1815 6.53113 34.1873 6.53695 34.1873ZM6.47874 34.1523C6.47292 34.1465 6.46128 34.1465 6.45546 34.1407C6.46128 34.1465 6.4671 34.1465 6.47874 34.1523ZM6.44964 34.1349C6.44382 34.1291 6.43218 34.1232 6.42636 34.1232C6.43218 34.1291 6.44382 34.1349 6.44964 34.1349ZM6.42054 34.1174C6.40308 34.1058 6.38562 34.0941 6.36233 34.0825C6.3798 34.0941 6.39726 34.1058 6.42054 34.1174ZM23.2009 29.1409C23.2009 29.1409 23.2009 29.1351 23.2067 29.1351C23.2067 29.1409 23.2067 29.1409 23.2009 29.1409ZM23.2126 29.1235C23.2126 29.1235 23.2126 29.1177 23.2184 29.1177C23.2184 29.1177 23.2184 29.1235 23.2126 29.1235ZM23.2475 29.0536C23.2475 29.0536 23.2475 29.0536 23.2475 29.0478C23.2475 29.0478 23.2475 29.0478 23.2475 29.0536ZM23.4512 28.6171C23.4512 28.6171 23.4512 28.6171 23.4512 28.6113C23.4512 28.6113 23.4512 28.6113 23.4512 28.6171ZM23.4803 28.5531C23.4803 28.5531 23.4803 28.5473 23.4861 28.5473C23.4861 28.5473 23.4861 28.5531 23.4803 28.5531ZM23.4861 28.5356C23.4861 28.5298 23.4861 28.5298 23.4919 28.524C23.4919 28.5298 23.4919 28.5298 23.4861 28.5356ZM23.4919 28.5181C23.4919 28.5123 23.4978 28.5065 23.4978 28.5065C23.4978 28.5123 23.4919 28.5181 23.4919 28.5181ZM23.5152 28.4599C23.521 28.4541 23.521 28.4483 23.521 28.4425C23.5152 28.4483 23.5152 28.4541 23.5152 28.4599Z" fill="url(#paint0_radial_3_33)"/>
<path fill-rule="evenodd" clip-rule="evenodd" d="M15.8148 9.28735L16.3444 8.24548C16.1698 8.58307 17.4212 9.56673 19.1441 10.4514C19.1732 10.4689 19.2023 10.4805 19.2314 10.498C20.5992 11.1906 21.8506 11.6213 22.4326 11.6213C22.6014 11.6213 22.7178 11.5864 22.7586 11.5049L20.8844 15.1951L20.8262 15.3115C20.7854 15.393 20.6748 15.4279 20.5002 15.4279C19.9182 15.4279 18.6668 15.003 17.299 14.3046C15.5237 13.4024 14.2316 12.3955 14.4062 12.0521L14.4644 11.9357L15.8089 9.28735H15.8148Z" fill="#383C61"/>
<path fill-rule="evenodd" clip-rule="evenodd" d="M20.3373 10.3874C20.1801 10.3874 19.8949 10.335 19.4467 10.0906C18.9927 9.84029 18.6319 9.59001 18.562 9.4445L18.5737 9.34555L18.6144 9.17093C18.6493 9.06035 18.7017 8.95558 18.7657 8.86245L18.7948 8.81007L18.8239 8.77514V8.76932L18.8414 8.74022L18.9229 8.57725C18.9869 8.44338 19.0451 8.31533 19.1033 8.17564C19.1499 8.07087 19.1964 7.9661 19.2372 7.85551L19.2721 7.75656C19.3478 7.57613 19.4176 7.39569 19.4758 7.20944C19.5049 7.13377 19.534 7.05811 19.5573 6.98244C19.5806 6.90678 19.6039 6.82529 19.6272 6.74962C19.6563 6.6565 19.6854 6.56337 19.7145 6.47024L19.7436 6.36547L19.7552 6.33637L19.7668 6.29563L19.7785 6.24906L19.8018 6.16758L19.8483 5.95804C19.8833 5.79507 19.9182 5.6321 19.9473 5.46912C19.9938 5.18974 20.0346 4.91036 20.0637 4.62516C20.0812 4.45636 20.0928 4.28175 20.0986 4.10714V4.07221C20.0928 4.00237 20.0928 3.93252 20.087 3.85686C20.0753 3.69388 20.052 3.53673 20.0229 3.37376L20.0113 3.33884L19.9997 3.26317C20.605 2.73351 21.1056 2.09908 21.4781 1.38316C21.3558 1.29586 21.2045 1.24347 21.0473 1.22019C20.7272 1.8197 20.3081 2.361 19.8076 2.82664C19.6039 2.34354 19.6737 1.83134 20.1161 1.44719C20.3023 1.28421 20.5701 1.20273 20.8378 1.20273C20.9077 1.20273 20.9775 1.20855 21.0473 1.22019C21.2045 1.24347 21.3558 1.29586 21.4781 1.38316C21.5828 1.44719 21.6643 1.52867 21.7342 1.63344C21.8389 1.80806 21.9379 1.98849 22.0135 2.17474C22.095 2.36682 22.1649 2.56472 22.2173 2.76843C22.3569 3.29227 22.4035 3.83357 22.3919 4.3807C22.0892 4.6659 21.7574 4.93364 21.3908 5.13736C21.1521 5.26541 20.896 5.35271 20.6225 5.39928C20.4013 5.42838 20.1743 5.44584 19.9473 5.47494C19.924 5.63792 19.8833 5.80089 19.8483 5.96386C20.151 5.8882 20.4595 5.8882 20.768 5.82999C21.0764 5.77761 21.3675 5.66702 21.641 5.52151C21.8913 5.38764 22.1183 5.21884 22.3395 5.03259C22.2929 5.48076 22.2114 5.92894 22.1067 6.37129C21.3325 6.63321 20.5293 6.76708 19.7145 6.76708C19.6854 6.76708 19.6563 6.76708 19.633 6.76708C19.6097 6.84275 19.5864 6.92424 19.5631 6.9999C19.5398 7.07557 19.5166 7.15124 19.4816 7.2269C19.5631 7.2269 19.6446 7.23272 19.7261 7.23272C19.7319 7.23272 19.7377 7.23272 19.7436 7.23272C19.7494 7.23272 19.7552 7.23272 19.761 7.23272C20.5119 7.23272 21.2569 7.11631 21.9728 6.90096C21.8739 7.28511 21.7516 7.6809 21.6119 8.07669C21.4199 8.11743 21.2336 8.14071 21.0415 8.14071C20.4537 8.14071 19.86 7.96028 19.2837 7.77984L19.2488 7.87879C19.2081 7.98356 19.1615 8.09415 19.115 8.19892C19.7668 8.40263 20.4304 8.60053 21.0939 8.60053C21.2045 8.60053 21.3209 8.59471 21.4315 8.58307C21.3093 8.89737 21.1638 9.21168 21.0182 9.5027C20.2616 9.36883 19.5282 9.12437 18.8414 8.7926L18.8123 8.82753L18.7832 8.87991C18.7192 8.97304 18.6668 9.07781 18.6319 9.18839C19.3128 9.5318 20.0404 9.77626 20.7912 9.92177C20.7098 10.0615 20.6225 10.1895 20.541 10.3176L20.4187 10.3991C20.4013 10.3991 20.378 10.4049 20.3489 10.4049L20.3373 10.3874ZM22.0194 2.15728C21.6178 2.99543 20.9426 3.68224 20.1044 4.0955H20.0986C20.0928 4.27011 20.0812 4.44472 20.0637 4.61352C20.96 4.23519 21.7167 3.58329 22.2231 2.75097C22.1707 2.55307 22.1008 2.34936 22.0194 2.15728ZM20.1044 4.06057L20.1103 4.0955V4.08967V4.03147L20.1044 4.06057Z" fill="#A48154"/>
<path fill-rule="evenodd" clip-rule="evenodd" d="M20.0579 4.61352C20.0753 4.44473 20.087 4.26429 20.0928 4.0955H20.0986C20.9368 3.68807 21.6061 2.99543 22.0136 2.15729C22.095 2.34936 22.1649 2.54726 22.2173 2.75097C21.7167 3.5833 20.9542 4.23519 20.0579 4.61352ZM20.7738 9.90431C20.023 9.75298 19.2954 9.50852 18.6144 9.17094C18.6493 9.06035 18.7017 8.95558 18.7657 8.86245L18.7948 8.81007V8.80425L18.8239 8.76933C19.5108 9.10691 20.2441 9.34555 21.0008 9.47942C20.9251 9.62493 20.8495 9.77044 20.768 9.90431H20.7738ZM21.0823 8.57725C20.4188 8.57725 19.7552 8.37936 19.1033 8.17564C19.1499 8.07087 19.1965 7.9661 19.2372 7.85551L19.2721 7.75657C19.8542 7.94282 20.442 8.11743 21.0299 8.11743C21.222 8.11743 21.4082 8.09997 21.6003 8.05923C21.5421 8.22802 21.4781 8.39682 21.414 8.55979C21.3035 8.57143 21.1871 8.57725 21.0765 8.57725H21.0823ZM19.7552 7.21526H19.7145C19.633 7.21526 19.5515 7.21526 19.47 7.20944C19.4991 7.13378 19.5282 7.05811 19.5515 6.98245C19.5748 6.90678 19.5981 6.82529 19.6213 6.74963C19.6505 6.74963 19.6737 6.74963 19.7028 6.74963C20.5177 6.74963 21.3209 6.62158 22.095 6.35966V6.37712C22.0543 6.54591 22.0077 6.7147 21.9612 6.88932C21.2453 7.10468 20.4944 7.21526 19.7494 7.22108L19.7552 7.21526ZM19.8425 5.95223C19.8774 5.78925 19.9124 5.62628 19.9415 5.46331C20.1627 5.42838 20.3955 5.41674 20.6166 5.38182C20.8844 5.34108 21.1463 5.24795 21.3849 5.1199C21.7516 4.922 22.0834 4.64844 22.3861 4.36324C22.3802 4.58442 22.357 4.79977 22.3337 5.02095C22.1125 5.20139 21.8855 5.37018 21.6352 5.50405C21.3558 5.65538 21.0706 5.76015 20.7622 5.81253C20.4537 5.87074 20.1452 5.87074 19.8425 5.9464V5.95223Z" fill="#B09670"/>
<path fill-rule="evenodd" clip-rule="evenodd" d="M21.3209 2.08162L23.8586 0.550839L20.9891 1.29586L19.6504 0.125946L19.5457 1.90119L17.0138 3.43197L19.8774 2.68695L21.2161 3.85686L21.3209 2.08162Z" fill="url(#paint1_linear_3_33)"/>
<path fill-rule="evenodd" clip-rule="evenodd" d="M21.1288 2.55308L24.0856 2.65785L21.2802 1.71494L20.7971 0.00372314L19.7377 1.42973L16.7809 1.32497L19.5864 2.26788L20.0753 3.97909L21.1288 2.55308Z" fill="url(#paint2_linear_3_33)"/>
</g>
<defs>
<radialGradient id="paint0_radial_3_33" cx="0" cy="0" r="1" gradientUnits="userSpaceOnUse" gradientTransform="translate(12.0695 21.2464) rotate(29.3477) scale(21.709 22.9794)">
<stop stop-color="#535F91"/>
<stop offset="1" stop-color="#313353"/>
</radialGradient>
<linearGradient id="paint1_linear_3_33" x1="21.868" y1="0.102664" x2="18.3059" y2="4.11296" gradientUnits="userSpaceOnUse">
<stop stop-color="#FEFEFE"/>
<stop offset="1" stop-color="#F6F3B1"/>
</linearGradient>
<linearGradient id="paint2_linear_3_33" x1="22.1532" y1="3.72881" x2="18.0091" y2="0.067748" gradientUnits="userSpaceOnUse">
<stop stop-color="#FDBC40"/>
<stop offset="1" stop-color="#F2ED6E"/>
</linearGradient>
<clipPath id="clip0_3_33">
<rect width="24" height="34.9926" fill="white" transform="translate(0.5 0.00372314)"/>
</clipPath>
</defs>
</svg>
