<svg width="31" height="27" viewBox="0 0 31 27" fill="none" xmlns="http://www.w3.org/2000/svg">
<g clip-path="url(#clip0_6_558)">
<path fill-rule="evenodd" clip-rule="evenodd" d="M29.4966 9.93512C27.5536 13.9379 20.5089 26.5198 13.0022 26.0632C12.7421 26.0314 12.4979 25.9836 12.259 25.9146L12.2324 25.9093C8.44728 24.8422 7.46515 19.7617 7.46515 19.7617C13.7614 17.6647 15.8159 9.85018 16.437 6.26674C16.6281 5.1572 16.6812 4.45644 16.6812 4.45644L19.2507 1.46228C21.5919 1.75957 24.4055 2.03563 26.8582 2.00378H27.044C27.0865 2.00378 27.1236 2.00378 27.1661 2.00378H27.1448C27.2935 2.00909 27.4528 2.02501 27.612 2.05156C29.5497 2.35947 31.429 5.93229 29.4913 9.93512H29.4966Z" fill="#C8AC77"/>
<path d="M27.1501 2.18961H27.1024L27.028 1.81799H27.113L27.1501 2.18961Z" fill="#67573F"/>
<path fill-rule="evenodd" clip-rule="evenodd" d="M3.1491 22.9629C1.98647 22.7824 -0.0361779 21.6994 0.63273 19.337C1.29633 16.9693 3.55788 16.8419 4.57186 17.6382C5.42126 18.3071 9.20112 18.8539 12.7155 19.0663C12.7155 19.0663 9.62583 19.1565 9.87534 22.0657C10.1302 24.9749 11.6113 25.612 11.6113 25.612C11.6113 25.612 6.53611 23.4885 3.13848 22.9629H3.1491Z" fill="#BEA16D"/>
<path fill-rule="evenodd" clip-rule="evenodd" d="M9.90188 22.2409C6.67413 22.3046 3.41984 21.0889 0.558401 19.6661C0.16555 21.8003 2.03955 22.7877 3.14909 22.9576C6.54672 23.4832 11.6219 25.6067 11.6219 25.6067C11.6219 25.6067 10.1992 24.9909 9.90188 22.2356V22.2409Z" fill="#AD9568"/>
<path fill-rule="evenodd" clip-rule="evenodd" d="M27.2298 1.99849H27.2245H27.2192H27.2139H27.2032H27.1979H27.1767H27.1714H27.1661H27.1608H27.1555H27.1502H27.1289H27.1236C26.7732 2.03034 25.4938 2.17899 24.6232 3.04963C24.1295 3.53804 23.7685 4.26534 23.7844 5.31648V5.36426C23.7897 5.46513 23.7844 5.59785 23.7844 5.7465V5.80489C23.7897 6.44726 23.8853 7.40284 24.8355 7.9815L24.9842 8.06644C25.0479 8.09829 25.1169 8.13014 25.1859 8.162L25.2071 8.16731C24.8886 8.05582 20.1638 6.4101 17.4298 6.2933C17.0634 6.27738 16.7237 6.26676 16.4158 6.26145C14.3931 6.21898 13.7455 6.3517 13.7455 6.3517C11.4414 6.5322 11.0167 3.89904 11.4998 2.3701C11.9829 0.835861 13.0447 0.53326 14.9824 0.84117C15.8212 0.973889 17.3767 1.2234 19.2347 1.45699C21.5759 1.75428 24.3896 2.03034 26.8422 1.99849H27.0281C27.0705 1.99849 27.1077 1.99849 27.1502 1.99849H27.1555H27.1608H27.1661H27.1714H27.1767H27.1979H27.2032H27.2139H27.2192H27.2245H27.2298Z" fill="url(#paint0_linear_6_558)"/>
<path fill-rule="evenodd" clip-rule="evenodd" d="M25.0054 8.07174L24.8568 7.9868C23.9065 7.40814 23.8109 6.45787 23.8056 5.8102V5.7518C23.8056 5.60315 23.8109 5.47043 23.8056 5.36957V5.32179L23.8109 5.17845C19.7656 4.00521 15.4761 4.35559 11.3459 3.5752C11.3406 4.98203 11.9989 6.50034 13.7667 6.357C13.7667 6.357 14.4144 6.22428 16.437 6.26675C16.7449 6.27206 17.0794 6.28799 17.451 6.29861C20.185 6.4154 24.9098 8.06113 25.2284 8.17261L25.2071 8.1673C25.1381 8.13545 25.0691 8.1036 25.0054 8.07174Z" fill="#D6B87F"/>
<path fill-rule="evenodd" clip-rule="evenodd" d="M24.4586 2.39664C22.5315 2.17367 20.6044 1.9507 18.6773 1.72773C16.7927 1.51007 14.855 1.13315 12.9598 1.17031C12.8164 1.17031 12.7209 1.24463 12.6625 1.34019C12.3811 1.44106 12.1581 1.64279 12.2218 1.99848C12.3121 2.53467 12.9969 2.47097 13.4057 2.51344C14.8338 2.66208 16.2671 2.81604 17.6952 2.96468C19.0967 3.11333 20.4929 3.26198 21.8945 3.40531C22.7757 3.50087 24.2197 3.91496 24.7877 2.95937C24.947 2.69393 24.7347 2.4285 24.4692 2.39664H24.4586Z" fill="#D6B87F"/>
<path d="M13.4004 26.265C13.2623 26.265 13.1296 26.2597 12.9916 26.2543C12.7262 26.2384 12.4607 26.1853 12.2006 26.0951L12.1528 26.0792C10.5655 25.5217 9.21704 23.4991 9.8594 21.2269C10.1939 20.0377 11.0326 19.1883 12.0997 18.9441C12.896 18.7636 13.687 18.9654 14.1224 19.4591C14.7063 20.128 14.7753 21.3703 14.5418 22.2515C14.3453 23.0054 13.9525 23.515 13.4375 23.7008C12.689 23.9609 12.0891 23.6743 11.829 23.2761C11.5848 22.9045 11.5264 22.2993 12.0838 21.7047C12.1528 21.6304 12.2696 21.6251 12.3439 21.6941C12.4182 21.7631 12.4236 21.8799 12.3545 21.9595C12.0095 22.3258 11.9298 22.7559 12.1369 23.0744C12.3598 23.4141 12.8217 23.5203 13.3101 23.3504C13.6977 23.2124 14.0162 22.7824 14.1808 22.1613C14.4197 21.2588 14.271 20.2023 13.841 19.7086C13.4959 19.3158 12.8429 19.1618 12.1793 19.3158C11.7334 19.4166 10.6451 19.8201 10.2204 21.3384C9.64174 23.4035 10.8521 25.2351 12.3015 25.7447C12.5563 25.8296 12.7899 25.8774 13.0234 25.888C21.0875 26.3605 28.5198 11.5543 29.3374 9.86079C30.3301 7.81159 30.3991 5.5819 29.5179 3.89901C29.0348 2.97528 28.3128 2.35415 27.5961 2.24267L26.8582 2.19489C26.0141 2.21612 25.3133 2.54527 24.793 3.17702C24.5223 3.50616 24.3099 3.90963 24.1613 4.3768C24.071 4.66348 24.0127 4.99262 23.9967 5.33239V5.37486C23.9914 5.50227 23.9914 5.62968 23.9967 5.74647V5.81549C24.0551 6.72329 24.4108 7.46652 24.9629 7.83283L25.0426 7.88061L25.101 7.91246L25.2761 7.99209L25.3027 8.00271L25.3345 8.01333C25.5787 8.10358 25.8813 8.14074 26.2158 8.1142C27.32 8.02925 27.7819 7.14799 27.8456 6.35168C27.904 5.59783 27.5961 4.70595 26.9113 4.54138C26.5874 4.46174 26.3326 4.50422 26.1362 4.65817C25.669 5.0404 25.6902 5.98006 25.6902 5.99068C25.6955 6.09154 25.6106 6.17649 25.5097 6.18179H25.5044C25.4036 6.18179 25.3186 6.10216 25.3186 6.0013C25.3186 5.95352 25.2868 4.87052 25.9026 4.3715C26.1893 4.13791 26.5609 4.0742 27.0015 4.18038C27.8987 4.39273 28.2915 5.44918 28.2172 6.38353C28.1482 7.29133 27.5855 8.38494 26.2477 8.49112C25.8601 8.52297 25.5044 8.4805 25.1912 8.36371L25.1487 8.34247C25.0744 8.31593 24.9948 8.28408 24.9258 8.24161L24.878 8.21506L24.7665 8.15136C24.1135 7.71604 23.6994 6.87194 23.6357 5.83672V5.76771C23.6251 5.64561 23.6251 5.50758 23.6357 5.36955V5.33239C23.6517 4.95546 23.7154 4.58916 23.8162 4.27063C23.9808 3.75568 24.2144 3.30974 24.517 2.94874C25.101 2.23736 25.9185 1.85513 26.8741 1.82858L27.6439 1.87636C28.4986 2.00908 29.3161 2.70453 29.8576 3.72913C30.792 5.51819 30.723 7.86999 29.6824 10.0254C28.8649 11.7136 21.5547 26.2703 13.4163 26.2703L13.4004 26.265Z" fill="#67573F"/>
<path fill-rule="evenodd" clip-rule="evenodd" d="M26.5821 10.4448C26.3751 10.5191 26.1627 10.5562 25.9451 10.535C25.876 10.5297 25.8123 10.5085 25.7433 10.5191C25.6425 10.5403 25.5416 10.6093 25.446 10.6465C25.1487 10.7527 24.8408 10.8058 24.5329 10.8058C24.6816 10.5722 24.878 10.3864 25.1275 10.243C25.3345 10.1209 25.1487 9.80239 24.9417 9.91919C24.6391 10.0997 24.3046 10.1475 23.9702 10.0785L24.002 10.0094C24.0923 9.81301 23.8799 9.64844 23.7101 9.78116C23.4765 9.96697 23.1261 9.87672 22.8607 9.83955C22.7279 9.82363 22.5952 9.80239 22.4625 9.8077C22.4147 9.8077 21.9582 9.85017 22.0112 9.76523C22.1068 9.61658 21.9528 9.46263 21.7989 9.48917C21.6237 9.52634 21.4591 9.52103 21.2946 9.48917L21.3848 9.37238C21.5388 9.21312 21.3476 8.99015 21.1565 9.0804C21.0185 9.1441 20.6575 9.31929 20.5726 9.0804C20.5301 8.95829 20.3602 8.88397 20.2593 9.00076C20.1426 9.13879 19.9727 9.2025 19.7922 9.16003C19.7019 9.13879 19.6488 9.09632 19.5798 9.03793L19.3622 8.92644C19.3515 8.79372 19.2082 8.68224 19.0808 8.76718L18.9481 8.8999C18.9746 8.73002 18.7835 8.57606 18.6349 8.7194L18.465 8.84681C18.4809 8.73532 18.4915 8.62915 18.5074 8.52297C18.5287 8.3584 18.3906 8.24161 18.2314 8.31062C17.8651 8.48581 17.4669 8.58137 17.0634 8.6026C16.8246 8.61853 16.8246 8.99015 17.0634 8.97422C17.4244 8.95299 17.7695 8.87866 18.0987 8.76187C18.088 8.86274 18.0721 8.95829 18.0562 9.05916C18.035 9.20781 18.1358 9.30867 18.2845 9.28744C18.4384 9.2662 18.5711 9.21312 18.6932 9.13348L18.757 9.18126C18.8631 9.23435 18.9693 9.21843 19.0755 9.18126C19.1392 9.2609 19.2241 9.31398 19.3356 9.3246C19.6117 9.57942 20.0364 9.60597 20.3443 9.40954C20.4823 9.54226 20.6628 9.57942 20.8539 9.55288L20.8486 9.56881C20.8221 9.66967 20.8805 9.76523 20.976 9.79708C21.1937 9.87141 21.4114 9.89795 21.6343 9.88733C21.6556 9.96697 21.698 10.036 21.767 10.0891C21.9794 10.2749 22.2608 10.174 22.5156 10.1793C22.8607 10.1899 23.2004 10.2802 23.5189 10.2324C23.5296 10.3014 23.5667 10.3598 23.6464 10.3864C23.8587 10.4607 24.0764 10.4872 24.294 10.4819C24.2038 10.604 24.1188 10.7367 24.0551 10.8801C23.9967 11.0128 24.0657 11.1455 24.2144 11.1614C24.7665 11.2092 25.3027 11.1084 25.807 10.8801C26.099 10.9172 26.391 10.896 26.6724 10.7951C26.8953 10.7155 26.7998 10.3545 26.5715 10.4341L26.5821 10.4448Z" fill="#BB7248"/>
<path fill-rule="evenodd" clip-rule="evenodd" d="M19.256 11.5437C19.1445 11.4269 18.9905 11.4004 18.8366 11.4216C18.7569 11.4322 18.6773 11.4588 18.5977 11.4694H18.5552C18.6402 11.342 18.5287 11.1402 18.3535 11.188C18.3057 11.1986 18.0243 11.2252 18.0987 11.1084C18.173 10.981 18.0456 10.7686 17.8863 10.8323C17.8014 10.8695 17.7164 10.9013 17.6315 10.9385L17.4881 11.0022L17.4775 10.9013C17.4563 10.8005 17.4085 10.7261 17.3236 10.6731C17.2493 10.6253 17.1643 10.6518 17.1006 10.6996C17.0369 10.7527 16.9626 10.7899 16.8829 10.8164C16.8405 10.689 16.6334 10.62 16.5432 10.7739C16.4901 10.8589 16.4689 10.9491 16.4795 11.05C16.4901 11.1455 16.5538 11.2411 16.6653 11.2358C16.8352 11.2252 16.9891 11.1774 17.1325 11.1084V11.1137C17.1484 11.2092 17.1855 11.2995 17.2705 11.3526C17.382 11.4216 17.4988 11.3951 17.6102 11.3473L17.7589 11.2889L17.8598 11.4481C17.95 11.5331 18.0615 11.5649 18.1783 11.5756C18.1995 11.6552 18.2526 11.7295 18.3269 11.7826C18.4437 11.8622 18.5871 11.8569 18.7198 11.8304C18.7888 11.8198 18.9374 11.7507 18.9958 11.8091C19.1657 11.979 19.4259 11.7189 19.256 11.549V11.5437Z" fill="#BB7248"/>
<path fill-rule="evenodd" clip-rule="evenodd" d="M25.3664 12.9983L25.2337 12.839C25.1859 12.7806 25.0691 12.7647 25.0054 12.8125C24.793 12.9664 24.517 12.8709 24.2781 12.8497C24.1666 12.839 24.0551 12.839 23.9436 12.855C23.8693 12.8656 23.8003 12.8868 23.726 12.8921L23.6251 12.8868L23.5986 12.8497C23.7207 12.7329 23.6092 12.5524 23.4605 12.5364C23.3384 12.5258 23.2323 12.547 23.1102 12.5736L22.9721 12.6054L22.8023 12.5948L22.7969 12.5895L22.8394 12.563C23.004 12.4303 22.7863 12.1489 22.6164 12.271L22.5846 12.3082L22.5793 12.3028C22.4094 12.4409 22.1333 12.4037 21.9369 12.34C21.8095 12.2975 21.8254 12.2391 21.8148 12.1223C21.8095 12.0374 21.7936 11.9737 21.7458 11.8994C21.6821 11.7985 21.5441 11.772 21.4538 11.8622C21.2043 12.1064 20.8645 12.1754 20.5407 12.0586C20.3124 11.979 20.2169 12.34 20.4398 12.4196C20.7796 12.5417 21.1459 12.4993 21.4485 12.3294C21.4591 12.4037 21.4857 12.4674 21.5334 12.5205C21.6237 12.632 21.767 12.6851 21.9051 12.7169C22.1068 12.7647 22.2979 12.7753 22.4837 12.7329L22.574 12.8656C22.7704 13.0514 23.004 12.9718 23.2323 12.9293L23.28 13.0514C23.3915 13.2425 23.5986 13.285 23.8056 13.2584C24.0657 13.2266 24.2728 13.2266 24.5329 13.2584C24.7187 13.2797 24.8939 13.2797 25.0585 13.216L25.101 13.269C25.2496 13.4549 25.515 13.1894 25.3664 13.0036V12.9983Z" fill="#BB7248"/>
<path fill-rule="evenodd" clip-rule="evenodd" d="M20.5991 14.3892C20.4876 14.3467 20.477 14.2989 20.5619 14.2459C20.7 14.1291 20.5513 13.8689 20.3814 13.9379C20.1532 14.0229 19.9302 13.8796 19.7125 13.8318C19.6223 13.8105 19.532 13.8105 19.4365 13.8052L19.1339 13.7309C19.2666 13.5716 19.102 13.3381 18.9109 13.4389C18.8631 13.4655 18.6083 13.6035 18.603 13.4761C18.5977 13.3168 18.4013 13.2266 18.2845 13.3434C18.1995 13.4283 18.0827 13.4761 17.9606 13.4442C17.8598 13.4177 17.8067 13.3487 17.6952 13.3699C17.5678 13.3911 17.4563 13.4495 17.3236 13.4548C17.2705 13.4548 17.0953 13.4602 16.9785 13.4283C17.09 13.3381 17.2864 13.2213 17.3554 13.1735C17.5147 13.0567 17.4297 12.7753 17.2121 12.8337C16.8139 12.9452 16.4158 12.9558 16.0123 12.8603C15.7787 12.8072 15.6778 13.1682 15.9114 13.2213C16.1397 13.2743 16.3733 13.2956 16.6016 13.2956C16.5273 13.4018 16.506 13.5186 16.6069 13.6407C16.7184 13.7681 16.9413 13.7999 17.1006 13.8158C17.313 13.8424 17.5253 13.8158 17.727 13.7521C17.9288 13.8477 18.1517 13.8477 18.3429 13.7521C18.3906 13.8052 18.4437 13.8477 18.5181 13.8742C18.6189 13.9114 18.7198 13.9061 18.8153 13.8849C18.8737 14.0282 19.0171 14.1397 19.187 14.1715C19.4205 14.214 19.6382 14.1981 19.8718 14.2724C19.962 14.2989 20.0523 14.3255 20.1479 14.3361C20.1532 14.5909 20.3974 14.8192 20.7053 14.7608C20.9389 14.7183 20.838 14.3573 20.6044 14.3998L20.5991 14.3892Z" fill="#BB7248"/>
<path fill-rule="evenodd" clip-rule="evenodd" d="M23.9224 15.1643C23.7738 15.0263 23.5667 15.0156 23.3809 15.0847C23.296 15.1165 23.211 15.1643 23.1208 15.1908L23.0889 15.1961H23.0624L23.0305 15.1855L23.0252 15.1802V15.1484L22.9774 14.9838C22.9244 14.8988 22.8288 14.8511 22.7332 14.8404C22.6377 14.8298 22.5527 14.8511 22.4678 14.8829L22.4147 14.8988C22.3988 14.8298 22.3457 14.7714 22.282 14.7502C22.1758 14.7237 22.0909 14.7874 22.0537 14.8829C22.0112 14.9944 22.059 15.1165 22.1493 15.1961C22.2395 15.2758 22.3563 15.297 22.4731 15.2758L22.6218 15.228L22.6589 15.2174L22.6961 15.366C22.797 15.5571 23.0358 15.6102 23.2323 15.5571C23.3278 15.5306 23.4128 15.4775 23.503 15.4456L23.6092 15.4244L23.657 15.4403C23.8322 15.6049 24.0976 15.3395 23.9224 15.1749V15.1643Z" fill="#BB7248"/>
<path fill-rule="evenodd" clip-rule="evenodd" d="M22.6855 17.1816C22.4625 17.1604 22.2395 17.1392 22.0166 17.1179C21.9582 17.0011 21.8467 16.9162 21.7033 16.879C21.4963 16.826 21.2255 16.9374 21.0663 16.7941C20.8699 16.6136 20.5036 16.5924 20.2381 16.5605C20.0842 16.5393 19.9302 16.534 19.7709 16.534L19.5904 16.518L19.5108 16.4915L19.4843 16.4756C19.5002 16.3163 19.3515 16.2261 19.2135 16.2845C19.0967 16.3322 18.9534 16.4013 18.826 16.38C18.7357 16.3641 18.6136 16.2898 18.6826 16.1889C18.7623 16.0668 18.6561 15.9128 18.5234 15.9075C18.449 15.9075 18.3694 15.9075 18.2951 15.9022L18.2792 15.812C18.2526 15.6846 18.104 15.6527 18.0031 15.7005C17.8651 15.7695 17.7058 15.8544 17.5466 15.8491C17.4138 15.8438 17.2705 15.7483 17.3183 15.6049C17.3554 15.4881 17.2546 15.366 17.1378 15.366C16.8033 15.3713 16.4742 15.3873 16.1397 15.3873C15.8796 15.3873 15.4443 15.3554 15.492 14.9944C15.5133 14.8405 15.3222 14.7821 15.2107 14.8352C15.0833 14.8936 14.9665 14.8564 14.8603 14.7821C14.6639 14.644 14.4781 14.9679 14.6745 15.1059C14.8178 15.2068 14.9771 15.2386 15.1417 15.2227C15.2107 15.4722 15.4443 15.6633 15.7044 15.727C16.0919 15.8226 16.5379 15.7748 16.9467 15.7536C16.9785 15.9235 17.0953 16.0721 17.2546 16.157C17.4828 16.2791 17.7324 16.2261 17.9659 16.1305V16.1411C17.9819 16.2208 18.0668 16.2791 18.1464 16.2791H18.2951C18.311 16.4278 18.3907 16.5658 18.5181 16.6561C18.7251 16.8047 18.964 16.7676 19.1923 16.6932C19.2719 16.8047 19.4206 16.8684 19.5745 16.895C19.7656 16.9268 19.9621 16.9056 20.1532 16.9268C20.3708 16.9481 20.5832 16.9958 20.7902 17.0542C20.8752 17.1604 20.9973 17.2188 21.1406 17.2347C21.2149 17.24 21.6821 17.1816 21.6874 17.2931C21.6927 17.3993 21.7724 17.4683 21.8732 17.4789C22.144 17.5055 22.4147 17.532 22.6802 17.5586C22.9191 17.5798 22.9137 17.2082 22.6802 17.187L22.6855 17.1816Z" fill="#BB7248"/>
<path fill-rule="evenodd" clip-rule="evenodd" d="M17.0316 17.9248C17.1006 17.7974 16.9732 17.6063 16.8192 17.6594C16.7184 17.6913 16.575 17.755 16.4742 17.7125C16.3733 17.67 16.3255 17.5692 16.214 17.5426C16.1238 17.5214 16.0335 17.5479 15.9486 17.5851L15.8212 17.6329L15.8318 17.4524C15.8743 17.3515 15.8477 17.2028 15.7203 17.1763C15.6407 17.1604 15.577 17.1604 15.4974 17.1763C15.3912 17.1975 15.4177 17.1922 15.3381 17.1285C15.2054 17.0277 15.0408 17.0383 14.8975 17.0967C14.8231 17.1285 14.701 17.2294 14.6161 17.2082L14.4675 17.0542C14.3984 16.9905 14.3241 16.9533 14.2498 16.9374L14.2286 16.8472C14.2073 16.7569 14.0905 16.6773 14.0003 16.7144C13.8251 16.7888 13.6552 16.7835 13.4906 16.6879C13.2836 16.5658 13.0978 16.8843 13.3048 17.0117C13.4906 17.1232 13.7083 17.1657 13.9153 17.1285L13.926 17.1816C13.9578 17.309 14.0958 17.3409 14.1967 17.2931L14.4728 17.5479C14.6373 17.6169 14.7966 17.5585 14.9452 17.4842L15.1204 17.4258L15.2372 17.5373C15.2956 17.5692 15.3593 17.5798 15.423 17.5745H15.4337C15.4283 17.6541 15.439 17.7284 15.4814 17.8027C15.5717 17.9567 15.7469 18.031 15.9168 17.9886L16.1291 17.9036L16.2194 17.9886L16.3521 18.0629C16.4529 18.0947 16.5538 18.0947 16.6547 18.0841C16.7025 18.2115 16.8246 18.3071 16.9944 18.2912C17.2121 18.2699 17.228 17.9514 17.0369 17.9248H17.0316Z" fill="#BB7248"/>
<path fill-rule="evenodd" clip-rule="evenodd" d="M21.0663 19.1247C20.9389 19.1194 20.8115 19.0928 20.6947 19.0397C20.5672 18.9866 20.477 18.8858 20.3549 18.8221C20.2222 18.7477 20.0948 18.7955 19.9567 18.8167C19.8983 18.8221 19.6754 18.8327 19.7072 18.7212C19.7497 18.5672 19.5745 18.4292 19.4365 18.5088C19.2082 18.6469 18.9162 18.6097 18.7251 18.4239C18.5552 18.254 18.2898 18.5195 18.465 18.684C18.7092 18.9282 19.0702 19.0132 19.394 18.9229C19.4259 18.9866 19.4736 19.045 19.5373 19.0928C19.6966 19.2096 19.8983 19.2043 20.0841 19.1671L20.1956 19.1459L20.2859 19.2255C20.3549 19.2786 20.4292 19.3211 20.5088 19.3582C20.6893 19.4432 20.8752 19.4857 21.0716 19.491C21.3105 19.5016 21.3105 19.13 21.0716 19.1194L21.0663 19.1247Z" fill="#BB7248"/>
<path fill-rule="evenodd" clip-rule="evenodd" d="M19.5745 21.8746C19.2454 21.8852 18.9215 21.8693 18.5977 21.8215C18.7888 21.6729 18.9799 21.5189 19.171 21.3649C19.2613 21.2959 19.2347 21.1154 19.1339 21.073C18.9799 21.004 18.8313 20.9986 18.672 21.057C18.5977 21.0836 18.5287 21.1207 18.4597 21.1526L18.2367 21.1791C18.3323 21.0252 18.1358 20.8235 17.9819 20.9243C17.8916 20.9827 17.7961 21.0199 17.6952 21.0411C17.6952 20.9402 17.6315 20.8394 17.5147 20.8394C17.4457 20.8394 17.3767 20.8553 17.3183 20.8712C17.0794 20.9137 16.8405 20.9509 16.6016 20.9721C16.4954 20.9827 16.3043 21.0199 16.1397 21.0093C16.4582 20.7704 16.7821 20.5421 17.1165 20.3244C17.297 20.2607 17.4775 20.1917 17.6527 20.1227C17.8651 20.0324 18.0509 19.8466 17.9235 19.613C17.8757 19.5228 17.7536 19.4963 17.6687 19.544C17.4298 19.6821 17.2015 19.8307 16.9732 19.9847C16.8352 20.0377 16.7025 20.0855 16.5697 20.1333C16.4742 20.1705 16.4423 20.2554 16.4476 20.335C16.1716 20.5262 15.9008 20.7226 15.6354 20.9349C15.5558 20.9986 15.5717 21.1314 15.6354 21.2004C15.853 21.418 16.1822 21.3809 16.4636 21.3596C16.66 21.349 16.8564 21.3278 17.0528 21.3012L17.0847 21.3278C17.3607 21.4499 17.6527 21.4711 17.9288 21.3756C17.9766 21.4552 18.0456 21.5189 18.1358 21.5561C18.1995 21.5826 18.2632 21.5879 18.3269 21.5826C18.2314 21.6569 18.1358 21.7313 18.0456 21.8056C17.9394 21.8905 17.9978 22.0869 18.1305 22.1188C18.6136 22.225 19.102 22.2674 19.5957 22.2515C19.8346 22.2462 19.8346 21.8693 19.5957 21.8799L19.5745 21.8746Z" fill="#BB7248"/>
</g>
<defs>
<linearGradient id="paint0_linear_6_558" x1="19.6117" y1="1.66403" x2="18.8366" y2="6.62776" gradientUnits="userSpaceOnUse">
<stop stop-color="#E4D098"/>
<stop offset="1" stop-color="#D7BA7F"/>
</linearGradient>
<clipPath id="clip0_6_558">
<rect width="30" height="25.531" fill="white" transform="translate(0.5 0.734467)"/>
</clipPath>
</defs>
</svg>
