<svg width="33" height="27" viewBox="0 0 33 27" fill="none" xmlns="http://www.w3.org/2000/svg">
<g clip-path="url(#clip0_6_511)">
<path fill-rule="evenodd" clip-rule="evenodd" d="M32.6709 12.0949C32.7947 11.091 32.7993 10.1008 32.6847 9.15184C32.3592 6.44714 31.0985 4.0725 29.0448 2.64221C28.7376 2.42675 28.4122 2.2388 28.0729 2.06918V2.0646L26.4363 1.28528L26.3538 1.45489C24.0663 0.927704 21.5954 1.46406 19.4225 2.83017C18.611 3.33902 17.8455 3.96247 17.1441 4.69137C16.1722 5.6999 15.3241 6.90556 14.6686 8.28083C14.013 9.65611 13.6096 11.0726 13.4354 12.4662C13.3117 13.4702 13.3071 14.4604 13.4263 15.4093C13.7288 17.9582 14.8703 20.209 16.7177 21.6622L16.6398 21.8319L18.2718 22.6112V22.6066C18.6202 22.767 18.9732 22.8954 19.3308 23.0008C21.7375 23.6931 24.3734 23.1842 26.6793 21.7356C27.4907 21.2267 28.2563 20.6033 28.9623 19.8744C29.9341 18.8659 30.7822 17.6602 31.4378 16.2849C32.0933 14.9097 32.4967 13.4931 32.6709 12.1041V12.0949Z" fill="url(#paint0_linear_6_511)"/>
<path fill-rule="evenodd" clip-rule="evenodd" d="M29.8608 15.5239C29.2052 16.8992 28.3571 18.1049 27.3853 19.1134C26.6839 19.8423 25.9137 20.4658 25.1069 20.9746C22.801 22.4232 20.1651 22.9367 17.7584 22.2399C17.3595 22.1252 16.9653 21.974 16.5802 21.7906C16.1951 21.6072 15.833 21.3964 15.4938 21.158C13.44 19.7277 12.1793 17.3531 11.8539 14.6483C11.7393 13.6994 11.7393 12.7092 11.863 11.7053C12.0327 10.3162 12.4406 8.89512 13.0962 7.51985C13.7517 6.14457 14.5998 4.93892 15.5717 3.93038C16.2731 3.20149 17.0432 2.57803 17.8501 2.06918C20.1559 0.620557 22.7965 0.107122 25.1986 0.799343C25.5974 0.913949 25.9917 1.06523 26.3768 1.2486C26.7618 1.43197 27.124 1.64284 27.4678 1.88122C29.5215 3.31609 30.7822 5.68615 31.1077 8.39085C31.2223 9.33979 31.2223 10.33 31.0939 11.3339C30.9243 12.723 30.5163 14.1441 29.8608 15.5194V15.5239Z" fill="url(#paint1_linear_6_511)"/>
<path d="M27.4632 1.89038L24.6943 6.5984L23.2824 5.92452L25.1986 0.808502C25.5974 0.923108 25.9917 1.07439 26.3768 1.25776C26.7618 1.44113 27.124 1.652 27.4678 1.89038H27.4632Z" fill="#FEFEFE"/>
<path d="M19.7204 6.53423L18.2947 7.69863L15.5671 3.93496C16.2685 3.20607 17.0386 2.58261 17.8455 2.07376L19.7204 6.53423Z" fill="#FEFEFE"/>
<path d="M16.4931 13.3006L11.8493 14.6529C11.7347 13.704 11.7347 12.7138 11.8584 11.7098L16.4977 11.4623L16.4885 13.3006H16.4931Z" fill="#FEFEFE"/>
<path d="M17.7538 22.2444C17.355 22.1298 16.9607 21.9785 16.5756 21.7952C16.1906 21.6118 15.8284 21.4009 15.4892 21.1625L18.2581 16.4545L19.6746 17.1284L17.7584 22.2398L17.7538 22.2444Z" fill="#FEFEFE"/>
<path d="M27.3807 19.118C26.6793 19.8469 25.9092 20.4703 25.1023 20.9792L23.232 16.5187L24.6531 15.3543L27.3807 19.118Z" fill="#FEFEFE"/>
<path d="M31.0894 11.3431L26.4455 11.5907L26.4547 9.75238L31.0985 8.40002C31.2131 9.34896 31.2131 10.3392 31.0848 11.3431H31.0894Z" fill="#FEFEFE"/>
<path fill-rule="evenodd" clip-rule="evenodd" d="M9.93307 26.4986C9.05748 26.4986 8.19105 26.3428 7.36131 26.0127L5.2388 25.1738C6.06855 25.5038 6.93497 25.6597 7.81056 25.6597C11.6797 25.6597 15.7 22.5974 17.5796 17.839C19.1061 13.9745 18.8357 9.96326 17.167 7.17604V7.18062C15.3791 4.66846 13.9672 4.22379 13.9672 4.22379C16.6902 5.07646 17.5521 5.97955 17.5521 5.97955C20.6648 8.52381 21.6596 13.7269 19.7021 18.6825C17.8226 23.4409 13.8022 26.5032 9.93307 26.5032V26.4986ZM13.9672 4.2192C13.9259 4.20086 13.8893 4.18253 13.848 4.16419C13.8434 4.15961 13.8434 4.15961 13.8388 4.15961C13.8343 4.15961 13.8297 4.15502 13.8297 4.15502H13.8251C13.8205 4.15502 13.8205 4.15044 13.8159 4.15044H13.8113C13.8113 4.15044 13.8068 4.14585 13.8022 4.14585C13.7976 4.14585 13.7976 4.14127 13.7976 4.14127C13.7976 4.14127 13.793 4.13669 13.7884 4.13669C13.7884 4.13669 13.7838 4.13669 13.7838 4.1321C13.7838 4.1321 13.7792 4.1321 13.7792 4.12752C13.7747 4.12752 13.7747 4.12752 13.7701 4.12293C13.7655 4.12293 13.7655 4.12293 13.7655 4.12293C13.7609 4.12293 13.7609 4.11835 13.7563 4.11835H13.7517C13.7472 4.11835 13.7472 4.11835 13.7426 4.11376H13.738C13.7334 4.11376 13.7334 4.10918 13.7288 4.10918H13.7242C13.7197 4.10918 13.7151 4.1046 13.7151 4.1046C13.7151 4.1046 13.7151 4.1046 13.7105 4.1046C13.7059 4.1046 13.7013 4.10001 13.7013 4.10001C13.7013 4.10001 13.7013 4.10001 13.6967 4.10001C13.6921 4.10001 13.6876 4.09543 13.683 4.09543C13.6784 4.09543 13.6738 4.09084 13.6692 4.09084C13.6371 4.07709 13.6096 4.06792 13.5775 4.05417L13.9764 4.21003C13.9718 4.21462 13.9672 4.21462 13.9626 4.2192H13.9672Z" fill="url(#paint2_linear_6_511)"/>
<path fill-rule="evenodd" clip-rule="evenodd" d="M7.80598 25.6597C6.93039 25.6597 6.06396 25.5038 5.23422 25.1738C1.53473 23.7114 0.503276 19.0997 0.503276 19.0997C1.16341 17.9169 1.96565 16.7342 2.87791 15.6065C2.75872 18.5771 4.06982 21.1992 6.4307 22.1298C7.02207 22.3636 7.64094 22.4737 8.25982 22.4737C11.0149 22.4737 13.8755 20.2916 15.2141 16.9084C16.4244 13.8415 16.0484 10.6417 14.4715 8.66592H14.4669C13.9122 7.96453 13.2062 7.42359 12.3673 7.09352C11.7759 6.85514 11.1571 6.7497 10.5336 6.7497C7.78306 6.7497 4.9179 8.92722 3.5793 12.315C3.1438 13.4152 2.91459 14.5337 2.86875 15.6065C1.95648 16.7296 1.15424 17.9169 0.494107 19.0997C0.319906 18.2837 0.223637 17.4264 0.223637 16.5462V16.505C0.223637 14.8822 0.535365 13.1676 1.19091 11.4806C1.1955 11.4715 1.20008 11.4623 1.20008 11.4531C1.20008 11.4486 1.20466 11.4486 1.20466 11.4486C1.20466 11.4394 1.20925 11.4302 1.21383 11.421V11.4165C1.21842 11.4073 1.21842 11.3981 1.223 11.389C1.23675 11.3569 1.25051 11.3248 1.26426 11.2927C1.26426 11.2789 1.26884 11.2698 1.27343 11.256C1.32844 11.1139 1.39262 10.9718 1.4568 10.8297C1.59891 10.9535 1.76394 11.0543 1.94273 11.1231C2.14902 11.2056 2.36448 11.2423 2.57077 11.2423H2.57535C2.36448 11.2423 2.1536 11.201 1.94731 11.1231C1.76394 11.0497 1.60349 10.9489 1.46138 10.8297C1.93356 9.76614 2.51117 8.79428 3.17131 7.93244H3.16672C5.26172 5.20023 8.16355 3.57282 10.9874 3.56824H10.992C14.3935 3.56824 16.9928 5.89703 18.0518 9.21603H18.0563C18.0563 9.21603 19.5875 12.723 17.5658 17.839C15.6863 22.5974 11.6659 25.6597 7.79681 25.6597H7.80598Z" fill="url(#paint3_linear_6_511)"/>
<path fill-rule="evenodd" clip-rule="evenodd" d="M8.26898 22.4782C7.64553 22.4782 7.03124 22.3682 6.43987 22.1344C4.07899 21.1992 2.76789 18.5816 2.88708 15.611C2.92834 14.5383 3.16214 13.4198 3.59764 12.3195C4.93624 8.93179 7.80139 6.75427 10.5519 6.75427C11.1754 6.75427 11.7897 6.86429 12.3811 7.10267C13.22 7.43274 13.9259 7.97827 14.4852 8.67507C16.0622 10.6509 16.4427 13.8507 15.2279 16.9175C13.8893 20.3053 11.0241 22.4828 8.27357 22.4828L8.26898 22.4782Z" fill="url(#paint4_linear_6_511)"/>
<path fill-rule="evenodd" clip-rule="evenodd" d="M14.8336 7.2448L14.9666 6.08499L14.0268 5.39276L15.1866 5.52571L15.8834 4.58594L15.7505 5.74575L16.6857 6.44256L15.5258 6.30961L14.8336 7.2448Z" fill="url(#paint5_linear_6_511)"/>
</g>
<defs>
<linearGradient id="paint0_linear_6_511" x1="14.6961" y1="8.3771" x2="31.4103" y2="16.1245" gradientUnits="userSpaceOnUse">
<stop stop-color="#D979B0"/>
<stop offset="1" stop-color="#EE408A"/>
</linearGradient>
<linearGradient id="paint1_linear_6_511" x1="13.1191" y1="7.66196" x2="29.8333" y2="15.391" gradientUnits="userSpaceOnUse">
<stop stop-color="#EE408A"/>
<stop offset="1" stop-color="#D979B0"/>
</linearGradient>
<linearGradient id="paint2_linear_6_511" x1="16.9286" y1="0.143808" x2="4.3953" y2="33.4392" gradientUnits="userSpaceOnUse">
<stop stop-color="#F9C74C"/>
<stop offset="1" stop-color="#F28C36"/>
</linearGradient>
<linearGradient id="paint3_linear_6_511" x1="13.0595" y1="8.63841" x2="4.14775" y2="32.7194" gradientUnits="userSpaceOnUse">
<stop stop-color="#F5EA63"/>
<stop offset="1" stop-color="#F89A3D"/>
</linearGradient>
<linearGradient id="paint4_linear_6_511" x1="13.385" y1="-1.19022" x2="2.86874" y2="38.7661" gradientUnits="userSpaceOnUse">
<stop stop-color="#F89A3D"/>
<stop offset="1" stop-color="#F5EA63"/>
</linearGradient>
<linearGradient id="paint5_linear_6_511" x1="15.8147" y1="4.97101" x2="14.774" y2="7.11644" gradientUnits="userSpaceOnUse">
<stop stop-color="#F5F5C4"/>
<stop offset="1" stop-color="#FEFAFC"/>
</linearGradient>
<clipPath id="clip0_6_511">
<rect width="32.5344" height="26" fill="white" transform="translate(0.232807 0.5)"/>
</clipPath>
</defs>
</svg>
