<svg width="35" height="25" viewBox="0 0 35 25" fill="none" xmlns="http://www.w3.org/2000/svg">
<path d="M29.6784 8.04628C29.6714 7.91993 29.6643 7.79359 29.6573 7.67426C29.0958 1.96762 27.5375 1.13935 27.0813 1.02002L26.9198 0.998962H8.09421L7.93277 1.02002C7.4695 1.13935 5.91123 1.96762 5.35671 7.67426C5.34969 7.79359 5.33565 7.91993 5.32863 8.04628C5.32161 8.15157 5.32161 8.24984 5.32161 8.36215V8.46744C5.29354 10.7487 5.85507 14.4899 6.47277 17.8241V17.8311C7.04133 20.8915 7.652 23.6009 7.88364 24.4994H27.1304C27.3691 23.5939 27.9727 20.8845 28.5413 17.8311V17.8241C29.159 14.4899 29.7205 10.7487 29.6924 8.46744V8.36215C29.6924 8.25686 29.6854 8.15157 29.6784 8.04628Z" fill="#D07B3A"/>
<path d="M7.14662 17.8241C6.52892 14.4899 5.96738 10.7487 5.99546 8.46744V8.36215C5.99546 8.25686 6.00248 8.15157 6.00248 8.04628C6.0095 7.91993 6.01652 7.79359 6.03056 7.67426C6.5921 1.96762 8.15037 1.13935 8.60662 1.02002L8.76806 0.998962H8.08719L7.92575 1.02002C7.46248 1.13935 5.90421 1.96762 5.34969 7.67426C5.34267 7.79359 5.32863 7.91993 5.32161 8.04628C5.31459 8.15157 5.31459 8.24984 5.31459 8.36215V8.46744C5.28652 10.7487 5.84806 14.4899 6.46575 17.8241V17.8311C7.03431 20.8915 7.64498 23.6009 7.87662 24.4994H8.55748C8.31883 23.5939 7.71517 20.8845 7.14662 17.8311V17.8241Z" fill="#AB5537"/>
<path d="M27.8534 17.8241C28.4711 14.4899 29.0326 10.7487 29.0045 8.46744V8.36215C29.0045 8.25686 28.9975 8.15157 28.9975 8.04628C28.9905 7.91993 28.9835 7.79359 28.9694 7.67426C28.4079 1.96762 26.8496 1.13935 26.3934 1.02002L26.2319 0.998962H26.9128L27.0742 1.02002C27.5375 1.13935 29.0958 1.96762 29.6503 7.67426C29.6573 7.79359 29.6714 7.91993 29.6714 8.04628C29.6784 8.15157 29.6854 8.24984 29.6854 8.36215V8.46744C29.7135 10.7487 29.1519 14.4899 28.5342 17.8241V17.8311C27.9657 20.8915 27.355 23.6009 27.1234 24.4994H26.4425C26.6812 23.5939 27.2848 20.8845 27.8534 17.8311V17.8241Z" fill="#AB5537"/>
<path fill-rule="evenodd" clip-rule="evenodd" d="M34.7744 13.1282H0.225647L0.885456 12.5035H34.1145L34.7744 13.1282Z" fill="#FBD747"/>
<path fill-rule="evenodd" clip-rule="evenodd" d="M33.7917 17.6416H1.20834L0.225647 13.1282H34.7744L33.7917 17.6416Z" fill="#FBB13F"/>
<path fill-rule="evenodd" clip-rule="evenodd" d="M21.4518 18.884L23.5787 12.4333L17.5 8.7131L11.4213 12.4333L13.5482 18.884L14.0395 19.4034H20.9605L21.4518 18.884Z" fill="#FBB13F"/>
<path fill-rule="evenodd" clip-rule="evenodd" d="M20.9605 19.4034L23.0873 12.9457L17.5 9.72388L11.9127 12.9457L14.0395 19.4034H20.9605Z" fill="#FCCC43"/>
<path fill-rule="evenodd" clip-rule="evenodd" d="M18.9039 13.6757C18.9039 12.9036 18.2791 12.2719 17.5 12.2719C16.7279 12.2719 16.0962 12.8966 16.0962 13.6757C16.0962 14.2022 16.391 14.6584 16.8191 14.8971V17.8803H18.1739V14.8971C18.602 14.6584 18.8968 14.2022 18.8968 13.6757H18.9039Z" fill="#46282C"/>
<path fill-rule="evenodd" clip-rule="evenodd" d="M29.903 8.03226H30.1487C30.0434 7.08466 29.6433 3.68735 28.8712 2.22734C28.822 2.12907 28.7659 2.04484 28.7168 1.96061H28.7308C27.8885 0.486572 26.9619 0.50763 26.9619 0.50763L27.3269 0.50061H31.3771C31.9807 0.50061 32.4861 1.06215 32.8371 1.62369H32.8511C32.8511 1.62369 32.9072 1.71494 32.9915 1.8834C33.2161 2.2835 33.3495 2.62744 33.3775 2.70465V2.71167V2.71869C33.8689 3.88389 34.5287 5.87735 34.4866 8.20072V8.20774C34.5006 8.73418 34.4725 9.35188 34.4164 10.0187C34.4655 9.47822 34.4866 8.97284 34.4866 8.51658C34.4866 8.4113 34.4866 8.30601 34.4796 8.20774C34.4796 8.30601 34.4866 8.4113 34.4866 8.51658C34.4866 13.4441 31.5104 24.4432 31.4964 24.5064H26.9198C26.9268 24.4783 27.7481 21.446 28.5343 17.8381V17.8311C28.9273 16.0202 29.3134 14.0618 29.5731 12.2789C29.8188 10.6294 29.9521 9.13428 29.903 8.03928V8.03226ZM34.4164 10.0117L34.3813 10.3556L34.4094 10.0117H34.4164Z" fill="url(#paint0_linear_6_544)"/>
<path d="M29.6854 8.36216V8.46745C29.6854 12.8334 27.1866 22.548 26.6812 24.4994H27.1866C27.2146 24.4222 27.2427 24.2888 27.2918 24.0993C27.9025 21.7689 30.5137 11.5349 30.1276 7.62514C29.7205 3.42061 28.7378 1.7009 27.9587 0.991957C27.6498 0.711188 27.3761 0.59186 27.1795 0.542726C27.0672 0.514649 26.9619 0.50061 26.8496 0.50061L26.8075 0.50763C26.4495 0.521668 26.1267 0.683111 25.9371 0.9709L25.9792 0.998976H26.9058L27.0672 1.02003C27.5235 1.13936 29.0888 1.96763 29.6433 7.67428C29.6503 7.7936 29.6644 7.91995 29.6714 8.04629C29.6784 8.15158 29.6854 8.24985 29.6854 8.36216Z" fill="#FDBD3D"/>
<path fill-rule="evenodd" clip-rule="evenodd" d="M5.097 8.03226H4.85133C4.95661 7.08466 5.35671 3.68735 6.12883 2.22734C6.17796 2.12907 6.23412 2.04484 6.28325 1.96061H6.26921C7.11152 0.486572 8.03806 0.50763 8.03806 0.50763L7.67306 0.50061H3.62296C3.0193 0.50061 2.51392 1.06215 2.16296 1.62369H2.14892C2.14892 1.62369 2.09276 1.71494 2.00853 1.8834C1.78392 2.2835 1.65055 2.62744 1.62247 2.70465V2.71167V2.71869C1.13113 3.88389 0.471319 5.87735 0.513435 8.20072V8.20774C0.499396 8.73418 0.527473 9.35188 0.583627 10.0187C0.534492 9.47822 0.513435 8.97284 0.513435 8.51658C0.513435 8.4113 0.513435 8.30601 0.520454 8.20774C0.520454 8.30601 0.513435 8.4113 0.513435 8.51658C0.513435 13.4441 3.48959 24.4432 3.50363 24.5064H8.08018C8.07316 24.4783 7.25191 21.446 6.46575 17.8381V17.8311C6.07267 16.0202 5.68662 14.0618 5.4269 12.2789C5.18123 10.6294 5.04786 9.13428 5.097 8.03928V8.03226ZM0.583627 10.0117L0.618723 10.3556L0.590646 10.0117H0.583627Z" fill="#FDBD3D"/>
<path d="M5.3146 8.36216V8.46745C5.3146 12.8334 7.81345 22.548 8.31181 24.4994H7.80643C7.78537 24.4222 7.75027 24.2888 7.70114 24.0993C7.09046 21.7689 4.47931 11.5349 4.86537 7.62514C5.27248 3.42061 6.25517 1.7009 7.03431 0.991957C7.34316 0.711188 7.61691 0.59186 7.81345 0.542726C7.92575 0.514649 8.03104 0.50061 8.15037 0.50061L8.19249 0.50763C8.55047 0.521668 8.87335 0.683111 9.06287 0.9709L9.02076 0.998976H8.09422L7.93277 1.02003C7.4695 1.13936 5.91123 1.96763 5.35671 7.67428C5.34969 7.7936 5.33565 7.91995 5.32863 8.04629C5.32162 8.15158 5.32162 8.24985 5.32162 8.36216H5.3146Z" fill="#FDBD3D"/>
<defs>
<linearGradient id="paint0_linear_6_544" x1="26.9619" y1="10.1521" x2="31.8403" y2="10.1521" gradientUnits="userSpaceOnUse">
<stop stop-color="#FBE04C"/>
<stop offset="1" stop-color="#FDBA3D"/>
</linearGradient>
</defs>
</svg>
