<svg width="25" height="29" viewBox="0 0 25 29" fill="none" xmlns="http://www.w3.org/2000/svg">
<g clip-path="url(#clip0_6_530)">
<path fill-rule="evenodd" clip-rule="evenodd" d="M15.2781 28.4987C15.0613 28.4987 14.8284 28.4586 14.6117 28.3703L2.39938 23.4163C1.48005 23.047 1.03845 21.9952 1.40779 21.0839L9.30843 1.62131C9.58945 0.918765 10.2639 0.501251 10.9664 0.501251C11.1913 0.501251 11.4241 0.541397 11.6409 0.629717L23.8532 5.58367C24.7725 5.95301 25.2141 7.00483 24.8447 7.92416L16.9441 27.3867C16.6631 28.0812 15.9886 28.4987 15.2781 28.4987Z" fill="#A3ABC9"/>
<path fill-rule="evenodd" clip-rule="evenodd" d="M14.439 27.2583L1.48808 24.8254C0.516561 24.6448 -0.125767 23.7054 0.0589025 22.7339L3.93696 2.09103C4.12163 1.1195 5.05702 0.477177 6.02854 0.661846L18.9795 3.09466C19.951 3.27532 20.5933 4.21473 20.4087 5.18625L16.5306 25.8291C16.35 26.8006 15.4106 27.4429 14.439 27.2583Z" fill="url(#paint0_linear_6_530)"/>
<path fill-rule="evenodd" clip-rule="evenodd" d="M14.6117 10.2526C13.4394 9.39749 11.7934 9.65443 10.9383 10.8267C10.8781 10.907 10.8219 11.0113 10.7657 11.1278C10.7537 10.9993 10.7376 10.8829 10.7135 10.7825C10.3442 9.37742 8.90296 8.54239 7.49787 8.91575C6.09278 9.28509 5.25775 10.7263 5.6311 12.1314C5.98037 13.4522 9.25223 19.1207 9.26427 19.1127C9.27632 19.1248 14.3788 15.0259 15.1857 13.9219C16.0408 12.7496 15.7839 11.1037 14.6117 10.2486V10.2526Z" fill="url(#paint1_linear_6_530)"/>
</g>
<defs>
<linearGradient id="paint0_linear_6_530" x1="2.11837" y1="12.4285" x2="18.3492" y2="15.4876" gradientUnits="userSpaceOnUse">
<stop stop-color="#FEFEFE"/>
<stop offset="1" stop-color="#CDCDE7"/>
</linearGradient>
<linearGradient id="paint1_linear_6_530" x1="7.9475" y1="8.79933" x2="13.0299" y2="16.4792" gradientUnits="userSpaceOnUse">
<stop stop-color="#EE364A"/>
<stop offset="1" stop-color="#9C323B"/>
</linearGradient>
<clipPath id="clip0_6_530">
<rect width="24.9464" height="28" fill="white" transform="translate(0.0267868 0.5)"/>
</clipPath>
</defs>
</svg>
