<svg width="19" height="29" viewBox="0 0 19 29" fill="none" xmlns="http://www.w3.org/2000/svg">
<path d="M18.4817 20.6987C18.7485 18.9803 17.7351 15.4906 17.918 14.1678C18.1164 12.7269 18.3492 11.7994 18.3492 11.7994C18.3492 11.7994 17.3147 12.096 16.4734 13.2939C16.0813 13.8527 16.1376 14.4675 15.7588 14.7539C14.5938 13.003 13.0494 11.4658 11.979 9.60843C10.1256 6.39178 9.97332 0.5 9.97332 0.5C9.97332 0.5 0.932672 9.01779 0.473314 17.6651C0.459239 26.3066 5.02851 28.2673 9.39305 28.3534C16.6007 28.5091 17.8432 24.8153 18.481 20.6987H18.4817Z" fill="#EC3210"/>
<path d="M16.8919 15.9588C16.8919 15.9588 15.4658 16.1993 14.5689 17.4845C14.3776 17.7582 13.9527 18.7558 13.7589 19.083C13.2624 18.1926 12.576 17.3353 11.8089 16.3779C11.0034 15.3733 10.171 14.3349 9.47113 13.1198C8.66309 11.7178 8.22805 9.02608 8.01244 7.26052C5.36954 10.6379 2.59227 16.0475 2.35428 20.0755C2.36196 27.2053 5.65551 28.2763 8.90301 28.3534C10.0623 28.3043 16.2796 29.2617 15.9981 23.1684C15.7953 18.7704 16.8919 15.9588 16.8919 15.9588Z" fill="#F36421"/>
<path d="M12.0801 19.8675C12.0801 19.8675 12.1454 20.3102 12.1454 21.0431C12.1428 21.415 12.0142 21.864 11.7903 22.3475C11.4839 21.8174 11.084 21.2198 10.5863 20.4901C9.84795 19.4077 9.00985 18.1804 8.32849 16.7529C8.22421 16.5348 8.12632 16.3077 8.03419 16.073C6.41684 18.4056 5.42199 20.5704 5.15713 22.3864C5.13666 22.6626 5.1245 22.9222 5.11682 23.1729C4.19299 22.2308 4.08998 19.9249 4.08998 19.9249C4.08998 19.9249 3.0881 21.9775 3.12137 24.1896C3.16807 27.3035 6.47123 28.0792 7.82755 28.2877C9.69313 28.5754 10.9823 28.7215 12.2714 27.7079C16.2502 24.5793 12.0801 19.8669 12.0801 19.8669V19.8675Z" fill="#FFA929"/>
</svg>
