<svg width="31" height="31" viewBox="0 0 31 31" fill="none" xmlns="http://www.w3.org/2000/svg">
<rect width="31" height="31" rx="7.08571" fill="url(#paint0_linear_0_10)"/>
<rect x="1.32859" y="1.32852" width="28.3429" height="28.3429" rx="6.64286" fill="url(#paint1_angular_0_10)"/>
<g clip-path="url(#clip0_0_10)">
<rect x="1.77143" y="1.7714" width="27.4571" height="27.4571" rx="6.64286" fill="url(#paint2_radial_0_10)"/>
<path fill-rule="evenodd" clip-rule="evenodd" d="M9.48922 15.9429L10.6286 16.7287L10.6128 16.9571C10.5733 17.5288 10.4975 17.9921 10.32 18.4486C10.1432 18.9028 9.8752 19.3259 9.48419 19.8315C7.86933 21.9196 8.01897 23.7521 8.11303 24.9039C8.12368 25.0343 8.13361 25.156 8.1402 25.2684L8.16465 25.6858H4.7169V25.2922C4.7169 24.0688 4.91387 22.4742 6.14934 21.0897C6.63813 20.5419 7.18356 19.9709 7.65494 19.4911C7.11267 19.522 6.44691 19.4576 5.72034 19.1653C5.45711 19.0594 5.26936 19.0462 5.14037 19.0665C5.0149 19.0863 4.92276 19.141 4.85057 19.2136C4.69131 19.3738 4.62179 19.6327 4.62179 19.7824V20.1759H3.10001V16.0436H4.62179V16.5424C4.90285 16.3711 5.26159 16.223 5.70058 16.1473C6.37962 16.0302 6.89262 16.2117 7.32834 16.4439C7.46775 16.5182 7.6105 16.6043 7.74223 16.6838C7.80319 16.7205 7.8618 16.7559 7.91661 16.788C8.1012 16.896 8.27227 16.9859 8.45142 17.0477C8.62815 17.1086 8.78508 17.0589 8.94666 16.9156C9.11723 16.7644 9.24836 16.5409 9.31149 16.3842L9.48922 15.9429ZM8.85718 19.3825C8.3218 19.9096 7.44697 20.7959 6.70845 21.6236C5.77958 22.6645 5.53028 23.8499 5.4858 24.8986H7.3485C7.25115 23.7221 7.11733 21.66 8.85718 19.3825ZM9.12151 19.0285C9.35536 18.6989 9.50843 18.4263 9.61409 18.1547C9.73012 17.8564 9.79582 17.5418 9.83539 17.1276L9.79507 17.0998C9.70016 17.2435 9.58222 17.3887 9.44184 17.5132C9.14847 17.7734 8.71888 17.9696 8.21081 17.7944C7.96196 17.7086 7.7407 17.5894 7.54187 17.473C7.46825 17.4299 7.40037 17.3889 7.33514 17.3495C7.21416 17.2765 7.1023 17.2089 6.97989 17.1437C6.63095 16.9577 6.28795 16.844 5.82566 16.9237C5.01423 17.0636 4.6364 17.4991 4.57166 17.6163L3.8609 18.903V19.3888H3.91384C3.97787 19.139 4.10479 18.8659 4.32015 18.6492C4.49737 18.471 4.73205 18.3347 5.02585 18.2884C5.31613 18.2427 5.64012 18.2885 5.99612 18.4317C6.77852 18.7464 7.47023 18.7455 7.96477 18.6677C8.21248 18.6287 8.41016 18.5704 8.5435 18.5231C8.61008 18.4995 8.6603 18.4787 8.69235 18.4646C8.70836 18.4575 8.7198 18.4522 8.72643 18.449C8.72975 18.4474 8.73186 18.4464 8.73274 18.4459L8.73219 18.4462C8.73217 18.4462 8.73188 18.4464 8.73262 18.4479L9.12151 19.0285Z" fill="url(#paint3_angular_0_10)"/>
<path d="M3.54287 19.7318V16.3858H4.29136V17.3699C4.41611 17.1403 4.89015 16.6416 5.78834 16.4842C6.91108 16.2874 7.47245 17.0747 8.3145 17.3699C8.98814 17.6061 9.46842 16.8778 9.62436 16.4842L10.1857 16.8778C10.1109 17.9801 9.90504 18.5508 9.15655 19.535C7.28533 21.9953 7.69076 24.1604 7.75313 25.2429H5.13341C5.13341 24.062 5.32054 22.5858 6.44327 21.3064C7.34146 20.2829 8.43925 19.1741 8.87587 18.7477C8.87587 18.7477 7.56601 19.4366 5.8819 18.7477C4.6636 18.2493 4.29136 19.2725 4.29136 19.7318H3.54287Z" fill="url(#paint4_linear_0_10)"/>
<path fill-rule="evenodd" clip-rule="evenodd" d="M21.5176 4.42862L24.1702 6.19701L24.1335 6.71115C24.0416 7.99762 23.8651 9.04046 23.4517 10.0676C23.0403 11.09 22.4162 12.042 21.5059 13.1799C17.7463 17.8794 18.0947 22.0035 18.3137 24.5956C18.3385 24.8892 18.3616 25.163 18.377 25.4159L18.4339 26.3552H10.4072V25.4695C10.4072 22.7162 10.8657 19.1276 13.742 16.0116C14.88 14.7788 16.1498 13.4937 17.2472 12.414C15.9848 12.4834 14.4348 12.3385 12.7433 11.6807C12.1304 11.4423 11.6934 11.4127 11.393 11.4584C11.1009 11.5029 10.8864 11.626 10.7183 11.7894C10.3476 12.1499 10.1857 12.7326 10.1857 13.0695V13.9552H6.64287V4.65519H10.1857V5.77775C10.8401 5.39218 11.6753 5.059 12.6973 4.88866C14.2781 4.62518 15.4725 5.03363 16.4869 5.5562C16.8114 5.72339 17.1438 5.91714 17.4505 6.09594C17.5924 6.17868 17.7288 6.25821 17.8564 6.33043C18.2862 6.57362 18.6844 6.77589 19.1015 6.91492C19.513 7.05207 19.8783 6.94014 20.2545 6.6177C20.6516 6.27733 20.9569 5.77439 21.1039 5.42167L21.5176 4.42862ZM20.0462 12.1695C18.7998 13.3558 16.7631 15.3504 15.0437 17.2131C12.8812 19.5558 12.3008 22.2235 12.1972 24.5838H16.5338C16.3072 21.936 15.9956 17.2951 20.0462 12.1695ZM20.6616 11.3727C21.206 10.631 21.5624 10.0175 21.8083 9.4063C22.0785 8.73503 22.2314 8.02697 22.3235 7.09489L22.2297 7.03233C22.0087 7.35564 21.7342 7.68252 21.4073 7.96267C20.7243 8.54809 19.7242 8.98973 18.5414 8.59545C17.962 8.40233 17.4469 8.13408 16.984 7.87213C16.8126 7.77514 16.6546 7.68287 16.5027 7.59421C16.2211 7.4298 15.9606 7.27777 15.6756 7.13096C14.8633 6.71246 14.0647 6.45662 12.9885 6.63599C11.0994 6.95084 10.2198 7.93085 10.069 8.19462L8.4143 11.0904V12.1838H8.53755C8.68662 11.6216 8.98209 11.0068 9.48348 10.5193C9.89607 10.1182 10.4424 9.81132 11.1264 9.70719C11.8022 9.60431 12.5565 9.70738 13.3853 10.0297C15.2068 10.7381 16.8172 10.736 17.9685 10.5608C18.5452 10.473 19.0055 10.3419 19.3159 10.2354C19.4709 10.1822 19.5878 10.1354 19.6624 10.1037C19.6997 10.0878 19.7263 10.0758 19.7418 10.0686C19.7495 10.065 19.7544 10.0627 19.7565 10.0617L19.7552 10.0623L19.7546 10.0626C19.7545 10.0627 19.7545 10.0627 19.7562 10.0663L20.6616 11.3727Z" fill="url(#paint5_angular_0_10)"/>
<path d="M7.52858 12.8429V5.31434H9.30001V7.52862C9.59525 7.01196 10.7172 5.89005 12.8429 5.53577C15.5 5.09291 16.8286 6.86434 18.8214 7.52862C20.4157 8.06005 21.5524 6.42148 21.9214 5.53577L23.25 6.42148C23.0729 8.90148 22.5857 10.1858 20.8143 12.4001C16.3857 17.9358 17.3453 22.8072 17.4929 25.2429H11.2929C11.2929 22.5858 11.7357 19.2643 14.3929 16.3858C16.5186 14.0829 19.1167 11.5881 20.15 10.6286C20.15 10.6286 17.05 12.1786 13.0643 10.6286C10.181 9.50734 9.30001 11.8096 9.30001 12.8429H7.52858Z" fill="url(#paint6_linear_0_10)"/>
<path fill-rule="evenodd" clip-rule="evenodd" d="M26.7606 15.9429L27.9 16.7287L27.8842 16.9571C27.8448 17.5288 27.7689 17.9921 27.5914 18.4486C27.4147 18.9028 27.1466 19.3259 26.7556 19.8315C25.1408 21.9196 25.2904 23.7521 25.3845 24.9039C25.3951 25.0343 25.405 25.156 25.4116 25.2684L25.4361 25.6858H21.9883V25.2922C21.9883 24.0688 22.1853 22.4742 23.4208 21.0897C23.9096 20.5419 24.455 19.9709 24.9264 19.4911C24.3841 19.522 23.7183 19.4576 22.9918 19.1653C22.7285 19.0594 22.5408 19.0462 22.4118 19.0665C22.2863 19.0863 22.1942 19.141 22.122 19.2136C21.9627 19.3738 21.8932 19.6327 21.8932 19.7824V20.1759H20.3714V16.0436H21.8932V16.5424C22.1743 16.3711 22.533 16.223 22.972 16.1473C23.651 16.0302 24.164 16.2117 24.5998 16.4439C24.7392 16.5182 24.8819 16.6043 25.0137 16.6838C25.0746 16.7205 25.1332 16.7559 25.188 16.788C25.3726 16.896 25.5437 16.9859 25.7228 17.0477C25.8996 17.1086 26.0565 17.0589 26.2181 16.9156C26.3887 16.7644 26.5198 16.5409 26.5829 16.3842L26.7606 15.9429ZM26.1286 19.3825C25.5932 19.9096 24.7184 20.7959 23.9799 21.6236C23.051 22.6645 22.8017 23.8499 22.7572 24.8986H24.6199C24.5226 23.7221 24.3888 21.66 26.1286 19.3825ZM26.3929 19.0285C26.6268 18.6989 26.7799 18.4263 26.8855 18.1547C27.0016 17.8564 27.0672 17.5418 27.1068 17.1276L27.0665 17.0998C26.9716 17.2435 26.8537 17.3887 26.7133 17.5132C26.4199 17.7734 25.9903 17.9696 25.4822 17.7944C25.2334 17.7086 25.0121 17.5894 24.8133 17.473C24.7397 17.4299 24.6718 17.3889 24.6066 17.3495C24.4856 17.2765 24.3737 17.2089 24.2513 17.1437C23.9024 16.9577 23.5594 16.844 23.0971 16.9237C22.2857 17.0636 21.9078 17.4991 21.8431 17.6163L21.1323 18.903V19.3888H21.1853C21.2493 19.139 21.3762 18.8659 21.5916 18.6492C21.7688 18.471 22.0035 18.3347 22.2973 18.2884C22.5876 18.2427 22.9115 18.2885 23.2675 18.4317C24.0499 18.7464 24.7417 18.7455 25.2362 18.6677C25.4839 18.6287 25.6816 18.5704 25.8149 18.5231C25.8815 18.4995 25.9317 18.4787 25.9638 18.4646C25.9798 18.4575 25.9912 18.4522 25.9979 18.449C26.0012 18.4474 26.0033 18.4464 26.0042 18.4459L26.0036 18.4462C26.0036 18.4462 26.0033 18.4464 26.0041 18.4479L26.3929 19.0285Z" fill="url(#paint7_angular_0_10)"/>
<path d="M20.8143 19.7318V16.3858H21.5628V17.3699C21.6875 17.1403 22.1616 16.6416 23.0598 16.4842C24.1825 16.2874 24.7439 17.0747 25.5859 17.3699C26.2596 17.6061 26.7399 16.8778 26.8958 16.4842L27.4572 16.8778C27.3823 17.9801 27.1765 18.5508 26.428 19.535C24.5568 21.9953 24.9622 24.1604 25.0246 25.2429H22.4048C22.4048 24.062 22.592 22.5858 23.7147 21.3064C24.6129 20.2829 25.7107 19.1741 26.1473 18.7477C26.1473 18.7477 24.8374 19.4366 23.1533 18.7477C21.935 18.2493 21.5628 19.2725 21.5628 19.7318H20.8143Z" fill="url(#paint8_linear_0_10)"/>
</g>
<defs>
<linearGradient id="paint0_linear_0_10" x1="15.5" y1="0" x2="15.5" y2="31" gradientUnits="userSpaceOnUse">
<stop stop-color="#F2CF55"/>
<stop offset="0.515625" stop-color="#FFFE8A"/>
<stop offset="1" stop-color="#AA6E01"/>
</linearGradient>
<radialGradient id="paint1_angular_0_10" cx="0" cy="0" r="1" gradientUnits="userSpaceOnUse" gradientTransform="translate(15.5 15.4999) rotate(90) scale(14.1714)">
<stop offset="0.607879" stop-color="#AC996C"/>
<stop offset="1" stop-color="#936400"/>
</radialGradient>
<radialGradient id="paint2_radial_0_10" cx="0" cy="0" r="1" gradientUnits="userSpaceOnUse" gradientTransform="translate(15.5 15.5) rotate(90) scale(13.7286)">
<stop stop-color="#D00100"/>
<stop offset="1" stop-color="#290202"/>
</radialGradient>
<radialGradient id="paint3_angular_0_10" cx="0" cy="0" r="1" gradientUnits="userSpaceOnUse" gradientTransform="translate(15.5 15.3919) rotate(89.4434) scale(13.6159 23.4571)">
<stop offset="0.0146861" stop-color="#321E00"/>
<stop offset="0.203658" stop-color="#F8DAAC"/>
<stop offset="0.37799" stop-color="#E09D24"/>
<stop offset="0.628219" stop-color="#D7BB8F"/>
<stop offset="0.671825" stop-color="#513501"/>
</radialGradient>
<linearGradient id="paint4_linear_0_10" x1="24.1357" y1="16.3858" x2="24.1357" y2="25.2429" gradientUnits="userSpaceOnUse">
<stop stop-color="#FEFDF7"/>
<stop offset="0.171875" stop-color="#FBE046"/>
<stop offset="0.411458" stop-color="#FFFEC7"/>
<stop offset="0.671875" stop-color="#FEBE09"/>
<stop offset="1" stop-color="#DA8D00"/>
</linearGradient>
<radialGradient id="paint5_angular_0_10" cx="0" cy="0" r="1" gradientUnits="userSpaceOnUse" gradientTransform="translate(15.5 15.3919) rotate(89.4434) scale(13.6159 23.4571)">
<stop offset="0.0146861" stop-color="#321E00"/>
<stop offset="0.203658" stop-color="#F8DAAC"/>
<stop offset="0.37799" stop-color="#E09D24"/>
<stop offset="0.628219" stop-color="#D7BB8F"/>
<stop offset="0.671825" stop-color="#513501"/>
</radialGradient>
<linearGradient id="paint6_linear_0_10" x1="24.1357" y1="16.3858" x2="24.1357" y2="25.2429" gradientUnits="userSpaceOnUse">
<stop stop-color="#FEFDF7"/>
<stop offset="0.171875" stop-color="#FBE046"/>
<stop offset="0.411458" stop-color="#FFFEC7"/>
<stop offset="0.671875" stop-color="#FEBE09"/>
<stop offset="1" stop-color="#DA8D00"/>
</linearGradient>
<radialGradient id="paint7_angular_0_10" cx="0" cy="0" r="1" gradientUnits="userSpaceOnUse" gradientTransform="translate(15.5 15.3919) rotate(89.4434) scale(13.6159 23.4571)">
<stop offset="0.0146861" stop-color="#321E00"/>
<stop offset="0.203658" stop-color="#F8DAAC"/>
<stop offset="0.37799" stop-color="#E09D24"/>
<stop offset="0.628219" stop-color="#D7BB8F"/>
<stop offset="0.671825" stop-color="#513501"/>
</radialGradient>
<linearGradient id="paint8_linear_0_10" x1="24.1357" y1="16.3858" x2="24.1357" y2="25.2429" gradientUnits="userSpaceOnUse">
<stop stop-color="#FEFDF7"/>
<stop offset="0.171875" stop-color="#FBE046"/>
<stop offset="0.411458" stop-color="#FFFEC7"/>
<stop offset="0.671875" stop-color="#FEBE09"/>
<stop offset="1" stop-color="#DA8D00"/>
</linearGradient>
<clipPath id="clip0_0_10">
<rect x="1.77143" y="1.7714" width="27.4571" height="27.4571" rx="6.64286" fill="white"/>
</clipPath>
</defs>
</svg>
