<svg width="31" height="23" viewBox="0 0 31 23" fill="none" xmlns="http://www.w3.org/2000/svg">
<g clip-path="url(#clip0_3_86)">
<path fill-rule="evenodd" clip-rule="evenodd" d="M21.2327 10.2157C19.5327 6.92132 17.6156 3.67654 15.5 0.5C18.0747 3.34151 19.7064 5.56881 21.4064 8.86323C24.3037 5.53779 25.5446 3.98675 30.8491 0.717146C27.3376 3.71376 24.13 6.8903 21.2327 10.2157ZM9.76735 10.2157C6.87 6.8903 3.66244 3.71376 0.150879 0.717146C4.11535 3.09334 7.32911 6.26368 10.152 9.47744C10.0217 9.72561 9.89143 9.96757 9.76735 10.2157Z" fill="#F69037"/>
<path fill-rule="evenodd" clip-rule="evenodd" d="M27.7843 20.0928C26.2456 19.8508 24.7008 19.6523 23.1497 19.4972C22.7279 19.46 22.306 19.4165 21.8779 19.3855C21.3443 19.3421 20.8108 19.3049 20.271 19.2738C19.6816 19.2428 19.086 19.2056 18.4904 19.187C17.4915 19.1498 16.4927 19.1311 15.4938 19.1311C14.0544 19.1311 12.6151 19.1684 11.1757 19.249C10.6111 19.28 10.0527 19.3173 9.48816 19.3607C7.39115 19.522 5.29414 19.7702 3.20954 20.099C3.16611 19.8384 3.12888 19.5778 3.08545 19.3173C2.96137 18.5293 2.83108 17.7414 2.707 16.9473C4.89707 16.5874 6.96926 16.3144 8.99183 16.1345C9.60604 16.0849 10.2078 16.0353 10.8159 15.998C10.8593 16.2648 10.8965 16.5378 10.9337 16.8108C10.8965 16.5378 10.8593 16.271 10.8159 15.998C12.2676 15.905 13.707 15.8553 15.1588 15.8553C16.2383 15.8553 17.324 15.8802 18.4284 15.936C19.1481 15.9732 19.8801 16.0166 20.6246 16.0725C21.152 16.1097 21.6856 16.1593 22.2253 16.209C22.6906 16.2524 23.1622 16.302 23.6399 16.3517C25.1227 16.513 26.6551 16.7177 28.2682 16.9659C28.1441 17.7538 28.02 18.5355 27.8959 19.3235C27.8525 19.584 27.8153 19.8446 27.7719 20.1052L27.7843 20.0928ZM23.7391 15.0612C23.2738 15.0116 22.8147 14.9619 22.3618 14.9185C21.8221 14.8689 21.2885 14.8192 20.7549 14.782C19.9608 14.72 19.1729 14.6703 18.3974 14.6331C17.3054 14.5835 16.2321 14.5587 15.165 14.5587C13.6388 14.5587 12.1311 14.6083 10.6049 14.7076C9.76114 10.2033 10.1892 12.4803 10.6049 14.7076C7.89369 14.8875 5.20108 15.2225 2.51467 15.663C1.72674 10.6811 0.932605 5.69911 0.150879 0.710951C3.66244 3.70757 6.87 6.8841 9.76735 10.2095C9.89763 9.96137 10.0217 9.71941 10.152 9.47124C11.7527 6.4312 13.5395 3.43458 15.5 0.493805C17.6218 3.67034 19.5327 6.91512 21.2327 10.2095C24.13 6.8841 27.3376 3.70757 30.8491 0.710951C30.0612 5.69911 29.2733 10.6873 28.4791 15.6754C26.8288 15.4272 25.253 15.2163 23.7391 15.055L23.7453 14.9681L23.7391 15.0488V15.0612ZM23.7888 13.8452L23.7764 14.1616L23.7888 13.839V13.8452ZM22.2377 16.2028L22.2315 16.2524L22.2253 16.302L22.2191 16.3517L22.2129 16.4013L22.2067 16.4509L22.2005 16.5006L22.1943 16.5502L22.1881 16.5998L22.1819 16.6495L22.1757 16.6991L22.1695 16.7487L22.1633 16.7984L22.1571 16.848L22.1509 16.8976L22.1447 16.9473L22.1385 16.9969L22.1323 17.0465L22.1261 17.0962L22.1199 17.1458L22.1137 17.1954L22.1074 17.2451L22.1012 17.2947L22.095 17.3443L22.0888 17.394L22.0826 17.4436L22.0764 17.4932L22.0702 17.5429L22.064 17.5925L22.0578 17.6421L22.0516 17.6918L22.0454 17.7414L22.0392 17.791L22.033 17.8407L22.0268 17.8903L22.0206 17.9399L22.0144 17.9896L22.0082 18.0392L22.002 18.0888L21.9958 18.1385L21.9896 18.1881L21.9834 18.2377L21.9772 18.2874L21.971 18.337L21.9648 18.3866L21.9585 18.4363L21.9523 18.4859L21.9461 18.5355L21.9399 18.5852L21.9337 18.6348L21.9275 18.6844L21.9213 18.7341L21.9151 18.7837L21.9089 18.8333L21.9027 18.883L21.8965 18.9326L21.8903 18.9822L21.8841 19.0319L21.8779 19.0815L21.8717 19.1311L21.8655 19.1808L21.8593 19.2304L21.8531 19.28L21.8469 19.3297L21.8407 19.3793L22.1943 16.1904L22.2377 16.2028ZM9.50057 19.1063L9.49436 19.0505L9.44473 18.7279L9.49436 19.0443L9.50057 19.1001V19.1063ZM17.231 3.18642C18.7262 5.58743 20.2586 8.03808 17.231 3.18642V3.18642Z" fill="#F5C44E"/>
<path fill-rule="evenodd" clip-rule="evenodd" d="M27.7843 20.0866C27.7843 21.4205 22.2812 22.5 15.5 22.5C8.71263 22.5 3.21573 21.4205 3.21573 20.0866C3.21573 18.7527 8.71883 17.6732 15.5 17.6732C22.2812 17.6732 27.7843 18.7527 27.7843 20.0866Z" fill="#F6CA51"/>
<path fill-rule="evenodd" clip-rule="evenodd" d="M26.5869 20.0866C26.5869 20.8435 21.6235 21.4577 15.5 21.4577C9.37648 21.4577 4.41315 20.8435 4.41315 20.0866C4.41315 19.3297 9.37648 18.7155 15.5 18.7155C21.6235 18.7155 26.5869 19.3297 26.5869 20.0866Z" fill="#F69037"/>
<path fill-rule="evenodd" clip-rule="evenodd" d="M15.5 4.66922L13.4092 8.04429L15.5 11.4132L17.5908 8.04429L15.5 4.66922Z" fill="#715BA5"/>
<path fill-rule="evenodd" clip-rule="evenodd" d="M1.88184 5.35788L0.820923 9.06177L3.38945 11.9281L3.64382 8.41654L1.88184 5.35788Z" fill="#715BA5"/>
<path fill-rule="evenodd" clip-rule="evenodd" d="M29.5463 5.35788L30.6134 9.06177L28.0448 11.9281L27.7843 8.41654L29.5463 5.35788Z" fill="#715BA5"/>
<path fill-rule="evenodd" clip-rule="evenodd" d="M2.71941 16.9411C2.65116 16.5192 2.58292 16.0973 2.52087 15.6692C5.26932 15.2225 7.87508 14.8813 10.6049 14.7138H10.6421H10.6732C10.9337 14.6952 11.1881 14.6828 11.4487 14.6641C12.6895 14.5959 13.9241 14.5649 15.165 14.5649C15.9591 14.5649 16.7532 14.5773 17.5598 14.6083H17.5846C19.0674 14.6579 20.5998 14.7634 22.0826 14.8937H22.1012L22.3556 14.9185C22.8085 14.9619 23.2676 15.0116 23.7329 15.0612C25.2468 15.2287 26.8226 15.4335 28.4729 15.6816C28.4047 16.1097 28.3364 16.5316 28.2682 16.9535C26.6551 16.7115 25.1227 16.5068 23.6461 16.3393C23.1684 16.2834 22.6968 16.24 22.2253 16.1904L21.5429 16.1283H21.5181H21.5056C20.7239 16.0725 18.2298 15.9174 17.504 15.8802H17.4915C16.7098 15.8553 15.9343 15.8429 15.1588 15.8429C13.9552 15.8429 12.7516 15.874 11.5479 15.9422H11.5169H11.4921H11.4859L11.0888 15.967H11.0826H11.033H11.0206H10.9834L10.8159 15.9794C8.11083 16.1221 5.43063 16.4882 2.7132 16.9349L2.71941 16.9411Z" fill="#F8993B"/>
</g>
<defs>
<clipPath id="clip0_3_86">
<rect width="30.6998" height="22" fill="white" transform="translate(0.150116 0.5)"/>
</clipPath>
</defs>
</svg>
