<svg width="29" height="29" viewBox="0 0 29 29" fill="none" xmlns="http://www.w3.org/2000/svg">
<g clip-path="url(#clip0_1_3098)">
<path fill-rule="evenodd" clip-rule="evenodd" d="M14.5 28.4989L14.2362 28.4937H14.1638C14.0759 28.4937 13.9828 28.4886 13.8949 28.4834L13.6518 28.4679L13.5483 28.4627L13.3104 28.4472H13.3001H13.2949L13.0363 28.4213L12.969 28.4162L12.7052 28.3851H12.7001L12.4311 28.3489L12.4052 28.3438L12.1259 28.2972H12.1156L11.8363 28.2455C8.58288 27.6196 5.72775 25.8662 3.69502 23.4145C3.43641 23.099 3.18813 22.7731 2.95538 22.4369C1.38816 20.1715 0.472656 17.4249 0.472656 14.4664C0.472656 11.3578 1.48126 8.49232 3.18813 6.16994C5.45879 3.07688 8.96564 0.951046 12.9794 0.516569C13.1035 0.842427 13.2328 1.17346 13.3621 1.49931C13.3983 1.58724 13.4345 1.66483 13.4811 1.73724C9.25529 2.05275 5.27259 4.51996 3.44675 8.43025C3.16744 9.03024 3.02262 9.66644 3.01745 10.2923C3.01227 11.5078 3.56054 12.6612 4.73466 13.3491C5.26224 13.6595 5.90361 13.8147 6.55533 13.8147C7.81738 13.8147 9.11563 13.2302 9.65873 12.0612C10.5639 10.1164 12.2035 8.94748 14.1069 8.90093C16.419 8.84403 17.5776 7.0182 17.5828 5.21823C17.5828 3.90445 16.9672 2.60619 15.7362 2.02689C16.0414 1.74241 16.1759 1.31311 15.9638 0.780359C15.9276 0.687257 15.8862 0.588982 15.85 0.49588C22.9672 1.17346 28.5326 7.1682 28.5326 14.4612C28.5326 19.4266 25.9568 23.7869 22.062 26.28C21.8706 26.4041 21.6792 26.5179 21.4827 26.6317C21.3844 26.6886 21.2861 26.7455 21.1879 26.7972C21.0896 26.8489 20.9862 26.9058 20.8879 26.9576C20.7844 27.0093 20.6862 27.061 20.5827 27.1076C20.4793 27.1541 20.3758 27.2058 20.2724 27.2524C20.1689 27.2989 20.0655 27.3455 19.962 27.3869C19.8586 27.4334 19.75 27.4748 19.6465 27.5162C19.5431 27.5576 19.4345 27.5989 19.3258 27.6403C19.2172 27.6817 19.1086 27.7179 19 27.7541C18.8914 27.7903 18.7827 27.8265 18.6741 27.8627C18.5655 27.8989 18.4517 27.93 18.3431 27.961C18.2345 27.992 18.1207 28.0231 18.0069 28.0541C17.8931 28.0851 17.7845 28.111 17.6707 28.1369C17.5569 28.1627 17.4431 28.1886 17.3293 28.2093C17.2155 28.23 17.1017 28.2558 16.9879 28.2765C16.8741 28.2972 16.7552 28.3179 16.6414 28.3334C16.5276 28.3489 16.4086 28.3696 16.2897 28.38C16.1707 28.3955 16.0569 28.4058 15.9379 28.4213C15.819 28.4317 15.7 28.442 15.5811 28.4524C15.4621 28.4627 15.3431 28.4679 15.2242 28.4731C15.1052 28.4782 14.9862 28.4834 14.8621 28.4886C14.7431 28.4937 14.619 28.4937 14.5 28.4937V28.4989Z" fill="url(#paint0_radial_1_3098)"/>
<path fill-rule="evenodd" clip-rule="evenodd" d="M6.55531 13.8198C5.90877 13.8198 5.2674 13.6647 4.73465 13.3543C3.56053 12.6664 3.01226 11.5078 3.01743 10.2923C3.01743 9.66644 3.16226 9.03024 3.44674 8.43025C5.2674 4.52513 9.25527 2.05793 13.4759 1.73724C13.7656 2.19758 14.2414 2.3993 14.7121 2.3993C15.1 2.3993 15.4776 2.26482 15.731 2.02172C16.9672 2.6062 17.5827 3.90963 17.5827 5.21823C17.5776 7.0182 16.419 8.84404 14.1069 8.90093C12.2035 8.94231 10.5639 10.1113 9.65871 12.0612C9.11045 13.2302 7.81736 13.8147 6.55014 13.8147L6.55531 13.8198Z" fill="#F0948E"/>
<path d="M14.5001 22.9335C19.1563 22.9335 22.931 19.1588 22.931 14.5026C22.931 9.8463 19.1563 6.07166 14.5001 6.07166C9.8438 6.07166 6.06915 9.8463 6.06915 14.5026C6.06915 19.1588 9.8438 22.9335 14.5001 22.9335Z" fill="#FEFEFE"/>
<path d="M12.4828 18.7129C12.276 18.7129 12.1208 18.656 12.007 18.5422C11.8932 18.4284 11.8363 18.2732 11.8363 18.0767C11.8363 17.8698 11.8932 17.7198 12.007 17.6163C12.1208 17.5129 12.2811 17.4612 12.4828 17.4612H13.807V11.663H14.5363L12.7984 12.713C12.6484 12.8009 12.5087 12.8319 12.3794 12.8112C12.2501 12.7905 12.1415 12.7388 12.0484 12.6457C11.9604 12.5578 11.8984 12.4492 11.8673 12.3199C11.8363 12.1957 11.8466 12.0664 11.8984 11.9371C11.9501 11.8078 12.0484 11.6992 12.1984 11.6112L13.8277 10.6337C13.9828 10.5406 14.1432 10.4578 14.2983 10.3906C14.4535 10.3233 14.6035 10.2923 14.7328 10.2923C14.8983 10.2923 15.038 10.3388 15.1466 10.4268C15.2552 10.5199 15.3121 10.6647 15.3121 10.8716V17.4612H16.5173C16.7242 17.4612 16.8793 17.5129 16.9983 17.6163C17.1121 17.7198 17.169 17.8698 17.169 18.0767C17.169 18.2836 17.1121 18.4387 16.9983 18.5473C16.8845 18.656 16.7242 18.7129 16.5173 18.7129H12.4777H12.4828Z" fill="black"/>
</g>
<defs>
<radialGradient id="paint0_radial_1_3098" cx="0" cy="0" r="1" gradientUnits="userSpaceOnUse" gradientTransform="translate(13.9813 11.9732) scale(15.6961 15.6958)">
<stop stop-color="#F16252"/>
<stop offset="1" stop-color="#8F3035"/>
</radialGradient>
<clipPath id="clip0_1_3098">
<rect width="28.0651" height="28" fill="white" transform="translate(0.467468 0.5)"/>
</clipPath>
</defs>
</svg>
