<svg width="18" height="18" viewBox="0 0 18 18" fill="none" xmlns="http://www.w3.org/2000/svg">
<path d="M16.5378 5.45322C16.5378 5.45322 15.3701 5.23822 14.0658 3.93389C12.7618 2.6299 12.5464 1.46191 12.5464 1.46191" stroke="#5F48E0" stroke-miterlimit="10" stroke-linecap="round" stroke-linejoin="round"/>
<path d="M10.8452 8.92371C11.8222 8.92371 12.6142 8.13171 12.6142 7.15473C12.6142 6.17774 11.8222 5.38574 10.8452 5.38574C9.86822 5.38574 9.0762 6.17774 9.0762 7.15473C9.0762 8.13171 9.86822 8.92371 10.8452 8.92371Z" stroke="#5F48E0" stroke-miterlimit="10" stroke-linecap="round" stroke-linejoin="round"/>
<path d="M6.89901 11.1008L5.12698 12.8728" stroke="#5F48E0" stroke-miterlimit="10" stroke-linecap="round" stroke-linejoin="round"/>
<path d="M8.32636 9.67407L8.11136 9.88907" stroke="#5F48E0" stroke-miterlimit="10" stroke-linecap="round" stroke-linejoin="round"/>
<path d="M4.3169 9.48901L3.29056 11.0367L3.87623 11.6223" stroke="#5F48E0" stroke-miterlimit="10" stroke-linecap="round" stroke-linejoin="round"/>
<path d="M8.51099 13.6833L6.9633 14.7097L6.37796 14.124" stroke="#5F48E0" stroke-miterlimit="10" stroke-linecap="round" stroke-linejoin="round"/>
<path d="M7.66463 12.837L8.98664 14.159C18.7348 7.96907 16.8541 1.14579 16.8541 1.14579C16.8541 1.14579 10.0307 -0.734863 3.84058 9.01306L5.16259 10.3351" stroke="#5F48E0" stroke-miterlimit="10" stroke-linecap="round" stroke-linejoin="round"/>
<path d="M7.29045 4.71593C5.16042 4.70227 4.48608 4.6866 1.00003 8.17257C2.06238 8.24391 2.74605 8.39824 3.84073 9.0129" stroke="#5F48E0" stroke-miterlimit="10" stroke-linecap="round" stroke-linejoin="round"/>
<path d="M13.2842 10.7096C13.2979 12.8396 13.3132 13.5139 9.82719 16.9999C9.75586 15.9376 9.60152 15.2539 8.98685 14.1593" stroke="#5F48E0" stroke-miterlimit="10" stroke-linecap="round" stroke-linejoin="round"/>
</svg>
