<svg width="16" height="16" viewBox="0 0 16 16" fill="none" xmlns="http://www.w3.org/2000/svg">
<g clip-path="url(#clip0_823_2858)">
<path d="M15.7539 3.77285C15.7221 3.70537 15.6649 3.65327 15.5947 3.62798C15.5246 3.6027 15.4473 3.60632 15.3798 3.63803L12.5335 4.97703C12.5001 4.99273 12.4701 5.01487 12.4452 5.04217C12.4204 5.06947 12.4011 5.10139 12.3886 5.13613C12.3761 5.17086 12.3706 5.20771 12.3723 5.24459C12.3741 5.28146 12.383 5.31763 12.3988 5.35103C12.4145 5.38445 12.4366 5.41445 12.4639 5.43931C12.4912 5.46417 12.5231 5.48341 12.5578 5.49593C12.5926 5.50845 12.6294 5.51401 12.6663 5.51228C12.7032 5.51055 12.7394 5.50157 12.7728 5.48585L15.6191 4.14685C15.6525 4.13116 15.6825 4.10903 15.7074 4.08174C15.7322 4.05444 15.7515 4.02252 15.764 3.98779C15.7765 3.95305 15.7821 3.91619 15.7803 3.87931C15.7786 3.84243 15.7696 3.80626 15.7539 3.77285Z" fill="#616161"/>
<path d="M15.9834 8.64889C16.0087 8.57873 16.005 8.50141 15.9733 8.43394C15.9415 8.36647 15.8843 8.31437 15.8141 8.2891L12.8544 7.22315C12.7842 7.19791 12.7069 7.20156 12.6394 7.2333C12.572 7.26503 12.5198 7.32226 12.4945 7.3924C12.4693 7.46257 12.4729 7.5399 12.5047 7.60738C12.5364 7.67486 12.5936 7.72699 12.6638 7.7523L15.6233 8.81814C15.658 8.83069 15.6949 8.83626 15.7318 8.83455C15.7687 8.83283 15.805 8.82386 15.8384 8.80814C15.8718 8.79242 15.9019 8.77027 15.9267 8.74294C15.9516 8.71562 15.9709 8.68365 15.9834 8.64889Z" fill="#616161"/>
<path d="M12.1441 0.487368C12.1094 0.474841 12.0725 0.469283 12.0356 0.471011C11.9987 0.472739 11.9626 0.481719 11.9292 0.497437C11.8957 0.513156 11.8658 0.535305 11.8409 0.562619C11.8161 0.589933 11.7968 0.621876 11.7843 0.656622L10.7184 3.61576C10.6931 3.68592 10.6968 3.76322 10.7285 3.83069C10.7603 3.89815 10.8175 3.95026 10.8876 3.97555C10.9224 3.98807 10.9592 3.99363 10.9961 3.9919C11.033 3.99018 11.0692 3.9812 11.1026 3.96548C11.136 3.94976 11.166 3.92761 11.1909 3.9003C11.2157 3.87298 11.2349 3.84104 11.2474 3.80629L12.3136 0.847152C12.3261 0.8124 12.3316 0.775525 12.3299 0.738633C12.3281 0.701741 12.3191 0.665556 12.3034 0.632145C12.2877 0.598733 12.2655 0.568751 12.2382 0.543909C12.2108 0.519068 12.1789 0.499855 12.1441 0.487368Z" fill="#616161"/>
<path d="M4.37683 11.0327L4.9932 12.343L5.91 11.9118C6.07823 11.8326 6.20812 11.6899 6.27112 11.5149C6.33411 11.34 6.32505 11.1472 6.24592 10.979L6.04305 10.5479L4.37683 11.0327ZM5.73722 11.2184C5.75281 11.2517 5.75458 11.2898 5.74213 11.3244C5.72969 11.359 5.70404 11.3872 5.67081 11.4029L5.26272 11.5949L5.12508 11.303L5.65858 11.0521L5.73722 11.2184Z" fill="#616161"/>
<path d="M7.33554 1.64674C7.02313 1.79378 6.83906 2.12759 6.8909 2.46892C7.12597 4.01678 5.60021 5.99883 3.17669 7.15999L1.315 8.03517C0.171122 8.57326 -0.319952 9.93671 0.218138 11.0805C0.75611 12.2242 2.11943 12.7153 3.2632 12.1775L5.12477 11.3027C7.56486 10.1758 10.0647 10.2642 11.1075 11.432C11.3374 11.6897 11.712 11.7611 12.0243 11.6137C12.1179 11.5697 12.2019 11.5077 12.2715 11.4312C12.3411 11.3547 12.395 11.2653 12.4301 11.1679C12.4651 11.0706 12.4806 10.9674 12.4758 10.864C12.4709 10.7607 12.4457 10.6594 12.4017 10.5658L8.38351 2.02415C8.3395 1.93055 8.27747 1.84654 8.20098 1.77691C8.12449 1.70729 8.03503 1.65341 7.93771 1.61836C7.84039 1.58331 7.73712 1.56778 7.6338 1.57265C7.53048 1.57752 7.42913 1.6027 7.33554 1.64674ZM11.8926 10.8048C11.918 10.8589 11.9209 10.9209 11.9006 10.9771C11.8804 11.0333 11.8386 11.0792 11.7846 11.1047C11.6952 11.1468 11.589 11.1274 11.526 11.0577C10.9139 10.3717 9.89388 9.97632 8.65385 9.94446C7.47459 9.91426 6.13736 10.2148 4.8884 10.792L3.0233 11.6692C2.16198 12.0743 1.13153 11.7031 0.726372 10.8418C0.321218 9.98043 0.692287 8.94939 1.55372 8.54458L3.41858 7.6674C4.65979 7.07277 5.74443 6.23449 6.47293 5.30676C7.23905 4.33119 7.58496 3.29345 7.44685 2.38441C7.43275 2.29179 7.4854 2.19776 7.57497 2.15556C7.62905 2.13022 7.69097 2.12735 7.74716 2.1476C7.80335 2.16785 7.84921 2.20956 7.87469 2.26358L11.8926 10.8048Z" fill="#616161"/>
<path d="M2.78021 11.7934L4.92058 15.1133C5.03979 15.298 5.22201 15.4332 5.43339 15.4938C5.64477 15.5543 5.87094 15.536 6.06987 15.4424C6.17773 15.3916 6.27453 15.3202 6.35476 15.232C6.43499 15.1438 6.49707 15.0407 6.53745 14.9286C6.57784 14.8165 6.59573 14.6975 6.59013 14.5784C6.58452 14.4593 6.55551 14.3425 6.50476 14.2347L4.88932 10.8013L2.78021 11.7934ZM5.99571 14.4745C6.0331 14.5537 6.03893 14.6443 6.01202 14.7277C5.98511 14.8112 5.92748 14.8812 5.8508 14.9238C5.77413 14.9663 5.68416 14.978 5.59914 14.9566C5.51412 14.9353 5.44041 14.8823 5.39297 14.8086L3.60098 12.0287L4.6198 11.5496L5.99571 14.4745Z" fill="#616161"/>
<path d="M3.3762 7.58636L2.86737 7.82568L4.37613 11.0334L4.88496 10.7941L3.3762 7.58636Z" fill="#616161"/>
<path d="M9.95107 5.35651L9.68402 5.48205L9.92345 5.99087L10.1904 5.86534C10.2469 5.83813 10.3083 5.8224 10.3709 5.81903C10.4335 5.81567 10.4962 5.82474 10.5553 5.84574C10.6144 5.86673 10.6688 5.89923 10.7153 5.94135C10.7618 5.98347 10.7995 6.03438 10.8262 6.09115C10.8529 6.14791 10.868 6.2094 10.8709 6.27206C10.8737 6.33473 10.864 6.39733 10.8425 6.45626C10.821 6.51518 10.788 6.56925 10.7455 6.61536C10.7029 6.66147 10.6517 6.6987 10.5947 6.72489L10.3278 6.85054L10.5672 7.35936L10.8341 7.23372C11.0831 7.11661 11.2753 6.90542 11.3685 6.64659C11.4617 6.38777 11.4483 6.10252 11.3312 5.85358C11.2732 5.73031 11.1915 5.61967 11.0908 5.52798C10.9901 5.43628 10.8723 5.36533 10.7441 5.31917C10.6159 5.27301 10.4799 5.25255 10.3439 5.25896C10.2078 5.26537 10.0743 5.29852 9.95107 5.35651Z" fill="#616161"/>
</g>
<defs>
<clipPath id="clip0_823_2858">
<rect width="16" height="15.0586" fill="white" transform="translate(0 0.470703)"/>
</clipPath>
</defs>
</svg>
