<svg width="20" height="20" viewBox="0 0 20 20" fill="none" xmlns="http://www.w3.org/2000/svg">
<path fill-rule="evenodd" clip-rule="evenodd" d="M7.25067 1.5001C10.4327 1.5001 13.0012 4.06885 13.0012 7.25067C13.0012 10.4325 10.4327 13.0012 7.25067 13.0012C4.06885 13.0012 1.5001 10.4325 1.5001 7.25067C1.5001 4.06885 4.06885 1.5001 7.25067 1.5001ZM7.25067 0.5C3.5283 0.5 0.5 3.5283 0.5 7.25067C0.5 10.973 3.5283 14.0013 7.25067 14.0013C8.93433 14.0013 10.4737 13.3835 11.6574 12.3607L18.6503 19.3534C18.8456 19.5489 19.1581 19.5489 19.3534 19.3534C19.5489 19.1581 19.5489 18.8456 19.3534 18.6503L12.3604 11.6574C13.3805 10.4745 14.0013 8.93133 14.0013 7.25067C14.0013 3.5283 10.973 0.5 7.25067 0.5Z" fill="#616161"/>
</svg>
