<svg width="14" height="14" viewBox="0 0 14 14" fill="none" xmlns="http://www.w3.org/2000/svg">
<g clip-path="url(#clip0_823_2880)">
<path d="M2.91607 14H1.05611C0.776085 13.9998 0.507604 13.8861 0.3096 13.6841C0.111595 13.482 0.000251102 13.208 0 12.9222V7.12586C0.000334775 6.84013 0.11172 6.56621 0.309716 6.3642C0.507711 6.16219 0.77614 6.0486 1.05611 6.04834H2.91607C3.19601 6.0486 3.46441 6.1622 3.66236 6.36422C3.8603 6.56624 3.97161 6.84016 3.97186 7.12586V12.9222C3.97161 13.2079 3.86031 13.4819 3.66237 13.684C3.46444 13.886 3.19604 13.9997 2.91607 14ZM1.05611 6.67453C0.938735 6.67453 0.826174 6.72211 0.74318 6.80681C0.660186 6.89152 0.613558 7.0064 0.613558 7.12618V12.9222C0.613558 13.042 0.660186 13.1569 0.74318 13.2416C0.826174 13.3263 0.938735 13.3739 1.05611 13.3739H2.91607C3.03344 13.3739 3.14601 13.3263 3.229 13.2416C3.31199 13.1569 3.35862 13.042 3.35862 12.9222V7.12586C3.35862 7.00607 3.31199 6.89119 3.229 6.80649C3.14601 6.72179 3.03344 6.6742 2.91607 6.6742L1.05611 6.67453Z" fill="#616161"/>
<path d="M12.1884 14H6.34422C5.89601 13.9995 5.46631 13.8176 5.14938 13.4941C4.83246 13.1707 4.65419 12.7321 4.65369 12.2747V7.80202C4.65515 6.8126 4.98059 5.85207 5.57829 5.07306L6.81711 3.46356C7.01726 3.20188 7.15593 2.89684 7.22246 2.5719C7.28899 2.24696 7.2816 1.91077 7.20087 1.58919C7.19444 1.56347 7.19115 1.53703 7.19107 1.51048V1.25077C7.19107 0.772989 7.43952 0.347466 7.83971 0.137769C8.10748 -0.000575719 8.41503 -0.0361577 8.70635 0.0375042C8.99767 0.111166 9.25337 0.289171 9.42688 0.539097C9.81351 1.10228 10.0632 1.7513 10.1554 2.4325C10.2476 3.11369 10.1796 3.8075 9.95699 4.45655L9.58778 5.52988H12.6591C12.9344 5.52968 13.2031 5.61593 13.4288 5.77693C13.6545 5.93793 13.8261 6.16587 13.9205 6.42985C14.0149 6.69382 14.0275 6.98104 13.9565 7.25254C13.8855 7.52404 13.7343 7.76667 13.5236 7.94752C13.6849 8.08244 13.8121 8.25478 13.8948 8.45014C13.9775 8.6455 14.0131 8.85822 13.9988 9.07052C13.9845 9.28282 13.9206 9.48854 13.8124 9.67049C13.7043 9.85244 13.5551 10.0053 13.3772 10.1164C13.4987 10.2559 13.5887 10.421 13.6408 10.5998C13.693 10.7787 13.7061 10.9671 13.6791 11.1517C13.6522 11.3362 13.5858 11.5125 13.4849 11.6681C13.3839 11.8237 13.2507 11.9548 13.0946 12.0521C13.234 12.227 13.3219 12.4386 13.3483 12.6623C13.3747 12.8861 13.3385 13.113 13.2439 13.3166C13.1492 13.5203 13 13.6924 12.8135 13.8131C12.627 13.9338 12.4108 13.9982 12.19 13.9987L12.1884 14ZM7.80462 1.47209C7.90111 1.88185 7.90574 2.30855 7.81817 2.7204C7.7306 3.13224 7.55308 3.5186 7.29885 3.85069L6.06067 5.4602C5.54788 6.12861 5.26872 6.95278 5.26756 7.8017V12.2747C5.2679 12.566 5.38144 12.8453 5.58328 13.0513C5.78512 13.2573 6.05877 13.3732 6.34422 13.3735H12.1884C12.3355 13.3735 12.4766 13.3139 12.5807 13.2077C12.6847 13.1015 12.7431 12.9575 12.7431 12.8073C12.7431 12.6572 12.6847 12.5132 12.5807 12.407C12.4766 12.3008 12.3355 12.2411 12.1884 12.2411C12.1473 12.2425 12.1063 12.2354 12.0679 12.2203C12.0296 12.2051 11.9945 12.1823 11.965 12.1531C11.9354 12.1239 11.9119 12.0889 11.8959 12.0502C11.8799 12.0116 11.8716 11.97 11.8716 11.9281C11.8716 11.8861 11.8799 11.8445 11.8959 11.8059C11.9119 11.7672 11.9354 11.7322 11.965 11.703C11.9945 11.6738 12.0296 11.651 12.0679 11.6358C12.1063 11.6207 12.1473 11.6136 12.1884 11.615H12.4413C12.5262 11.6169 12.6106 11.6015 12.6896 11.5697C12.7686 11.5378 12.8405 11.4902 12.9013 11.4296C12.962 11.369 13.0102 11.2967 13.0431 11.2168C13.0761 11.1369 13.093 11.0511 13.093 10.9644C13.093 10.8777 13.0761 10.7919 13.0431 10.7121C13.0102 10.6322 12.962 10.5598 12.9013 10.4992C12.8405 10.4386 12.7686 10.391 12.6896 10.3592C12.6106 10.3273 12.5262 10.3119 12.4413 10.3139C12.3599 10.3139 12.2818 10.2809 12.2242 10.2221C12.1667 10.1634 12.1343 10.0837 12.1343 10.0006C12.1343 9.91753 12.1667 9.83786 12.2242 9.77911C12.2818 9.72036 12.3599 9.68736 12.4413 9.68736H12.6941C12.789 9.69356 12.8841 9.67985 12.9736 9.64706C13.0631 9.61427 13.145 9.5631 13.2144 9.49673C13.2837 9.43035 13.339 9.35016 13.3768 9.26113C13.4145 9.17209 13.434 9.0761 13.434 8.97907C13.434 8.88204 13.4145 8.78605 13.3768 8.69701C13.339 8.60798 13.2837 8.52779 13.2144 8.46141C13.145 8.39503 13.0631 8.34387 12.9736 8.31108C12.8841 8.27829 12.789 8.26458 12.6941 8.27078H12.6591C12.5777 8.27078 12.4996 8.23777 12.442 8.17903C12.3845 8.12028 12.3521 8.0406 12.3521 7.95752C12.3521 7.87444 12.3845 7.79476 12.442 7.73602C12.4996 7.67727 12.5777 7.64427 12.6591 7.64427C12.756 7.64633 12.8524 7.62862 12.9426 7.59216C13.0328 7.55571 13.115 7.50125 13.1843 7.43198C13.2536 7.36271 13.3086 7.28002 13.3462 7.18876C13.3838 7.09749 13.4032 6.99949 13.4032 6.90049C13.4032 6.80149 13.3838 6.70349 13.3462 6.61222C13.3086 6.52096 13.2536 6.43827 13.1843 6.369C13.115 6.29973 13.0328 6.24527 12.9426 6.20882C12.8524 6.17236 12.756 6.15465 12.6591 6.15671H9.15439C9.10536 6.15664 9.05706 6.14459 9.01353 6.12157C8.96999 6.09855 8.93248 6.06524 8.90414 6.0244C8.8758 5.98357 8.85744 5.93641 8.8506 5.88686C8.84377 5.83731 8.84865 5.78681 8.86484 5.73958L9.37756 4.24944C9.56796 3.69441 9.62615 3.1011 9.54732 2.51858C9.4685 1.93605 9.25493 1.38104 8.92427 0.899452C8.83621 0.772634 8.70644 0.682318 8.55861 0.644954C8.41077 0.60759 8.25471 0.625664 8.11884 0.695885C7.92917 0.795572 7.80462 1.01333 7.80462 1.2511V1.47209Z" fill="#616161"/>
</g>
<defs>
<clipPath id="clip0_823_2880">
<rect width="14" height="14" fill="white"/>
</clipPath>
</defs>
</svg>
