<svg width="110" height="21" viewBox="0 0 110 21" fill="none" xmlns="http://www.w3.org/2000/svg">
<path d="M3.37762 4.1053H6.1863V15.4336C6.19354 16.3202 5.9582 17.1918 5.50573 17.9542C5.06842 18.717 4.44219 19.3544 3.68729 19.8051C2.92465 20.2566 2.05293 20.4908 1.16668 20.4821C0.773246 20.4839 0.381182 20.4355 0 20.338V17.4897C0.376491 17.6137 0.770317 17.6769 1.16668 17.677C1.75626 17.6751 2.32098 17.4393 2.73686 17.0214C3.15273 16.6035 3.38578 16.0376 3.38482 15.448L3.37762 4.1053ZM6.38074 1.6063C6.37901 1.97587 6.24929 2.33342 6.01366 2.61813C5.77803 2.90285 5.45104 3.09714 5.08831 3.16795C4.72559 3.23876 4.34953 3.18173 4.02411 3.00654C3.6987 2.83135 3.44403 2.54884 3.30342 2.20705C3.16281 1.86527 3.14496 1.48534 3.25289 1.13187C3.36082 0.778412 3.58787 0.473256 3.89542 0.268321C4.20297 0.0633866 4.57203 -0.0286703 4.9398 0.00781078C5.30757 0.0442919 5.65133 0.207058 5.91263 0.46842C6.06575 0.615278 6.18698 0.7921 6.26875 0.987869C6.35053 1.18364 6.39111 1.39416 6.38795 1.6063H6.38074Z" fill="#212121"/>
<path d="M13.0959 3.72739C14.1124 3.71595 15.1114 3.99314 15.9766 4.52679C16.8364 5.05025 17.5489 5.78382 18.0471 6.6585C18.55 7.56464 18.8139 8.58389 18.8139 9.62021C18.8139 10.6565 18.55 11.6758 18.0471 12.5819C17.5489 13.4566 16.8364 14.1902 15.9766 14.7136C15.1075 15.2388 14.1114 15.5163 13.0959 15.5163C12.0805 15.5163 11.0843 15.2388 10.2152 14.7136C9.35645 14.1901 8.64513 13.4565 8.14832 12.5819C7.64313 11.6766 7.37793 10.657 7.37793 9.62021C7.37793 8.58343 7.64313 7.56388 8.14832 6.6585C8.64513 5.78397 9.35645 5.05035 10.2152 4.52679C11.0811 3.9946 12.0796 3.71752 13.0959 3.72739V3.72739ZM16.1098 9.65803C16.1273 8.80502 15.8077 7.97952 15.2204 7.36067C14.9504 7.06186 14.6206 6.823 14.2525 6.65953C13.8844 6.49605 13.4861 6.41159 13.0833 6.41159C12.6805 6.41159 12.2822 6.49605 11.9141 6.65953C11.546 6.823 11.2163 7.06186 10.9462 7.36067C10.3759 7.98776 10.0598 8.80496 10.0598 9.65262C10.0598 10.5003 10.3759 11.3175 10.9462 11.9446C11.2163 12.2434 11.546 12.4822 11.9141 12.6457C12.2822 12.8092 12.6805 12.8937 13.0833 12.8937C13.4861 12.8937 13.8844 12.8092 14.2525 12.6457C14.6206 12.4822 14.9504 12.2434 15.2204 11.9446C15.8078 11.3301 16.1276 10.5079 16.1098 9.65803Z" fill="#212121"/>
<path d="M28.1724 4.09442H30.8335V15.0591C30.845 16.0698 30.5838 17.065 30.0773 17.9398C29.5895 18.7896 28.8929 19.501 28.0536 20.0067C27.2019 20.5231 26.2229 20.7913 25.2269 20.7809C24.2498 20.7834 23.2903 20.5208 22.4506 20.0211C21.5932 19.5166 20.8802 18.7998 20.3801 17.9398L22.6703 16.4994C22.9294 16.948 23.3019 17.3206 23.7505 17.5797C24.1986 17.8409 24.7083 17.9777 25.2269 17.9758C25.7466 17.9808 26.258 17.8452 26.7069 17.5833C27.1509 17.3293 27.5228 16.9662 27.7871 16.5282C28.0514 16.0867 28.1885 15.5808 28.1832 15.0663V14.1805C27.8787 14.6238 27.4539 14.9711 26.9589 15.1815C26.4255 15.4049 25.852 15.5165 25.2737 15.5092C24.2584 15.5153 23.2612 15.2399 22.393 14.7134C21.5287 14.1877 20.8115 13.4519 20.3081 12.5745C19.7982 11.6713 19.5303 10.6517 19.5303 9.61455C19.5303 8.57739 19.7982 7.55781 20.3081 6.65464C20.8106 5.77746 21.5281 5.04262 22.393 4.51932C23.2622 3.99549 24.2589 3.72138 25.2737 3.72713C25.7407 3.71672 26.2069 3.76879 26.66 3.88197C26.9733 3.96246 27.2747 4.08352 27.5567 4.24205C27.7887 4.38329 27.9997 4.55665 28.1832 4.75698L28.1724 4.09442ZM25.2917 12.7725C25.8171 12.7788 26.3329 12.6311 26.7753 12.3476C27.226 12.063 27.5976 11.6691 27.8555 11.2025C28.1178 10.7124 28.255 10.1651 28.255 9.60915C28.255 9.05324 28.1178 8.50593 27.8555 8.01577C27.5977 7.54815 27.2262 7.15309 26.7753 6.86709C26.3289 6.58948 25.8138 6.44235 25.2881 6.44235C24.7625 6.44235 24.2473 6.58948 23.801 6.86709C23.3484 7.15112 22.9764 7.54665 22.7207 8.01577C22.4606 8.5066 22.3246 9.05365 22.3246 9.60915C22.3246 10.1647 22.4606 10.7117 22.7207 11.2025C22.9765 11.6706 23.3486 12.065 23.801 12.3476C24.2429 12.6291 24.7569 12.7767 25.2809 12.7725H25.2917Z" fill="#212121"/>
<path d="M37.7443 3.72737C38.7606 3.7175 39.7591 3.99457 40.625 4.52676C41.483 5.05132 42.1941 5.78471 42.6919 6.65848C43.1948 7.56461 43.4587 8.58387 43.4587 9.62019C43.4587 10.6565 43.1948 11.6758 42.6919 12.5819C42.1941 13.4557 41.483 14.1891 40.625 14.7136C39.7559 15.2387 38.7598 15.5163 37.7443 15.5163C36.7289 15.5163 35.7327 15.2387 34.8636 14.7136C34.0038 14.1902 33.2913 13.4566 32.7931 12.5819C32.2902 11.6758 32.0264 10.6565 32.0264 9.62019C32.0264 8.58387 32.2902 7.56461 32.7931 6.65848C33.2913 5.7838 34.0038 5.05023 34.8636 4.52676C35.729 3.99349 36.7278 3.71632 37.7443 3.72737V3.72737ZM40.7654 9.658C40.7839 8.8055 40.4656 7.98007 39.8796 7.36065C39.6096 7.06184 39.2798 6.82298 38.9117 6.6595C38.5436 6.49603 38.1453 6.41157 37.7425 6.41157C37.3397 6.41157 36.9414 6.49603 36.5733 6.6595C36.2052 6.82298 35.8755 7.06184 35.6054 7.36065C35.0335 7.98698 34.7165 8.80447 34.7165 9.6526C34.7165 10.5007 35.0335 11.3182 35.6054 11.9446C35.8755 12.2434 36.2052 12.4822 36.5733 12.6457C36.9414 12.8092 37.3397 12.8936 37.7425 12.8936C38.1453 12.8936 38.5436 12.8092 38.9117 12.6457C39.2798 12.4822 39.6096 12.2434 39.8796 11.9446C40.463 11.3278 40.7811 10.5068 40.7654 9.658V9.658Z" fill="#212121"/>
<path d="M50.217 0.0617066C51.0807 0.0574883 51.9333 0.25736 52.7052 0.645046C53.4883 1.03852 54.1839 1.58598 54.7505 2.25464C55.3489 2.95848 55.8149 3.76489 56.126 4.63481C56.7944 6.51072 56.7944 8.5599 56.126 10.4358C55.8133 11.305 55.3474 12.1111 54.7505 12.816C54.1819 13.4825 53.4867 14.0296 52.7052 14.4256C51.9333 14.8133 51.0807 15.0131 50.217 15.0089H44.6572V0.0437012L50.217 0.0617066ZM48.9315 2.72275H47.6315V12.3803H48.9315C50.5014 12.3803 51.6273 11.941 52.3091 11.0624C52.9908 10.1838 53.3317 9.01347 53.3317 7.55152C53.3317 6.08957 52.9908 4.91928 52.3091 4.04067C51.6273 3.16206 50.5014 2.72275 48.9315 2.72275V2.72275Z" fill="#212121"/>
<path d="M63.0871 3.72737C64.1036 3.71632 65.1024 3.99349 65.9678 4.52676C66.8266 5.05033 67.5379 5.78395 68.0347 6.65848C68.5399 7.56386 68.8051 8.5834 68.8051 9.62019C68.8051 10.657 68.5399 11.6765 68.0347 12.5819C67.5379 13.4564 66.8266 14.19 65.9678 14.7136C65.0987 15.2387 64.1025 15.5163 63.0871 15.5163C62.0716 15.5163 61.0755 15.2387 60.2064 14.7136C59.3466 14.1902 58.6341 13.4566 58.1359 12.5819C57.633 11.6758 57.3691 10.6565 57.3691 9.62019C57.3691 8.58387 57.633 7.56461 58.1359 6.65848C58.6341 5.7838 59.3466 5.05023 60.2064 4.52676C61.0723 3.99457 62.0708 3.7175 63.0871 3.72737V3.72737ZM66.1046 9.658C66.1231 8.8055 65.8048 7.98007 65.2188 7.36065C64.9487 7.06184 64.619 6.82298 64.2509 6.6595C63.8828 6.49603 63.4845 6.41157 63.0817 6.41157C62.6789 6.41157 62.2806 6.49603 61.9125 6.6595C61.5444 6.82298 61.2146 7.06184 60.9446 7.36065C60.3727 7.98698 60.0557 8.80447 60.0557 9.6526C60.0557 10.5007 60.3727 11.3182 60.9446 11.9446C61.2146 12.2434 61.5444 12.4822 61.9125 12.6457C62.2806 12.8092 62.6789 12.8936 63.0817 12.8936C63.4845 12.8936 63.8828 12.8092 64.2509 12.6457C64.619 12.4822 64.9487 12.2434 65.2188 11.9446C65.8022 11.3278 66.1202 10.5068 66.1046 9.658V9.658Z" fill="#212121"/>
<path d="M78.8552 7.24174C79.5328 7.59266 80.0572 8.18114 80.328 8.89454C80.5261 9.42235 80.6191 9.98383 80.6016 10.5473C80.5996 10.9152 80.5695 11.2823 80.5116 11.6456C80.4444 12.057 80.3233 12.4577 80.1515 12.8375C79.982 13.2399 79.7376 13.6065 79.4314 13.9178C79.0764 14.2656 78.6518 14.5343 78.1855 14.7063C77.5813 14.9206 76.943 15.0219 76.3022 15.0052H69.9971V0.0435989H75.8845C76.5968 0.0315135 77.3014 0.193434 77.937 0.515312C78.5181 0.815154 79.0072 1.26687 79.3521 1.82243C79.7008 2.39311 79.8795 3.05143 79.8671 3.72009C79.8671 5.31888 79.2225 6.38233 77.9334 6.91046C78.2528 6.9835 78.5623 7.09473 78.8552 7.24174V7.24174ZM72.8958 2.67224V6.09306H75.0563C75.5099 6.09306 75.945 5.91286 76.2657 5.5921C76.5865 5.27133 76.7667 4.83628 76.7667 4.38265C76.7667 3.92902 76.5865 3.49397 76.2657 3.17321C75.945 2.85244 75.5099 2.67224 75.0563 2.67224H72.8958ZM72.8958 8.69289V12.373H75.7225C75.9507 12.3761 76.177 12.3305 76.3863 12.2392C76.5955 12.1479 76.7829 12.0131 76.936 11.8437C77.1011 11.6715 77.2304 11.4683 77.3163 11.2457C77.4022 11.0232 77.4431 10.7858 77.4365 10.5473C77.4346 10.0567 77.2391 9.58667 76.8925 9.23941C76.5459 8.89214 76.0763 8.69574 75.5856 8.69289H72.8958Z" fill="#212121"/>
<path d="M84.0586 10.5617C84.1847 11.1839 84.5409 11.7356 85.0561 12.1065C85.6058 12.5386 86.4952 12.7547 87.7243 12.7547C88.7891 12.7792 89.8402 12.5115 90.7634 11.9805V14.8612C89.7912 15.3941 88.3292 15.5838 86.3776 15.4301C84.9571 15.2792 83.6493 14.5867 82.7263 13.4965C81.7495 12.3744 81.2248 10.9293 81.2541 9.44194C81.2834 7.95459 81.8646 6.53125 82.8847 5.44851C83.3799 4.90026 83.9859 4.46334 84.6625 4.16663C85.3391 3.86992 86.0709 3.72018 86.8097 3.72729C88.1348 3.72729 89.1346 4.03336 89.8092 4.64551C90.4604 5.2225 90.9359 5.97128 91.1811 6.80603C91.408 7.55492 91.5292 8.3318 91.5412 9.11419C91.5547 9.59497 91.5366 10.0761 91.4872 10.5545L84.0586 10.5617ZM88.9018 8.22478C88.9171 7.94716 88.8733 7.66946 88.7734 7.41001C88.6734 7.15055 88.5196 6.91525 88.322 6.71962C87.8414 6.3199 87.2243 6.12238 86.6008 6.16868C85.8964 6.17948 85.2247 6.46808 84.732 6.97168C84.3652 7.30776 84.1037 7.74306 83.9794 8.22478H88.9018Z" fill="#212121"/>
<path d="M105.318 3.71284C105.918 3.69644 106.512 3.82935 107.048 4.09963C107.583 4.36991 108.043 4.76907 108.386 5.26121C108.743 5.7651 109.007 6.32839 109.167 6.92482C109.347 7.57931 109.435 8.25544 109.43 8.9341V15.0088H106.665V8.72885C106.677 8.12312 106.452 7.5366 106.038 7.09406C105.867 6.88266 105.65 6.71221 105.404 6.59512C105.159 6.47804 104.89 6.41728 104.618 6.41728C104.345 6.41728 104.077 6.47804 103.831 6.59512C103.585 6.71221 103.369 6.88266 103.197 7.09406C102.783 7.5366 102.559 8.12312 102.571 8.72885V15.0088H99.6899V8.61722C99.6663 8.03025 99.4295 7.47202 99.0237 7.04725C98.8489 6.84571 98.6321 6.68492 98.3886 6.57618C98.145 6.46745 97.8805 6.41341 97.6138 6.41787C97.3471 6.42233 97.0846 6.48519 96.8448 6.60201C96.605 6.71884 96.3937 6.88679 96.2258 7.09406C95.8147 7.53798 95.5914 8.12389 95.6029 8.72885V15.0088H92.8086V4.09453H95.5129V4.72829C95.7059 4.53307 95.9224 4.36253 96.1574 4.22056C96.4329 4.0644 96.7268 3.94343 97.0324 3.86048C97.4617 3.75093 97.9038 3.70006 98.3467 3.70924C99.0163 3.69185 99.6777 3.85876 100.259 4.19176C100.801 4.51518 101.255 4.96797 101.58 5.50968C101.674 5.3645 101.782 5.22829 101.901 5.10278C102.116 4.87284 102.357 4.66972 102.621 4.49783C102.968 4.26192 103.346 4.0753 103.744 3.94329C104.252 3.77824 104.784 3.70032 105.318 3.71284V3.71284Z" fill="#212121"/>
</svg>
