<svg width="15" height="15" viewBox="0 0 15 15" fill="none" xmlns="http://www.w3.org/2000/svg">
<path d="M11.8338 5.44092C12.4083 5.44092 12.9593 5.66914 13.3656 6.07539C13.7718 6.48164 14 7.03263 14 7.60715C14 8.18168 13.7718 8.73266 13.3656 9.13891C12.9593 9.54516 12.4083 9.77338 11.8338 9.77338V5.44092Z" stroke="#616161" stroke-width="0.8" stroke-linecap="round" stroke-linejoin="round"/>
<path d="M3.16624 5.44092C2.59172 5.44092 2.04072 5.66914 1.63447 6.07539C1.22823 6.48164 1 7.03263 1 7.60715C1 8.18168 1.22823 8.73266 1.63447 9.13891C2.04072 9.54516 2.59172 9.77338 3.16624 9.77338V5.44092Z" stroke="#616161" stroke-width="0.8" stroke-linecap="round" stroke-linejoin="round"/>
<path d="M3.16621 5.4411C3.15207 4.86306 3.25371 4.28804 3.46514 3.74987C3.67658 3.2117 3.99354 2.72126 4.39736 2.30743C4.80119 1.8936 5.28373 1.56474 5.81656 1.34021C6.3494 1.11567 6.92177 1 7.49998 1C8.07819 1 8.65057 1.11567 9.1834 1.34021C9.71624 1.56474 10.1988 1.8936 10.6026 2.30743C11.0064 2.72126 11.3234 3.2117 11.5348 3.74987C11.7463 4.28804 11.8479 4.86306 11.8338 5.4411" stroke="#616161" stroke-width="0.8" stroke-linecap="round" stroke-linejoin="round"/>
<path d="M8.55719 13.0499C9.4262 13.0499 10.2596 12.7047 10.8741 12.0902C11.4886 11.4757 11.8338 10.6423 11.8338 9.77332" stroke="#616161" stroke-width="0.8" stroke-linecap="round" stroke-linejoin="round"/>
<path d="M8.55719 13.0505C8.5577 13.26 8.49606 13.4649 8.38007 13.6393C8.26407 13.8137 8.09894 13.9497 7.90558 14.0302C7.71221 14.1108 7.4993 14.1321 7.29381 14.0915C7.08832 14.051 6.89947 13.9504 6.75118 13.8025C6.60289 13.6545 6.50183 13.4659 6.46077 13.2606C6.41972 13.0552 6.44054 12.8422 6.52057 12.6486C6.60061 12.4551 6.73627 12.2896 6.91039 12.1732C7.08451 12.0568 7.28926 11.9946 7.49871 11.9946C7.77899 11.9946 8.04782 12.1058 8.24625 12.3037C8.44468 12.5017 8.5565 12.7702 8.55719 13.0505Z" stroke="#616161" stroke-width="0.8" stroke-linecap="round" stroke-linejoin="round"/>
</svg>
