<svg width="24" height="24" viewBox="0 0 24 24" fill="none" xmlns="http://www.w3.org/2000/svg">
<path d="M23.0553 9.61807C23.0397 8.9775 22.9916 8.33812 22.9112 7.70241C22.8088 6.74517 22.6537 5.7943 22.4467 4.85412C22.3227 4.26807 22.1394 3.69617 21.8994 3.14731C21.5342 2.34515 20.9389 1.6696 20.189 1.20644C19.5128 0.76101 18.7423 0.478729 17.9384 0.381841C17.2183 0.29542 16.5233 0.201795 15.8139 0.136979C15.3746 0.100971 14.9353 0.0757625 14.4924 0.0505564C13.477 -0.0142593 12.4615 -0.00345691 11.4461 0.0109466C10.7511 0.0109466 10.0561 0.0685631 9.36116 0.126177C8.66619 0.183791 7.8812 0.263011 7.14662 0.363836C6.11296 0.475355 5.09267 0.687613 4.10029 0.997587C3.39542 1.22457 2.73072 1.56118 2.13061 1.99503C1.36331 2.55871 0.783588 3.34045 0.467009 4.23837C0.242145 4.86584 0.105213 5.52142 0.0601106 6.18644C-0.0479155 7.60879 0.0241023 9.03473 0.0169006 10.4607C0.0169006 11.008 0.0385056 11.5409 0.0673125 12.1027C0.110523 12.9345 0.168137 13.7627 0.26176 14.5909C0.391141 15.8696 0.615006 17.137 0.931521 18.3826C1.17632 19.3793 1.57739 20.3309 2.11981 21.2021C2.42837 21.6611 2.81037 22.0662 3.25048 22.4012C4.01401 23.018 4.88594 23.4869 5.8215 23.7839C6.31921 23.9532 6.8451 24.0242 7.36988 23.9928L6.85495 23.8019C6.3779 23.6105 5.94622 23.3213 5.58775 22.9529C5.22928 22.5845 4.95195 22.1451 4.77365 21.663C4.61803 21.2909 4.49748 20.9052 4.41356 20.5107L5.52263 20.716C6.08797 20.8132 6.6533 20.8924 7.22224 20.9644C7.8632 21.0508 8.51135 21.1049 9.15951 21.1625C9.44038 21.1877 9.72485 21.2021 10.0093 21.2129C10.4054 21.2129 10.8015 21.2309 11.194 21.2489C11.5865 21.2669 11.8926 21.2705 12.2419 21.2489C12.8216 21.2489 13.4049 21.2273 13.9847 21.1949C14.7049 21.1589 15.3998 21.1049 16.1056 21.022C17.0234 20.9442 17.9322 20.7827 18.8206 20.5395C19.5108 20.3467 20.1509 20.0064 20.6967 19.5421C21.1005 19.1768 21.438 18.7443 21.6941 18.2638C22.1021 17.4718 22.3851 16.6216 22.5331 15.7432C22.6628 15.077 22.7744 14.4072 22.8572 13.7339C22.9184 13.2441 22.958 12.7472 22.9977 12.2539C23.0841 11.3861 23.0697 10.5039 23.0553 9.61807ZM5.97634 8.46939C5.94799 8.58899 5.88324 8.69685 5.79101 8.77811C5.69879 8.85937 5.58364 8.91003 5.46142 8.9231H5.42181C5.32693 8.93116 5.2315 8.91643 5.14347 8.88015C5.05544 8.84386 4.97734 8.78707 4.9157 8.7145C4.85405 8.64194 4.81063 8.55569 4.78905 8.46295C4.76748 8.37021 4.76837 8.27365 4.79166 8.18132C4.91444 7.68038 5.19138 7.23063 5.58343 6.89549C5.97548 6.56035 6.46284 6.35675 6.97678 6.31339C7.49073 6.27003 8.00531 6.3891 8.44797 6.65382C8.89062 6.91854 9.239 7.31554 9.44398 7.78883C9.48289 7.87554 9.50044 7.97033 9.49514 8.06522C9.48984 8.16012 9.46185 8.25236 9.41352 8.3342C9.36519 8.41604 9.29793 8.48509 9.21739 8.53556C9.13686 8.58603 9.04539 8.61644 8.95066 8.62423H8.91105C8.78776 8.63369 8.66463 8.60397 8.55923 8.53931C8.45383 8.47464 8.37154 8.37834 8.32411 8.26415C8.21866 8.02816 8.04243 7.83081 7.81983 7.69944C7.59722 7.56807 7.33927 7.50919 7.08172 7.53095C6.82416 7.55271 6.57974 7.65403 6.38234 7.82088C6.18493 7.98774 6.0443 8.21186 5.97994 8.46219L5.97634 8.46939ZM16.6493 11.6598C16.3465 12.6399 15.7578 13.5073 14.9588 14.1506C14.1597 14.794 13.1867 15.184 12.1645 15.2707C11.1423 15.3573 10.1175 15.1367 9.22159 14.6371C8.32562 14.1374 7.59933 13.3815 7.13582 12.4664C7.09757 12.3883 7.07661 12.3028 7.07437 12.2159C7.07213 12.1289 7.08866 12.0425 7.12284 11.9626C7.15701 11.8826 7.20803 11.8109 7.27241 11.7525C7.33679 11.694 7.41303 11.6501 7.49591 11.6238C7.55979 11.6025 7.62664 11.5916 7.69396 11.5913C7.80733 11.5906 7.91864 11.6216 8.01535 11.6808C8.11205 11.74 8.19031 11.825 8.24129 11.9262C8.597 12.621 9.15143 13.1942 9.83397 13.5728C10.5165 13.9514 11.2963 14.1183 12.074 14.0523C12.8517 13.9862 13.5922 13.6902 14.2012 13.202C14.8101 12.7137 15.26 12.0553 15.4934 11.3105C15.5351 11.1704 15.6258 11.0499 15.7489 10.9711C15.8721 10.8924 16.0195 10.8606 16.1641 10.8816C16.3088 10.9025 16.4411 10.9749 16.5368 11.0854C16.6325 11.1959 16.6852 11.3371 16.6853 11.4833C16.6823 11.5436 16.6702 11.6031 16.6493 11.6598V11.6598ZM17.7512 7.88605H17.7044C17.5812 7.89496 17.4583 7.86501 17.353 7.80041C17.2477 7.73582 17.1653 7.63983 17.1174 7.52597C17.012 7.28998 16.8358 7.09263 16.6132 6.96126C16.3906 6.82989 16.1326 6.77101 15.875 6.79277C15.6175 6.81453 15.3731 6.91585 15.1757 7.08271C14.9783 7.24956 14.8376 7.47368 14.7733 7.72402C14.7452 7.8444 14.6801 7.95293 14.587 8.03433C14.494 8.11573 14.3778 8.16588 14.2547 8.17772H14.2151C14.1203 8.18578 14.0248 8.17105 13.9368 8.13476C13.8488 8.09848 13.7707 8.04169 13.709 7.96912C13.6474 7.89655 13.604 7.81031 13.5824 7.71757C13.5608 7.62482 13.5617 7.52827 13.585 7.43595C13.7107 6.93693 13.9891 6.48962 14.3813 6.1565C14.7736 5.82339 15.2601 5.62109 15.7729 5.57786C16.2856 5.53463 16.7991 5.65263 17.2416 5.91538C17.6841 6.17813 18.0334 6.57252 18.2409 7.04345C18.2795 7.13038 18.297 7.22523 18.2919 7.32022C18.2867 7.4152 18.2591 7.50761 18.2113 7.58986C18.1635 7.6721 18.0969 7.74183 18.0169 7.79332C17.9369 7.84481 17.8458 7.8766 17.7512 7.88605V7.88605Z" fill="#3D9242"/>
</svg>
