<svg width="25" height="25" viewBox="0 0 25 25" fill="none" xmlns="http://www.w3.org/2000/svg">
<path d="M16.3641 18.095C15.5741 18.095 14.8941 17.98 14.3241 17.75C13.7641 17.52 13.3341 17.185 13.0341 16.745C12.7441 16.305 12.5991 15.775 12.5991 15.155C12.5991 14.665 12.6991 14.23 12.8991 13.85C13.0991 13.46 13.3791 13.145 13.7391 12.905C14.0991 12.665 14.5141 12.515 14.9841 12.455V12.68C14.3341 12.54 13.8141 12.235 13.4241 11.765C13.0441 11.285 12.8541 10.72 12.8541 10.07C12.8541 9.47 12.9941 8.965 13.2741 8.555C13.5641 8.135 13.9741 7.815 14.5041 7.595C15.0341 7.365 15.6541 7.25 16.3641 7.25C17.0841 7.25 17.7041 7.365 18.2241 7.595C18.7541 7.815 19.1641 8.135 19.4541 8.555C19.7441 8.965 19.8891 9.47 19.8891 10.07C19.8891 10.5 19.7991 10.9 19.6191 11.27C19.4491 11.63 19.2041 11.93 18.8841 12.17C18.5641 12.41 18.1891 12.575 17.7591 12.665V12.455C18.4691 12.555 19.0391 12.85 19.4691 13.34C19.9091 13.82 20.1291 14.425 20.1291 15.155C20.1291 15.775 19.9791 16.305 19.6791 16.745C19.3891 17.185 18.9591 17.52 18.3891 17.75C17.8291 17.98 17.1541 18.095 16.3641 18.095ZM16.3641 17.075C17.2141 17.075 17.8541 16.91 18.2841 16.58C18.7241 16.25 18.9441 15.75 18.9441 15.08C18.9441 14.42 18.7241 13.93 18.2841 13.61C17.8541 13.28 17.2141 13.115 16.3641 13.115C15.5241 13.115 14.8841 13.28 14.4441 13.61C14.0041 13.93 13.7841 14.42 13.7841 15.08C13.7841 15.75 14.0041 16.25 14.4441 16.58C14.8841 16.91 15.5241 17.075 16.3641 17.075ZM16.3641 12.095C16.8541 12.095 17.2691 12.02 17.6091 11.87C17.9591 11.71 18.2291 11.485 18.4191 11.195C18.6091 10.905 18.7041 10.565 18.7041 10.175C18.7041 9.575 18.4941 9.11 18.0741 8.78C17.6641 8.44 17.0941 8.27 16.3641 8.27C15.6341 8.27 15.0641 8.44 14.6541 8.78C14.2441 9.11 14.0391 9.575 14.0391 10.175C14.0391 10.775 14.2441 11.245 14.6541 11.585C15.0641 11.925 15.6341 12.095 16.3641 12.095Z" fill="#212121"/>
<path d="M5.195 17.96C5.015 17.96 4.875 17.915 4.775 17.825C4.675 17.725 4.625 17.59 4.625 17.42C4.625 17.25 4.675 17.125 4.775 17.045C4.875 16.955 5.015 16.91 5.195 16.91H7.145V8.405H7.79L5.615 9.845C5.485 9.915 5.36 9.945 5.24 9.935C5.13 9.925 5.035 9.885 4.955 9.815C4.885 9.735 4.835 9.645 4.805 9.545C4.775 9.435 4.78 9.325 4.82 9.215C4.86 9.095 4.945 8.995 5.075 8.915L7.145 7.55C7.275 7.47 7.4 7.405 7.52 7.355C7.64 7.305 7.76 7.28 7.88 7.28C8.02 7.28 8.135 7.325 8.225 7.415C8.325 7.495 8.375 7.625 8.375 7.805V16.91H10.175C10.355 16.91 10.495 16.955 10.595 17.045C10.695 17.125 10.745 17.25 10.745 17.42C10.745 17.6 10.695 17.735 10.595 17.825C10.495 17.915 10.355 17.96 10.175 17.96H5.195Z" fill="#212121"/>
<path d="M12.5 1.25C6.29657 1.25 1.25 6.29657 1.25 12.5C1.25 18.7034 6.29657 23.75 12.5 23.75C18.7034 23.75 23.75 18.7034 23.75 12.5C23.75 6.29657 18.7034 1.25 12.5 1.25ZM3.19174 12.5C3.19174 7.36739 7.36739 3.19174 12.5 3.19174C14.6204 3.19174 16.6185 3.88658 18.2766 5.19354L5.20087 18.2784C3.8866 16.6185 3.19174 14.6204 3.19174 12.5ZM12.5 21.8082C10.3796 21.8082 8.38148 21.1134 6.72343 19.8065L19.8035 6.7271C21.1149 8.38585 21.8083 10.3818 21.8083 12.5C21.8083 17.6326 17.6326 21.8082 12.5 21.8082Z" fill="#F70827"/>
</svg>
