<svg width="23" height="23" viewBox="0 0 23 23" fill="none" xmlns="http://www.w3.org/2000/svg">
<circle cx="11.3034" cy="11.3201" r="9.83929" stroke="#CECECE" stroke-width="0.75"/>
<path d="M6.56108 16.0542C6.45773 16.0542 6.37109 16.018 6.30117 15.9456C6.23125 15.8732 6.19629 15.7835 6.19629 15.6765C6.19629 15.5694 6.23125 15.4799 6.30117 15.4078C6.37109 15.3358 6.45773 15.2997 6.56108 15.2997H7.37485V9.32192C7.37485 8.33626 7.67652 7.46934 8.27984 6.72114C8.88315 5.97293 9.64782 5.50694 10.5738 5.32316V4.9111C10.5738 4.70152 10.6446 4.52337 10.7862 4.37666C10.9277 4.22996 11.0996 4.15662 11.3018 4.15662C11.504 4.15662 11.6764 4.22996 11.8191 4.37666C11.9617 4.52337 12.033 4.70152 12.033 4.9111V5.32316C12.959 5.50694 13.7237 5.97293 14.327 6.72114C14.9303 7.46934 15.232 8.33626 15.232 9.32192V15.2997H16.0458C16.1491 15.2997 16.2358 15.3359 16.3057 15.4083C16.3756 15.4808 16.4106 15.5705 16.4106 15.6775C16.4106 15.7845 16.3756 15.8741 16.3057 15.9461C16.2358 16.0182 16.1491 16.0542 16.0458 16.0542H6.56108ZM11.301 18.0275C10.9762 18.0275 10.6989 17.9082 10.4693 17.6695C10.2397 17.4308 10.1249 17.1439 10.1249 16.8087H12.482C12.482 17.1463 12.3664 17.4338 12.1351 17.6713C11.9038 17.9088 11.6257 18.0275 11.301 18.0275ZM8.10445 15.2997H14.5024V9.32192C14.5024 8.40493 14.1909 7.62433 13.568 6.98012C12.945 6.33591 12.1902 6.01381 11.3034 6.01381C10.4167 6.01381 9.66185 6.33591 9.03889 6.98012C8.41593 7.62433 8.10445 8.40493 8.10445 9.32192V15.2997Z" fill="#CECECE"/>
</svg>
