<svg width="16" height="16" viewBox="0 0 16 16" fill="none" xmlns="http://www.w3.org/2000/svg">
<path fill-rule="evenodd" clip-rule="evenodd" d="M7.70092 15.5351C7.78121 15.5766 7.87028 15.5982 7.96065 15.5981C8.05102 15.5982 8.1401 15.5766 8.22038 15.5351C8.30722 15.4902 8.38216 15.4253 8.43905 15.3458L8.63052 15.0791C8.78105 14.8702 8.96461 14.6872 9.17398 14.5373C9.41251 14.3687 9.69794 14.2794 9.98998 14.2818H10.0513C10.3528 14.2943 10.649 14.3648 10.9239 14.4893L11.2231 14.6242C11.3038 14.6599 11.3913 14.6781 11.4796 14.6775H11.5073C11.5973 14.6729 11.6849 14.6469 11.763 14.6019C11.841 14.5568 11.9073 14.4939 11.9564 14.4183C12.009 14.3359 12.0414 14.2421 12.0508 14.1447L12.0838 13.8183C12.1093 13.5618 12.1767 13.3112 12.2833 13.0765C12.4099 12.7991 12.6236 12.5707 12.8918 12.4258C13.1656 12.279 13.4655 12.1875 13.7745 12.1565L14.1014 12.1239C14.1987 12.1146 14.2924 12.082 14.3745 12.029C14.4503 11.9801 14.5134 11.9139 14.5586 11.8358C14.6038 11.7577 14.6297 11.67 14.6342 11.5799C14.6391 11.4825 14.6209 11.3852 14.5809 11.2962L14.446 10.9965C14.3399 10.7617 14.2731 10.511 14.2481 10.2546C14.219 9.95105 14.29 9.64631 14.4502 9.38687C14.6131 9.12166 14.827 8.89143 15.0796 8.70954L15.3462 8.51807C15.4258 8.46118 15.4907 8.38624 15.5356 8.2994C15.5766 8.21906 15.598 8.13014 15.598 8.03994C15.598 7.94973 15.5766 7.86081 15.5356 7.78047C15.4907 7.69363 15.4258 7.61869 15.3462 7.5618L15.0796 7.37034C14.8706 7.21981 14.6876 7.03625 14.5377 6.82687C14.3573 6.57132 14.2667 6.26315 14.2801 5.9506C14.2928 5.64917 14.3633 5.35297 14.4876 5.07807L14.6225 4.77887C14.6624 4.68963 14.6807 4.59224 14.6758 4.4946C14.6712 4.4046 14.6452 4.31699 14.6002 4.23893C14.5551 4.16088 14.4922 4.0946 14.4166 4.04554C14.3342 3.9929 14.2404 3.96055 14.1431 3.95114L13.8166 3.91807C13.5601 3.8925 13.3095 3.82512 13.0748 3.7186C12.7974 3.59199 12.569 3.37833 12.4241 3.11007C12.2774 2.83631 12.1859 2.53642 12.1548 2.2274L12.1222 1.90047C12.1129 1.80317 12.0803 1.70953 12.0273 1.6274C11.9784 1.55159 11.9122 1.48849 11.8341 1.44333C11.7561 1.39817 11.6683 1.37223 11.5782 1.36767H11.5511C11.4627 1.36686 11.3752 1.38505 11.2945 1.421L10.9948 1.55594C10.76 1.66201 10.5094 1.72885 10.2529 1.7538C10.2081 1.7602 10.1628 1.7602 10.1174 1.7602C9.85931 1.75966 9.60644 1.68707 9.38732 1.5506C9.12211 1.38773 8.89188 1.17381 8.70998 0.92127L8.51852 0.654603C8.46163 0.575086 8.38669 0.510199 8.29985 0.46527C8.21961 0.423918 8.13065 0.402344 8.04038 0.402344C7.95012 0.402344 7.86116 0.423918 7.78092 0.46527C7.69408 0.510199 7.61914 0.575086 7.56225 0.654603L7.37078 0.92127C7.22025 1.1302 7.03669 1.31322 6.82732 1.46314C6.58892 1.63369 6.30283 1.72476 6.00972 1.7234H5.94838C5.64692 1.71089 5.35068 1.64045 5.07585 1.51594L4.77665 1.381C4.69587 1.34529 4.60844 1.32711 4.52012 1.32767H4.49238C4.40238 1.33235 4.31477 1.35827 4.23671 1.40332C4.15866 1.44838 4.09238 1.51127 4.04332 1.58687C3.99068 1.66933 3.95833 1.76309 3.94892 1.86047L3.91585 2.18687C3.89035 2.44167 3.82352 2.69062 3.71798 2.92394C3.59137 3.20128 3.37771 3.42973 3.10945 3.5746C2.83572 3.72136 2.53581 3.81287 2.22678 3.84394L1.89985 3.87647C1.80255 3.88584 1.70891 3.9184 1.62678 3.9714C1.55097 4.02028 1.48788 4.0865 1.44271 4.16459C1.39755 4.24267 1.37161 4.33038 1.36705 4.42047C1.36216 4.51793 1.38044 4.61517 1.42038 4.7042L1.55532 5.00394C1.66139 5.23874 1.72823 5.48936 1.75318 5.7458C1.7823 6.04935 1.71131 6.3541 1.55105 6.61354C1.38818 6.87875 1.17426 7.10897 0.921717 7.29087L0.655051 7.48234C0.575534 7.53922 0.510647 7.61417 0.465718 7.701C0.424704 7.78134 0.40332 7.87027 0.40332 7.96047C0.40332 8.05067 0.424704 8.13959 0.465718 8.21994C0.510647 8.30677 0.575534 8.38171 0.655051 8.4386L0.921717 8.63007C1.13065 8.7806 1.31367 8.96416 1.46358 9.17354C1.64554 9.42948 1.73711 9.73872 1.72385 10.0525C1.71114 10.3539 1.64071 10.6501 1.51638 10.925L1.38145 11.2242C1.34154 11.3134 1.32327 11.4108 1.32812 11.5085C1.33279 11.5985 1.35872 11.6861 1.40377 11.7641C1.44882 11.8422 1.51172 11.9085 1.58732 11.9575C1.66978 12.0102 1.76354 12.0425 1.86092 12.0519L2.18732 12.085C2.44277 12.11 2.69244 12.1765 2.92652 12.2818C3.20401 12.4085 3.4325 12.6223 3.57718 12.8909C3.72387 13.1644 3.81538 13.4642 3.84652 13.773L3.87905 14.0999C3.88842 14.1972 3.92098 14.2909 3.97398 14.373C4.02286 14.4488 4.08908 14.5119 4.16717 14.5571C4.24525 14.6022 4.33296 14.6282 4.42305 14.6327H4.45025C4.53859 14.6335 4.62608 14.6154 4.70678 14.5794L5.00652 14.4445C5.24132 14.3384 5.49194 14.2716 5.74838 14.2466C5.79318 14.2402 5.83852 14.2402 5.88385 14.2402C6.14199 14.2407 6.39486 14.3133 6.61398 14.4498C6.879 14.6127 7.10905 14.8266 7.29078 15.0791L7.48225 15.3458C7.53914 15.4253 7.61408 15.4902 7.70092 15.5351ZM5.7661 11.1498C5.81979 11.1828 5.88158 11.2003 5.94461 11.2004C5.9986 11.2008 6.05192 11.1883 6.10008 11.1639C6.14825 11.1395 6.18985 11.1039 6.22141 11.0601L10.4881 5.21265C10.5165 5.17655 10.5374 5.13508 10.5495 5.09073C10.5615 5.04637 10.5645 5.00004 10.5583 4.9545C10.552 4.90897 10.5366 4.86516 10.513 4.8257C10.4895 4.78624 10.4582 4.75194 10.421 4.72485C10.3839 4.69777 10.3417 4.67844 10.2969 4.66805C10.2521 4.65765 10.2057 4.65638 10.1605 4.66433C10.1152 4.67228 10.072 4.68927 10.0334 4.7143C9.99488 4.73932 9.96177 4.77187 9.93608 4.80999L5.66941 10.6575C5.63218 10.7083 5.60977 10.7685 5.60464 10.8313C5.59952 10.8941 5.6119 10.9572 5.64039 11.0134C5.66889 11.0696 5.7124 11.1168 5.7661 11.1498ZM5.21145 4.92561C5.42982 4.77981 5.68652 4.70204 5.94909 4.70215C6.30098 4.70257 6.63833 4.84258 6.8871 5.09145C7.13587 5.34033 7.27574 5.67773 7.27603 6.02961C7.27603 6.29218 7.19816 6.54886 7.05227 6.76717C6.90638 6.98548 6.69903 7.15563 6.45644 7.25608C6.21384 7.35654 5.94691 7.3828 5.68939 7.33153C5.43187 7.28027 5.19534 7.15379 5.00971 6.96809C4.82408 6.78238 4.6977 6.5458 4.64654 6.28826C4.59538 6.03072 4.62174 5.7638 4.72229 5.52125C4.82285 5.27869 4.99308 5.07141 5.21145 4.92561ZM5.70296 6.39737C5.77584 6.44597 5.8615 6.47185 5.94909 6.47175C6.06631 6.47161 6.17869 6.42498 6.26157 6.34209C6.34446 6.25921 6.39109 6.14683 6.39123 6.02961C6.39133 5.94202 6.36545 5.85636 6.31685 5.78348C6.26825 5.7106 6.19912 5.65378 6.11821 5.62021C6.0373 5.58664 5.94825 5.57783 5.86233 5.59489C5.77641 5.61196 5.69749 5.65413 5.63555 5.71607C5.57361 5.77801 5.53144 5.85693 5.51437 5.94285C5.49731 6.02877 5.50612 6.11782 5.53969 6.19873C5.57326 6.27964 5.63008 6.34877 5.70296 6.39737ZM10.2523 8.52246C9.98972 8.52246 9.73307 8.60032 9.51477 8.74618C9.29647 8.89204 9.12633 9.09937 9.02585 9.34193C8.92538 9.58449 8.89909 9.8514 8.95031 10.1089C9.00153 10.3664 9.12796 10.6029 9.31361 10.7886C9.49926 10.9742 9.73579 11.1007 9.9933 11.1519C10.2508 11.2031 10.5177 11.1768 10.7603 11.0763C11.0028 10.9759 11.2102 10.8057 11.356 10.5874C11.5019 10.3691 11.5797 10.1125 11.5797 9.84993C11.5793 9.49799 11.4393 9.16059 11.1905 8.91173C10.9416 8.66288 10.6042 8.52288 10.2523 8.52246ZM10.2523 10.2926C10.1647 10.2926 10.0791 10.2666 10.0063 10.218C9.93354 10.1694 9.87681 10.1002 9.8433 10.0193C9.8098 9.93844 9.80103 9.84944 9.81811 9.76357C9.83519 9.6777 9.87735 9.59882 9.93926 9.53692C10.0012 9.47501 10.08 9.43285 10.1659 9.41577C10.2518 9.39869 10.3408 9.40745 10.4217 9.44096C10.5026 9.47446 10.5717 9.5312 10.6203 9.604C10.669 9.67679 10.6949 9.76238 10.6949 9.84993C10.695 9.9081 10.6836 9.96572 10.6614 10.0195C10.6392 10.0733 10.6066 10.1221 10.5655 10.1633C10.5244 10.2044 10.4755 10.2371 10.4218 10.2594C10.3681 10.2817 10.3104 10.2931 10.2523 10.2931V10.2926Z" fill="black"/>
</svg>
