<?xml version="1.0" encoding="UTF-8"?>
<!DOCTYPE svg PUBLIC "-//W3C//DTD SVG 1.1//EN" "http://www.w3.org/Graphics/SVG/1.1/DTD/svg11.dtd">
<!-- Creator: CorelDRAW -->
<svg xmlns="http://www.w3.org/2000/svg" xml:space="preserve" width="3.5996mm" height="4.339mm" version="1.1" style="shape-rendering:geometricPrecision; text-rendering:geometricPrecision; image-rendering:optimizeQuality; fill-rule:evenodd; clip-rule:evenodd"
viewBox="0 0 20.37 24.55"
 xmlns:xlink="http://www.w3.org/1999/xlink"
 xmlns:xodm="http://www.corel.com/coreldraw/odm/2003">
 <defs>
  <style type="text/css">
   <![CDATA[
    .fil0 {fill:#212121;fill-rule:nonzero}
   ]]>
  </style>
 </defs>
 <g id="Camada_x0020_1">
  <metadata id="CorelCorpID_0Corel-Layer"/>
  <path class="fil0" d="M20.13 17.89c0.07,0.26 0.13,0.52 0.16,0.78l0.05 0.4 0.03 0.47c0.01,0.27 -0.04,0.53 -0.13,0.76 -0.09,0.24 -0.23,0.46 -0.42,0.65 -0.18,0.19 -0.4,0.34 -0.64,0.44 -0.24,0.1 -0.49,0.15 -0.76,0.15l-4.13 0c-0.14,0.32 -0.31,0.62 -0.5,0.91 -0.23,0.34 -0.48,0.64 -0.76,0.91 -0.41,0.39 -0.86,0.68 -1.33,0.88 -0.48,0.2 -0.99,0.31 -1.5,0.31 -0.52,0 -1.02,-0.1 -1.5,-0.31 -0.47,-0.2 -0.92,-0.5 -1.33,-0.88 -0.28,-0.26 -0.53,-0.57 -0.76,-0.91 -0.19,-0.28 -0.36,-0.59 -0.5,-0.91l-4.16 0c-0.26,0 -0.52,-0.05 -0.76,-0.15 -0.24,-0.1 -0.45,-0.25 -0.64,-0.44 -0.18,-0.19 -0.33,-0.41 -0.42,-0.65 -0.09,-0.24 -0.13,-0.5 -0.13,-0.76l0.03 -0.47 0.05 -0.4c0.04,-0.26 0.09,-0.52 0.17,-0.78 0.07,-0.26 0.16,-0.52 0.27,-0.77 0.14,-0.34 0.32,-0.68 0.53,-1.01 0.21,-0.32 0.44,-0.63 0.7,-0.91 0.17,-0.19 0.31,-0.4 0.42,-0.64 0.11,-0.25 0.2,-0.53 0.26,-0.87 0.06,-0.33 0.1,-0.69 0.12,-1.06 0.02,-0.38 0.03,-0.76 0.03,-1.14 0.01,-0.3 0.02,-0.6 0.01,-0.9 -0.01,-0.39 -0.01,-0.99 0.05,-1.69 0.07,-0.71 0.22,-1.54 0.53,-2.37 0.18,-0.48 0.41,-0.94 0.67,-1.36 0.26,-0.42 0.57,-0.8 0.91,-1.15 0.34,-0.34 0.71,-0.64 1.13,-0.91 0.37,-0.24 0.76,-0.44 1.18,-0.62 0.07,-0.3 0.18,-0.58 0.31,-0.83 0.14,-0.28 0.33,-0.54 0.53,-0.75 0.29,-0.3 0.63,-0.53 1.01,-0.68 0.38,-0.15 0.8,-0.23 1.26,-0.23 0.47,0 0.89,0.08 1.27,0.23 0.39,0.15 0.73,0.38 1.02,0.68 0.21,0.22 0.39,0.47 0.54,0.75 0.13,0.26 0.24,0.54 0.31,0.83 0.42,0.18 0.82,0.38 1.18,0.62 0.41,0.27 0.79,0.57 1.13,0.91 0.34,0.35 0.65,0.73 0.92,1.15 0.26,0.42 0.49,0.87 0.67,1.36 0.31,0.83 0.46,1.66 0.53,2.37 0.07,0.7 0.06,1.3 0.06,1.69 -0.01,0.29 -0,0.61 0.01,0.89 0.01,0.77 0.02,1.54 0.15,2.21 0.06,0.33 0.15,0.62 0.26,0.87 0.11,0.24 0.25,0.46 0.42,0.64 0.26,0.29 0.5,0.59 0.7,0.91 0.21,0.32 0.39,0.66 0.53,1.01 0.1,0.25 0.19,0.51 0.27,0.77zm-9.93 5.27c0.67,0 1.33,-0.26 1.89,-0.79 0.17,-0.16 0.34,-0.35 0.49,-0.56l0.17 -0.26 -5.1 0 0.17 0.26c0.15,0.21 0.31,0.4 0.49,0.56 0.56,0.53 1.23,0.79 1.89,0.79zm8.45 -3.03c0.07,-0.03 0.13,-0.07 0.19,-0.13 0.05,-0.06 0.1,-0.12 0.12,-0.19 0.03,-0.07 0.04,-0.15 0.04,-0.22l-0.02 -0.4 -0.04 -0.31c-0.03,-0.21 -0.07,-0.42 -0.13,-0.62 -0.06,-0.2 -0.13,-0.41 -0.21,-0.61 -0.12,-0.28 -0.26,-0.55 -0.42,-0.8 -0.16,-0.26 -0.35,-0.5 -0.56,-0.73 -0.26,-0.29 -0.47,-0.61 -0.64,-0.97 -0.17,-0.36 -0.29,-0.76 -0.38,-1.21 -0.08,-0.39 -0.12,-0.81 -0.14,-1.22 -0.02,-0.4 -0.03,-0.81 -0.03,-1.21l-0.01 -0.95c0.01,-0.7 0.03,-2.14 -0.5,-3.56 -0.15,-0.39 -0.33,-0.76 -0.54,-1.1 -0.21,-0.33 -0.46,-0.64 -0.73,-0.92 -0.29,-0.29 -0.62,-0.55 -0.98,-0.78 -0.36,-0.23 -0.76,-0.42 -1.2,-0.58l-0.39 -0.14c-0.03,-0.21 -0.05,-0.42 -0.1,-0.63 -0.05,-0.21 -0.11,-0.4 -0.2,-0.57 -0.08,-0.17 -0.19,-0.31 -0.3,-0.43 -0.16,-0.16 -0.34,-0.28 -0.55,-0.37 -0.22,-0.08 -0.47,-0.13 -0.74,-0.13 -0.28,0 -0.53,0.05 -0.75,0.13 -0.21,0.08 -0.4,0.2 -0.55,0.37 -0.12,0.12 -0.22,0.27 -0.3,0.43 -0.09,0.17 -0.15,0.36 -0.2,0.57 -0.04,0.21 -0.07,0.42 -0.1,0.63l-0.39 0.14c-0.43,0.16 -0.83,0.35 -1.19,0.57 -0.36,0.23 -0.69,0.48 -0.98,0.78 -0.27,0.27 -0.52,0.58 -0.73,0.92 -0.21,0.34 -0.39,0.7 -0.54,1.1 -0.26,0.71 -0.39,1.42 -0.45,2.04 -0.06,0.63 -0.05,1.17 -0.05,1.52 0,0.31 -0.01,0.61 -0.01,0.92 -0.01,0.42 -0.01,0.84 -0.03,1.24 -0.02,0.42 -0.06,0.83 -0.14,1.22 -0.09,0.45 -0.21,0.85 -0.38,1.21 -0.17,0.36 -0.38,0.68 -0.64,0.97 -0.21,0.23 -0.4,0.47 -0.56,0.73 -0.16,0.25 -0.3,0.52 -0.42,0.8 -0.08,0.2 -0.16,0.41 -0.21,0.61 -0.06,0.2 -0.1,0.41 -0.13,0.61l-0.04 0.32 -0.02 0.4c-0,0.08 0.01,0.16 0.04,0.22 0.03,0.07 0.07,0.14 0.12,0.19 0.05,0.06 0.12,0.1 0.19,0.13 0.07,0.03 0.14,0.04 0.22,0.04l16.49 0c0.08,0 0.15,-0.02 0.22,-0.04z"/>
 </g>
</svg>
